M48
;DRILL file {KiCad (5.0.1)-4} date 12/02/2019 9:30:33
;FORMAT={-:-/ absolute / inch / decimal}
FMAT,2
INCH,TZ
T1C0.0157
T2C0.0315
T3C0.0394
T4C0.0433
T5C0.0591
T6C0.0630
T7C0.0669
T8C0.1378
%
G90
G05
M72
T1
X4.674Y-3.676
X4.86Y-3.28
X4.944Y-3.33
X4.95Y-4.89
X5.06Y-3.132
X5.214Y-3.232
X5.24Y-5.04
X5.272Y-2.964
X5.278Y-3.342
X5.61Y-5.07
X4.914Y-4.642
X5.546Y-3.022
X6.34Y-4.52
X5.984Y-5.038
X4.954Y-2.81
X4.478Y-2.654
X4.732Y-4.89
X4.902Y-4.214
X4.51Y-5.242
X5.62Y-3.794
X6.982Y-3.878
X4.3Y-4.054
X5.038Y-4.896
X4.416Y-2.992
X5.55Y-3.308
X5.164Y-3.76
X5.466Y-4.528
X4.944Y-3.188
X7.572Y-3.454
X4.482Y-3.654
X4.5Y-4.888
X7.022Y-4.514
X5.592Y-2.702
X6.492Y-2.698
X4.646Y-4.014
X4.298Y-4.476
X6.924Y-5.028
X6.5Y-3.466
X7.572Y-4.236
X6.264Y-5.016
T2
X5.4Y-4.296
X5.4Y-4.896
X5.5Y-4.296
X5.5Y-4.896
X5.6Y-4.296
X5.6Y-4.896
X5.7Y-4.296
X5.7Y-4.896
X5.8Y-4.296
X5.8Y-4.896
X5.9Y-4.296
X5.9Y-4.896
X6.Y-4.296
X6.Y-4.896
X6.1Y-4.296
X6.1Y-4.896
X6.2Y-4.296
X6.2Y-4.896
X6.3Y-4.296
X6.3Y-4.896
X6.4Y-4.296
X6.4Y-4.896
X6.5Y-4.296
X6.5Y-4.896
X6.6Y-4.296
X6.6Y-4.896
X6.7Y-4.296
X6.7Y-4.896
X6.8Y-4.296
X6.8Y-4.896
X6.9Y-4.296
X6.9Y-4.896
X7.Y-4.296
X7.Y-4.896
X7.1Y-4.296
X7.1Y-4.896
X7.2Y-4.296
X7.2Y-4.896
X7.3Y-4.296
X7.3Y-4.896
T3
X5.2011Y-5.1915
X5.2011Y-5.1915
X5.3011Y-5.1915
X5.3011Y-5.1915
X5.4011Y-5.1915
X5.4011Y-5.1915
X5.5011Y-5.1915
X5.5011Y-5.1915
X5.6011Y-5.1915
X5.6011Y-5.1915
X5.7011Y-5.1915
X5.7011Y-5.1915
X5.8011Y-5.1915
X5.8011Y-5.1915
X5.9011Y-5.1915
X5.9011Y-5.1915
X6.0011Y-5.1915
X6.0011Y-5.1915
X6.1011Y-5.1915
X6.1011Y-5.1915
X6.2011Y-5.1915
X6.2011Y-5.1915
X6.3011Y-5.1915
X6.3011Y-5.1915
X6.4011Y-5.1915
X6.4011Y-5.1915
X6.5011Y-5.1915
X6.5011Y-5.1915
X6.6011Y-5.1915
X6.6011Y-5.1915
X6.7011Y-5.1915
X6.7011Y-5.1915
X6.8011Y-5.1915
X6.8011Y-5.1915
X6.9011Y-5.1915
X6.9011Y-5.1915
X7.0011Y-5.1915
X7.0011Y-5.1915
X7.1011Y-5.1915
X7.1011Y-5.1915
T4
X3.6521Y-4.012
X3.6521Y-4.1892
X3.908Y-4.012
X3.908Y-4.1892
X3.6521Y-3.548
X3.6521Y-3.7252
X3.908Y-3.548
X3.908Y-3.7252
X3.6521Y-4.476
X3.6521Y-4.6532
X3.908Y-4.476
X3.908Y-4.6532
X3.6521Y-3.078
X3.6521Y-3.2552
X3.908Y-3.078
X3.908Y-3.2552
T5
X3.75Y-2.7
T6
X3.75Y-4.93
X3.75Y-5.2531
X3.91Y-5.08
T7
X3.65Y-2.6
X3.65Y-2.8
X3.85Y-2.6
X3.85Y-2.8
T8
X4.0877Y-2.6325
X4.0877Y-5.1915
X7.5523Y-2.6325
X7.5523Y-5.1915
T0
M30
