G04 #@! TF.FileFunction,Soldermask,Top*
%FSLAX46Y46*%
G04 Gerber Fmt 4.6, Leading zero omitted, Abs format (unit mm)*
G04 Created by KiCad (PCBNEW 4.0.7) date 09/10/18 20:42:41*
%MOMM*%
%LPD*%
G01*
G04 APERTURE LIST*
%ADD10C,0.100000*%
%ADD11O,1.900000X2.600000*%
%ADD12C,4.900000*%
%ADD13C,1.000000*%
%ADD14R,1.650000X1.400000*%
%ADD15R,1.400000X1.650000*%
%ADD16R,2.950000X3.100000*%
%ADD17R,2.350000X1.900000*%
%ADD18R,3.100000X2.950000*%
%ADD19R,2.900000X2.700000*%
%ADD20C,2.600000*%
%ADD21C,2.400000*%
%ADD22R,3.900000X2.000000*%
%ADD23R,2.000000X3.900000*%
%ADD24R,1.700000X1.100000*%
%ADD25R,2.000000X2.000000*%
%ADD26O,2.000000X2.000000*%
%ADD27R,1.600000X2.600000*%
%ADD28R,6.200000X6.800000*%
%ADD29R,2.350000X1.000000*%
%ADD30R,1.400000X1.400000*%
%ADD31R,5.120000X1.400000*%
%ADD32R,4.200000X1.400000*%
%ADD33R,1.400000X3.540000*%
%ADD34R,1.400000X4.200000*%
%ADD35R,1.050000X1.960000*%
%ADD36C,3.400000*%
%ADD37R,3.400000X3.400000*%
%ADD38C,4.400000*%
%ADD39R,1.000000X1.900000*%
%ADD40R,1.900000X1.000000*%
%ADD41R,1.900000X2.350000*%
%ADD42R,1.100000X1.700000*%
G04 APERTURE END LIST*
D10*
D11*
X180367940Y-131864100D03*
X177827940Y-131864100D03*
X175287940Y-131864100D03*
X172747940Y-131864100D03*
X170207940Y-131864100D03*
X167667940Y-131864100D03*
X165127940Y-131864100D03*
X162587940Y-131864100D03*
X160047940Y-131864100D03*
X157507940Y-131864100D03*
X154967940Y-131864100D03*
X152427940Y-131864100D03*
X149887940Y-131864100D03*
X147347940Y-131864100D03*
X144807940Y-131864100D03*
X142267940Y-131864100D03*
X139727940Y-131864100D03*
X137187940Y-131864100D03*
X134647940Y-131864100D03*
X132107940Y-131864100D03*
D12*
X191828420Y-66865500D03*
X103827580Y-66865500D03*
X103827580Y-131864100D03*
X191828420Y-131864100D03*
D11*
X132107940Y-131864100D03*
X134647940Y-131864100D03*
X137187940Y-131864100D03*
X139727940Y-131864100D03*
X142267940Y-131864100D03*
X144807940Y-131864100D03*
X147347940Y-131864100D03*
X149887940Y-131864100D03*
X152427940Y-131864100D03*
X154967940Y-131864100D03*
X157507940Y-131864100D03*
X160047940Y-131864100D03*
X162587940Y-131864100D03*
X165127940Y-131864100D03*
X167667940Y-131864100D03*
X170207940Y-131864100D03*
X172747940Y-131864100D03*
X175287940Y-131864100D03*
X177827940Y-131864100D03*
X180367940Y-131864100D03*
D13*
X178358800Y-114655600D03*
X124815600Y-117906800D03*
X127965200Y-124358400D03*
X138836400Y-115011200D03*
X114554000Y-133146800D03*
X177342800Y-98501200D03*
X192328800Y-107594400D03*
X192328800Y-87731600D03*
X164896800Y-68529200D03*
X165100000Y-88036400D03*
X118008400Y-101955600D03*
X142748000Y-96367600D03*
X142036800Y-68630800D03*
X125831600Y-71374000D03*
X113741200Y-67411600D03*
X140970000Y-84023200D03*
X140868400Y-76758800D03*
X125577600Y-80975200D03*
X112166400Y-75996800D03*
X113842800Y-92811600D03*
X131165600Y-95504000D03*
X161036000Y-114808000D03*
X159105600Y-127406400D03*
X109220000Y-102971600D03*
X124510800Y-107035600D03*
X109169200Y-113690400D03*
X114300000Y-124155200D03*
X120192800Y-124206000D03*
X151993600Y-127965200D03*
D14*
X111810800Y-68799200D03*
X111810800Y-70799200D03*
D15*
X116214400Y-70662800D03*
X114214400Y-70662800D03*
X126558800Y-68224400D03*
X128558800Y-68224400D03*
X95234000Y-121767600D03*
X93234000Y-121767600D03*
D14*
X118567200Y-77301600D03*
X118567200Y-75301600D03*
D15*
X116468400Y-79197200D03*
X114468400Y-79197200D03*
X107680000Y-126644400D03*
X105680000Y-126644400D03*
D14*
X118567200Y-81162400D03*
X118567200Y-79162400D03*
D15*
X114538000Y-83362800D03*
X112538000Y-83362800D03*
X115433600Y-116890800D03*
X117433600Y-116890800D03*
X118703600Y-83362800D03*
X116703600Y-83362800D03*
D16*
X116865400Y-130048000D03*
X123215400Y-130048000D03*
D17*
X118723000Y-95758000D03*
X115973000Y-95758000D03*
D14*
X118567200Y-85360000D03*
X118567200Y-87360000D03*
D15*
X121040400Y-116890800D03*
X119040400Y-116890800D03*
D18*
X128016000Y-115849400D03*
X128016000Y-109499400D03*
D17*
X130965800Y-127863600D03*
X128215800Y-127863600D03*
D14*
X133096000Y-86223600D03*
X133096000Y-88223600D03*
D15*
X135398000Y-87985600D03*
X137398000Y-87985600D03*
D14*
X133045200Y-78552800D03*
X133045200Y-80552800D03*
D15*
X135347200Y-80467200D03*
X137347200Y-80467200D03*
D19*
X105477200Y-122732800D03*
X101177200Y-122732800D03*
D20*
X92710000Y-66040000D03*
X92710000Y-71120000D03*
X97790000Y-71120000D03*
X97790000Y-66040000D03*
D21*
X95250000Y-68580000D03*
D22*
X111404400Y-126642800D03*
X111404400Y-131522800D03*
D23*
X122274000Y-95758000D03*
X127154000Y-95758000D03*
D24*
X127101600Y-102732800D03*
X127101600Y-104632800D03*
X116382800Y-86832400D03*
X116382800Y-88732400D03*
X131013200Y-123205200D03*
X131013200Y-125105200D03*
D21*
X99263200Y-82681200D03*
X99263200Y-78181200D03*
X92763200Y-82681200D03*
X92763200Y-78181200D03*
X99263200Y-94619200D03*
X99263200Y-90119200D03*
X92763200Y-94619200D03*
X92763200Y-90119200D03*
X99263200Y-106404800D03*
X99263200Y-101904800D03*
X92763200Y-106404800D03*
X92763200Y-101904800D03*
X99263200Y-118190400D03*
X99263200Y-113690400D03*
X92763200Y-118190400D03*
X92763200Y-113690400D03*
D25*
X185420000Y-109118400D03*
D26*
X137160000Y-124358400D03*
X182880000Y-109118400D03*
X139700000Y-124358400D03*
X180340000Y-109118400D03*
X142240000Y-124358400D03*
X177800000Y-109118400D03*
X144780000Y-124358400D03*
X175260000Y-109118400D03*
X147320000Y-124358400D03*
X172720000Y-109118400D03*
X149860000Y-124358400D03*
X170180000Y-109118400D03*
X152400000Y-124358400D03*
X167640000Y-109118400D03*
X154940000Y-124358400D03*
X165100000Y-109118400D03*
X157480000Y-124358400D03*
X162560000Y-109118400D03*
X160020000Y-124358400D03*
X160020000Y-109118400D03*
X162560000Y-124358400D03*
X157480000Y-109118400D03*
X165100000Y-124358400D03*
X154940000Y-109118400D03*
X167640000Y-124358400D03*
X152400000Y-109118400D03*
X170180000Y-124358400D03*
X149860000Y-109118400D03*
X172720000Y-124358400D03*
X147320000Y-109118400D03*
X175260000Y-124358400D03*
X144780000Y-109118400D03*
X177800000Y-124358400D03*
X142240000Y-109118400D03*
X180340000Y-124358400D03*
X139700000Y-109118400D03*
X182880000Y-124358400D03*
X137160000Y-109118400D03*
X185420000Y-124358400D03*
D27*
X115931600Y-113775600D03*
X120491600Y-113775600D03*
D28*
X118211600Y-107475600D03*
D29*
X121131600Y-76987400D03*
X121131600Y-78257400D03*
X121131600Y-79527400D03*
X121131600Y-80797400D03*
X121131600Y-82067400D03*
X121131600Y-83337400D03*
X121131600Y-84607400D03*
X121131600Y-85877400D03*
X121131600Y-87147400D03*
X121131600Y-88417400D03*
X130531600Y-88417400D03*
X130531600Y-87147400D03*
X130531600Y-85877400D03*
X130531600Y-84607400D03*
X130531600Y-83337400D03*
X130531600Y-82067400D03*
X130531600Y-80797400D03*
X130531600Y-79527400D03*
X130531600Y-78257400D03*
X130531600Y-76987400D03*
D30*
X108781600Y-65962400D03*
X145421600Y-65962400D03*
X145421600Y-99442400D03*
X108781600Y-99442400D03*
D31*
X111641600Y-65962400D03*
X111641600Y-99442400D03*
D32*
X118101600Y-65962400D03*
X118101600Y-99442400D03*
X124101600Y-65962400D03*
X124101600Y-99442400D03*
X130101600Y-65962400D03*
X130101600Y-99442400D03*
X136101600Y-65962400D03*
X136101600Y-99442400D03*
D31*
X142561600Y-65962400D03*
X142561600Y-99442400D03*
D33*
X108781600Y-68032400D03*
X145421600Y-68032400D03*
D34*
X108781600Y-73702400D03*
X145421600Y-73702400D03*
X108781600Y-79702400D03*
X145421600Y-79702400D03*
X108781600Y-85702400D03*
X145421600Y-85702400D03*
X108781600Y-91702400D03*
X145421600Y-91702400D03*
D33*
X108781600Y-97372400D03*
X145421600Y-97372400D03*
D35*
X135448000Y-77956400D03*
X136398000Y-77956400D03*
X137348000Y-77956400D03*
X137348000Y-75256400D03*
X135448000Y-75256400D03*
X136398000Y-75256400D03*
X135448000Y-85373200D03*
X136398000Y-85373200D03*
X137348000Y-85373200D03*
X137348000Y-82673200D03*
X135448000Y-82673200D03*
X136398000Y-82673200D03*
D36*
X95250000Y-133429000D03*
D37*
X95250000Y-125222000D03*
D38*
X99314000Y-129032000D03*
D39*
X110540800Y-85369400D03*
X114499800Y-90359400D03*
D40*
X118846600Y-72186800D03*
X123836600Y-68227800D03*
D13*
X175869600Y-127711200D03*
D41*
X184150000Y-128165000D03*
X184150000Y-130915000D03*
D14*
X92710000Y-108982000D03*
X92710000Y-110982000D03*
D15*
X146828000Y-127000000D03*
X148828000Y-127000000D03*
D14*
X92710000Y-97298000D03*
X92710000Y-99298000D03*
D15*
X137398000Y-127000000D03*
X135398000Y-127000000D03*
D14*
X92710000Y-85360000D03*
X92710000Y-87360000D03*
X92710000Y-73676000D03*
X92710000Y-75676000D03*
D15*
X146828000Y-129286000D03*
X148828000Y-129286000D03*
X137398000Y-129286000D03*
X135398000Y-129286000D03*
D42*
X178374000Y-128016000D03*
X180274000Y-128016000D03*
D24*
X144780000Y-128712000D03*
X144780000Y-126812000D03*
X139700000Y-128712000D03*
X139700000Y-126812000D03*
M02*
