G04 #@! TF.FileFunction,Legend,Top*
%FSLAX46Y46*%
G04 Gerber Fmt 4.6, Leading zero omitted, Abs format (unit mm)*
G04 Created by KiCad (PCBNEW 4.0.7) date 09/10/18 20:42:41*
%MOMM*%
%LPD*%
G01*
G04 APERTURE LIST*
%ADD10C,0.100000*%
%ADD11C,0.300000*%
%ADD12C,0.120000*%
%ADD13C,0.150000*%
G04 APERTURE END LIST*
D10*
D11*
X167322858Y-86808571D02*
X167822858Y-88308571D01*
X168322858Y-86808571D01*
X170751429Y-88308571D02*
X169894286Y-88308571D01*
X170322858Y-88308571D02*
X170322858Y-86808571D01*
X170180001Y-87022857D01*
X170037143Y-87165714D01*
X169894286Y-87237143D01*
X171394286Y-88165714D02*
X171465714Y-88237143D01*
X171394286Y-88308571D01*
X171322857Y-88237143D01*
X171394286Y-88165714D01*
X171394286Y-88308571D01*
X172894286Y-88308571D02*
X172037143Y-88308571D01*
X172465715Y-88308571D02*
X172465715Y-86808571D01*
X172322858Y-87022857D01*
X172180000Y-87165714D01*
X172037143Y-87237143D01*
X160179999Y-85697143D02*
X160394285Y-85768571D01*
X160751428Y-85768571D01*
X160894285Y-85697143D01*
X160965714Y-85625714D01*
X161037142Y-85482857D01*
X161037142Y-85340000D01*
X160965714Y-85197143D01*
X160894285Y-85125714D01*
X160751428Y-85054286D01*
X160465714Y-84982857D01*
X160322856Y-84911429D01*
X160251428Y-84840000D01*
X160179999Y-84697143D01*
X160179999Y-84554286D01*
X160251428Y-84411429D01*
X160322856Y-84340000D01*
X160465714Y-84268571D01*
X160822856Y-84268571D01*
X161037142Y-84340000D01*
X161679999Y-84268571D02*
X161679999Y-85482857D01*
X161751427Y-85625714D01*
X161822856Y-85697143D01*
X161965713Y-85768571D01*
X162251427Y-85768571D01*
X162394285Y-85697143D01*
X162465713Y-85625714D01*
X162537142Y-85482857D01*
X162537142Y-84268571D01*
X163251428Y-85768571D02*
X163251428Y-84268571D01*
X164108571Y-85768571D01*
X164108571Y-84268571D01*
X165965714Y-85768571D02*
X165965714Y-84268571D01*
X166822857Y-85768571D01*
X166822857Y-84268571D01*
X167822857Y-84268571D02*
X168108571Y-84268571D01*
X168251429Y-84340000D01*
X168394286Y-84482857D01*
X168465714Y-84768571D01*
X168465714Y-85268571D01*
X168394286Y-85554286D01*
X168251429Y-85697143D01*
X168108571Y-85768571D01*
X167822857Y-85768571D01*
X167680000Y-85697143D01*
X167537143Y-85554286D01*
X167465714Y-85268571D01*
X167465714Y-84768571D01*
X167537143Y-84482857D01*
X167680000Y-84340000D01*
X167822857Y-84268571D01*
X169108572Y-85768571D02*
X169108572Y-84268571D01*
X169751429Y-85697143D02*
X169965715Y-85768571D01*
X170322858Y-85768571D01*
X170465715Y-85697143D01*
X170537144Y-85625714D01*
X170608572Y-85482857D01*
X170608572Y-85340000D01*
X170537144Y-85197143D01*
X170465715Y-85125714D01*
X170322858Y-85054286D01*
X170037144Y-84982857D01*
X169894286Y-84911429D01*
X169822858Y-84840000D01*
X169751429Y-84697143D01*
X169751429Y-84554286D01*
X169822858Y-84411429D01*
X169894286Y-84340000D01*
X170037144Y-84268571D01*
X170394286Y-84268571D01*
X170608572Y-84340000D01*
X171251429Y-84982857D02*
X171751429Y-84982857D01*
X171965715Y-85768571D02*
X171251429Y-85768571D01*
X171251429Y-84268571D01*
X171965715Y-84268571D01*
X173751429Y-85768571D02*
X173751429Y-84268571D01*
X174251429Y-85340000D01*
X174751429Y-84268571D01*
X174751429Y-85768571D01*
X175465715Y-84982857D02*
X175965715Y-84982857D01*
X176180001Y-85768571D02*
X175465715Y-85768571D01*
X175465715Y-84268571D01*
X176180001Y-84268571D01*
X176608572Y-84268571D02*
X177465715Y-84268571D01*
X177037144Y-85768571D02*
X177037144Y-84268571D01*
X177965715Y-84982857D02*
X178465715Y-84982857D01*
X178680001Y-85768571D02*
X177965715Y-85768571D01*
X177965715Y-84268571D01*
X178680001Y-84268571D01*
X180180001Y-85768571D02*
X179680001Y-85054286D01*
X179322858Y-85768571D02*
X179322858Y-84268571D01*
X179894286Y-84268571D01*
X180037144Y-84340000D01*
X180108572Y-84411429D01*
X180180001Y-84554286D01*
X180180001Y-84768571D01*
X180108572Y-84911429D01*
X180037144Y-84982857D01*
X179894286Y-85054286D01*
X179322858Y-85054286D01*
X166787143Y-82442857D02*
X167287143Y-82442857D01*
X167501429Y-83228571D02*
X166787143Y-83228571D01*
X166787143Y-81728571D01*
X167501429Y-81728571D01*
X168072857Y-82800000D02*
X168787143Y-82800000D01*
X167930000Y-83228571D02*
X168430000Y-81728571D01*
X168930000Y-83228571D01*
X170144286Y-81728571D02*
X169430000Y-81728571D01*
X169358571Y-82442857D01*
X169430000Y-82371429D01*
X169572857Y-82300000D01*
X169930000Y-82300000D01*
X170072857Y-82371429D01*
X170144286Y-82442857D01*
X170215714Y-82585714D01*
X170215714Y-82942857D01*
X170144286Y-83085714D01*
X170072857Y-83157143D01*
X169930000Y-83228571D01*
X169572857Y-83228571D01*
X169430000Y-83157143D01*
X169358571Y-83085714D01*
X170858571Y-83228571D02*
X170858571Y-81728571D01*
X171858571Y-81728571D02*
X172144285Y-81728571D01*
X172287143Y-81800000D01*
X172430000Y-81942857D01*
X172501428Y-82228571D01*
X172501428Y-82728571D01*
X172430000Y-83014286D01*
X172287143Y-83157143D01*
X172144285Y-83228571D01*
X171858571Y-83228571D01*
X171715714Y-83157143D01*
X171572857Y-83014286D01*
X171501428Y-82728571D01*
X171501428Y-82228571D01*
X171572857Y-81942857D01*
X171715714Y-81800000D01*
X171858571Y-81728571D01*
X172930000Y-81728571D02*
X173787143Y-81728571D01*
X173358572Y-83228571D02*
X173358572Y-81728571D01*
D12*
X112660800Y-70299200D02*
X112660800Y-69299200D01*
X110960800Y-69299200D02*
X110960800Y-70299200D01*
X114714400Y-71512800D02*
X115714400Y-71512800D01*
X115714400Y-69812800D02*
X114714400Y-69812800D01*
X128058800Y-67374400D02*
X127058800Y-67374400D01*
X127058800Y-69074400D02*
X128058800Y-69074400D01*
X93734000Y-122617600D02*
X94734000Y-122617600D01*
X94734000Y-120917600D02*
X93734000Y-120917600D01*
X117717200Y-75801600D02*
X117717200Y-76801600D01*
X119417200Y-76801600D02*
X119417200Y-75801600D01*
X114968400Y-80047200D02*
X115968400Y-80047200D01*
X115968400Y-78347200D02*
X114968400Y-78347200D01*
X106180000Y-127494400D02*
X107180000Y-127494400D01*
X107180000Y-125794400D02*
X106180000Y-125794400D01*
X117717200Y-79662400D02*
X117717200Y-80662400D01*
X119417200Y-80662400D02*
X119417200Y-79662400D01*
X113038000Y-84212800D02*
X114038000Y-84212800D01*
X114038000Y-82512800D02*
X113038000Y-82512800D01*
X116933600Y-116040800D02*
X115933600Y-116040800D01*
X115933600Y-117740800D02*
X116933600Y-117740800D01*
X117203600Y-84212800D02*
X118203600Y-84212800D01*
X118203600Y-82512800D02*
X117203600Y-82512800D01*
X115290400Y-127648000D02*
X123690400Y-127648000D01*
X115290400Y-132448000D02*
X123690400Y-132448000D01*
X115290400Y-127648000D02*
X115290400Y-132448000D01*
X119998000Y-96808000D02*
X115748000Y-96808000D01*
X119998000Y-94708000D02*
X115748000Y-94708000D01*
X119998000Y-96808000D02*
X119998000Y-94708000D01*
X119417200Y-86860000D02*
X119417200Y-85860000D01*
X117717200Y-85860000D02*
X117717200Y-86860000D01*
X119540400Y-117740800D02*
X120540400Y-117740800D01*
X120540400Y-116040800D02*
X119540400Y-116040800D01*
X125616000Y-117424400D02*
X125616000Y-109024400D01*
X130416000Y-117424400D02*
X130416000Y-109024400D01*
X125616000Y-117424400D02*
X130416000Y-117424400D01*
X132240800Y-128913600D02*
X127990800Y-128913600D01*
X132240800Y-126813600D02*
X127990800Y-126813600D01*
X132240800Y-128913600D02*
X132240800Y-126813600D01*
X133946000Y-87723600D02*
X133946000Y-86723600D01*
X132246000Y-86723600D02*
X132246000Y-87723600D01*
X136898000Y-87135600D02*
X135898000Y-87135600D01*
X135898000Y-88835600D02*
X136898000Y-88835600D01*
X133895200Y-80052800D02*
X133895200Y-79052800D01*
X132195200Y-79052800D02*
X132195200Y-80052800D01*
X136847200Y-79617200D02*
X135847200Y-79617200D01*
X135847200Y-81317200D02*
X136847200Y-81317200D01*
X106877200Y-124882800D02*
X106877200Y-120582800D01*
X106877200Y-120582800D02*
X101177200Y-120582800D01*
X106877200Y-124882800D02*
X101177200Y-124882800D01*
X109524400Y-127352800D02*
X109524400Y-130812800D01*
X113284400Y-127352800D02*
X113284400Y-130812800D01*
X122984000Y-97638000D02*
X126444000Y-97638000D01*
X122984000Y-93878000D02*
X126444000Y-93878000D01*
X126221600Y-104282800D02*
X126221600Y-103082800D01*
X127981600Y-103082800D02*
X127981600Y-104282800D01*
X115502800Y-88382400D02*
X115502800Y-87182400D01*
X117262800Y-87182400D02*
X117262800Y-88382400D01*
X130133200Y-124755200D02*
X130133200Y-123555200D01*
X131893200Y-123555200D02*
X131893200Y-124755200D01*
X186750000Y-117738400D02*
G75*
G02X186750000Y-115738400I0J1000000D01*
G01*
X186750000Y-115738400D02*
X186750000Y-110278400D01*
X186750000Y-110278400D02*
X135830000Y-110278400D01*
X135830000Y-110278400D02*
X135830000Y-123198400D01*
X135830000Y-123198400D02*
X186750000Y-123198400D01*
X186750000Y-123198400D02*
X186750000Y-117738400D01*
X114761600Y-110545600D02*
X114761600Y-112045600D01*
X114761600Y-112045600D02*
X115031600Y-112045600D01*
X115031600Y-112045600D02*
X115031600Y-114875600D01*
X121661600Y-110545600D02*
X121661600Y-112045600D01*
X121661600Y-112045600D02*
X121391600Y-112045600D01*
X121391600Y-112045600D02*
X121391600Y-113145600D01*
D13*
X121956600Y-76127400D02*
X121956600Y-76377400D01*
X129706600Y-76127400D02*
X129706600Y-76462400D01*
X129706600Y-89277400D02*
X129706600Y-88942400D01*
X121956600Y-89277400D02*
X121956600Y-88942400D01*
X121956600Y-76127400D02*
X129706600Y-76127400D01*
X121956600Y-89277400D02*
X129706600Y-89277400D01*
X121956600Y-76377400D02*
X120156600Y-76377400D01*
X114301600Y-65712400D02*
X115901600Y-65712400D01*
X114301600Y-99692400D02*
X115901600Y-99692400D01*
X120301600Y-65712400D02*
X121901600Y-65712400D01*
X120301600Y-99692400D02*
X121901600Y-99692400D01*
X126301600Y-65712400D02*
X127901600Y-65712400D01*
X126301600Y-99692400D02*
X127901600Y-99692400D01*
X132301600Y-65712400D02*
X133901600Y-65712400D01*
X132301600Y-99692400D02*
X133901600Y-99692400D01*
X138301600Y-65712400D02*
X139901600Y-65712400D01*
X138301600Y-99692400D02*
X139901600Y-99692400D01*
X108536600Y-69902400D02*
X108536600Y-71502400D01*
X145666600Y-69902400D02*
X145666600Y-71502400D01*
X108536600Y-75902400D02*
X108536600Y-77502400D01*
X145666600Y-75902400D02*
X145666600Y-77502400D01*
X108536600Y-81902400D02*
X108536600Y-83502400D01*
X145666600Y-81902400D02*
X145666600Y-83502400D01*
X108536600Y-87902400D02*
X108536600Y-89502400D01*
X145666600Y-87902400D02*
X145666600Y-89502400D01*
X108536600Y-93902400D02*
X108536600Y-95502400D01*
X145666600Y-93902400D02*
X145666600Y-95502400D01*
D12*
X138008000Y-77506400D02*
X138008000Y-75706400D01*
X134788000Y-75706400D02*
X134788000Y-78656400D01*
X138008000Y-84923200D02*
X138008000Y-83123200D01*
X134788000Y-83123200D02*
X134788000Y-86073200D01*
D13*
X114985800Y-91084400D02*
X114985800Y-91338400D01*
X114985800Y-91338400D02*
X113969800Y-91338400D01*
X113969800Y-91338400D02*
X113969800Y-90322400D01*
X113969800Y-90322400D02*
X110223300Y-90322400D01*
X110223300Y-90322400D02*
X110032800Y-90322400D01*
X110032800Y-90322400D02*
X110032800Y-84543900D01*
X110032800Y-84543900D02*
X110032800Y-84480400D01*
X110032800Y-84480400D02*
X110032800Y-84416900D01*
X110032800Y-84416900D02*
X111048800Y-84416900D01*
X111048800Y-84416900D02*
X111048800Y-85369400D01*
X111048800Y-85369400D02*
X114985800Y-85369400D01*
X114985800Y-85369400D02*
X114985800Y-91084400D01*
X124561600Y-67741800D02*
X124815600Y-67741800D01*
X124815600Y-67741800D02*
X124815600Y-68757800D01*
X124815600Y-68757800D02*
X123799600Y-68757800D01*
X123799600Y-68757800D02*
X123799600Y-72504300D01*
X123799600Y-72504300D02*
X123799600Y-72694800D01*
X123799600Y-72694800D02*
X118021100Y-72694800D01*
X118021100Y-72694800D02*
X117957600Y-72694800D01*
X117957600Y-72694800D02*
X117894100Y-72694800D01*
X117894100Y-72694800D02*
X117894100Y-71678800D01*
X117894100Y-71678800D02*
X118846600Y-71678800D01*
X118846600Y-71678800D02*
X118846600Y-67741800D01*
X118846600Y-67741800D02*
X124561600Y-67741800D01*
D12*
X185200000Y-126890000D02*
X185200000Y-131140000D01*
X183100000Y-126890000D02*
X183100000Y-131140000D01*
X185200000Y-126890000D02*
X183100000Y-126890000D01*
X93560000Y-110482000D02*
X93560000Y-109482000D01*
X91860000Y-109482000D02*
X91860000Y-110482000D01*
X148328000Y-126150000D02*
X147328000Y-126150000D01*
X147328000Y-127850000D02*
X148328000Y-127850000D01*
X93560000Y-98798000D02*
X93560000Y-97798000D01*
X91860000Y-97798000D02*
X91860000Y-98798000D01*
X135898000Y-127850000D02*
X136898000Y-127850000D01*
X136898000Y-126150000D02*
X135898000Y-126150000D01*
X93560000Y-86860000D02*
X93560000Y-85860000D01*
X91860000Y-85860000D02*
X91860000Y-86860000D01*
X93560000Y-75176000D02*
X93560000Y-74176000D01*
X91860000Y-74176000D02*
X91860000Y-75176000D01*
X148328000Y-128436000D02*
X147328000Y-128436000D01*
X147328000Y-130136000D02*
X148328000Y-130136000D01*
X135898000Y-130136000D02*
X136898000Y-130136000D01*
X136898000Y-128436000D02*
X135898000Y-128436000D01*
X179924000Y-128896000D02*
X178724000Y-128896000D01*
X178724000Y-127136000D02*
X179924000Y-127136000D01*
X145660000Y-127162000D02*
X145660000Y-128362000D01*
X143900000Y-128362000D02*
X143900000Y-127162000D01*
X140580000Y-127162000D02*
X140580000Y-128362000D01*
X138820000Y-128362000D02*
X138820000Y-127162000D01*
D13*
X111720334Y-73001143D02*
X111672715Y-73048762D01*
X111529858Y-73096381D01*
X111434620Y-73096381D01*
X111291762Y-73048762D01*
X111196524Y-72953524D01*
X111148905Y-72858286D01*
X111101286Y-72667810D01*
X111101286Y-72524952D01*
X111148905Y-72334476D01*
X111196524Y-72239238D01*
X111291762Y-72144000D01*
X111434620Y-72096381D01*
X111529858Y-72096381D01*
X111672715Y-72144000D01*
X111720334Y-72191619D01*
X112672715Y-73096381D02*
X112101286Y-73096381D01*
X112387000Y-73096381D02*
X112387000Y-72096381D01*
X112291762Y-72239238D01*
X112196524Y-72334476D01*
X112101286Y-72382095D01*
X115022334Y-73001143D02*
X114974715Y-73048762D01*
X114831858Y-73096381D01*
X114736620Y-73096381D01*
X114593762Y-73048762D01*
X114498524Y-72953524D01*
X114450905Y-72858286D01*
X114403286Y-72667810D01*
X114403286Y-72524952D01*
X114450905Y-72334476D01*
X114498524Y-72239238D01*
X114593762Y-72144000D01*
X114736620Y-72096381D01*
X114831858Y-72096381D01*
X114974715Y-72144000D01*
X115022334Y-72191619D01*
X115403286Y-72191619D02*
X115450905Y-72144000D01*
X115546143Y-72096381D01*
X115784239Y-72096381D01*
X115879477Y-72144000D01*
X115927096Y-72191619D01*
X115974715Y-72286857D01*
X115974715Y-72382095D01*
X115927096Y-72524952D01*
X115355667Y-73096381D01*
X115974715Y-73096381D01*
X127341334Y-70588143D02*
X127293715Y-70635762D01*
X127150858Y-70683381D01*
X127055620Y-70683381D01*
X126912762Y-70635762D01*
X126817524Y-70540524D01*
X126769905Y-70445286D01*
X126722286Y-70254810D01*
X126722286Y-70111952D01*
X126769905Y-69921476D01*
X126817524Y-69826238D01*
X126912762Y-69731000D01*
X127055620Y-69683381D01*
X127150858Y-69683381D01*
X127293715Y-69731000D01*
X127341334Y-69778619D01*
X127674667Y-69683381D02*
X128293715Y-69683381D01*
X127960381Y-70064333D01*
X128103239Y-70064333D01*
X128198477Y-70111952D01*
X128246096Y-70159571D01*
X128293715Y-70254810D01*
X128293715Y-70492905D01*
X128246096Y-70588143D01*
X128198477Y-70635762D01*
X128103239Y-70683381D01*
X127817524Y-70683381D01*
X127722286Y-70635762D01*
X127674667Y-70588143D01*
X94321334Y-120118143D02*
X94273715Y-120165762D01*
X94130858Y-120213381D01*
X94035620Y-120213381D01*
X93892762Y-120165762D01*
X93797524Y-120070524D01*
X93749905Y-119975286D01*
X93702286Y-119784810D01*
X93702286Y-119641952D01*
X93749905Y-119451476D01*
X93797524Y-119356238D01*
X93892762Y-119261000D01*
X94035620Y-119213381D01*
X94130858Y-119213381D01*
X94273715Y-119261000D01*
X94321334Y-119308619D01*
X95178477Y-119546714D02*
X95178477Y-120213381D01*
X94940381Y-119165762D02*
X94702286Y-119880048D01*
X95321334Y-119880048D01*
X116038334Y-76811143D02*
X115990715Y-76858762D01*
X115847858Y-76906381D01*
X115752620Y-76906381D01*
X115609762Y-76858762D01*
X115514524Y-76763524D01*
X115466905Y-76668286D01*
X115419286Y-76477810D01*
X115419286Y-76334952D01*
X115466905Y-76144476D01*
X115514524Y-76049238D01*
X115609762Y-75954000D01*
X115752620Y-75906381D01*
X115847858Y-75906381D01*
X115990715Y-75954000D01*
X116038334Y-76001619D01*
X116943096Y-75906381D02*
X116466905Y-75906381D01*
X116419286Y-76382571D01*
X116466905Y-76334952D01*
X116562143Y-76287333D01*
X116800239Y-76287333D01*
X116895477Y-76334952D01*
X116943096Y-76382571D01*
X116990715Y-76477810D01*
X116990715Y-76715905D01*
X116943096Y-76811143D01*
X116895477Y-76858762D01*
X116800239Y-76906381D01*
X116562143Y-76906381D01*
X116466905Y-76858762D01*
X116419286Y-76811143D01*
X112355334Y-79478143D02*
X112307715Y-79525762D01*
X112164858Y-79573381D01*
X112069620Y-79573381D01*
X111926762Y-79525762D01*
X111831524Y-79430524D01*
X111783905Y-79335286D01*
X111736286Y-79144810D01*
X111736286Y-79001952D01*
X111783905Y-78811476D01*
X111831524Y-78716238D01*
X111926762Y-78621000D01*
X112069620Y-78573381D01*
X112164858Y-78573381D01*
X112307715Y-78621000D01*
X112355334Y-78668619D01*
X113212477Y-78573381D02*
X113022000Y-78573381D01*
X112926762Y-78621000D01*
X112879143Y-78668619D01*
X112783905Y-78811476D01*
X112736286Y-79001952D01*
X112736286Y-79382905D01*
X112783905Y-79478143D01*
X112831524Y-79525762D01*
X112926762Y-79573381D01*
X113117239Y-79573381D01*
X113212477Y-79525762D01*
X113260096Y-79478143D01*
X113307715Y-79382905D01*
X113307715Y-79144810D01*
X113260096Y-79049571D01*
X113212477Y-79001952D01*
X113117239Y-78954333D01*
X112926762Y-78954333D01*
X112831524Y-79001952D01*
X112783905Y-79049571D01*
X112736286Y-79144810D01*
X106640334Y-128881143D02*
X106592715Y-128928762D01*
X106449858Y-128976381D01*
X106354620Y-128976381D01*
X106211762Y-128928762D01*
X106116524Y-128833524D01*
X106068905Y-128738286D01*
X106021286Y-128547810D01*
X106021286Y-128404952D01*
X106068905Y-128214476D01*
X106116524Y-128119238D01*
X106211762Y-128024000D01*
X106354620Y-127976381D01*
X106449858Y-127976381D01*
X106592715Y-128024000D01*
X106640334Y-128071619D01*
X106973667Y-127976381D02*
X107640334Y-127976381D01*
X107211762Y-128976381D01*
X116292334Y-81637143D02*
X116244715Y-81684762D01*
X116101858Y-81732381D01*
X116006620Y-81732381D01*
X115863762Y-81684762D01*
X115768524Y-81589524D01*
X115720905Y-81494286D01*
X115673286Y-81303810D01*
X115673286Y-81160952D01*
X115720905Y-80970476D01*
X115768524Y-80875238D01*
X115863762Y-80780000D01*
X116006620Y-80732381D01*
X116101858Y-80732381D01*
X116244715Y-80780000D01*
X116292334Y-80827619D01*
X116863762Y-81160952D02*
X116768524Y-81113333D01*
X116720905Y-81065714D01*
X116673286Y-80970476D01*
X116673286Y-80922857D01*
X116720905Y-80827619D01*
X116768524Y-80780000D01*
X116863762Y-80732381D01*
X117054239Y-80732381D01*
X117149477Y-80780000D01*
X117197096Y-80827619D01*
X117244715Y-80922857D01*
X117244715Y-80970476D01*
X117197096Y-81065714D01*
X117149477Y-81113333D01*
X117054239Y-81160952D01*
X116863762Y-81160952D01*
X116768524Y-81208571D01*
X116720905Y-81256190D01*
X116673286Y-81351429D01*
X116673286Y-81541905D01*
X116720905Y-81637143D01*
X116768524Y-81684762D01*
X116863762Y-81732381D01*
X117054239Y-81732381D01*
X117149477Y-81684762D01*
X117197096Y-81637143D01*
X117244715Y-81541905D01*
X117244715Y-81351429D01*
X117197096Y-81256190D01*
X117149477Y-81208571D01*
X117054239Y-81160952D01*
X113244334Y-81764143D02*
X113196715Y-81811762D01*
X113053858Y-81859381D01*
X112958620Y-81859381D01*
X112815762Y-81811762D01*
X112720524Y-81716524D01*
X112672905Y-81621286D01*
X112625286Y-81430810D01*
X112625286Y-81287952D01*
X112672905Y-81097476D01*
X112720524Y-81002238D01*
X112815762Y-80907000D01*
X112958620Y-80859381D01*
X113053858Y-80859381D01*
X113196715Y-80907000D01*
X113244334Y-80954619D01*
X113720524Y-81859381D02*
X113911000Y-81859381D01*
X114006239Y-81811762D01*
X114053858Y-81764143D01*
X114149096Y-81621286D01*
X114196715Y-81430810D01*
X114196715Y-81049857D01*
X114149096Y-80954619D01*
X114101477Y-80907000D01*
X114006239Y-80859381D01*
X113815762Y-80859381D01*
X113720524Y-80907000D01*
X113672905Y-80954619D01*
X113625286Y-81049857D01*
X113625286Y-81287952D01*
X113672905Y-81383190D01*
X113720524Y-81430810D01*
X113815762Y-81478429D01*
X114006239Y-81478429D01*
X114101477Y-81430810D01*
X114149096Y-81383190D01*
X114196715Y-81287952D01*
X112006143Y-117197143D02*
X111958524Y-117244762D01*
X111815667Y-117292381D01*
X111720429Y-117292381D01*
X111577571Y-117244762D01*
X111482333Y-117149524D01*
X111434714Y-117054286D01*
X111387095Y-116863810D01*
X111387095Y-116720952D01*
X111434714Y-116530476D01*
X111482333Y-116435238D01*
X111577571Y-116340000D01*
X111720429Y-116292381D01*
X111815667Y-116292381D01*
X111958524Y-116340000D01*
X112006143Y-116387619D01*
X112958524Y-117292381D02*
X112387095Y-117292381D01*
X112672809Y-117292381D02*
X112672809Y-116292381D01*
X112577571Y-116435238D01*
X112482333Y-116530476D01*
X112387095Y-116578095D01*
X113577571Y-116292381D02*
X113672810Y-116292381D01*
X113768048Y-116340000D01*
X113815667Y-116387619D01*
X113863286Y-116482857D01*
X113910905Y-116673333D01*
X113910905Y-116911429D01*
X113863286Y-117101905D01*
X113815667Y-117197143D01*
X113768048Y-117244762D01*
X113672810Y-117292381D01*
X113577571Y-117292381D01*
X113482333Y-117244762D01*
X113434714Y-117197143D01*
X113387095Y-117101905D01*
X113339476Y-116911429D01*
X113339476Y-116673333D01*
X113387095Y-116482857D01*
X113434714Y-116387619D01*
X113482333Y-116340000D01*
X113577571Y-116292381D01*
X115689143Y-85447143D02*
X115641524Y-85494762D01*
X115498667Y-85542381D01*
X115403429Y-85542381D01*
X115260571Y-85494762D01*
X115165333Y-85399524D01*
X115117714Y-85304286D01*
X115070095Y-85113810D01*
X115070095Y-84970952D01*
X115117714Y-84780476D01*
X115165333Y-84685238D01*
X115260571Y-84590000D01*
X115403429Y-84542381D01*
X115498667Y-84542381D01*
X115641524Y-84590000D01*
X115689143Y-84637619D01*
X116641524Y-85542381D02*
X116070095Y-85542381D01*
X116355809Y-85542381D02*
X116355809Y-84542381D01*
X116260571Y-84685238D01*
X116165333Y-84780476D01*
X116070095Y-84828095D01*
X117593905Y-85542381D02*
X117022476Y-85542381D01*
X117308190Y-85542381D02*
X117308190Y-84542381D01*
X117212952Y-84685238D01*
X117117714Y-84780476D01*
X117022476Y-84828095D01*
X118864143Y-126722143D02*
X118816524Y-126769762D01*
X118673667Y-126817381D01*
X118578429Y-126817381D01*
X118435571Y-126769762D01*
X118340333Y-126674524D01*
X118292714Y-126579286D01*
X118245095Y-126388810D01*
X118245095Y-126245952D01*
X118292714Y-126055476D01*
X118340333Y-125960238D01*
X118435571Y-125865000D01*
X118578429Y-125817381D01*
X118673667Y-125817381D01*
X118816524Y-125865000D01*
X118864143Y-125912619D01*
X119816524Y-126817381D02*
X119245095Y-126817381D01*
X119530809Y-126817381D02*
X119530809Y-125817381D01*
X119435571Y-125960238D01*
X119340333Y-126055476D01*
X119245095Y-126103095D01*
X120197476Y-125912619D02*
X120245095Y-125865000D01*
X120340333Y-125817381D01*
X120578429Y-125817381D01*
X120673667Y-125865000D01*
X120721286Y-125912619D01*
X120768905Y-126007857D01*
X120768905Y-126103095D01*
X120721286Y-126245952D01*
X120149857Y-126817381D01*
X120768905Y-126817381D01*
X115689143Y-93956143D02*
X115641524Y-94003762D01*
X115498667Y-94051381D01*
X115403429Y-94051381D01*
X115260571Y-94003762D01*
X115165333Y-93908524D01*
X115117714Y-93813286D01*
X115070095Y-93622810D01*
X115070095Y-93479952D01*
X115117714Y-93289476D01*
X115165333Y-93194238D01*
X115260571Y-93099000D01*
X115403429Y-93051381D01*
X115498667Y-93051381D01*
X115641524Y-93099000D01*
X115689143Y-93146619D01*
X116641524Y-94051381D02*
X116070095Y-94051381D01*
X116355809Y-94051381D02*
X116355809Y-93051381D01*
X116260571Y-93194238D01*
X116165333Y-93289476D01*
X116070095Y-93337095D01*
X116974857Y-93051381D02*
X117593905Y-93051381D01*
X117260571Y-93432333D01*
X117403429Y-93432333D01*
X117498667Y-93479952D01*
X117546286Y-93527571D01*
X117593905Y-93622810D01*
X117593905Y-93860905D01*
X117546286Y-93956143D01*
X117498667Y-94003762D01*
X117403429Y-94051381D01*
X117117714Y-94051381D01*
X117022476Y-94003762D01*
X116974857Y-93956143D01*
X118975143Y-90431857D02*
X119022762Y-90479476D01*
X119070381Y-90622333D01*
X119070381Y-90717571D01*
X119022762Y-90860429D01*
X118927524Y-90955667D01*
X118832286Y-91003286D01*
X118641810Y-91050905D01*
X118498952Y-91050905D01*
X118308476Y-91003286D01*
X118213238Y-90955667D01*
X118118000Y-90860429D01*
X118070381Y-90717571D01*
X118070381Y-90622333D01*
X118118000Y-90479476D01*
X118165619Y-90431857D01*
X119070381Y-89479476D02*
X119070381Y-90050905D01*
X119070381Y-89765191D02*
X118070381Y-89765191D01*
X118213238Y-89860429D01*
X118308476Y-89955667D01*
X118356095Y-90050905D01*
X118403714Y-88622333D02*
X119070381Y-88622333D01*
X118022762Y-88860429D02*
X118737048Y-89098524D01*
X118737048Y-88479476D01*
X119372143Y-119356143D02*
X119324524Y-119403762D01*
X119181667Y-119451381D01*
X119086429Y-119451381D01*
X118943571Y-119403762D01*
X118848333Y-119308524D01*
X118800714Y-119213286D01*
X118753095Y-119022810D01*
X118753095Y-118879952D01*
X118800714Y-118689476D01*
X118848333Y-118594238D01*
X118943571Y-118499000D01*
X119086429Y-118451381D01*
X119181667Y-118451381D01*
X119324524Y-118499000D01*
X119372143Y-118546619D01*
X120324524Y-119451381D02*
X119753095Y-119451381D01*
X120038809Y-119451381D02*
X120038809Y-118451381D01*
X119943571Y-118594238D01*
X119848333Y-118689476D01*
X119753095Y-118737095D01*
X121229286Y-118451381D02*
X120753095Y-118451381D01*
X120705476Y-118927571D01*
X120753095Y-118879952D01*
X120848333Y-118832333D01*
X121086429Y-118832333D01*
X121181667Y-118879952D01*
X121229286Y-118927571D01*
X121276905Y-119022810D01*
X121276905Y-119260905D01*
X121229286Y-119356143D01*
X121181667Y-119403762D01*
X121086429Y-119451381D01*
X120848333Y-119451381D01*
X120753095Y-119403762D01*
X120705476Y-119356143D01*
X127373143Y-107418143D02*
X127325524Y-107465762D01*
X127182667Y-107513381D01*
X127087429Y-107513381D01*
X126944571Y-107465762D01*
X126849333Y-107370524D01*
X126801714Y-107275286D01*
X126754095Y-107084810D01*
X126754095Y-106941952D01*
X126801714Y-106751476D01*
X126849333Y-106656238D01*
X126944571Y-106561000D01*
X127087429Y-106513381D01*
X127182667Y-106513381D01*
X127325524Y-106561000D01*
X127373143Y-106608619D01*
X128325524Y-107513381D02*
X127754095Y-107513381D01*
X128039809Y-107513381D02*
X128039809Y-106513381D01*
X127944571Y-106656238D01*
X127849333Y-106751476D01*
X127754095Y-106799095D01*
X129182667Y-106513381D02*
X128992190Y-106513381D01*
X128896952Y-106561000D01*
X128849333Y-106608619D01*
X128754095Y-106751476D01*
X128706476Y-106941952D01*
X128706476Y-107322905D01*
X128754095Y-107418143D01*
X128801714Y-107465762D01*
X128896952Y-107513381D01*
X129087429Y-107513381D01*
X129182667Y-107465762D01*
X129230286Y-107418143D01*
X129277905Y-107322905D01*
X129277905Y-107084810D01*
X129230286Y-106989571D01*
X129182667Y-106941952D01*
X129087429Y-106894333D01*
X128896952Y-106894333D01*
X128801714Y-106941952D01*
X128754095Y-106989571D01*
X128706476Y-107084810D01*
X127246143Y-130278143D02*
X127198524Y-130325762D01*
X127055667Y-130373381D01*
X126960429Y-130373381D01*
X126817571Y-130325762D01*
X126722333Y-130230524D01*
X126674714Y-130135286D01*
X126627095Y-129944810D01*
X126627095Y-129801952D01*
X126674714Y-129611476D01*
X126722333Y-129516238D01*
X126817571Y-129421000D01*
X126960429Y-129373381D01*
X127055667Y-129373381D01*
X127198524Y-129421000D01*
X127246143Y-129468619D01*
X128198524Y-130373381D02*
X127627095Y-130373381D01*
X127912809Y-130373381D02*
X127912809Y-129373381D01*
X127817571Y-129516238D01*
X127722333Y-129611476D01*
X127627095Y-129659095D01*
X128531857Y-129373381D02*
X129198524Y-129373381D01*
X128769952Y-130373381D01*
X133580143Y-91574857D02*
X133627762Y-91622476D01*
X133675381Y-91765333D01*
X133675381Y-91860571D01*
X133627762Y-92003429D01*
X133532524Y-92098667D01*
X133437286Y-92146286D01*
X133246810Y-92193905D01*
X133103952Y-92193905D01*
X132913476Y-92146286D01*
X132818238Y-92098667D01*
X132723000Y-92003429D01*
X132675381Y-91860571D01*
X132675381Y-91765333D01*
X132723000Y-91622476D01*
X132770619Y-91574857D01*
X133675381Y-90622476D02*
X133675381Y-91193905D01*
X133675381Y-90908191D02*
X132675381Y-90908191D01*
X132818238Y-91003429D01*
X132913476Y-91098667D01*
X132961095Y-91193905D01*
X133103952Y-90051048D02*
X133056333Y-90146286D01*
X133008714Y-90193905D01*
X132913476Y-90241524D01*
X132865857Y-90241524D01*
X132770619Y-90193905D01*
X132723000Y-90146286D01*
X132675381Y-90051048D01*
X132675381Y-89860571D01*
X132723000Y-89765333D01*
X132770619Y-89717714D01*
X132865857Y-89670095D01*
X132913476Y-89670095D01*
X133008714Y-89717714D01*
X133056333Y-89765333D01*
X133103952Y-89860571D01*
X133103952Y-90051048D01*
X133151571Y-90146286D01*
X133199190Y-90193905D01*
X133294429Y-90241524D01*
X133484905Y-90241524D01*
X133580143Y-90193905D01*
X133627762Y-90146286D01*
X133675381Y-90051048D01*
X133675381Y-89860571D01*
X133627762Y-89765333D01*
X133580143Y-89717714D01*
X133484905Y-89670095D01*
X133294429Y-89670095D01*
X133199190Y-89717714D01*
X133151571Y-89765333D01*
X133103952Y-89860571D01*
X139184143Y-88241143D02*
X139136524Y-88288762D01*
X138993667Y-88336381D01*
X138898429Y-88336381D01*
X138755571Y-88288762D01*
X138660333Y-88193524D01*
X138612714Y-88098286D01*
X138565095Y-87907810D01*
X138565095Y-87764952D01*
X138612714Y-87574476D01*
X138660333Y-87479238D01*
X138755571Y-87384000D01*
X138898429Y-87336381D01*
X138993667Y-87336381D01*
X139136524Y-87384000D01*
X139184143Y-87431619D01*
X140136524Y-88336381D02*
X139565095Y-88336381D01*
X139850809Y-88336381D02*
X139850809Y-87336381D01*
X139755571Y-87479238D01*
X139660333Y-87574476D01*
X139565095Y-87622095D01*
X140612714Y-88336381D02*
X140803190Y-88336381D01*
X140898429Y-88288762D01*
X140946048Y-88241143D01*
X141041286Y-88098286D01*
X141088905Y-87907810D01*
X141088905Y-87526857D01*
X141041286Y-87431619D01*
X140993667Y-87384000D01*
X140898429Y-87336381D01*
X140707952Y-87336381D01*
X140612714Y-87384000D01*
X140565095Y-87431619D01*
X140517476Y-87526857D01*
X140517476Y-87764952D01*
X140565095Y-87860190D01*
X140612714Y-87907810D01*
X140707952Y-87955429D01*
X140898429Y-87955429D01*
X140993667Y-87907810D01*
X141041286Y-87860190D01*
X141088905Y-87764952D01*
X132818143Y-75318857D02*
X132865762Y-75366476D01*
X132913381Y-75509333D01*
X132913381Y-75604571D01*
X132865762Y-75747429D01*
X132770524Y-75842667D01*
X132675286Y-75890286D01*
X132484810Y-75937905D01*
X132341952Y-75937905D01*
X132151476Y-75890286D01*
X132056238Y-75842667D01*
X131961000Y-75747429D01*
X131913381Y-75604571D01*
X131913381Y-75509333D01*
X131961000Y-75366476D01*
X132008619Y-75318857D01*
X132008619Y-74937905D02*
X131961000Y-74890286D01*
X131913381Y-74795048D01*
X131913381Y-74556952D01*
X131961000Y-74461714D01*
X132008619Y-74414095D01*
X132103857Y-74366476D01*
X132199095Y-74366476D01*
X132341952Y-74414095D01*
X132913381Y-74985524D01*
X132913381Y-74366476D01*
X131913381Y-73747429D02*
X131913381Y-73652190D01*
X131961000Y-73556952D01*
X132008619Y-73509333D01*
X132103857Y-73461714D01*
X132294333Y-73414095D01*
X132532429Y-73414095D01*
X132722905Y-73461714D01*
X132818143Y-73509333D01*
X132865762Y-73556952D01*
X132913381Y-73652190D01*
X132913381Y-73747429D01*
X132865762Y-73842667D01*
X132818143Y-73890286D01*
X132722905Y-73937905D01*
X132532429Y-73985524D01*
X132294333Y-73985524D01*
X132103857Y-73937905D01*
X132008619Y-73890286D01*
X131961000Y-73842667D01*
X131913381Y-73747429D01*
X139184143Y-80875143D02*
X139136524Y-80922762D01*
X138993667Y-80970381D01*
X138898429Y-80970381D01*
X138755571Y-80922762D01*
X138660333Y-80827524D01*
X138612714Y-80732286D01*
X138565095Y-80541810D01*
X138565095Y-80398952D01*
X138612714Y-80208476D01*
X138660333Y-80113238D01*
X138755571Y-80018000D01*
X138898429Y-79970381D01*
X138993667Y-79970381D01*
X139136524Y-80018000D01*
X139184143Y-80065619D01*
X139565095Y-80065619D02*
X139612714Y-80018000D01*
X139707952Y-79970381D01*
X139946048Y-79970381D01*
X140041286Y-80018000D01*
X140088905Y-80065619D01*
X140136524Y-80160857D01*
X140136524Y-80256095D01*
X140088905Y-80398952D01*
X139517476Y-80970381D01*
X140136524Y-80970381D01*
X141088905Y-80970381D02*
X140517476Y-80970381D01*
X140803190Y-80970381D02*
X140803190Y-79970381D01*
X140707952Y-80113238D01*
X140612714Y-80208476D01*
X140517476Y-80256095D01*
X103020905Y-119959381D02*
X103020905Y-118959381D01*
X103259000Y-118959381D01*
X103401858Y-119007000D01*
X103497096Y-119102238D01*
X103544715Y-119197476D01*
X103592334Y-119387952D01*
X103592334Y-119530810D01*
X103544715Y-119721286D01*
X103497096Y-119816524D01*
X103401858Y-119911762D01*
X103259000Y-119959381D01*
X103020905Y-119959381D01*
X104544715Y-119959381D02*
X103973286Y-119959381D01*
X104259000Y-119959381D02*
X104259000Y-118959381D01*
X104163762Y-119102238D01*
X104068524Y-119197476D01*
X103973286Y-119245095D01*
X111085334Y-124658381D02*
X110609143Y-124658381D01*
X110609143Y-123658381D01*
X111371048Y-123753619D02*
X111418667Y-123706000D01*
X111513905Y-123658381D01*
X111752001Y-123658381D01*
X111847239Y-123706000D01*
X111894858Y-123753619D01*
X111942477Y-123848857D01*
X111942477Y-123944095D01*
X111894858Y-124086952D01*
X111323429Y-124658381D01*
X111942477Y-124658381D01*
X124547334Y-93040381D02*
X124071143Y-93040381D01*
X124071143Y-92040381D01*
X125309239Y-92373714D02*
X125309239Y-93040381D01*
X125071143Y-91992762D02*
X124833048Y-92707048D01*
X125452096Y-92707048D01*
X124674334Y-104084381D02*
X124341000Y-103608190D01*
X124102905Y-104084381D02*
X124102905Y-103084381D01*
X124483858Y-103084381D01*
X124579096Y-103132000D01*
X124626715Y-103179619D01*
X124674334Y-103274857D01*
X124674334Y-103417714D01*
X124626715Y-103512952D01*
X124579096Y-103560571D01*
X124483858Y-103608190D01*
X124102905Y-103608190D01*
X125626715Y-104084381D02*
X125055286Y-104084381D01*
X125341000Y-104084381D02*
X125341000Y-103084381D01*
X125245762Y-103227238D01*
X125150524Y-103322476D01*
X125055286Y-103370095D01*
X116292334Y-90749381D02*
X115959000Y-90273190D01*
X115720905Y-90749381D02*
X115720905Y-89749381D01*
X116101858Y-89749381D01*
X116197096Y-89797000D01*
X116244715Y-89844619D01*
X116292334Y-89939857D01*
X116292334Y-90082714D01*
X116244715Y-90177952D01*
X116197096Y-90225571D01*
X116101858Y-90273190D01*
X115720905Y-90273190D01*
X116673286Y-89844619D02*
X116720905Y-89797000D01*
X116816143Y-89749381D01*
X117054239Y-89749381D01*
X117149477Y-89797000D01*
X117197096Y-89844619D01*
X117244715Y-89939857D01*
X117244715Y-90035095D01*
X117197096Y-90177952D01*
X116625667Y-90749381D01*
X117244715Y-90749381D01*
X128484334Y-123388381D02*
X128151000Y-122912190D01*
X127912905Y-123388381D02*
X127912905Y-122388381D01*
X128293858Y-122388381D01*
X128389096Y-122436000D01*
X128436715Y-122483619D01*
X128484334Y-122578857D01*
X128484334Y-122721714D01*
X128436715Y-122816952D01*
X128389096Y-122864571D01*
X128293858Y-122912190D01*
X127912905Y-122912190D01*
X128817667Y-122388381D02*
X129436715Y-122388381D01*
X129103381Y-122769333D01*
X129246239Y-122769333D01*
X129341477Y-122816952D01*
X129389096Y-122864571D01*
X129436715Y-122959810D01*
X129436715Y-123197905D01*
X129389096Y-123293143D01*
X129341477Y-123340762D01*
X129246239Y-123388381D01*
X128960524Y-123388381D01*
X128865286Y-123340762D01*
X128817667Y-123293143D01*
X187202381Y-117500305D02*
X188011905Y-117500305D01*
X188107143Y-117452686D01*
X188154762Y-117405067D01*
X188202381Y-117309829D01*
X188202381Y-117119352D01*
X188154762Y-117024114D01*
X188107143Y-116976495D01*
X188011905Y-116928876D01*
X187202381Y-116928876D01*
X188202381Y-115928876D02*
X188202381Y-116500305D01*
X188202381Y-116214591D02*
X187202381Y-116214591D01*
X187345238Y-116309829D01*
X187440476Y-116405067D01*
X187488095Y-116500305D01*
X112141095Y-106767381D02*
X112141095Y-107576905D01*
X112188714Y-107672143D01*
X112236333Y-107719762D01*
X112331571Y-107767381D01*
X112522048Y-107767381D01*
X112617286Y-107719762D01*
X112664905Y-107672143D01*
X112712524Y-107576905D01*
X112712524Y-106767381D01*
X113141095Y-106862619D02*
X113188714Y-106815000D01*
X113283952Y-106767381D01*
X113522048Y-106767381D01*
X113617286Y-106815000D01*
X113664905Y-106862619D01*
X113712524Y-106957857D01*
X113712524Y-107053095D01*
X113664905Y-107195952D01*
X113093476Y-107767381D01*
X113712524Y-107767381D01*
X125069695Y-74654781D02*
X125069695Y-75464305D01*
X125117314Y-75559543D01*
X125164933Y-75607162D01*
X125260171Y-75654781D01*
X125450648Y-75654781D01*
X125545886Y-75607162D01*
X125593505Y-75559543D01*
X125641124Y-75464305D01*
X125641124Y-74654781D01*
X126022076Y-74654781D02*
X126641124Y-74654781D01*
X126307790Y-75035733D01*
X126450648Y-75035733D01*
X126545886Y-75083352D01*
X126593505Y-75130971D01*
X126641124Y-75226210D01*
X126641124Y-75464305D01*
X126593505Y-75559543D01*
X126545886Y-75607162D01*
X126450648Y-75654781D01*
X126164933Y-75654781D01*
X126069695Y-75607162D01*
X126022076Y-75559543D01*
X135556667Y-67905381D02*
X135556667Y-68619667D01*
X135509047Y-68762524D01*
X135413809Y-68857762D01*
X135270952Y-68905381D01*
X135175714Y-68905381D01*
X135937619Y-67905381D02*
X136556667Y-67905381D01*
X136223333Y-68286333D01*
X136366191Y-68286333D01*
X136461429Y-68333952D01*
X136509048Y-68381571D01*
X136556667Y-68476810D01*
X136556667Y-68714905D01*
X136509048Y-68810143D01*
X136461429Y-68857762D01*
X136366191Y-68905381D01*
X136080476Y-68905381D01*
X135985238Y-68857762D01*
X135937619Y-68810143D01*
X138771381Y-77342905D02*
X139580905Y-77342905D01*
X139676143Y-77295286D01*
X139723762Y-77247667D01*
X139771381Y-77152429D01*
X139771381Y-76961952D01*
X139723762Y-76866714D01*
X139676143Y-76819095D01*
X139580905Y-76771476D01*
X138771381Y-76771476D01*
X138771381Y-75819095D02*
X138771381Y-76295286D01*
X139247571Y-76342905D01*
X139199952Y-76295286D01*
X139152333Y-76200048D01*
X139152333Y-75961952D01*
X139199952Y-75866714D01*
X139247571Y-75819095D01*
X139342810Y-75771476D01*
X139580905Y-75771476D01*
X139676143Y-75819095D01*
X139723762Y-75866714D01*
X139771381Y-75961952D01*
X139771381Y-76200048D01*
X139723762Y-76295286D01*
X139676143Y-76342905D01*
X138898381Y-84835905D02*
X139707905Y-84835905D01*
X139803143Y-84788286D01*
X139850762Y-84740667D01*
X139898381Y-84645429D01*
X139898381Y-84454952D01*
X139850762Y-84359714D01*
X139803143Y-84312095D01*
X139707905Y-84264476D01*
X138898381Y-84264476D01*
X138898381Y-83359714D02*
X138898381Y-83550191D01*
X138946000Y-83645429D01*
X138993619Y-83693048D01*
X139136476Y-83788286D01*
X139326952Y-83835905D01*
X139707905Y-83835905D01*
X139803143Y-83788286D01*
X139850762Y-83740667D01*
X139898381Y-83645429D01*
X139898381Y-83454952D01*
X139850762Y-83359714D01*
X139803143Y-83312095D01*
X139707905Y-83264476D01*
X139469810Y-83264476D01*
X139374571Y-83312095D01*
X139326952Y-83359714D01*
X139279333Y-83454952D01*
X139279333Y-83645429D01*
X139326952Y-83740667D01*
X139374571Y-83788286D01*
X139469810Y-83835905D01*
X112342634Y-91790781D02*
X111866443Y-91790781D01*
X111866443Y-90790781D01*
X112580729Y-90790781D02*
X113199777Y-90790781D01*
X112866443Y-91171733D01*
X113009301Y-91171733D01*
X113104539Y-91219352D01*
X113152158Y-91266971D01*
X113199777Y-91362210D01*
X113199777Y-91600305D01*
X113152158Y-91695543D01*
X113104539Y-91743162D01*
X113009301Y-91790781D01*
X112723586Y-91790781D01*
X112628348Y-91743162D01*
X112580729Y-91695543D01*
X123023334Y-74239381D02*
X122547143Y-74239381D01*
X122547143Y-73239381D01*
X123880477Y-74239381D02*
X123309048Y-74239381D01*
X123594762Y-74239381D02*
X123594762Y-73239381D01*
X123499524Y-73382238D01*
X123404286Y-73477476D01*
X123309048Y-73525095D01*
X187057143Y-130182857D02*
X187104762Y-130230476D01*
X187152381Y-130373333D01*
X187152381Y-130468571D01*
X187104762Y-130611429D01*
X187009524Y-130706667D01*
X186914286Y-130754286D01*
X186723810Y-130801905D01*
X186580952Y-130801905D01*
X186390476Y-130754286D01*
X186295238Y-130706667D01*
X186200000Y-130611429D01*
X186152381Y-130468571D01*
X186152381Y-130373333D01*
X186200000Y-130230476D01*
X186247619Y-130182857D01*
X186247619Y-129801905D02*
X186200000Y-129754286D01*
X186152381Y-129659048D01*
X186152381Y-129420952D01*
X186200000Y-129325714D01*
X186247619Y-129278095D01*
X186342857Y-129230476D01*
X186438095Y-129230476D01*
X186580952Y-129278095D01*
X187152381Y-129849524D01*
X187152381Y-129230476D01*
X186247619Y-128849524D02*
X186200000Y-128801905D01*
X186152381Y-128706667D01*
X186152381Y-128468571D01*
X186200000Y-128373333D01*
X186247619Y-128325714D01*
X186342857Y-128278095D01*
X186438095Y-128278095D01*
X186580952Y-128325714D01*
X187152381Y-128897143D01*
X187152381Y-128278095D01*
X94567143Y-110624857D02*
X94614762Y-110672476D01*
X94662381Y-110815333D01*
X94662381Y-110910571D01*
X94614762Y-111053429D01*
X94519524Y-111148667D01*
X94424286Y-111196286D01*
X94233810Y-111243905D01*
X94090952Y-111243905D01*
X93900476Y-111196286D01*
X93805238Y-111148667D01*
X93710000Y-111053429D01*
X93662381Y-110910571D01*
X93662381Y-110815333D01*
X93710000Y-110672476D01*
X93757619Y-110624857D01*
X93757619Y-110243905D02*
X93710000Y-110196286D01*
X93662381Y-110101048D01*
X93662381Y-109862952D01*
X93710000Y-109767714D01*
X93757619Y-109720095D01*
X93852857Y-109672476D01*
X93948095Y-109672476D01*
X94090952Y-109720095D01*
X94662381Y-110291524D01*
X94662381Y-109672476D01*
X93662381Y-109339143D02*
X93662381Y-108720095D01*
X94043333Y-109053429D01*
X94043333Y-108910571D01*
X94090952Y-108815333D01*
X94138571Y-108767714D01*
X94233810Y-108720095D01*
X94471905Y-108720095D01*
X94567143Y-108767714D01*
X94614762Y-108815333D01*
X94662381Y-108910571D01*
X94662381Y-109196286D01*
X94614762Y-109291524D01*
X94567143Y-109339143D01*
X150487143Y-127103143D02*
X150439524Y-127150762D01*
X150296667Y-127198381D01*
X150201429Y-127198381D01*
X150058571Y-127150762D01*
X149963333Y-127055524D01*
X149915714Y-126960286D01*
X149868095Y-126769810D01*
X149868095Y-126626952D01*
X149915714Y-126436476D01*
X149963333Y-126341238D01*
X150058571Y-126246000D01*
X150201429Y-126198381D01*
X150296667Y-126198381D01*
X150439524Y-126246000D01*
X150487143Y-126293619D01*
X150868095Y-126293619D02*
X150915714Y-126246000D01*
X151010952Y-126198381D01*
X151249048Y-126198381D01*
X151344286Y-126246000D01*
X151391905Y-126293619D01*
X151439524Y-126388857D01*
X151439524Y-126484095D01*
X151391905Y-126626952D01*
X150820476Y-127198381D01*
X151439524Y-127198381D01*
X152296667Y-126531714D02*
X152296667Y-127198381D01*
X152058571Y-126150762D02*
X151820476Y-126865048D01*
X152439524Y-126865048D01*
X94567143Y-98940857D02*
X94614762Y-98988476D01*
X94662381Y-99131333D01*
X94662381Y-99226571D01*
X94614762Y-99369429D01*
X94519524Y-99464667D01*
X94424286Y-99512286D01*
X94233810Y-99559905D01*
X94090952Y-99559905D01*
X93900476Y-99512286D01*
X93805238Y-99464667D01*
X93710000Y-99369429D01*
X93662381Y-99226571D01*
X93662381Y-99131333D01*
X93710000Y-98988476D01*
X93757619Y-98940857D01*
X93757619Y-98559905D02*
X93710000Y-98512286D01*
X93662381Y-98417048D01*
X93662381Y-98178952D01*
X93710000Y-98083714D01*
X93757619Y-98036095D01*
X93852857Y-97988476D01*
X93948095Y-97988476D01*
X94090952Y-98036095D01*
X94662381Y-98607524D01*
X94662381Y-97988476D01*
X93662381Y-97083714D02*
X93662381Y-97559905D01*
X94138571Y-97607524D01*
X94090952Y-97559905D01*
X94043333Y-97464667D01*
X94043333Y-97226571D01*
X94090952Y-97131333D01*
X94138571Y-97083714D01*
X94233810Y-97036095D01*
X94471905Y-97036095D01*
X94567143Y-97083714D01*
X94614762Y-97131333D01*
X94662381Y-97226571D01*
X94662381Y-97464667D01*
X94614762Y-97559905D01*
X94567143Y-97607524D01*
X133961143Y-127388857D02*
X134008762Y-127436476D01*
X134056381Y-127579333D01*
X134056381Y-127674571D01*
X134008762Y-127817429D01*
X133913524Y-127912667D01*
X133818286Y-127960286D01*
X133627810Y-128007905D01*
X133484952Y-128007905D01*
X133294476Y-127960286D01*
X133199238Y-127912667D01*
X133104000Y-127817429D01*
X133056381Y-127674571D01*
X133056381Y-127579333D01*
X133104000Y-127436476D01*
X133151619Y-127388857D01*
X133151619Y-127007905D02*
X133104000Y-126960286D01*
X133056381Y-126865048D01*
X133056381Y-126626952D01*
X133104000Y-126531714D01*
X133151619Y-126484095D01*
X133246857Y-126436476D01*
X133342095Y-126436476D01*
X133484952Y-126484095D01*
X134056381Y-127055524D01*
X134056381Y-126436476D01*
X133056381Y-125579333D02*
X133056381Y-125769810D01*
X133104000Y-125865048D01*
X133151619Y-125912667D01*
X133294476Y-126007905D01*
X133484952Y-126055524D01*
X133865905Y-126055524D01*
X133961143Y-126007905D01*
X134008762Y-125960286D01*
X134056381Y-125865048D01*
X134056381Y-125674571D01*
X134008762Y-125579333D01*
X133961143Y-125531714D01*
X133865905Y-125484095D01*
X133627810Y-125484095D01*
X133532571Y-125531714D01*
X133484952Y-125579333D01*
X133437333Y-125674571D01*
X133437333Y-125865048D01*
X133484952Y-125960286D01*
X133532571Y-126007905D01*
X133627810Y-126055524D01*
X94567143Y-87002857D02*
X94614762Y-87050476D01*
X94662381Y-87193333D01*
X94662381Y-87288571D01*
X94614762Y-87431429D01*
X94519524Y-87526667D01*
X94424286Y-87574286D01*
X94233810Y-87621905D01*
X94090952Y-87621905D01*
X93900476Y-87574286D01*
X93805238Y-87526667D01*
X93710000Y-87431429D01*
X93662381Y-87288571D01*
X93662381Y-87193333D01*
X93710000Y-87050476D01*
X93757619Y-87002857D01*
X93757619Y-86621905D02*
X93710000Y-86574286D01*
X93662381Y-86479048D01*
X93662381Y-86240952D01*
X93710000Y-86145714D01*
X93757619Y-86098095D01*
X93852857Y-86050476D01*
X93948095Y-86050476D01*
X94090952Y-86098095D01*
X94662381Y-86669524D01*
X94662381Y-86050476D01*
X93662381Y-85717143D02*
X93662381Y-85050476D01*
X94662381Y-85479048D01*
X94567143Y-75318857D02*
X94614762Y-75366476D01*
X94662381Y-75509333D01*
X94662381Y-75604571D01*
X94614762Y-75747429D01*
X94519524Y-75842667D01*
X94424286Y-75890286D01*
X94233810Y-75937905D01*
X94090952Y-75937905D01*
X93900476Y-75890286D01*
X93805238Y-75842667D01*
X93710000Y-75747429D01*
X93662381Y-75604571D01*
X93662381Y-75509333D01*
X93710000Y-75366476D01*
X93757619Y-75318857D01*
X93757619Y-74937905D02*
X93710000Y-74890286D01*
X93662381Y-74795048D01*
X93662381Y-74556952D01*
X93710000Y-74461714D01*
X93757619Y-74414095D01*
X93852857Y-74366476D01*
X93948095Y-74366476D01*
X94090952Y-74414095D01*
X94662381Y-74985524D01*
X94662381Y-74366476D01*
X94090952Y-73795048D02*
X94043333Y-73890286D01*
X93995714Y-73937905D01*
X93900476Y-73985524D01*
X93852857Y-73985524D01*
X93757619Y-73937905D01*
X93710000Y-73890286D01*
X93662381Y-73795048D01*
X93662381Y-73604571D01*
X93710000Y-73509333D01*
X93757619Y-73461714D01*
X93852857Y-73414095D01*
X93900476Y-73414095D01*
X93995714Y-73461714D01*
X94043333Y-73509333D01*
X94090952Y-73604571D01*
X94090952Y-73795048D01*
X94138571Y-73890286D01*
X94186190Y-73937905D01*
X94281429Y-73985524D01*
X94471905Y-73985524D01*
X94567143Y-73937905D01*
X94614762Y-73890286D01*
X94662381Y-73795048D01*
X94662381Y-73604571D01*
X94614762Y-73509333D01*
X94567143Y-73461714D01*
X94471905Y-73414095D01*
X94281429Y-73414095D01*
X94186190Y-73461714D01*
X94138571Y-73509333D01*
X94090952Y-73604571D01*
X150487143Y-129643143D02*
X150439524Y-129690762D01*
X150296667Y-129738381D01*
X150201429Y-129738381D01*
X150058571Y-129690762D01*
X149963333Y-129595524D01*
X149915714Y-129500286D01*
X149868095Y-129309810D01*
X149868095Y-129166952D01*
X149915714Y-128976476D01*
X149963333Y-128881238D01*
X150058571Y-128786000D01*
X150201429Y-128738381D01*
X150296667Y-128738381D01*
X150439524Y-128786000D01*
X150487143Y-128833619D01*
X150868095Y-128833619D02*
X150915714Y-128786000D01*
X151010952Y-128738381D01*
X151249048Y-128738381D01*
X151344286Y-128786000D01*
X151391905Y-128833619D01*
X151439524Y-128928857D01*
X151439524Y-129024095D01*
X151391905Y-129166952D01*
X150820476Y-129738381D01*
X151439524Y-129738381D01*
X151915714Y-129738381D02*
X152106190Y-129738381D01*
X152201429Y-129690762D01*
X152249048Y-129643143D01*
X152344286Y-129500286D01*
X152391905Y-129309810D01*
X152391905Y-128928857D01*
X152344286Y-128833619D01*
X152296667Y-128786000D01*
X152201429Y-128738381D01*
X152010952Y-128738381D01*
X151915714Y-128786000D01*
X151868095Y-128833619D01*
X151820476Y-128928857D01*
X151820476Y-129166952D01*
X151868095Y-129262190D01*
X151915714Y-129309810D01*
X152010952Y-129357429D01*
X152201429Y-129357429D01*
X152296667Y-129309810D01*
X152344286Y-129262190D01*
X152391905Y-129166952D01*
X133707143Y-130182857D02*
X133754762Y-130230476D01*
X133802381Y-130373333D01*
X133802381Y-130468571D01*
X133754762Y-130611429D01*
X133659524Y-130706667D01*
X133564286Y-130754286D01*
X133373810Y-130801905D01*
X133230952Y-130801905D01*
X133040476Y-130754286D01*
X132945238Y-130706667D01*
X132850000Y-130611429D01*
X132802381Y-130468571D01*
X132802381Y-130373333D01*
X132850000Y-130230476D01*
X132897619Y-130182857D01*
X132802381Y-129849524D02*
X132802381Y-129230476D01*
X133183333Y-129563810D01*
X133183333Y-129420952D01*
X133230952Y-129325714D01*
X133278571Y-129278095D01*
X133373810Y-129230476D01*
X133611905Y-129230476D01*
X133707143Y-129278095D01*
X133754762Y-129325714D01*
X133802381Y-129420952D01*
X133802381Y-129706667D01*
X133754762Y-129801905D01*
X133707143Y-129849524D01*
X132802381Y-128611429D02*
X132802381Y-128516190D01*
X132850000Y-128420952D01*
X132897619Y-128373333D01*
X132992857Y-128325714D01*
X133183333Y-128278095D01*
X133421429Y-128278095D01*
X133611905Y-128325714D01*
X133707143Y-128373333D01*
X133754762Y-128420952D01*
X133802381Y-128516190D01*
X133802381Y-128611429D01*
X133754762Y-128706667D01*
X133707143Y-128754286D01*
X133611905Y-128801905D01*
X133421429Y-128849524D01*
X133183333Y-128849524D01*
X132992857Y-128801905D01*
X132897619Y-128754286D01*
X132850000Y-128706667D01*
X132802381Y-128611429D01*
X179157334Y-126818381D02*
X178824000Y-126342190D01*
X178585905Y-126818381D02*
X178585905Y-125818381D01*
X178966858Y-125818381D01*
X179062096Y-125866000D01*
X179109715Y-125913619D01*
X179157334Y-126008857D01*
X179157334Y-126151714D01*
X179109715Y-126246952D01*
X179062096Y-126294571D01*
X178966858Y-126342190D01*
X178585905Y-126342190D01*
X180014477Y-126151714D02*
X180014477Y-126818381D01*
X179776381Y-125770762D02*
X179538286Y-126485048D01*
X180157334Y-126485048D01*
X143582381Y-127928666D02*
X143106190Y-128262000D01*
X143582381Y-128500095D02*
X142582381Y-128500095D01*
X142582381Y-128119142D01*
X142630000Y-128023904D01*
X142677619Y-127976285D01*
X142772857Y-127928666D01*
X142915714Y-127928666D01*
X143010952Y-127976285D01*
X143058571Y-128023904D01*
X143106190Y-128119142D01*
X143106190Y-128500095D01*
X142582381Y-127023904D02*
X142582381Y-127500095D01*
X143058571Y-127547714D01*
X143010952Y-127500095D01*
X142963333Y-127404857D01*
X142963333Y-127166761D01*
X143010952Y-127071523D01*
X143058571Y-127023904D01*
X143153810Y-126976285D01*
X143391905Y-126976285D01*
X143487143Y-127023904D01*
X143534762Y-127071523D01*
X143582381Y-127166761D01*
X143582381Y-127404857D01*
X143534762Y-127500095D01*
X143487143Y-127547714D01*
X139533334Y-130500381D02*
X139200000Y-130024190D01*
X138961905Y-130500381D02*
X138961905Y-129500381D01*
X139342858Y-129500381D01*
X139438096Y-129548000D01*
X139485715Y-129595619D01*
X139533334Y-129690857D01*
X139533334Y-129833714D01*
X139485715Y-129928952D01*
X139438096Y-129976571D01*
X139342858Y-130024190D01*
X138961905Y-130024190D01*
X140390477Y-129500381D02*
X140200000Y-129500381D01*
X140104762Y-129548000D01*
X140057143Y-129595619D01*
X139961905Y-129738476D01*
X139914286Y-129928952D01*
X139914286Y-130309905D01*
X139961905Y-130405143D01*
X140009524Y-130452762D01*
X140104762Y-130500381D01*
X140295239Y-130500381D01*
X140390477Y-130452762D01*
X140438096Y-130405143D01*
X140485715Y-130309905D01*
X140485715Y-130071810D01*
X140438096Y-129976571D01*
X140390477Y-129928952D01*
X140295239Y-129881333D01*
X140104762Y-129881333D01*
X140009524Y-129928952D01*
X139961905Y-129976571D01*
X139914286Y-130071810D01*
M02*
