G04 #@! TF.GenerationSoftware,KiCad,Pcbnew,(5.0.1)-4*
G04 #@! TF.CreationDate,2019-02-12T09:30:25+01:00*
G04 #@! TF.ProjectId,Noise_Meter,4E6F6973655F4D657465722E6B696361,rev?*
G04 #@! TF.SameCoordinates,Original*
G04 #@! TF.FileFunction,Soldermask,Top*
G04 #@! TF.FilePolarity,Negative*
%FSLAX46Y46*%
G04 Gerber Fmt 4.6, Leading zero omitted, Abs format (unit mm)*
G04 Created by KiCad (PCBNEW (5.0.1)-4) date 12/02/2019 9:30:25*
%MOMM*%
%LPD*%
G01*
G04 APERTURE LIST*
%ADD10C,0.100000*%
G04 APERTURE END LIST*
D10*
G36*
X95636393Y-131772553D02*
X95745872Y-131794330D01*
X96055252Y-131922479D01*
X96333687Y-132108523D01*
X96570477Y-132345313D01*
X96756521Y-132623748D01*
X96884670Y-132933128D01*
X96899527Y-133007818D01*
X96936968Y-133196046D01*
X96950000Y-133261565D01*
X96950000Y-133596435D01*
X96884670Y-133924872D01*
X96756521Y-134234252D01*
X96570477Y-134512687D01*
X96333687Y-134749477D01*
X96055252Y-134935521D01*
X95745872Y-135063670D01*
X95636393Y-135085447D01*
X95417437Y-135129000D01*
X95082563Y-135129000D01*
X94863607Y-135085447D01*
X94754128Y-135063670D01*
X94444748Y-134935521D01*
X94166313Y-134749477D01*
X93929523Y-134512687D01*
X93743479Y-134234252D01*
X93615330Y-133924872D01*
X93550000Y-133596435D01*
X93550000Y-133261565D01*
X93563033Y-133196046D01*
X93600473Y-133007818D01*
X93615330Y-132933128D01*
X93743479Y-132623748D01*
X93929523Y-132345313D01*
X94166313Y-132108523D01*
X94444748Y-131922479D01*
X94754128Y-131794330D01*
X94863607Y-131772553D01*
X95082563Y-131729000D01*
X95417437Y-131729000D01*
X95636393Y-131772553D01*
X95636393Y-131772553D01*
G37*
G36*
X192306391Y-129461176D02*
X192543059Y-129508252D01*
X192988930Y-129692938D01*
X193390204Y-129961060D01*
X193731460Y-130302316D01*
X193999582Y-130703590D01*
X194184268Y-131149461D01*
X194278420Y-131622796D01*
X194278420Y-132105404D01*
X194184268Y-132578739D01*
X193999582Y-133024610D01*
X193731460Y-133425884D01*
X193390204Y-133767140D01*
X192988930Y-134035262D01*
X192543059Y-134219948D01*
X192069725Y-134314100D01*
X191587115Y-134314100D01*
X191113781Y-134219948D01*
X190667910Y-134035262D01*
X190266636Y-133767140D01*
X189925380Y-133425884D01*
X189657258Y-133024610D01*
X189472572Y-132578739D01*
X189378420Y-132105404D01*
X189378420Y-131622796D01*
X189472572Y-131149461D01*
X189657258Y-130703590D01*
X189925380Y-130302316D01*
X190266636Y-129961060D01*
X190667910Y-129692938D01*
X191113781Y-129508252D01*
X191350449Y-129461176D01*
X191587115Y-129414100D01*
X192069725Y-129414100D01*
X192306391Y-129461176D01*
X192306391Y-129461176D01*
G37*
G36*
X104305551Y-129461176D02*
X104542219Y-129508252D01*
X104988090Y-129692938D01*
X105389364Y-129961060D01*
X105730620Y-130302316D01*
X105998742Y-130703590D01*
X106183428Y-131149461D01*
X106277580Y-131622796D01*
X106277580Y-132105404D01*
X106183428Y-132578739D01*
X105998742Y-133024610D01*
X105730620Y-133425884D01*
X105389364Y-133767140D01*
X104988090Y-134035262D01*
X104542219Y-134219948D01*
X104068885Y-134314100D01*
X103586275Y-134314100D01*
X103112941Y-134219948D01*
X102667070Y-134035262D01*
X102265796Y-133767140D01*
X101924540Y-133425884D01*
X101656418Y-133024610D01*
X101471732Y-132578739D01*
X101377580Y-132105404D01*
X101377580Y-131622796D01*
X101471732Y-131149461D01*
X101656418Y-130703590D01*
X101924540Y-130302316D01*
X102265796Y-129961060D01*
X102667070Y-129692938D01*
X103112941Y-129508252D01*
X103349609Y-129461176D01*
X103586275Y-129414100D01*
X104068885Y-129414100D01*
X104305551Y-129461176D01*
X104305551Y-129461176D01*
G37*
G36*
X114699845Y-132666015D02*
X114790839Y-132703706D01*
X114851809Y-132744445D01*
X114872734Y-132758427D01*
X114942373Y-132828066D01*
X114942375Y-132828069D01*
X114997094Y-132909961D01*
X115034785Y-133000955D01*
X115054000Y-133097554D01*
X115054000Y-133196046D01*
X115034785Y-133292645D01*
X114997094Y-133383639D01*
X114943104Y-133464440D01*
X114942373Y-133465534D01*
X114872734Y-133535173D01*
X114872731Y-133535175D01*
X114790839Y-133589894D01*
X114699845Y-133627585D01*
X114603246Y-133646800D01*
X114504754Y-133646800D01*
X114408155Y-133627585D01*
X114317161Y-133589894D01*
X114235269Y-133535175D01*
X114235266Y-133535173D01*
X114165627Y-133465534D01*
X114164896Y-133464440D01*
X114110906Y-133383639D01*
X114073215Y-133292645D01*
X114054000Y-133196046D01*
X114054000Y-133097554D01*
X114073215Y-133000955D01*
X114110906Y-132909961D01*
X114165625Y-132828069D01*
X114165627Y-132828066D01*
X114235266Y-132758427D01*
X114256191Y-132744445D01*
X114317161Y-132703706D01*
X114408155Y-132666015D01*
X114504754Y-132646800D01*
X114603246Y-132646800D01*
X114699845Y-132666015D01*
X114699845Y-132666015D01*
G37*
G36*
X180554172Y-130577846D02*
X180643710Y-130605007D01*
X180733249Y-130632168D01*
X180898287Y-130720383D01*
X181042941Y-130839099D01*
X181161657Y-130983753D01*
X181249872Y-131148791D01*
X181267979Y-131208484D01*
X181304194Y-131327868D01*
X181304194Y-131327870D01*
X181317940Y-131467435D01*
X181317940Y-132260766D01*
X181304194Y-132400331D01*
X181249872Y-132579409D01*
X181161657Y-132744447D01*
X181042941Y-132889101D01*
X180898287Y-133007817D01*
X180733248Y-133096032D01*
X180643709Y-133123193D01*
X180554171Y-133150354D01*
X180367940Y-133168696D01*
X180181708Y-133150354D01*
X180092170Y-133123193D01*
X180002631Y-133096032D01*
X179837593Y-133007817D01*
X179692939Y-132889101D01*
X179574223Y-132744447D01*
X179486008Y-132579408D01*
X179458847Y-132489869D01*
X179431686Y-132400331D01*
X179417940Y-132260764D01*
X179417940Y-131467435D01*
X179431686Y-131327868D01*
X179431686Y-131327866D01*
X179486008Y-131148794D01*
X179574224Y-130983753D01*
X179692940Y-130839099D01*
X179837594Y-130720383D01*
X180002632Y-130632168D01*
X180092171Y-130605007D01*
X180181709Y-130577846D01*
X180367940Y-130559504D01*
X180554172Y-130577846D01*
X180554172Y-130577846D01*
G37*
G36*
X134834172Y-130577846D02*
X134923710Y-130605007D01*
X135013249Y-130632168D01*
X135178287Y-130720383D01*
X135322941Y-130839099D01*
X135441657Y-130983753D01*
X135529872Y-131148791D01*
X135547979Y-131208484D01*
X135584194Y-131327868D01*
X135584194Y-131327870D01*
X135597940Y-131467435D01*
X135597940Y-132260766D01*
X135584194Y-132400331D01*
X135529872Y-132579409D01*
X135441657Y-132744447D01*
X135322941Y-132889101D01*
X135178287Y-133007817D01*
X135013248Y-133096032D01*
X134923709Y-133123193D01*
X134834171Y-133150354D01*
X134647940Y-133168696D01*
X134461708Y-133150354D01*
X134372170Y-133123193D01*
X134282631Y-133096032D01*
X134117593Y-133007817D01*
X133972939Y-132889101D01*
X133854223Y-132744447D01*
X133766008Y-132579408D01*
X133738847Y-132489869D01*
X133711686Y-132400331D01*
X133697940Y-132260764D01*
X133697940Y-131467435D01*
X133711686Y-131327868D01*
X133711686Y-131327866D01*
X133766008Y-131148794D01*
X133854224Y-130983753D01*
X133972940Y-130839099D01*
X134117594Y-130720383D01*
X134282632Y-130632168D01*
X134372171Y-130605007D01*
X134461709Y-130577846D01*
X134647940Y-130559504D01*
X134834172Y-130577846D01*
X134834172Y-130577846D01*
G37*
G36*
X178014172Y-130577846D02*
X178103710Y-130605007D01*
X178193249Y-130632168D01*
X178358287Y-130720383D01*
X178502941Y-130839099D01*
X178621657Y-130983753D01*
X178709872Y-131148791D01*
X178727979Y-131208484D01*
X178764194Y-131327868D01*
X178764194Y-131327870D01*
X178777940Y-131467435D01*
X178777940Y-132260766D01*
X178764194Y-132400331D01*
X178709872Y-132579409D01*
X178621657Y-132744447D01*
X178502941Y-132889101D01*
X178358287Y-133007817D01*
X178193248Y-133096032D01*
X178103709Y-133123193D01*
X178014171Y-133150354D01*
X177827940Y-133168696D01*
X177641708Y-133150354D01*
X177552170Y-133123193D01*
X177462631Y-133096032D01*
X177297593Y-133007817D01*
X177152939Y-132889101D01*
X177034223Y-132744447D01*
X176946008Y-132579408D01*
X176918847Y-132489869D01*
X176891686Y-132400331D01*
X176877940Y-132260764D01*
X176877940Y-131467435D01*
X176891686Y-131327868D01*
X176891686Y-131327866D01*
X176946008Y-131148794D01*
X177034224Y-130983753D01*
X177152940Y-130839099D01*
X177297594Y-130720383D01*
X177462632Y-130632168D01*
X177552171Y-130605007D01*
X177641709Y-130577846D01*
X177827940Y-130559504D01*
X178014172Y-130577846D01*
X178014172Y-130577846D01*
G37*
G36*
X175474172Y-130577846D02*
X175563710Y-130605007D01*
X175653249Y-130632168D01*
X175818287Y-130720383D01*
X175962941Y-130839099D01*
X176081657Y-130983753D01*
X176169872Y-131148791D01*
X176187979Y-131208484D01*
X176224194Y-131327868D01*
X176224194Y-131327870D01*
X176237940Y-131467435D01*
X176237940Y-132260766D01*
X176224194Y-132400331D01*
X176169872Y-132579409D01*
X176081657Y-132744447D01*
X175962941Y-132889101D01*
X175818287Y-133007817D01*
X175653248Y-133096032D01*
X175563709Y-133123193D01*
X175474171Y-133150354D01*
X175287940Y-133168696D01*
X175101708Y-133150354D01*
X175012170Y-133123193D01*
X174922631Y-133096032D01*
X174757593Y-133007817D01*
X174612939Y-132889101D01*
X174494223Y-132744447D01*
X174406008Y-132579408D01*
X174378847Y-132489869D01*
X174351686Y-132400331D01*
X174337940Y-132260764D01*
X174337940Y-131467435D01*
X174351686Y-131327868D01*
X174351686Y-131327866D01*
X174406008Y-131148794D01*
X174494224Y-130983753D01*
X174612940Y-130839099D01*
X174757594Y-130720383D01*
X174922632Y-130632168D01*
X175012171Y-130605007D01*
X175101709Y-130577846D01*
X175287940Y-130559504D01*
X175474172Y-130577846D01*
X175474172Y-130577846D01*
G37*
G36*
X172934172Y-130577846D02*
X173023710Y-130605007D01*
X173113249Y-130632168D01*
X173278287Y-130720383D01*
X173422941Y-130839099D01*
X173541657Y-130983753D01*
X173629872Y-131148791D01*
X173647979Y-131208484D01*
X173684194Y-131327868D01*
X173684194Y-131327870D01*
X173697940Y-131467435D01*
X173697940Y-132260766D01*
X173684194Y-132400331D01*
X173629872Y-132579409D01*
X173541657Y-132744447D01*
X173422941Y-132889101D01*
X173278287Y-133007817D01*
X173113248Y-133096032D01*
X173023709Y-133123193D01*
X172934171Y-133150354D01*
X172747940Y-133168696D01*
X172561708Y-133150354D01*
X172472170Y-133123193D01*
X172382631Y-133096032D01*
X172217593Y-133007817D01*
X172072939Y-132889101D01*
X171954223Y-132744447D01*
X171866008Y-132579408D01*
X171838847Y-132489869D01*
X171811686Y-132400331D01*
X171797940Y-132260764D01*
X171797940Y-131467435D01*
X171811686Y-131327868D01*
X171811686Y-131327866D01*
X171866008Y-131148794D01*
X171954224Y-130983753D01*
X172072940Y-130839099D01*
X172217594Y-130720383D01*
X172382632Y-130632168D01*
X172472171Y-130605007D01*
X172561709Y-130577846D01*
X172747940Y-130559504D01*
X172934172Y-130577846D01*
X172934172Y-130577846D01*
G37*
G36*
X170394172Y-130577846D02*
X170483710Y-130605007D01*
X170573249Y-130632168D01*
X170738287Y-130720383D01*
X170882941Y-130839099D01*
X171001657Y-130983753D01*
X171089872Y-131148791D01*
X171107979Y-131208484D01*
X171144194Y-131327868D01*
X171144194Y-131327870D01*
X171157940Y-131467435D01*
X171157940Y-132260766D01*
X171144194Y-132400331D01*
X171089872Y-132579409D01*
X171001657Y-132744447D01*
X170882941Y-132889101D01*
X170738287Y-133007817D01*
X170573248Y-133096032D01*
X170483709Y-133123193D01*
X170394171Y-133150354D01*
X170207940Y-133168696D01*
X170021708Y-133150354D01*
X169932170Y-133123193D01*
X169842631Y-133096032D01*
X169677593Y-133007817D01*
X169532939Y-132889101D01*
X169414223Y-132744447D01*
X169326008Y-132579408D01*
X169298847Y-132489869D01*
X169271686Y-132400331D01*
X169257940Y-132260764D01*
X169257940Y-131467435D01*
X169271686Y-131327868D01*
X169271686Y-131327866D01*
X169326008Y-131148794D01*
X169414224Y-130983753D01*
X169532940Y-130839099D01*
X169677594Y-130720383D01*
X169842632Y-130632168D01*
X169932171Y-130605007D01*
X170021709Y-130577846D01*
X170207940Y-130559504D01*
X170394172Y-130577846D01*
X170394172Y-130577846D01*
G37*
G36*
X167854172Y-130577846D02*
X167943710Y-130605007D01*
X168033249Y-130632168D01*
X168198287Y-130720383D01*
X168342941Y-130839099D01*
X168461657Y-130983753D01*
X168549872Y-131148791D01*
X168567979Y-131208484D01*
X168604194Y-131327868D01*
X168604194Y-131327870D01*
X168617940Y-131467435D01*
X168617940Y-132260766D01*
X168604194Y-132400331D01*
X168549872Y-132579409D01*
X168461657Y-132744447D01*
X168342941Y-132889101D01*
X168198287Y-133007817D01*
X168033248Y-133096032D01*
X167943709Y-133123193D01*
X167854171Y-133150354D01*
X167667940Y-133168696D01*
X167481708Y-133150354D01*
X167392170Y-133123193D01*
X167302631Y-133096032D01*
X167137593Y-133007817D01*
X166992939Y-132889101D01*
X166874223Y-132744447D01*
X166786008Y-132579408D01*
X166758847Y-132489869D01*
X166731686Y-132400331D01*
X166717940Y-132260764D01*
X166717940Y-131467435D01*
X166731686Y-131327868D01*
X166731686Y-131327866D01*
X166786008Y-131148794D01*
X166874224Y-130983753D01*
X166992940Y-130839099D01*
X167137594Y-130720383D01*
X167302632Y-130632168D01*
X167392171Y-130605007D01*
X167481709Y-130577846D01*
X167667940Y-130559504D01*
X167854172Y-130577846D01*
X167854172Y-130577846D01*
G37*
G36*
X165314172Y-130577846D02*
X165403710Y-130605007D01*
X165493249Y-130632168D01*
X165658287Y-130720383D01*
X165802941Y-130839099D01*
X165921657Y-130983753D01*
X166009872Y-131148791D01*
X166027979Y-131208484D01*
X166064194Y-131327868D01*
X166064194Y-131327870D01*
X166077940Y-131467435D01*
X166077940Y-132260766D01*
X166064194Y-132400331D01*
X166009872Y-132579409D01*
X165921657Y-132744447D01*
X165802941Y-132889101D01*
X165658287Y-133007817D01*
X165493248Y-133096032D01*
X165403709Y-133123193D01*
X165314171Y-133150354D01*
X165127940Y-133168696D01*
X164941708Y-133150354D01*
X164852170Y-133123193D01*
X164762631Y-133096032D01*
X164597593Y-133007817D01*
X164452939Y-132889101D01*
X164334223Y-132744447D01*
X164246008Y-132579408D01*
X164218847Y-132489869D01*
X164191686Y-132400331D01*
X164177940Y-132260764D01*
X164177940Y-131467435D01*
X164191686Y-131327868D01*
X164191686Y-131327866D01*
X164246008Y-131148794D01*
X164334224Y-130983753D01*
X164452940Y-130839099D01*
X164597594Y-130720383D01*
X164762632Y-130632168D01*
X164852171Y-130605007D01*
X164941709Y-130577846D01*
X165127940Y-130559504D01*
X165314172Y-130577846D01*
X165314172Y-130577846D01*
G37*
G36*
X162774172Y-130577846D02*
X162863710Y-130605007D01*
X162953249Y-130632168D01*
X163118287Y-130720383D01*
X163262941Y-130839099D01*
X163381657Y-130983753D01*
X163469872Y-131148791D01*
X163487979Y-131208484D01*
X163524194Y-131327868D01*
X163524194Y-131327870D01*
X163537940Y-131467435D01*
X163537940Y-132260766D01*
X163524194Y-132400331D01*
X163469872Y-132579409D01*
X163381657Y-132744447D01*
X163262941Y-132889101D01*
X163118287Y-133007817D01*
X162953248Y-133096032D01*
X162863709Y-133123193D01*
X162774171Y-133150354D01*
X162587940Y-133168696D01*
X162401708Y-133150354D01*
X162312170Y-133123193D01*
X162222631Y-133096032D01*
X162057593Y-133007817D01*
X161912939Y-132889101D01*
X161794223Y-132744447D01*
X161706008Y-132579408D01*
X161678847Y-132489869D01*
X161651686Y-132400331D01*
X161637940Y-132260764D01*
X161637940Y-131467435D01*
X161651686Y-131327868D01*
X161651686Y-131327866D01*
X161706008Y-131148794D01*
X161794224Y-130983753D01*
X161912940Y-130839099D01*
X162057594Y-130720383D01*
X162222632Y-130632168D01*
X162312171Y-130605007D01*
X162401709Y-130577846D01*
X162587940Y-130559504D01*
X162774172Y-130577846D01*
X162774172Y-130577846D01*
G37*
G36*
X160234172Y-130577846D02*
X160323710Y-130605007D01*
X160413249Y-130632168D01*
X160578287Y-130720383D01*
X160722941Y-130839099D01*
X160841657Y-130983753D01*
X160929872Y-131148791D01*
X160947979Y-131208484D01*
X160984194Y-131327868D01*
X160984194Y-131327870D01*
X160997940Y-131467435D01*
X160997940Y-132260766D01*
X160984194Y-132400331D01*
X160929872Y-132579409D01*
X160841657Y-132744447D01*
X160722941Y-132889101D01*
X160578287Y-133007817D01*
X160413248Y-133096032D01*
X160323709Y-133123193D01*
X160234171Y-133150354D01*
X160047940Y-133168696D01*
X159861708Y-133150354D01*
X159772170Y-133123193D01*
X159682631Y-133096032D01*
X159517593Y-133007817D01*
X159372939Y-132889101D01*
X159254223Y-132744447D01*
X159166008Y-132579408D01*
X159138847Y-132489869D01*
X159111686Y-132400331D01*
X159097940Y-132260764D01*
X159097940Y-131467435D01*
X159111686Y-131327868D01*
X159111686Y-131327866D01*
X159166008Y-131148794D01*
X159254224Y-130983753D01*
X159372940Y-130839099D01*
X159517594Y-130720383D01*
X159682632Y-130632168D01*
X159772171Y-130605007D01*
X159861709Y-130577846D01*
X160047940Y-130559504D01*
X160234172Y-130577846D01*
X160234172Y-130577846D01*
G37*
G36*
X152614172Y-130577846D02*
X152703710Y-130605007D01*
X152793249Y-130632168D01*
X152958287Y-130720383D01*
X153102941Y-130839099D01*
X153221657Y-130983753D01*
X153309872Y-131148791D01*
X153327979Y-131208484D01*
X153364194Y-131327868D01*
X153364194Y-131327870D01*
X153377940Y-131467435D01*
X153377940Y-132260766D01*
X153364194Y-132400331D01*
X153309872Y-132579409D01*
X153221657Y-132744447D01*
X153102941Y-132889101D01*
X152958287Y-133007817D01*
X152793248Y-133096032D01*
X152703709Y-133123193D01*
X152614171Y-133150354D01*
X152427940Y-133168696D01*
X152241708Y-133150354D01*
X152152170Y-133123193D01*
X152062631Y-133096032D01*
X151897593Y-133007817D01*
X151752939Y-132889101D01*
X151634223Y-132744447D01*
X151546008Y-132579408D01*
X151518847Y-132489869D01*
X151491686Y-132400331D01*
X151477940Y-132260764D01*
X151477940Y-131467435D01*
X151491686Y-131327868D01*
X151491686Y-131327866D01*
X151546008Y-131148794D01*
X151634224Y-130983753D01*
X151752940Y-130839099D01*
X151897594Y-130720383D01*
X152062632Y-130632168D01*
X152152171Y-130605007D01*
X152241709Y-130577846D01*
X152427940Y-130559504D01*
X152614172Y-130577846D01*
X152614172Y-130577846D01*
G37*
G36*
X150074172Y-130577846D02*
X150163710Y-130605007D01*
X150253249Y-130632168D01*
X150418287Y-130720383D01*
X150562941Y-130839099D01*
X150681657Y-130983753D01*
X150769872Y-131148791D01*
X150787979Y-131208484D01*
X150824194Y-131327868D01*
X150824194Y-131327870D01*
X150837940Y-131467435D01*
X150837940Y-132260766D01*
X150824194Y-132400331D01*
X150769872Y-132579409D01*
X150681657Y-132744447D01*
X150562941Y-132889101D01*
X150418287Y-133007817D01*
X150253248Y-133096032D01*
X150163709Y-133123193D01*
X150074171Y-133150354D01*
X149887940Y-133168696D01*
X149701708Y-133150354D01*
X149612170Y-133123193D01*
X149522631Y-133096032D01*
X149357593Y-133007817D01*
X149212939Y-132889101D01*
X149094223Y-132744447D01*
X149006008Y-132579408D01*
X148978847Y-132489869D01*
X148951686Y-132400331D01*
X148937940Y-132260764D01*
X148937940Y-131467435D01*
X148951686Y-131327868D01*
X148951686Y-131327866D01*
X149006008Y-131148794D01*
X149094224Y-130983753D01*
X149212940Y-130839099D01*
X149357594Y-130720383D01*
X149522632Y-130632168D01*
X149612171Y-130605007D01*
X149701709Y-130577846D01*
X149887940Y-130559504D01*
X150074172Y-130577846D01*
X150074172Y-130577846D01*
G37*
G36*
X147534172Y-130577846D02*
X147623710Y-130605007D01*
X147713249Y-130632168D01*
X147878287Y-130720383D01*
X148022941Y-130839099D01*
X148141657Y-130983753D01*
X148229872Y-131148791D01*
X148247979Y-131208484D01*
X148284194Y-131327868D01*
X148284194Y-131327870D01*
X148297940Y-131467435D01*
X148297940Y-132260766D01*
X148284194Y-132400331D01*
X148229872Y-132579409D01*
X148141657Y-132744447D01*
X148022941Y-132889101D01*
X147878287Y-133007817D01*
X147713248Y-133096032D01*
X147623709Y-133123193D01*
X147534171Y-133150354D01*
X147347940Y-133168696D01*
X147161708Y-133150354D01*
X147072170Y-133123193D01*
X146982631Y-133096032D01*
X146817593Y-133007817D01*
X146672939Y-132889101D01*
X146554223Y-132744447D01*
X146466008Y-132579408D01*
X146438847Y-132489869D01*
X146411686Y-132400331D01*
X146397940Y-132260764D01*
X146397940Y-131467435D01*
X146411686Y-131327868D01*
X146411686Y-131327866D01*
X146466008Y-131148794D01*
X146554224Y-130983753D01*
X146672940Y-130839099D01*
X146817594Y-130720383D01*
X146982632Y-130632168D01*
X147072171Y-130605007D01*
X147161709Y-130577846D01*
X147347940Y-130559504D01*
X147534172Y-130577846D01*
X147534172Y-130577846D01*
G37*
G36*
X144994172Y-130577846D02*
X145083710Y-130605007D01*
X145173249Y-130632168D01*
X145338287Y-130720383D01*
X145482941Y-130839099D01*
X145601657Y-130983753D01*
X145689872Y-131148791D01*
X145707979Y-131208484D01*
X145744194Y-131327868D01*
X145744194Y-131327870D01*
X145757940Y-131467435D01*
X145757940Y-132260766D01*
X145744194Y-132400331D01*
X145689872Y-132579409D01*
X145601657Y-132744447D01*
X145482941Y-132889101D01*
X145338287Y-133007817D01*
X145173248Y-133096032D01*
X145083709Y-133123193D01*
X144994171Y-133150354D01*
X144807940Y-133168696D01*
X144621708Y-133150354D01*
X144532170Y-133123193D01*
X144442631Y-133096032D01*
X144277593Y-133007817D01*
X144132939Y-132889101D01*
X144014223Y-132744447D01*
X143926008Y-132579408D01*
X143898847Y-132489869D01*
X143871686Y-132400331D01*
X143857940Y-132260764D01*
X143857940Y-131467435D01*
X143871686Y-131327868D01*
X143871686Y-131327866D01*
X143926008Y-131148794D01*
X144014224Y-130983753D01*
X144132940Y-130839099D01*
X144277594Y-130720383D01*
X144442632Y-130632168D01*
X144532171Y-130605007D01*
X144621709Y-130577846D01*
X144807940Y-130559504D01*
X144994172Y-130577846D01*
X144994172Y-130577846D01*
G37*
G36*
X142454172Y-130577846D02*
X142543710Y-130605007D01*
X142633249Y-130632168D01*
X142798287Y-130720383D01*
X142942941Y-130839099D01*
X143061657Y-130983753D01*
X143149872Y-131148791D01*
X143167979Y-131208484D01*
X143204194Y-131327868D01*
X143204194Y-131327870D01*
X143217940Y-131467435D01*
X143217940Y-132260766D01*
X143204194Y-132400331D01*
X143149872Y-132579409D01*
X143061657Y-132744447D01*
X142942941Y-132889101D01*
X142798287Y-133007817D01*
X142633248Y-133096032D01*
X142543709Y-133123193D01*
X142454171Y-133150354D01*
X142267940Y-133168696D01*
X142081708Y-133150354D01*
X141992170Y-133123193D01*
X141902631Y-133096032D01*
X141737593Y-133007817D01*
X141592939Y-132889101D01*
X141474223Y-132744447D01*
X141386008Y-132579408D01*
X141358847Y-132489869D01*
X141331686Y-132400331D01*
X141317940Y-132260764D01*
X141317940Y-131467435D01*
X141331686Y-131327868D01*
X141331686Y-131327866D01*
X141386008Y-131148794D01*
X141474224Y-130983753D01*
X141592940Y-130839099D01*
X141737594Y-130720383D01*
X141902632Y-130632168D01*
X141992171Y-130605007D01*
X142081709Y-130577846D01*
X142267940Y-130559504D01*
X142454172Y-130577846D01*
X142454172Y-130577846D01*
G37*
G36*
X139914172Y-130577846D02*
X140003710Y-130605007D01*
X140093249Y-130632168D01*
X140258287Y-130720383D01*
X140402941Y-130839099D01*
X140521657Y-130983753D01*
X140609872Y-131148791D01*
X140627979Y-131208484D01*
X140664194Y-131327868D01*
X140664194Y-131327870D01*
X140677940Y-131467435D01*
X140677940Y-132260766D01*
X140664194Y-132400331D01*
X140609872Y-132579409D01*
X140521657Y-132744447D01*
X140402941Y-132889101D01*
X140258287Y-133007817D01*
X140093248Y-133096032D01*
X140003709Y-133123193D01*
X139914171Y-133150354D01*
X139727940Y-133168696D01*
X139541708Y-133150354D01*
X139452170Y-133123193D01*
X139362631Y-133096032D01*
X139197593Y-133007817D01*
X139052939Y-132889101D01*
X138934223Y-132744447D01*
X138846008Y-132579408D01*
X138818847Y-132489869D01*
X138791686Y-132400331D01*
X138777940Y-132260764D01*
X138777940Y-131467435D01*
X138791686Y-131327868D01*
X138791686Y-131327866D01*
X138846008Y-131148794D01*
X138934224Y-130983753D01*
X139052940Y-130839099D01*
X139197594Y-130720383D01*
X139362632Y-130632168D01*
X139452171Y-130605007D01*
X139541709Y-130577846D01*
X139727940Y-130559504D01*
X139914172Y-130577846D01*
X139914172Y-130577846D01*
G37*
G36*
X137374172Y-130577846D02*
X137463710Y-130605007D01*
X137553249Y-130632168D01*
X137718287Y-130720383D01*
X137862941Y-130839099D01*
X137981657Y-130983753D01*
X138069872Y-131148791D01*
X138087979Y-131208484D01*
X138124194Y-131327868D01*
X138124194Y-131327870D01*
X138137940Y-131467435D01*
X138137940Y-132260766D01*
X138124194Y-132400331D01*
X138069872Y-132579409D01*
X137981657Y-132744447D01*
X137862941Y-132889101D01*
X137718287Y-133007817D01*
X137553248Y-133096032D01*
X137463709Y-133123193D01*
X137374171Y-133150354D01*
X137187940Y-133168696D01*
X137001708Y-133150354D01*
X136912170Y-133123193D01*
X136822631Y-133096032D01*
X136657593Y-133007817D01*
X136512939Y-132889101D01*
X136394223Y-132744447D01*
X136306008Y-132579408D01*
X136278847Y-132489869D01*
X136251686Y-132400331D01*
X136237940Y-132260764D01*
X136237940Y-131467435D01*
X136251686Y-131327868D01*
X136251686Y-131327866D01*
X136306008Y-131148794D01*
X136394224Y-130983753D01*
X136512940Y-130839099D01*
X136657594Y-130720383D01*
X136822632Y-130632168D01*
X136912171Y-130605007D01*
X137001709Y-130577846D01*
X137187940Y-130559504D01*
X137374172Y-130577846D01*
X137374172Y-130577846D01*
G37*
G36*
X132294172Y-130577846D02*
X132383710Y-130605007D01*
X132473249Y-130632168D01*
X132638287Y-130720383D01*
X132782941Y-130839099D01*
X132901657Y-130983753D01*
X132989872Y-131148791D01*
X133007979Y-131208484D01*
X133044194Y-131327868D01*
X133044194Y-131327870D01*
X133057940Y-131467435D01*
X133057940Y-132260766D01*
X133044194Y-132400331D01*
X132989872Y-132579409D01*
X132901657Y-132744447D01*
X132782941Y-132889101D01*
X132638287Y-133007817D01*
X132473248Y-133096032D01*
X132383709Y-133123193D01*
X132294171Y-133150354D01*
X132107940Y-133168696D01*
X131921708Y-133150354D01*
X131832170Y-133123193D01*
X131742631Y-133096032D01*
X131577593Y-133007817D01*
X131432939Y-132889101D01*
X131314223Y-132744447D01*
X131226008Y-132579408D01*
X131198847Y-132489869D01*
X131171686Y-132400331D01*
X131157940Y-132260764D01*
X131157940Y-131467435D01*
X131171686Y-131327868D01*
X131171686Y-131327866D01*
X131226008Y-131148794D01*
X131314224Y-130983753D01*
X131432940Y-130839099D01*
X131577594Y-130720383D01*
X131742632Y-130632168D01*
X131832171Y-130605007D01*
X131921709Y-130577846D01*
X132107940Y-130559504D01*
X132294172Y-130577846D01*
X132294172Y-130577846D01*
G37*
G36*
X155154172Y-130577846D02*
X155243710Y-130605007D01*
X155333249Y-130632168D01*
X155498287Y-130720383D01*
X155642941Y-130839099D01*
X155761657Y-130983753D01*
X155849872Y-131148791D01*
X155867979Y-131208484D01*
X155904194Y-131327868D01*
X155904194Y-131327870D01*
X155917940Y-131467435D01*
X155917940Y-132260766D01*
X155904194Y-132400331D01*
X155849872Y-132579409D01*
X155761657Y-132744447D01*
X155642941Y-132889101D01*
X155498287Y-133007817D01*
X155333248Y-133096032D01*
X155243709Y-133123193D01*
X155154171Y-133150354D01*
X154967940Y-133168696D01*
X154781708Y-133150354D01*
X154692170Y-133123193D01*
X154602631Y-133096032D01*
X154437593Y-133007817D01*
X154292939Y-132889101D01*
X154174223Y-132744447D01*
X154086008Y-132579408D01*
X154058847Y-132489869D01*
X154031686Y-132400331D01*
X154017940Y-132260764D01*
X154017940Y-131467435D01*
X154031686Y-131327868D01*
X154031686Y-131327866D01*
X154086008Y-131148794D01*
X154174224Y-130983753D01*
X154292940Y-130839099D01*
X154437594Y-130720383D01*
X154602632Y-130632168D01*
X154692171Y-130605007D01*
X154781709Y-130577846D01*
X154967940Y-130559504D01*
X155154172Y-130577846D01*
X155154172Y-130577846D01*
G37*
G36*
X157694172Y-130577846D02*
X157783710Y-130605007D01*
X157873249Y-130632168D01*
X158038287Y-130720383D01*
X158182941Y-130839099D01*
X158301657Y-130983753D01*
X158389872Y-131148791D01*
X158407979Y-131208484D01*
X158444194Y-131327868D01*
X158444194Y-131327870D01*
X158457940Y-131467435D01*
X158457940Y-132260766D01*
X158444194Y-132400331D01*
X158389872Y-132579409D01*
X158301657Y-132744447D01*
X158182941Y-132889101D01*
X158038287Y-133007817D01*
X157873248Y-133096032D01*
X157783709Y-133123193D01*
X157694171Y-133150354D01*
X157507940Y-133168696D01*
X157321708Y-133150354D01*
X157232170Y-133123193D01*
X157142631Y-133096032D01*
X156977593Y-133007817D01*
X156832939Y-132889101D01*
X156714223Y-132744447D01*
X156626008Y-132579408D01*
X156598847Y-132489869D01*
X156571686Y-132400331D01*
X156557940Y-132260764D01*
X156557940Y-131467435D01*
X156571686Y-131327868D01*
X156571686Y-131327866D01*
X156626008Y-131148794D01*
X156714224Y-130983753D01*
X156832940Y-130839099D01*
X156977594Y-130720383D01*
X157142632Y-130632168D01*
X157232171Y-130605007D01*
X157321709Y-130577846D01*
X157507940Y-130559504D01*
X157694172Y-130577846D01*
X157694172Y-130577846D01*
G37*
G36*
X113354400Y-132522800D02*
X109454400Y-132522800D01*
X109454400Y-130522800D01*
X113354400Y-130522800D01*
X113354400Y-132522800D01*
X113354400Y-132522800D01*
G37*
G36*
X185100000Y-132090000D02*
X183200000Y-132090000D01*
X183200000Y-129740000D01*
X185100000Y-129740000D01*
X185100000Y-132090000D01*
X185100000Y-132090000D01*
G37*
G36*
X124690400Y-131598000D02*
X121740400Y-131598000D01*
X121740400Y-128498000D01*
X124690400Y-128498000D01*
X124690400Y-131598000D01*
X124690400Y-131598000D01*
G37*
G36*
X118340400Y-131598000D02*
X115390400Y-131598000D01*
X115390400Y-128498000D01*
X118340400Y-128498000D01*
X118340400Y-131598000D01*
X118340400Y-131598000D01*
G37*
G36*
X99955716Y-126916544D02*
X100356090Y-127082384D01*
X100716421Y-127323150D01*
X101022850Y-127629579D01*
X101263616Y-127989910D01*
X101429456Y-128390284D01*
X101514000Y-128815317D01*
X101514000Y-129248683D01*
X101429456Y-129673716D01*
X101263616Y-130074090D01*
X101022850Y-130434421D01*
X100716421Y-130740850D01*
X100356090Y-130981616D01*
X99955716Y-131147456D01*
X99530683Y-131232000D01*
X99097317Y-131232000D01*
X98672284Y-131147456D01*
X98271910Y-130981616D01*
X97911579Y-130740850D01*
X97605150Y-130434421D01*
X97364384Y-130074090D01*
X97198544Y-129673716D01*
X97114000Y-129248683D01*
X97114000Y-128815317D01*
X97198544Y-128390284D01*
X97364384Y-127989910D01*
X97605150Y-127629579D01*
X97911579Y-127323150D01*
X98271910Y-127082384D01*
X98672284Y-126916544D01*
X99097317Y-126832000D01*
X99530683Y-126832000D01*
X99955716Y-126916544D01*
X99955716Y-126916544D01*
G37*
G36*
X149528000Y-130111000D02*
X148128000Y-130111000D01*
X148128000Y-128461000D01*
X149528000Y-128461000D01*
X149528000Y-130111000D01*
X149528000Y-130111000D01*
G37*
G36*
X136098000Y-130111000D02*
X134698000Y-130111000D01*
X134698000Y-128461000D01*
X136098000Y-128461000D01*
X136098000Y-130111000D01*
X136098000Y-130111000D01*
G37*
G36*
X138098000Y-130111000D02*
X136698000Y-130111000D01*
X136698000Y-128461000D01*
X138098000Y-128461000D01*
X138098000Y-130111000D01*
X138098000Y-130111000D01*
G37*
G36*
X147528000Y-130111000D02*
X146128000Y-130111000D01*
X146128000Y-128461000D01*
X147528000Y-128461000D01*
X147528000Y-130111000D01*
X147528000Y-130111000D01*
G37*
G36*
X185100000Y-129340000D02*
X183200000Y-129340000D01*
X183200000Y-126990000D01*
X185100000Y-126990000D01*
X185100000Y-129340000D01*
X185100000Y-129340000D01*
G37*
G36*
X145630000Y-129262000D02*
X143930000Y-129262000D01*
X143930000Y-128162000D01*
X145630000Y-128162000D01*
X145630000Y-129262000D01*
X145630000Y-129262000D01*
G37*
G36*
X140550000Y-129262000D02*
X138850000Y-129262000D01*
X138850000Y-128162000D01*
X140550000Y-128162000D01*
X140550000Y-129262000D01*
X140550000Y-129262000D01*
G37*
G36*
X178924000Y-128866000D02*
X177824000Y-128866000D01*
X177824000Y-127166000D01*
X178924000Y-127166000D01*
X178924000Y-128866000D01*
X178924000Y-128866000D01*
G37*
G36*
X180824000Y-128866000D02*
X179724000Y-128866000D01*
X179724000Y-127166000D01*
X180824000Y-127166000D01*
X180824000Y-128866000D01*
X180824000Y-128866000D01*
G37*
G36*
X129390800Y-128813600D02*
X127040800Y-128813600D01*
X127040800Y-126913600D01*
X129390800Y-126913600D01*
X129390800Y-128813600D01*
X129390800Y-128813600D01*
G37*
G36*
X132140800Y-128813600D02*
X129790800Y-128813600D01*
X129790800Y-126913600D01*
X132140800Y-126913600D01*
X132140800Y-128813600D01*
X132140800Y-128813600D01*
G37*
G36*
X152139445Y-127484415D02*
X152230439Y-127522106D01*
X152275545Y-127552245D01*
X152312334Y-127576827D01*
X152381973Y-127646466D01*
X152381975Y-127646469D01*
X152436694Y-127728361D01*
X152474385Y-127819355D01*
X152493600Y-127915954D01*
X152493600Y-128014446D01*
X152474385Y-128111045D01*
X152436694Y-128202039D01*
X152382704Y-128282840D01*
X152381973Y-128283934D01*
X152312334Y-128353573D01*
X152312331Y-128353575D01*
X152230439Y-128408294D01*
X152139445Y-128445985D01*
X152042846Y-128465200D01*
X151944354Y-128465200D01*
X151847755Y-128445985D01*
X151756761Y-128408294D01*
X151674869Y-128353575D01*
X151674866Y-128353573D01*
X151605227Y-128283934D01*
X151604496Y-128282840D01*
X151550506Y-128202039D01*
X151512815Y-128111045D01*
X151493600Y-128014446D01*
X151493600Y-127915954D01*
X151512815Y-127819355D01*
X151550506Y-127728361D01*
X151605225Y-127646469D01*
X151605227Y-127646466D01*
X151674866Y-127576827D01*
X151711655Y-127552245D01*
X151756761Y-127522106D01*
X151847755Y-127484415D01*
X151944354Y-127465200D01*
X152042846Y-127465200D01*
X152139445Y-127484415D01*
X152139445Y-127484415D01*
G37*
G36*
X176015445Y-127230415D02*
X176088210Y-127260555D01*
X176106439Y-127268106D01*
X176187240Y-127322096D01*
X176188334Y-127322827D01*
X176257973Y-127392466D01*
X176257975Y-127392469D01*
X176306573Y-127465200D01*
X176312695Y-127474363D01*
X176350385Y-127565355D01*
X176369600Y-127661955D01*
X176369600Y-127760445D01*
X176350385Y-127857045D01*
X176329942Y-127906400D01*
X176312694Y-127948039D01*
X176268322Y-128014446D01*
X176257973Y-128029934D01*
X176188334Y-128099573D01*
X176188331Y-128099575D01*
X176106439Y-128154294D01*
X176015445Y-128191985D01*
X175918846Y-128211200D01*
X175820354Y-128211200D01*
X175723755Y-128191985D01*
X175632761Y-128154294D01*
X175550869Y-128099575D01*
X175550866Y-128099573D01*
X175481227Y-128029934D01*
X175470878Y-128014446D01*
X175426506Y-127948039D01*
X175409259Y-127906400D01*
X175388815Y-127857045D01*
X175369600Y-127760445D01*
X175369600Y-127661955D01*
X175388815Y-127565355D01*
X175426505Y-127474363D01*
X175432628Y-127465200D01*
X175481225Y-127392469D01*
X175481227Y-127392466D01*
X175550866Y-127322827D01*
X175551960Y-127322096D01*
X175632761Y-127268106D01*
X175650991Y-127260555D01*
X175723755Y-127230415D01*
X175820354Y-127211200D01*
X175918846Y-127211200D01*
X176015445Y-127230415D01*
X176015445Y-127230415D01*
G37*
G36*
X159251445Y-126925615D02*
X159342439Y-126963306D01*
X159382389Y-126990000D01*
X159424334Y-127018027D01*
X159493973Y-127087666D01*
X159493975Y-127087669D01*
X159546315Y-127166000D01*
X159548695Y-127169563D01*
X159573901Y-127230415D01*
X159586385Y-127260555D01*
X159605600Y-127357154D01*
X159605600Y-127455646D01*
X159586385Y-127552245D01*
X159548694Y-127643239D01*
X159536189Y-127661954D01*
X159493973Y-127725134D01*
X159424334Y-127794773D01*
X159424331Y-127794775D01*
X159342439Y-127849494D01*
X159342438Y-127849495D01*
X159342437Y-127849495D01*
X159251445Y-127887185D01*
X159154846Y-127906400D01*
X159056354Y-127906400D01*
X158959755Y-127887185D01*
X158868763Y-127849495D01*
X158868762Y-127849495D01*
X158868761Y-127849494D01*
X158786869Y-127794775D01*
X158786866Y-127794773D01*
X158717227Y-127725134D01*
X158675011Y-127661954D01*
X158662506Y-127643239D01*
X158624815Y-127552245D01*
X158605600Y-127455646D01*
X158605600Y-127357154D01*
X158624815Y-127260555D01*
X158637299Y-127230415D01*
X158662505Y-127169563D01*
X158664886Y-127166000D01*
X158717225Y-127087669D01*
X158717227Y-127087666D01*
X158786866Y-127018027D01*
X158828811Y-126990000D01*
X158868761Y-126963306D01*
X158959755Y-126925615D01*
X159056354Y-126906400D01*
X159154846Y-126906400D01*
X159251445Y-126925615D01*
X159251445Y-126925615D01*
G37*
G36*
X138098000Y-127825000D02*
X136698000Y-127825000D01*
X136698000Y-126175000D01*
X138098000Y-126175000D01*
X138098000Y-127825000D01*
X138098000Y-127825000D01*
G37*
G36*
X149528000Y-127825000D02*
X148128000Y-127825000D01*
X148128000Y-126175000D01*
X149528000Y-126175000D01*
X149528000Y-127825000D01*
X149528000Y-127825000D01*
G37*
G36*
X147528000Y-127825000D02*
X146128000Y-127825000D01*
X146128000Y-126175000D01*
X147528000Y-126175000D01*
X147528000Y-127825000D01*
X147528000Y-127825000D01*
G37*
G36*
X136098000Y-127825000D02*
X134698000Y-127825000D01*
X134698000Y-126175000D01*
X136098000Y-126175000D01*
X136098000Y-127825000D01*
X136098000Y-127825000D01*
G37*
G36*
X113354400Y-127642800D02*
X109454400Y-127642800D01*
X109454400Y-125642800D01*
X113354400Y-125642800D01*
X113354400Y-127642800D01*
X113354400Y-127642800D01*
G37*
G36*
X106380000Y-127469400D02*
X104980000Y-127469400D01*
X104980000Y-125819400D01*
X106380000Y-125819400D01*
X106380000Y-127469400D01*
X106380000Y-127469400D01*
G37*
G36*
X108380000Y-127469400D02*
X106980000Y-127469400D01*
X106980000Y-125819400D01*
X108380000Y-125819400D01*
X108380000Y-127469400D01*
X108380000Y-127469400D01*
G37*
G36*
X140550000Y-127362000D02*
X138850000Y-127362000D01*
X138850000Y-126262000D01*
X140550000Y-126262000D01*
X140550000Y-127362000D01*
X140550000Y-127362000D01*
G37*
G36*
X145630000Y-127362000D02*
X143930000Y-127362000D01*
X143930000Y-126262000D01*
X145630000Y-126262000D01*
X145630000Y-127362000D01*
X145630000Y-127362000D01*
G37*
G36*
X96950000Y-126922000D02*
X93550000Y-126922000D01*
X93550000Y-123522000D01*
X96950000Y-123522000D01*
X96950000Y-126922000D01*
X96950000Y-126922000D01*
G37*
G36*
X131863200Y-125655200D02*
X130163200Y-125655200D01*
X130163200Y-124555200D01*
X131863200Y-124555200D01*
X131863200Y-125655200D01*
X131863200Y-125655200D01*
G37*
G36*
X183076030Y-123372869D02*
X183076033Y-123372870D01*
X183076034Y-123372870D01*
X183264535Y-123430051D01*
X183264537Y-123430052D01*
X183438260Y-123522909D01*
X183590528Y-123647872D01*
X183715491Y-123800140D01*
X183806298Y-123970027D01*
X183808349Y-123973865D01*
X183863828Y-124156755D01*
X183865531Y-124162370D01*
X183884838Y-124358400D01*
X183865531Y-124554430D01*
X183865530Y-124554433D01*
X183865530Y-124554434D01*
X183853153Y-124595237D01*
X183808348Y-124742937D01*
X183715491Y-124916660D01*
X183590528Y-125068928D01*
X183438260Y-125193891D01*
X183438258Y-125193892D01*
X183264535Y-125286749D01*
X183076034Y-125343930D01*
X183076033Y-125343930D01*
X183076030Y-125343931D01*
X182929124Y-125358400D01*
X182830876Y-125358400D01*
X182683970Y-125343931D01*
X182683967Y-125343930D01*
X182683966Y-125343930D01*
X182495465Y-125286749D01*
X182321742Y-125193892D01*
X182321740Y-125193891D01*
X182169472Y-125068928D01*
X182044509Y-124916660D01*
X181951652Y-124742937D01*
X181906848Y-124595237D01*
X181894470Y-124554434D01*
X181894470Y-124554433D01*
X181894469Y-124554430D01*
X181875162Y-124358400D01*
X181894469Y-124162370D01*
X181896172Y-124156755D01*
X181951651Y-123973865D01*
X181953702Y-123970027D01*
X182044509Y-123800140D01*
X182169472Y-123647872D01*
X182321740Y-123522909D01*
X182495463Y-123430052D01*
X182495465Y-123430051D01*
X182683966Y-123372870D01*
X182683967Y-123372870D01*
X182683970Y-123372869D01*
X182830876Y-123358400D01*
X182929124Y-123358400D01*
X183076030Y-123372869D01*
X183076030Y-123372869D01*
G37*
G36*
X185616030Y-123372869D02*
X185616033Y-123372870D01*
X185616034Y-123372870D01*
X185804535Y-123430051D01*
X185804537Y-123430052D01*
X185978260Y-123522909D01*
X186130528Y-123647872D01*
X186255491Y-123800140D01*
X186346298Y-123970027D01*
X186348349Y-123973865D01*
X186403828Y-124156755D01*
X186405531Y-124162370D01*
X186424838Y-124358400D01*
X186405531Y-124554430D01*
X186405530Y-124554433D01*
X186405530Y-124554434D01*
X186393153Y-124595237D01*
X186348348Y-124742937D01*
X186255491Y-124916660D01*
X186130528Y-125068928D01*
X185978260Y-125193891D01*
X185978258Y-125193892D01*
X185804535Y-125286749D01*
X185616034Y-125343930D01*
X185616033Y-125343930D01*
X185616030Y-125343931D01*
X185469124Y-125358400D01*
X185370876Y-125358400D01*
X185223970Y-125343931D01*
X185223967Y-125343930D01*
X185223966Y-125343930D01*
X185035465Y-125286749D01*
X184861742Y-125193892D01*
X184861740Y-125193891D01*
X184709472Y-125068928D01*
X184584509Y-124916660D01*
X184491652Y-124742937D01*
X184446848Y-124595237D01*
X184434470Y-124554434D01*
X184434470Y-124554433D01*
X184434469Y-124554430D01*
X184415162Y-124358400D01*
X184434469Y-124162370D01*
X184436172Y-124156755D01*
X184491651Y-123973865D01*
X184493702Y-123970027D01*
X184584509Y-123800140D01*
X184709472Y-123647872D01*
X184861740Y-123522909D01*
X185035463Y-123430052D01*
X185035465Y-123430051D01*
X185223966Y-123372870D01*
X185223967Y-123372870D01*
X185223970Y-123372869D01*
X185370876Y-123358400D01*
X185469124Y-123358400D01*
X185616030Y-123372869D01*
X185616030Y-123372869D01*
G37*
G36*
X155136030Y-123372869D02*
X155136033Y-123372870D01*
X155136034Y-123372870D01*
X155324535Y-123430051D01*
X155324537Y-123430052D01*
X155498260Y-123522909D01*
X155650528Y-123647872D01*
X155775491Y-123800140D01*
X155866298Y-123970027D01*
X155868349Y-123973865D01*
X155923828Y-124156755D01*
X155925531Y-124162370D01*
X155944838Y-124358400D01*
X155925531Y-124554430D01*
X155925530Y-124554433D01*
X155925530Y-124554434D01*
X155913153Y-124595237D01*
X155868348Y-124742937D01*
X155775491Y-124916660D01*
X155650528Y-125068928D01*
X155498260Y-125193891D01*
X155498258Y-125193892D01*
X155324535Y-125286749D01*
X155136034Y-125343930D01*
X155136033Y-125343930D01*
X155136030Y-125343931D01*
X154989124Y-125358400D01*
X154890876Y-125358400D01*
X154743970Y-125343931D01*
X154743967Y-125343930D01*
X154743966Y-125343930D01*
X154555465Y-125286749D01*
X154381742Y-125193892D01*
X154381740Y-125193891D01*
X154229472Y-125068928D01*
X154104509Y-124916660D01*
X154011652Y-124742937D01*
X153966848Y-124595237D01*
X153954470Y-124554434D01*
X153954470Y-124554433D01*
X153954469Y-124554430D01*
X153935162Y-124358400D01*
X153954469Y-124162370D01*
X153956172Y-124156755D01*
X154011651Y-123973865D01*
X154013702Y-123970027D01*
X154104509Y-123800140D01*
X154229472Y-123647872D01*
X154381740Y-123522909D01*
X154555463Y-123430052D01*
X154555465Y-123430051D01*
X154743966Y-123372870D01*
X154743967Y-123372870D01*
X154743970Y-123372869D01*
X154890876Y-123358400D01*
X154989124Y-123358400D01*
X155136030Y-123372869D01*
X155136030Y-123372869D01*
G37*
G36*
X160216030Y-123372869D02*
X160216033Y-123372870D01*
X160216034Y-123372870D01*
X160404535Y-123430051D01*
X160404537Y-123430052D01*
X160578260Y-123522909D01*
X160730528Y-123647872D01*
X160855491Y-123800140D01*
X160946298Y-123970027D01*
X160948349Y-123973865D01*
X161003828Y-124156755D01*
X161005531Y-124162370D01*
X161024838Y-124358400D01*
X161005531Y-124554430D01*
X161005530Y-124554433D01*
X161005530Y-124554434D01*
X160993153Y-124595237D01*
X160948348Y-124742937D01*
X160855491Y-124916660D01*
X160730528Y-125068928D01*
X160578260Y-125193891D01*
X160578258Y-125193892D01*
X160404535Y-125286749D01*
X160216034Y-125343930D01*
X160216033Y-125343930D01*
X160216030Y-125343931D01*
X160069124Y-125358400D01*
X159970876Y-125358400D01*
X159823970Y-125343931D01*
X159823967Y-125343930D01*
X159823966Y-125343930D01*
X159635465Y-125286749D01*
X159461742Y-125193892D01*
X159461740Y-125193891D01*
X159309472Y-125068928D01*
X159184509Y-124916660D01*
X159091652Y-124742937D01*
X159046848Y-124595237D01*
X159034470Y-124554434D01*
X159034470Y-124554433D01*
X159034469Y-124554430D01*
X159015162Y-124358400D01*
X159034469Y-124162370D01*
X159036172Y-124156755D01*
X159091651Y-123973865D01*
X159093702Y-123970027D01*
X159184509Y-123800140D01*
X159309472Y-123647872D01*
X159461740Y-123522909D01*
X159635463Y-123430052D01*
X159635465Y-123430051D01*
X159823966Y-123372870D01*
X159823967Y-123372870D01*
X159823970Y-123372869D01*
X159970876Y-123358400D01*
X160069124Y-123358400D01*
X160216030Y-123372869D01*
X160216030Y-123372869D01*
G37*
G36*
X152596030Y-123372869D02*
X152596033Y-123372870D01*
X152596034Y-123372870D01*
X152784535Y-123430051D01*
X152784537Y-123430052D01*
X152958260Y-123522909D01*
X153110528Y-123647872D01*
X153235491Y-123800140D01*
X153326298Y-123970027D01*
X153328349Y-123973865D01*
X153383828Y-124156755D01*
X153385531Y-124162370D01*
X153404838Y-124358400D01*
X153385531Y-124554430D01*
X153385530Y-124554433D01*
X153385530Y-124554434D01*
X153373153Y-124595237D01*
X153328348Y-124742937D01*
X153235491Y-124916660D01*
X153110528Y-125068928D01*
X152958260Y-125193891D01*
X152958258Y-125193892D01*
X152784535Y-125286749D01*
X152596034Y-125343930D01*
X152596033Y-125343930D01*
X152596030Y-125343931D01*
X152449124Y-125358400D01*
X152350876Y-125358400D01*
X152203970Y-125343931D01*
X152203967Y-125343930D01*
X152203966Y-125343930D01*
X152015465Y-125286749D01*
X151841742Y-125193892D01*
X151841740Y-125193891D01*
X151689472Y-125068928D01*
X151564509Y-124916660D01*
X151471652Y-124742937D01*
X151426848Y-124595237D01*
X151414470Y-124554434D01*
X151414470Y-124554433D01*
X151414469Y-124554430D01*
X151395162Y-124358400D01*
X151414469Y-124162370D01*
X151416172Y-124156755D01*
X151471651Y-123973865D01*
X151473702Y-123970027D01*
X151564509Y-123800140D01*
X151689472Y-123647872D01*
X151841740Y-123522909D01*
X152015463Y-123430052D01*
X152015465Y-123430051D01*
X152203966Y-123372870D01*
X152203967Y-123372870D01*
X152203970Y-123372869D01*
X152350876Y-123358400D01*
X152449124Y-123358400D01*
X152596030Y-123372869D01*
X152596030Y-123372869D01*
G37*
G36*
X162756030Y-123372869D02*
X162756033Y-123372870D01*
X162756034Y-123372870D01*
X162944535Y-123430051D01*
X162944537Y-123430052D01*
X163118260Y-123522909D01*
X163270528Y-123647872D01*
X163395491Y-123800140D01*
X163486298Y-123970027D01*
X163488349Y-123973865D01*
X163543828Y-124156755D01*
X163545531Y-124162370D01*
X163564838Y-124358400D01*
X163545531Y-124554430D01*
X163545530Y-124554433D01*
X163545530Y-124554434D01*
X163533153Y-124595237D01*
X163488348Y-124742937D01*
X163395491Y-124916660D01*
X163270528Y-125068928D01*
X163118260Y-125193891D01*
X163118258Y-125193892D01*
X162944535Y-125286749D01*
X162756034Y-125343930D01*
X162756033Y-125343930D01*
X162756030Y-125343931D01*
X162609124Y-125358400D01*
X162510876Y-125358400D01*
X162363970Y-125343931D01*
X162363967Y-125343930D01*
X162363966Y-125343930D01*
X162175465Y-125286749D01*
X162001742Y-125193892D01*
X162001740Y-125193891D01*
X161849472Y-125068928D01*
X161724509Y-124916660D01*
X161631652Y-124742937D01*
X161586848Y-124595237D01*
X161574470Y-124554434D01*
X161574470Y-124554433D01*
X161574469Y-124554430D01*
X161555162Y-124358400D01*
X161574469Y-124162370D01*
X161576172Y-124156755D01*
X161631651Y-123973865D01*
X161633702Y-123970027D01*
X161724509Y-123800140D01*
X161849472Y-123647872D01*
X162001740Y-123522909D01*
X162175463Y-123430052D01*
X162175465Y-123430051D01*
X162363966Y-123372870D01*
X162363967Y-123372870D01*
X162363970Y-123372869D01*
X162510876Y-123358400D01*
X162609124Y-123358400D01*
X162756030Y-123372869D01*
X162756030Y-123372869D01*
G37*
G36*
X165296030Y-123372869D02*
X165296033Y-123372870D01*
X165296034Y-123372870D01*
X165484535Y-123430051D01*
X165484537Y-123430052D01*
X165658260Y-123522909D01*
X165810528Y-123647872D01*
X165935491Y-123800140D01*
X166026298Y-123970027D01*
X166028349Y-123973865D01*
X166083828Y-124156755D01*
X166085531Y-124162370D01*
X166104838Y-124358400D01*
X166085531Y-124554430D01*
X166085530Y-124554433D01*
X166085530Y-124554434D01*
X166073153Y-124595237D01*
X166028348Y-124742937D01*
X165935491Y-124916660D01*
X165810528Y-125068928D01*
X165658260Y-125193891D01*
X165658258Y-125193892D01*
X165484535Y-125286749D01*
X165296034Y-125343930D01*
X165296033Y-125343930D01*
X165296030Y-125343931D01*
X165149124Y-125358400D01*
X165050876Y-125358400D01*
X164903970Y-125343931D01*
X164903967Y-125343930D01*
X164903966Y-125343930D01*
X164715465Y-125286749D01*
X164541742Y-125193892D01*
X164541740Y-125193891D01*
X164389472Y-125068928D01*
X164264509Y-124916660D01*
X164171652Y-124742937D01*
X164126848Y-124595237D01*
X164114470Y-124554434D01*
X164114470Y-124554433D01*
X164114469Y-124554430D01*
X164095162Y-124358400D01*
X164114469Y-124162370D01*
X164116172Y-124156755D01*
X164171651Y-123973865D01*
X164173702Y-123970027D01*
X164264509Y-123800140D01*
X164389472Y-123647872D01*
X164541740Y-123522909D01*
X164715463Y-123430052D01*
X164715465Y-123430051D01*
X164903966Y-123372870D01*
X164903967Y-123372870D01*
X164903970Y-123372869D01*
X165050876Y-123358400D01*
X165149124Y-123358400D01*
X165296030Y-123372869D01*
X165296030Y-123372869D01*
G37*
G36*
X150056030Y-123372869D02*
X150056033Y-123372870D01*
X150056034Y-123372870D01*
X150244535Y-123430051D01*
X150244537Y-123430052D01*
X150418260Y-123522909D01*
X150570528Y-123647872D01*
X150695491Y-123800140D01*
X150786298Y-123970027D01*
X150788349Y-123973865D01*
X150843828Y-124156755D01*
X150845531Y-124162370D01*
X150864838Y-124358400D01*
X150845531Y-124554430D01*
X150845530Y-124554433D01*
X150845530Y-124554434D01*
X150833153Y-124595237D01*
X150788348Y-124742937D01*
X150695491Y-124916660D01*
X150570528Y-125068928D01*
X150418260Y-125193891D01*
X150418258Y-125193892D01*
X150244535Y-125286749D01*
X150056034Y-125343930D01*
X150056033Y-125343930D01*
X150056030Y-125343931D01*
X149909124Y-125358400D01*
X149810876Y-125358400D01*
X149663970Y-125343931D01*
X149663967Y-125343930D01*
X149663966Y-125343930D01*
X149475465Y-125286749D01*
X149301742Y-125193892D01*
X149301740Y-125193891D01*
X149149472Y-125068928D01*
X149024509Y-124916660D01*
X148931652Y-124742937D01*
X148886848Y-124595237D01*
X148874470Y-124554434D01*
X148874470Y-124554433D01*
X148874469Y-124554430D01*
X148855162Y-124358400D01*
X148874469Y-124162370D01*
X148876172Y-124156755D01*
X148931651Y-123973865D01*
X148933702Y-123970027D01*
X149024509Y-123800140D01*
X149149472Y-123647872D01*
X149301740Y-123522909D01*
X149475463Y-123430052D01*
X149475465Y-123430051D01*
X149663966Y-123372870D01*
X149663967Y-123372870D01*
X149663970Y-123372869D01*
X149810876Y-123358400D01*
X149909124Y-123358400D01*
X150056030Y-123372869D01*
X150056030Y-123372869D01*
G37*
G36*
X180536030Y-123372869D02*
X180536033Y-123372870D01*
X180536034Y-123372870D01*
X180724535Y-123430051D01*
X180724537Y-123430052D01*
X180898260Y-123522909D01*
X181050528Y-123647872D01*
X181175491Y-123800140D01*
X181266298Y-123970027D01*
X181268349Y-123973865D01*
X181323828Y-124156755D01*
X181325531Y-124162370D01*
X181344838Y-124358400D01*
X181325531Y-124554430D01*
X181325530Y-124554433D01*
X181325530Y-124554434D01*
X181313153Y-124595237D01*
X181268348Y-124742937D01*
X181175491Y-124916660D01*
X181050528Y-125068928D01*
X180898260Y-125193891D01*
X180898258Y-125193892D01*
X180724535Y-125286749D01*
X180536034Y-125343930D01*
X180536033Y-125343930D01*
X180536030Y-125343931D01*
X180389124Y-125358400D01*
X180290876Y-125358400D01*
X180143970Y-125343931D01*
X180143967Y-125343930D01*
X180143966Y-125343930D01*
X179955465Y-125286749D01*
X179781742Y-125193892D01*
X179781740Y-125193891D01*
X179629472Y-125068928D01*
X179504509Y-124916660D01*
X179411652Y-124742937D01*
X179366848Y-124595237D01*
X179354470Y-124554434D01*
X179354470Y-124554433D01*
X179354469Y-124554430D01*
X179335162Y-124358400D01*
X179354469Y-124162370D01*
X179356172Y-124156755D01*
X179411651Y-123973865D01*
X179413702Y-123970027D01*
X179504509Y-123800140D01*
X179629472Y-123647872D01*
X179781740Y-123522909D01*
X179955463Y-123430052D01*
X179955465Y-123430051D01*
X180143966Y-123372870D01*
X180143967Y-123372870D01*
X180143970Y-123372869D01*
X180290876Y-123358400D01*
X180389124Y-123358400D01*
X180536030Y-123372869D01*
X180536030Y-123372869D01*
G37*
G36*
X167836030Y-123372869D02*
X167836033Y-123372870D01*
X167836034Y-123372870D01*
X168024535Y-123430051D01*
X168024537Y-123430052D01*
X168198260Y-123522909D01*
X168350528Y-123647872D01*
X168475491Y-123800140D01*
X168566298Y-123970027D01*
X168568349Y-123973865D01*
X168623828Y-124156755D01*
X168625531Y-124162370D01*
X168644838Y-124358400D01*
X168625531Y-124554430D01*
X168625530Y-124554433D01*
X168625530Y-124554434D01*
X168613153Y-124595237D01*
X168568348Y-124742937D01*
X168475491Y-124916660D01*
X168350528Y-125068928D01*
X168198260Y-125193891D01*
X168198258Y-125193892D01*
X168024535Y-125286749D01*
X167836034Y-125343930D01*
X167836033Y-125343930D01*
X167836030Y-125343931D01*
X167689124Y-125358400D01*
X167590876Y-125358400D01*
X167443970Y-125343931D01*
X167443967Y-125343930D01*
X167443966Y-125343930D01*
X167255465Y-125286749D01*
X167081742Y-125193892D01*
X167081740Y-125193891D01*
X166929472Y-125068928D01*
X166804509Y-124916660D01*
X166711652Y-124742937D01*
X166666848Y-124595237D01*
X166654470Y-124554434D01*
X166654470Y-124554433D01*
X166654469Y-124554430D01*
X166635162Y-124358400D01*
X166654469Y-124162370D01*
X166656172Y-124156755D01*
X166711651Y-123973865D01*
X166713702Y-123970027D01*
X166804509Y-123800140D01*
X166929472Y-123647872D01*
X167081740Y-123522909D01*
X167255463Y-123430052D01*
X167255465Y-123430051D01*
X167443966Y-123372870D01*
X167443967Y-123372870D01*
X167443970Y-123372869D01*
X167590876Y-123358400D01*
X167689124Y-123358400D01*
X167836030Y-123372869D01*
X167836030Y-123372869D01*
G37*
G36*
X157676030Y-123372869D02*
X157676033Y-123372870D01*
X157676034Y-123372870D01*
X157864535Y-123430051D01*
X157864537Y-123430052D01*
X158038260Y-123522909D01*
X158190528Y-123647872D01*
X158315491Y-123800140D01*
X158406298Y-123970027D01*
X158408349Y-123973865D01*
X158463828Y-124156755D01*
X158465531Y-124162370D01*
X158484838Y-124358400D01*
X158465531Y-124554430D01*
X158465530Y-124554433D01*
X158465530Y-124554434D01*
X158453153Y-124595237D01*
X158408348Y-124742937D01*
X158315491Y-124916660D01*
X158190528Y-125068928D01*
X158038260Y-125193891D01*
X158038258Y-125193892D01*
X157864535Y-125286749D01*
X157676034Y-125343930D01*
X157676033Y-125343930D01*
X157676030Y-125343931D01*
X157529124Y-125358400D01*
X157430876Y-125358400D01*
X157283970Y-125343931D01*
X157283967Y-125343930D01*
X157283966Y-125343930D01*
X157095465Y-125286749D01*
X156921742Y-125193892D01*
X156921740Y-125193891D01*
X156769472Y-125068928D01*
X156644509Y-124916660D01*
X156551652Y-124742937D01*
X156506848Y-124595237D01*
X156494470Y-124554434D01*
X156494470Y-124554433D01*
X156494469Y-124554430D01*
X156475162Y-124358400D01*
X156494469Y-124162370D01*
X156496172Y-124156755D01*
X156551651Y-123973865D01*
X156553702Y-123970027D01*
X156644509Y-123800140D01*
X156769472Y-123647872D01*
X156921740Y-123522909D01*
X157095463Y-123430052D01*
X157095465Y-123430051D01*
X157283966Y-123372870D01*
X157283967Y-123372870D01*
X157283970Y-123372869D01*
X157430876Y-123358400D01*
X157529124Y-123358400D01*
X157676030Y-123372869D01*
X157676030Y-123372869D01*
G37*
G36*
X170376030Y-123372869D02*
X170376033Y-123372870D01*
X170376034Y-123372870D01*
X170564535Y-123430051D01*
X170564537Y-123430052D01*
X170738260Y-123522909D01*
X170890528Y-123647872D01*
X171015491Y-123800140D01*
X171106298Y-123970027D01*
X171108349Y-123973865D01*
X171163828Y-124156755D01*
X171165531Y-124162370D01*
X171184838Y-124358400D01*
X171165531Y-124554430D01*
X171165530Y-124554433D01*
X171165530Y-124554434D01*
X171153153Y-124595237D01*
X171108348Y-124742937D01*
X171015491Y-124916660D01*
X170890528Y-125068928D01*
X170738260Y-125193891D01*
X170738258Y-125193892D01*
X170564535Y-125286749D01*
X170376034Y-125343930D01*
X170376033Y-125343930D01*
X170376030Y-125343931D01*
X170229124Y-125358400D01*
X170130876Y-125358400D01*
X169983970Y-125343931D01*
X169983967Y-125343930D01*
X169983966Y-125343930D01*
X169795465Y-125286749D01*
X169621742Y-125193892D01*
X169621740Y-125193891D01*
X169469472Y-125068928D01*
X169344509Y-124916660D01*
X169251652Y-124742937D01*
X169206848Y-124595237D01*
X169194470Y-124554434D01*
X169194470Y-124554433D01*
X169194469Y-124554430D01*
X169175162Y-124358400D01*
X169194469Y-124162370D01*
X169196172Y-124156755D01*
X169251651Y-123973865D01*
X169253702Y-123970027D01*
X169344509Y-123800140D01*
X169469472Y-123647872D01*
X169621740Y-123522909D01*
X169795463Y-123430052D01*
X169795465Y-123430051D01*
X169983966Y-123372870D01*
X169983967Y-123372870D01*
X169983970Y-123372869D01*
X170130876Y-123358400D01*
X170229124Y-123358400D01*
X170376030Y-123372869D01*
X170376030Y-123372869D01*
G37*
G36*
X144976030Y-123372869D02*
X144976033Y-123372870D01*
X144976034Y-123372870D01*
X145164535Y-123430051D01*
X145164537Y-123430052D01*
X145338260Y-123522909D01*
X145490528Y-123647872D01*
X145615491Y-123800140D01*
X145706298Y-123970027D01*
X145708349Y-123973865D01*
X145763828Y-124156755D01*
X145765531Y-124162370D01*
X145784838Y-124358400D01*
X145765531Y-124554430D01*
X145765530Y-124554433D01*
X145765530Y-124554434D01*
X145753153Y-124595237D01*
X145708348Y-124742937D01*
X145615491Y-124916660D01*
X145490528Y-125068928D01*
X145338260Y-125193891D01*
X145338258Y-125193892D01*
X145164535Y-125286749D01*
X144976034Y-125343930D01*
X144976033Y-125343930D01*
X144976030Y-125343931D01*
X144829124Y-125358400D01*
X144730876Y-125358400D01*
X144583970Y-125343931D01*
X144583967Y-125343930D01*
X144583966Y-125343930D01*
X144395465Y-125286749D01*
X144221742Y-125193892D01*
X144221740Y-125193891D01*
X144069472Y-125068928D01*
X143944509Y-124916660D01*
X143851652Y-124742937D01*
X143806848Y-124595237D01*
X143794470Y-124554434D01*
X143794470Y-124554433D01*
X143794469Y-124554430D01*
X143775162Y-124358400D01*
X143794469Y-124162370D01*
X143796172Y-124156755D01*
X143851651Y-123973865D01*
X143853702Y-123970027D01*
X143944509Y-123800140D01*
X144069472Y-123647872D01*
X144221740Y-123522909D01*
X144395463Y-123430052D01*
X144395465Y-123430051D01*
X144583966Y-123372870D01*
X144583967Y-123372870D01*
X144583970Y-123372869D01*
X144730876Y-123358400D01*
X144829124Y-123358400D01*
X144976030Y-123372869D01*
X144976030Y-123372869D01*
G37*
G36*
X147516030Y-123372869D02*
X147516033Y-123372870D01*
X147516034Y-123372870D01*
X147704535Y-123430051D01*
X147704537Y-123430052D01*
X147878260Y-123522909D01*
X148030528Y-123647872D01*
X148155491Y-123800140D01*
X148246298Y-123970027D01*
X148248349Y-123973865D01*
X148303828Y-124156755D01*
X148305531Y-124162370D01*
X148324838Y-124358400D01*
X148305531Y-124554430D01*
X148305530Y-124554433D01*
X148305530Y-124554434D01*
X148293153Y-124595237D01*
X148248348Y-124742937D01*
X148155491Y-124916660D01*
X148030528Y-125068928D01*
X147878260Y-125193891D01*
X147878258Y-125193892D01*
X147704535Y-125286749D01*
X147516034Y-125343930D01*
X147516033Y-125343930D01*
X147516030Y-125343931D01*
X147369124Y-125358400D01*
X147270876Y-125358400D01*
X147123970Y-125343931D01*
X147123967Y-125343930D01*
X147123966Y-125343930D01*
X146935465Y-125286749D01*
X146761742Y-125193892D01*
X146761740Y-125193891D01*
X146609472Y-125068928D01*
X146484509Y-124916660D01*
X146391652Y-124742937D01*
X146346848Y-124595237D01*
X146334470Y-124554434D01*
X146334470Y-124554433D01*
X146334469Y-124554430D01*
X146315162Y-124358400D01*
X146334469Y-124162370D01*
X146336172Y-124156755D01*
X146391651Y-123973865D01*
X146393702Y-123970027D01*
X146484509Y-123800140D01*
X146609472Y-123647872D01*
X146761740Y-123522909D01*
X146935463Y-123430052D01*
X146935465Y-123430051D01*
X147123966Y-123372870D01*
X147123967Y-123372870D01*
X147123970Y-123372869D01*
X147270876Y-123358400D01*
X147369124Y-123358400D01*
X147516030Y-123372869D01*
X147516030Y-123372869D01*
G37*
G36*
X172916030Y-123372869D02*
X172916033Y-123372870D01*
X172916034Y-123372870D01*
X173104535Y-123430051D01*
X173104537Y-123430052D01*
X173278260Y-123522909D01*
X173430528Y-123647872D01*
X173555491Y-123800140D01*
X173646298Y-123970027D01*
X173648349Y-123973865D01*
X173703828Y-124156755D01*
X173705531Y-124162370D01*
X173724838Y-124358400D01*
X173705531Y-124554430D01*
X173705530Y-124554433D01*
X173705530Y-124554434D01*
X173693153Y-124595237D01*
X173648348Y-124742937D01*
X173555491Y-124916660D01*
X173430528Y-125068928D01*
X173278260Y-125193891D01*
X173278258Y-125193892D01*
X173104535Y-125286749D01*
X172916034Y-125343930D01*
X172916033Y-125343930D01*
X172916030Y-125343931D01*
X172769124Y-125358400D01*
X172670876Y-125358400D01*
X172523970Y-125343931D01*
X172523967Y-125343930D01*
X172523966Y-125343930D01*
X172335465Y-125286749D01*
X172161742Y-125193892D01*
X172161740Y-125193891D01*
X172009472Y-125068928D01*
X171884509Y-124916660D01*
X171791652Y-124742937D01*
X171746848Y-124595237D01*
X171734470Y-124554434D01*
X171734470Y-124554433D01*
X171734469Y-124554430D01*
X171715162Y-124358400D01*
X171734469Y-124162370D01*
X171736172Y-124156755D01*
X171791651Y-123973865D01*
X171793702Y-123970027D01*
X171884509Y-123800140D01*
X172009472Y-123647872D01*
X172161740Y-123522909D01*
X172335463Y-123430052D01*
X172335465Y-123430051D01*
X172523966Y-123372870D01*
X172523967Y-123372870D01*
X172523970Y-123372869D01*
X172670876Y-123358400D01*
X172769124Y-123358400D01*
X172916030Y-123372869D01*
X172916030Y-123372869D01*
G37*
G36*
X142436030Y-123372869D02*
X142436033Y-123372870D01*
X142436034Y-123372870D01*
X142624535Y-123430051D01*
X142624537Y-123430052D01*
X142798260Y-123522909D01*
X142950528Y-123647872D01*
X143075491Y-123800140D01*
X143166298Y-123970027D01*
X143168349Y-123973865D01*
X143223828Y-124156755D01*
X143225531Y-124162370D01*
X143244838Y-124358400D01*
X143225531Y-124554430D01*
X143225530Y-124554433D01*
X143225530Y-124554434D01*
X143213153Y-124595237D01*
X143168348Y-124742937D01*
X143075491Y-124916660D01*
X142950528Y-125068928D01*
X142798260Y-125193891D01*
X142798258Y-125193892D01*
X142624535Y-125286749D01*
X142436034Y-125343930D01*
X142436033Y-125343930D01*
X142436030Y-125343931D01*
X142289124Y-125358400D01*
X142190876Y-125358400D01*
X142043970Y-125343931D01*
X142043967Y-125343930D01*
X142043966Y-125343930D01*
X141855465Y-125286749D01*
X141681742Y-125193892D01*
X141681740Y-125193891D01*
X141529472Y-125068928D01*
X141404509Y-124916660D01*
X141311652Y-124742937D01*
X141266848Y-124595237D01*
X141254470Y-124554434D01*
X141254470Y-124554433D01*
X141254469Y-124554430D01*
X141235162Y-124358400D01*
X141254469Y-124162370D01*
X141256172Y-124156755D01*
X141311651Y-123973865D01*
X141313702Y-123970027D01*
X141404509Y-123800140D01*
X141529472Y-123647872D01*
X141681740Y-123522909D01*
X141855463Y-123430052D01*
X141855465Y-123430051D01*
X142043966Y-123372870D01*
X142043967Y-123372870D01*
X142043970Y-123372869D01*
X142190876Y-123358400D01*
X142289124Y-123358400D01*
X142436030Y-123372869D01*
X142436030Y-123372869D01*
G37*
G36*
X139896030Y-123372869D02*
X139896033Y-123372870D01*
X139896034Y-123372870D01*
X140084535Y-123430051D01*
X140084537Y-123430052D01*
X140258260Y-123522909D01*
X140410528Y-123647872D01*
X140535491Y-123800140D01*
X140626298Y-123970027D01*
X140628349Y-123973865D01*
X140683828Y-124156755D01*
X140685531Y-124162370D01*
X140704838Y-124358400D01*
X140685531Y-124554430D01*
X140685530Y-124554433D01*
X140685530Y-124554434D01*
X140673153Y-124595237D01*
X140628348Y-124742937D01*
X140535491Y-124916660D01*
X140410528Y-125068928D01*
X140258260Y-125193891D01*
X140258258Y-125193892D01*
X140084535Y-125286749D01*
X139896034Y-125343930D01*
X139896033Y-125343930D01*
X139896030Y-125343931D01*
X139749124Y-125358400D01*
X139650876Y-125358400D01*
X139503970Y-125343931D01*
X139503967Y-125343930D01*
X139503966Y-125343930D01*
X139315465Y-125286749D01*
X139141742Y-125193892D01*
X139141740Y-125193891D01*
X138989472Y-125068928D01*
X138864509Y-124916660D01*
X138771652Y-124742937D01*
X138726848Y-124595237D01*
X138714470Y-124554434D01*
X138714470Y-124554433D01*
X138714469Y-124554430D01*
X138695162Y-124358400D01*
X138714469Y-124162370D01*
X138716172Y-124156755D01*
X138771651Y-123973865D01*
X138773702Y-123970027D01*
X138864509Y-123800140D01*
X138989472Y-123647872D01*
X139141740Y-123522909D01*
X139315463Y-123430052D01*
X139315465Y-123430051D01*
X139503966Y-123372870D01*
X139503967Y-123372870D01*
X139503970Y-123372869D01*
X139650876Y-123358400D01*
X139749124Y-123358400D01*
X139896030Y-123372869D01*
X139896030Y-123372869D01*
G37*
G36*
X177996030Y-123372869D02*
X177996033Y-123372870D01*
X177996034Y-123372870D01*
X178184535Y-123430051D01*
X178184537Y-123430052D01*
X178358260Y-123522909D01*
X178510528Y-123647872D01*
X178635491Y-123800140D01*
X178726298Y-123970027D01*
X178728349Y-123973865D01*
X178783828Y-124156755D01*
X178785531Y-124162370D01*
X178804838Y-124358400D01*
X178785531Y-124554430D01*
X178785530Y-124554433D01*
X178785530Y-124554434D01*
X178773153Y-124595237D01*
X178728348Y-124742937D01*
X178635491Y-124916660D01*
X178510528Y-125068928D01*
X178358260Y-125193891D01*
X178358258Y-125193892D01*
X178184535Y-125286749D01*
X177996034Y-125343930D01*
X177996033Y-125343930D01*
X177996030Y-125343931D01*
X177849124Y-125358400D01*
X177750876Y-125358400D01*
X177603970Y-125343931D01*
X177603967Y-125343930D01*
X177603966Y-125343930D01*
X177415465Y-125286749D01*
X177241742Y-125193892D01*
X177241740Y-125193891D01*
X177089472Y-125068928D01*
X176964509Y-124916660D01*
X176871652Y-124742937D01*
X176826848Y-124595237D01*
X176814470Y-124554434D01*
X176814470Y-124554433D01*
X176814469Y-124554430D01*
X176795162Y-124358400D01*
X176814469Y-124162370D01*
X176816172Y-124156755D01*
X176871651Y-123973865D01*
X176873702Y-123970027D01*
X176964509Y-123800140D01*
X177089472Y-123647872D01*
X177241740Y-123522909D01*
X177415463Y-123430052D01*
X177415465Y-123430051D01*
X177603966Y-123372870D01*
X177603967Y-123372870D01*
X177603970Y-123372869D01*
X177750876Y-123358400D01*
X177849124Y-123358400D01*
X177996030Y-123372869D01*
X177996030Y-123372869D01*
G37*
G36*
X137356030Y-123372869D02*
X137356033Y-123372870D01*
X137356034Y-123372870D01*
X137544535Y-123430051D01*
X137544537Y-123430052D01*
X137718260Y-123522909D01*
X137870528Y-123647872D01*
X137995491Y-123800140D01*
X138086298Y-123970027D01*
X138088349Y-123973865D01*
X138143828Y-124156755D01*
X138145531Y-124162370D01*
X138164838Y-124358400D01*
X138145531Y-124554430D01*
X138145530Y-124554433D01*
X138145530Y-124554434D01*
X138133153Y-124595237D01*
X138088348Y-124742937D01*
X137995491Y-124916660D01*
X137870528Y-125068928D01*
X137718260Y-125193891D01*
X137718258Y-125193892D01*
X137544535Y-125286749D01*
X137356034Y-125343930D01*
X137356033Y-125343930D01*
X137356030Y-125343931D01*
X137209124Y-125358400D01*
X137110876Y-125358400D01*
X136963970Y-125343931D01*
X136963967Y-125343930D01*
X136963966Y-125343930D01*
X136775465Y-125286749D01*
X136601742Y-125193892D01*
X136601740Y-125193891D01*
X136449472Y-125068928D01*
X136324509Y-124916660D01*
X136231652Y-124742937D01*
X136186848Y-124595237D01*
X136174470Y-124554434D01*
X136174470Y-124554433D01*
X136174469Y-124554430D01*
X136155162Y-124358400D01*
X136174469Y-124162370D01*
X136176172Y-124156755D01*
X136231651Y-123973865D01*
X136233702Y-123970027D01*
X136324509Y-123800140D01*
X136449472Y-123647872D01*
X136601740Y-123522909D01*
X136775463Y-123430052D01*
X136775465Y-123430051D01*
X136963966Y-123372870D01*
X136963967Y-123372870D01*
X136963970Y-123372869D01*
X137110876Y-123358400D01*
X137209124Y-123358400D01*
X137356030Y-123372869D01*
X137356030Y-123372869D01*
G37*
G36*
X175456030Y-123372869D02*
X175456033Y-123372870D01*
X175456034Y-123372870D01*
X175644535Y-123430051D01*
X175644537Y-123430052D01*
X175818260Y-123522909D01*
X175970528Y-123647872D01*
X176095491Y-123800140D01*
X176186298Y-123970027D01*
X176188349Y-123973865D01*
X176243828Y-124156755D01*
X176245531Y-124162370D01*
X176264838Y-124358400D01*
X176245531Y-124554430D01*
X176245530Y-124554433D01*
X176245530Y-124554434D01*
X176233153Y-124595237D01*
X176188348Y-124742937D01*
X176095491Y-124916660D01*
X175970528Y-125068928D01*
X175818260Y-125193891D01*
X175818258Y-125193892D01*
X175644535Y-125286749D01*
X175456034Y-125343930D01*
X175456033Y-125343930D01*
X175456030Y-125343931D01*
X175309124Y-125358400D01*
X175210876Y-125358400D01*
X175063970Y-125343931D01*
X175063967Y-125343930D01*
X175063966Y-125343930D01*
X174875465Y-125286749D01*
X174701742Y-125193892D01*
X174701740Y-125193891D01*
X174549472Y-125068928D01*
X174424509Y-124916660D01*
X174331652Y-124742937D01*
X174286848Y-124595237D01*
X174274470Y-124554434D01*
X174274470Y-124554433D01*
X174274469Y-124554430D01*
X174255162Y-124358400D01*
X174274469Y-124162370D01*
X174276172Y-124156755D01*
X174331651Y-123973865D01*
X174333702Y-123970027D01*
X174424509Y-123800140D01*
X174549472Y-123647872D01*
X174701740Y-123522909D01*
X174875463Y-123430052D01*
X174875465Y-123430051D01*
X175063966Y-123372870D01*
X175063967Y-123372870D01*
X175063970Y-123372869D01*
X175210876Y-123358400D01*
X175309124Y-123358400D01*
X175456030Y-123372869D01*
X175456030Y-123372869D01*
G37*
G36*
X128111045Y-123877615D02*
X128202039Y-123915306D01*
X128206611Y-123918361D01*
X128283934Y-123970027D01*
X128353573Y-124039666D01*
X128353575Y-124039669D01*
X128397866Y-124105954D01*
X128408295Y-124121563D01*
X128422872Y-124156755D01*
X128445985Y-124212555D01*
X128465200Y-124309154D01*
X128465200Y-124407646D01*
X128445985Y-124504245D01*
X128408294Y-124595239D01*
X128406252Y-124598295D01*
X128353573Y-124677134D01*
X128283934Y-124746773D01*
X128283931Y-124746775D01*
X128202039Y-124801494D01*
X128111045Y-124839185D01*
X128014446Y-124858400D01*
X127915954Y-124858400D01*
X127819355Y-124839185D01*
X127728361Y-124801494D01*
X127646469Y-124746775D01*
X127646466Y-124746773D01*
X127576827Y-124677134D01*
X127524148Y-124598295D01*
X127522106Y-124595239D01*
X127484415Y-124504245D01*
X127465200Y-124407646D01*
X127465200Y-124309154D01*
X127484415Y-124212555D01*
X127507528Y-124156755D01*
X127522105Y-124121563D01*
X127532535Y-124105954D01*
X127576825Y-124039669D01*
X127576827Y-124039666D01*
X127646466Y-123970027D01*
X127723789Y-123918361D01*
X127728361Y-123915306D01*
X127819355Y-123877615D01*
X127915954Y-123858400D01*
X128014446Y-123858400D01*
X128111045Y-123877615D01*
X128111045Y-123877615D01*
G37*
G36*
X120338645Y-123725215D02*
X120429639Y-123762906D01*
X120435504Y-123766825D01*
X120511534Y-123817627D01*
X120581173Y-123887266D01*
X120581175Y-123887269D01*
X120601952Y-123918363D01*
X120635895Y-123969163D01*
X120652543Y-124009355D01*
X120673585Y-124060155D01*
X120685800Y-124121561D01*
X120692800Y-124156755D01*
X120692800Y-124255245D01*
X120673585Y-124351845D01*
X120635895Y-124442837D01*
X120581173Y-124524734D01*
X120511534Y-124594373D01*
X120511531Y-124594375D01*
X120429639Y-124649094D01*
X120338645Y-124686785D01*
X120242046Y-124706000D01*
X120143554Y-124706000D01*
X120046955Y-124686785D01*
X119955961Y-124649094D01*
X119874069Y-124594375D01*
X119874066Y-124594373D01*
X119804427Y-124524734D01*
X119749705Y-124442837D01*
X119712015Y-124351845D01*
X119692800Y-124255245D01*
X119692800Y-124156755D01*
X119699801Y-124121561D01*
X119712015Y-124060155D01*
X119733057Y-124009355D01*
X119749705Y-123969163D01*
X119783649Y-123918363D01*
X119804425Y-123887269D01*
X119804427Y-123887266D01*
X119874066Y-123817627D01*
X119950096Y-123766825D01*
X119955961Y-123762906D01*
X120046955Y-123725215D01*
X120143554Y-123706000D01*
X120242046Y-123706000D01*
X120338645Y-123725215D01*
X120338645Y-123725215D01*
G37*
G36*
X114445845Y-123674415D02*
X114536839Y-123712106D01*
X114601333Y-123755200D01*
X114618734Y-123766827D01*
X114688373Y-123836466D01*
X114688375Y-123836469D01*
X114743094Y-123918361D01*
X114780785Y-124009355D01*
X114800000Y-124105954D01*
X114800000Y-124204446D01*
X114780785Y-124301045D01*
X114743094Y-124392039D01*
X114709150Y-124442839D01*
X114688373Y-124473934D01*
X114618734Y-124543573D01*
X114618731Y-124543575D01*
X114536839Y-124598294D01*
X114445845Y-124635985D01*
X114349246Y-124655200D01*
X114250754Y-124655200D01*
X114154155Y-124635985D01*
X114063161Y-124598294D01*
X113981269Y-124543575D01*
X113981266Y-124543573D01*
X113911627Y-124473934D01*
X113890850Y-124442839D01*
X113856906Y-124392039D01*
X113819215Y-124301045D01*
X113800000Y-124204446D01*
X113800000Y-124105954D01*
X113819215Y-124009355D01*
X113856906Y-123918361D01*
X113911625Y-123836469D01*
X113911627Y-123836466D01*
X113981266Y-123766827D01*
X113998667Y-123755200D01*
X114063161Y-123712106D01*
X114154155Y-123674415D01*
X114250754Y-123655200D01*
X114349246Y-123655200D01*
X114445845Y-123674415D01*
X114445845Y-123674415D01*
G37*
G36*
X106927200Y-124082800D02*
X104027200Y-124082800D01*
X104027200Y-121382800D01*
X106927200Y-121382800D01*
X106927200Y-124082800D01*
X106927200Y-124082800D01*
G37*
G36*
X102627200Y-124082800D02*
X99727200Y-124082800D01*
X99727200Y-121382800D01*
X102627200Y-121382800D01*
X102627200Y-124082800D01*
X102627200Y-124082800D01*
G37*
G36*
X131863200Y-123755200D02*
X130163200Y-123755200D01*
X130163200Y-122655200D01*
X131863200Y-122655200D01*
X131863200Y-123755200D01*
X131863200Y-123755200D01*
G37*
G36*
X93934000Y-122592600D02*
X92534000Y-122592600D01*
X92534000Y-120942600D01*
X93934000Y-120942600D01*
X93934000Y-122592600D01*
X93934000Y-122592600D01*
G37*
G36*
X95934000Y-122592600D02*
X94534000Y-122592600D01*
X94534000Y-120942600D01*
X95934000Y-120942600D01*
X95934000Y-122592600D01*
X95934000Y-122592600D01*
G37*
G36*
X93113226Y-117036515D02*
X93331612Y-117126973D01*
X93528158Y-117258301D01*
X93695299Y-117425442D01*
X93826627Y-117621988D01*
X93917085Y-117840374D01*
X93963200Y-118072209D01*
X93963200Y-118308591D01*
X93917085Y-118540426D01*
X93826627Y-118758812D01*
X93695299Y-118955358D01*
X93528158Y-119122499D01*
X93331612Y-119253827D01*
X93113226Y-119344285D01*
X92881391Y-119390400D01*
X92645009Y-119390400D01*
X92413174Y-119344285D01*
X92194788Y-119253827D01*
X91998242Y-119122499D01*
X91831101Y-118955358D01*
X91699773Y-118758812D01*
X91609315Y-118540426D01*
X91563200Y-118308591D01*
X91563200Y-118072209D01*
X91609315Y-117840374D01*
X91699773Y-117621988D01*
X91831101Y-117425442D01*
X91998242Y-117258301D01*
X92194788Y-117126973D01*
X92413174Y-117036515D01*
X92645009Y-116990400D01*
X92881391Y-116990400D01*
X93113226Y-117036515D01*
X93113226Y-117036515D01*
G37*
G36*
X99613226Y-117036515D02*
X99831612Y-117126973D01*
X100028158Y-117258301D01*
X100195299Y-117425442D01*
X100326627Y-117621988D01*
X100417085Y-117840374D01*
X100463200Y-118072209D01*
X100463200Y-118308591D01*
X100417085Y-118540426D01*
X100326627Y-118758812D01*
X100195299Y-118955358D01*
X100028158Y-119122499D01*
X99831612Y-119253827D01*
X99613226Y-119344285D01*
X99381391Y-119390400D01*
X99145009Y-119390400D01*
X98913174Y-119344285D01*
X98694788Y-119253827D01*
X98498242Y-119122499D01*
X98331101Y-118955358D01*
X98199773Y-118758812D01*
X98109315Y-118540426D01*
X98063200Y-118308591D01*
X98063200Y-118072209D01*
X98109315Y-117840374D01*
X98199773Y-117621988D01*
X98331101Y-117425442D01*
X98498242Y-117258301D01*
X98694788Y-117126973D01*
X98913174Y-117036515D01*
X99145009Y-116990400D01*
X99381391Y-116990400D01*
X99613226Y-117036515D01*
X99613226Y-117036515D01*
G37*
G36*
X124961445Y-117426015D02*
X125052439Y-117463706D01*
X125133240Y-117517696D01*
X125134334Y-117518427D01*
X125203973Y-117588066D01*
X125203975Y-117588069D01*
X125258694Y-117669961D01*
X125296385Y-117760955D01*
X125312183Y-117840374D01*
X125315600Y-117857555D01*
X125315600Y-117956045D01*
X125296385Y-118052645D01*
X125258695Y-118143637D01*
X125203973Y-118225534D01*
X125134334Y-118295173D01*
X125134331Y-118295175D01*
X125052439Y-118349894D01*
X124961445Y-118387585D01*
X124864846Y-118406800D01*
X124766354Y-118406800D01*
X124669755Y-118387585D01*
X124578761Y-118349894D01*
X124496869Y-118295175D01*
X124496866Y-118295173D01*
X124427227Y-118225534D01*
X124372505Y-118143637D01*
X124334815Y-118052645D01*
X124315600Y-117956045D01*
X124315600Y-117857555D01*
X124319018Y-117840374D01*
X124334815Y-117760955D01*
X124372506Y-117669961D01*
X124427225Y-117588069D01*
X124427227Y-117588066D01*
X124496866Y-117518427D01*
X124497960Y-117517696D01*
X124578761Y-117463706D01*
X124669755Y-117426015D01*
X124766354Y-117406800D01*
X124864846Y-117406800D01*
X124961445Y-117426015D01*
X124961445Y-117426015D01*
G37*
G36*
X116133600Y-117715800D02*
X114733600Y-117715800D01*
X114733600Y-116065800D01*
X116133600Y-116065800D01*
X116133600Y-117715800D01*
X116133600Y-117715800D01*
G37*
G36*
X121740400Y-117715800D02*
X120340400Y-117715800D01*
X120340400Y-116065800D01*
X121740400Y-116065800D01*
X121740400Y-117715800D01*
X121740400Y-117715800D01*
G37*
G36*
X119740400Y-117715800D02*
X116733600Y-117715800D01*
X116733600Y-116065800D01*
X119740400Y-116065800D01*
X119740400Y-117715800D01*
X119740400Y-117715800D01*
G37*
G36*
X129566000Y-117324400D02*
X126466000Y-117324400D01*
X126466000Y-114374400D01*
X129566000Y-114374400D01*
X129566000Y-117324400D01*
X129566000Y-117324400D01*
G37*
G36*
X138982245Y-114530415D02*
X139073239Y-114568106D01*
X139130482Y-114606355D01*
X139155134Y-114622827D01*
X139224773Y-114692466D01*
X139224775Y-114692469D01*
X139279494Y-114774361D01*
X139317185Y-114865355D01*
X139336400Y-114961954D01*
X139336400Y-115060446D01*
X139317185Y-115157045D01*
X139279494Y-115248039D01*
X139277452Y-115251095D01*
X139224773Y-115329934D01*
X139155134Y-115399573D01*
X139155131Y-115399575D01*
X139073239Y-115454294D01*
X138982245Y-115491985D01*
X138885646Y-115511200D01*
X138787154Y-115511200D01*
X138690555Y-115491985D01*
X138599561Y-115454294D01*
X138517669Y-115399575D01*
X138517666Y-115399573D01*
X138448027Y-115329934D01*
X138395348Y-115251095D01*
X138393306Y-115248039D01*
X138355615Y-115157045D01*
X138336400Y-115060446D01*
X138336400Y-114961954D01*
X138355615Y-114865355D01*
X138393306Y-114774361D01*
X138448025Y-114692469D01*
X138448027Y-114692466D01*
X138517666Y-114622827D01*
X138542318Y-114606355D01*
X138599561Y-114568106D01*
X138690555Y-114530415D01*
X138787154Y-114511200D01*
X138885646Y-114511200D01*
X138982245Y-114530415D01*
X138982245Y-114530415D01*
G37*
G36*
X161181845Y-114327215D02*
X161272839Y-114364906D01*
X161353438Y-114418761D01*
X161354734Y-114419627D01*
X161424373Y-114489266D01*
X161424375Y-114489269D01*
X161477053Y-114568106D01*
X161479095Y-114571163D01*
X161493672Y-114606355D01*
X161516785Y-114662155D01*
X161536000Y-114758754D01*
X161536000Y-114857246D01*
X161516785Y-114953845D01*
X161479094Y-115044839D01*
X161458540Y-115075600D01*
X161424373Y-115126734D01*
X161354734Y-115196373D01*
X161354731Y-115196375D01*
X161272839Y-115251094D01*
X161181845Y-115288785D01*
X161085246Y-115308000D01*
X160986754Y-115308000D01*
X160890155Y-115288785D01*
X160799161Y-115251094D01*
X160717269Y-115196375D01*
X160717266Y-115196373D01*
X160647627Y-115126734D01*
X160613460Y-115075600D01*
X160592906Y-115044839D01*
X160555215Y-114953845D01*
X160536000Y-114857246D01*
X160536000Y-114758754D01*
X160555215Y-114662155D01*
X160578328Y-114606355D01*
X160592905Y-114571163D01*
X160594948Y-114568106D01*
X160647625Y-114489269D01*
X160647627Y-114489266D01*
X160717266Y-114419627D01*
X160718562Y-114418761D01*
X160799161Y-114364906D01*
X160890155Y-114327215D01*
X160986754Y-114308000D01*
X161085246Y-114308000D01*
X161181845Y-114327215D01*
X161181845Y-114327215D01*
G37*
G36*
X178486396Y-114171185D02*
X178504645Y-114174815D01*
X178542271Y-114190400D01*
X178595639Y-114212506D01*
X178664940Y-114258812D01*
X178677534Y-114267227D01*
X178747173Y-114336866D01*
X178747175Y-114336869D01*
X178801894Y-114418761D01*
X178839585Y-114509755D01*
X178851800Y-114571161D01*
X178858800Y-114606355D01*
X178858800Y-114704845D01*
X178839585Y-114801445D01*
X178801895Y-114892437D01*
X178747173Y-114974334D01*
X178677534Y-115043973D01*
X178677531Y-115043975D01*
X178595639Y-115098694D01*
X178504645Y-115136385D01*
X178408046Y-115155600D01*
X178309554Y-115155600D01*
X178212955Y-115136385D01*
X178121961Y-115098694D01*
X178040069Y-115043975D01*
X178040066Y-115043973D01*
X177970427Y-114974334D01*
X177915705Y-114892437D01*
X177878015Y-114801445D01*
X177858800Y-114704845D01*
X177858800Y-114606355D01*
X177865801Y-114571161D01*
X177878015Y-114509755D01*
X177915706Y-114418761D01*
X177970425Y-114336869D01*
X177970427Y-114336866D01*
X178040066Y-114267227D01*
X178052660Y-114258812D01*
X178121961Y-114212506D01*
X178175330Y-114190400D01*
X178212955Y-114174815D01*
X178231204Y-114171185D01*
X178309554Y-114155600D01*
X178408046Y-114155600D01*
X178486396Y-114171185D01*
X178486396Y-114171185D01*
G37*
G36*
X116731600Y-115075600D02*
X115131600Y-115075600D01*
X115131600Y-112475600D01*
X116731600Y-112475600D01*
X116731600Y-115075600D01*
X116731600Y-115075600D01*
G37*
G36*
X121291600Y-115075600D02*
X119691600Y-115075600D01*
X119691600Y-112475600D01*
X121291600Y-112475600D01*
X121291600Y-115075600D01*
X121291600Y-115075600D01*
G37*
G36*
X99613226Y-112536515D02*
X99831612Y-112626973D01*
X100028158Y-112758301D01*
X100195299Y-112925442D01*
X100326627Y-113121988D01*
X100417085Y-113340374D01*
X100463200Y-113572209D01*
X100463200Y-113808591D01*
X100417085Y-114040426D01*
X100326627Y-114258812D01*
X100195299Y-114455358D01*
X100028158Y-114622499D01*
X99831612Y-114753827D01*
X99613226Y-114844285D01*
X99381391Y-114890400D01*
X99145009Y-114890400D01*
X98913174Y-114844285D01*
X98694788Y-114753827D01*
X98498242Y-114622499D01*
X98331101Y-114455358D01*
X98199773Y-114258812D01*
X98109315Y-114040426D01*
X98063200Y-113808591D01*
X98063200Y-113572209D01*
X98109315Y-113340374D01*
X98199773Y-113121988D01*
X98331101Y-112925442D01*
X98498242Y-112758301D01*
X98694788Y-112626973D01*
X98913174Y-112536515D01*
X99145009Y-112490400D01*
X99381391Y-112490400D01*
X99613226Y-112536515D01*
X99613226Y-112536515D01*
G37*
G36*
X93113226Y-112536515D02*
X93331612Y-112626973D01*
X93528158Y-112758301D01*
X93695299Y-112925442D01*
X93826627Y-113121988D01*
X93917085Y-113340374D01*
X93963200Y-113572209D01*
X93963200Y-113808591D01*
X93917085Y-114040426D01*
X93826627Y-114258812D01*
X93695299Y-114455358D01*
X93528158Y-114622499D01*
X93331612Y-114753827D01*
X93113226Y-114844285D01*
X92881391Y-114890400D01*
X92645009Y-114890400D01*
X92413174Y-114844285D01*
X92194788Y-114753827D01*
X91998242Y-114622499D01*
X91831101Y-114455358D01*
X91699773Y-114258812D01*
X91609315Y-114040426D01*
X91563200Y-113808591D01*
X91563200Y-113572209D01*
X91609315Y-113340374D01*
X91699773Y-113121988D01*
X91831101Y-112925442D01*
X91998242Y-112758301D01*
X92194788Y-112626973D01*
X92413174Y-112536515D01*
X92645009Y-112490400D01*
X92881391Y-112490400D01*
X93113226Y-112536515D01*
X93113226Y-112536515D01*
G37*
G36*
X109315045Y-113209615D02*
X109406039Y-113247306D01*
X109486840Y-113301296D01*
X109487934Y-113302027D01*
X109557573Y-113371666D01*
X109612295Y-113453563D01*
X109649985Y-113544555D01*
X109669200Y-113641155D01*
X109669200Y-113739645D01*
X109649985Y-113836245D01*
X109612295Y-113927237D01*
X109557573Y-114009134D01*
X109487934Y-114078773D01*
X109487931Y-114078775D01*
X109406039Y-114133494D01*
X109406038Y-114133495D01*
X109406037Y-114133495D01*
X109315045Y-114171185D01*
X109218446Y-114190400D01*
X109119954Y-114190400D01*
X109023355Y-114171185D01*
X108932363Y-114133495D01*
X108932362Y-114133495D01*
X108932361Y-114133494D01*
X108850469Y-114078775D01*
X108850466Y-114078773D01*
X108780827Y-114009134D01*
X108726105Y-113927237D01*
X108688415Y-113836245D01*
X108669200Y-113739645D01*
X108669200Y-113641155D01*
X108688415Y-113544555D01*
X108726105Y-113453563D01*
X108780827Y-113371666D01*
X108850466Y-113302027D01*
X108851560Y-113301296D01*
X108932361Y-113247306D01*
X109023355Y-113209615D01*
X109119954Y-113190400D01*
X109218446Y-113190400D01*
X109315045Y-113209615D01*
X109315045Y-113209615D01*
G37*
G36*
X93535000Y-111682000D02*
X91885000Y-111682000D01*
X91885000Y-110282000D01*
X93535000Y-110282000D01*
X93535000Y-111682000D01*
X93535000Y-111682000D01*
G37*
G36*
X129566000Y-110974400D02*
X126466000Y-110974400D01*
X126466000Y-108024400D01*
X129566000Y-108024400D01*
X129566000Y-110974400D01*
X129566000Y-110974400D01*
G37*
G36*
X121311600Y-110875600D02*
X115111600Y-110875600D01*
X115111600Y-104075600D01*
X121311600Y-104075600D01*
X121311600Y-110875600D01*
X121311600Y-110875600D01*
G37*
G36*
X150056030Y-108132869D02*
X150056033Y-108132870D01*
X150056034Y-108132870D01*
X150244535Y-108190051D01*
X150244537Y-108190052D01*
X150418260Y-108282909D01*
X150570528Y-108407872D01*
X150695491Y-108560140D01*
X150788348Y-108733863D01*
X150845531Y-108922370D01*
X150864838Y-109118400D01*
X150845531Y-109314430D01*
X150788348Y-109502937D01*
X150695491Y-109676660D01*
X150570528Y-109828928D01*
X150418260Y-109953891D01*
X150418258Y-109953892D01*
X150244535Y-110046749D01*
X150056034Y-110103930D01*
X150056033Y-110103930D01*
X150056030Y-110103931D01*
X149909124Y-110118400D01*
X149810876Y-110118400D01*
X149663970Y-110103931D01*
X149663967Y-110103930D01*
X149663966Y-110103930D01*
X149475465Y-110046749D01*
X149301742Y-109953892D01*
X149301740Y-109953891D01*
X149149472Y-109828928D01*
X149024509Y-109676660D01*
X148931652Y-109502937D01*
X148874469Y-109314430D01*
X148855162Y-109118400D01*
X148874469Y-108922370D01*
X148931652Y-108733863D01*
X149024509Y-108560140D01*
X149149472Y-108407872D01*
X149301740Y-108282909D01*
X149475463Y-108190052D01*
X149475465Y-108190051D01*
X149663966Y-108132870D01*
X149663967Y-108132870D01*
X149663970Y-108132869D01*
X149810876Y-108118400D01*
X149909124Y-108118400D01*
X150056030Y-108132869D01*
X150056030Y-108132869D01*
G37*
G36*
X157676030Y-108132869D02*
X157676033Y-108132870D01*
X157676034Y-108132870D01*
X157864535Y-108190051D01*
X157864537Y-108190052D01*
X158038260Y-108282909D01*
X158190528Y-108407872D01*
X158315491Y-108560140D01*
X158408348Y-108733863D01*
X158465531Y-108922370D01*
X158484838Y-109118400D01*
X158465531Y-109314430D01*
X158408348Y-109502937D01*
X158315491Y-109676660D01*
X158190528Y-109828928D01*
X158038260Y-109953891D01*
X158038258Y-109953892D01*
X157864535Y-110046749D01*
X157676034Y-110103930D01*
X157676033Y-110103930D01*
X157676030Y-110103931D01*
X157529124Y-110118400D01*
X157430876Y-110118400D01*
X157283970Y-110103931D01*
X157283967Y-110103930D01*
X157283966Y-110103930D01*
X157095465Y-110046749D01*
X156921742Y-109953892D01*
X156921740Y-109953891D01*
X156769472Y-109828928D01*
X156644509Y-109676660D01*
X156551652Y-109502937D01*
X156494469Y-109314430D01*
X156475162Y-109118400D01*
X156494469Y-108922370D01*
X156551652Y-108733863D01*
X156644509Y-108560140D01*
X156769472Y-108407872D01*
X156921740Y-108282909D01*
X157095463Y-108190052D01*
X157095465Y-108190051D01*
X157283966Y-108132870D01*
X157283967Y-108132870D01*
X157283970Y-108132869D01*
X157430876Y-108118400D01*
X157529124Y-108118400D01*
X157676030Y-108132869D01*
X157676030Y-108132869D01*
G37*
G36*
X147516030Y-108132869D02*
X147516033Y-108132870D01*
X147516034Y-108132870D01*
X147704535Y-108190051D01*
X147704537Y-108190052D01*
X147878260Y-108282909D01*
X148030528Y-108407872D01*
X148155491Y-108560140D01*
X148248348Y-108733863D01*
X148305531Y-108922370D01*
X148324838Y-109118400D01*
X148305531Y-109314430D01*
X148248348Y-109502937D01*
X148155491Y-109676660D01*
X148030528Y-109828928D01*
X147878260Y-109953891D01*
X147878258Y-109953892D01*
X147704535Y-110046749D01*
X147516034Y-110103930D01*
X147516033Y-110103930D01*
X147516030Y-110103931D01*
X147369124Y-110118400D01*
X147270876Y-110118400D01*
X147123970Y-110103931D01*
X147123967Y-110103930D01*
X147123966Y-110103930D01*
X146935465Y-110046749D01*
X146761742Y-109953892D01*
X146761740Y-109953891D01*
X146609472Y-109828928D01*
X146484509Y-109676660D01*
X146391652Y-109502937D01*
X146334469Y-109314430D01*
X146315162Y-109118400D01*
X146334469Y-108922370D01*
X146391652Y-108733863D01*
X146484509Y-108560140D01*
X146609472Y-108407872D01*
X146761740Y-108282909D01*
X146935463Y-108190052D01*
X146935465Y-108190051D01*
X147123966Y-108132870D01*
X147123967Y-108132870D01*
X147123970Y-108132869D01*
X147270876Y-108118400D01*
X147369124Y-108118400D01*
X147516030Y-108132869D01*
X147516030Y-108132869D01*
G37*
G36*
X144976030Y-108132869D02*
X144976033Y-108132870D01*
X144976034Y-108132870D01*
X145164535Y-108190051D01*
X145164537Y-108190052D01*
X145338260Y-108282909D01*
X145490528Y-108407872D01*
X145615491Y-108560140D01*
X145708348Y-108733863D01*
X145765531Y-108922370D01*
X145784838Y-109118400D01*
X145765531Y-109314430D01*
X145708348Y-109502937D01*
X145615491Y-109676660D01*
X145490528Y-109828928D01*
X145338260Y-109953891D01*
X145338258Y-109953892D01*
X145164535Y-110046749D01*
X144976034Y-110103930D01*
X144976033Y-110103930D01*
X144976030Y-110103931D01*
X144829124Y-110118400D01*
X144730876Y-110118400D01*
X144583970Y-110103931D01*
X144583967Y-110103930D01*
X144583966Y-110103930D01*
X144395465Y-110046749D01*
X144221742Y-109953892D01*
X144221740Y-109953891D01*
X144069472Y-109828928D01*
X143944509Y-109676660D01*
X143851652Y-109502937D01*
X143794469Y-109314430D01*
X143775162Y-109118400D01*
X143794469Y-108922370D01*
X143851652Y-108733863D01*
X143944509Y-108560140D01*
X144069472Y-108407872D01*
X144221740Y-108282909D01*
X144395463Y-108190052D01*
X144395465Y-108190051D01*
X144583966Y-108132870D01*
X144583967Y-108132870D01*
X144583970Y-108132869D01*
X144730876Y-108118400D01*
X144829124Y-108118400D01*
X144976030Y-108132869D01*
X144976030Y-108132869D01*
G37*
G36*
X142436030Y-108132869D02*
X142436033Y-108132870D01*
X142436034Y-108132870D01*
X142624535Y-108190051D01*
X142624537Y-108190052D01*
X142798260Y-108282909D01*
X142950528Y-108407872D01*
X143075491Y-108560140D01*
X143168348Y-108733863D01*
X143225531Y-108922370D01*
X143244838Y-109118400D01*
X143225531Y-109314430D01*
X143168348Y-109502937D01*
X143075491Y-109676660D01*
X142950528Y-109828928D01*
X142798260Y-109953891D01*
X142798258Y-109953892D01*
X142624535Y-110046749D01*
X142436034Y-110103930D01*
X142436033Y-110103930D01*
X142436030Y-110103931D01*
X142289124Y-110118400D01*
X142190876Y-110118400D01*
X142043970Y-110103931D01*
X142043967Y-110103930D01*
X142043966Y-110103930D01*
X141855465Y-110046749D01*
X141681742Y-109953892D01*
X141681740Y-109953891D01*
X141529472Y-109828928D01*
X141404509Y-109676660D01*
X141311652Y-109502937D01*
X141254469Y-109314430D01*
X141235162Y-109118400D01*
X141254469Y-108922370D01*
X141311652Y-108733863D01*
X141404509Y-108560140D01*
X141529472Y-108407872D01*
X141681740Y-108282909D01*
X141855463Y-108190052D01*
X141855465Y-108190051D01*
X142043966Y-108132870D01*
X142043967Y-108132870D01*
X142043970Y-108132869D01*
X142190876Y-108118400D01*
X142289124Y-108118400D01*
X142436030Y-108132869D01*
X142436030Y-108132869D01*
G37*
G36*
X139896030Y-108132869D02*
X139896033Y-108132870D01*
X139896034Y-108132870D01*
X140084535Y-108190051D01*
X140084537Y-108190052D01*
X140258260Y-108282909D01*
X140410528Y-108407872D01*
X140535491Y-108560140D01*
X140628348Y-108733863D01*
X140685531Y-108922370D01*
X140704838Y-109118400D01*
X140685531Y-109314430D01*
X140628348Y-109502937D01*
X140535491Y-109676660D01*
X140410528Y-109828928D01*
X140258260Y-109953891D01*
X140258258Y-109953892D01*
X140084535Y-110046749D01*
X139896034Y-110103930D01*
X139896033Y-110103930D01*
X139896030Y-110103931D01*
X139749124Y-110118400D01*
X139650876Y-110118400D01*
X139503970Y-110103931D01*
X139503967Y-110103930D01*
X139503966Y-110103930D01*
X139315465Y-110046749D01*
X139141742Y-109953892D01*
X139141740Y-109953891D01*
X138989472Y-109828928D01*
X138864509Y-109676660D01*
X138771652Y-109502937D01*
X138714469Y-109314430D01*
X138695162Y-109118400D01*
X138714469Y-108922370D01*
X138771652Y-108733863D01*
X138864509Y-108560140D01*
X138989472Y-108407872D01*
X139141740Y-108282909D01*
X139315463Y-108190052D01*
X139315465Y-108190051D01*
X139503966Y-108132870D01*
X139503967Y-108132870D01*
X139503970Y-108132869D01*
X139650876Y-108118400D01*
X139749124Y-108118400D01*
X139896030Y-108132869D01*
X139896030Y-108132869D01*
G37*
G36*
X180536030Y-108132869D02*
X180536033Y-108132870D01*
X180536034Y-108132870D01*
X180724535Y-108190051D01*
X180724537Y-108190052D01*
X180898260Y-108282909D01*
X181050528Y-108407872D01*
X181175491Y-108560140D01*
X181268348Y-108733863D01*
X181325531Y-108922370D01*
X181344838Y-109118400D01*
X181325531Y-109314430D01*
X181268348Y-109502937D01*
X181175491Y-109676660D01*
X181050528Y-109828928D01*
X180898260Y-109953891D01*
X180898258Y-109953892D01*
X180724535Y-110046749D01*
X180536034Y-110103930D01*
X180536033Y-110103930D01*
X180536030Y-110103931D01*
X180389124Y-110118400D01*
X180290876Y-110118400D01*
X180143970Y-110103931D01*
X180143967Y-110103930D01*
X180143966Y-110103930D01*
X179955465Y-110046749D01*
X179781742Y-109953892D01*
X179781740Y-109953891D01*
X179629472Y-109828928D01*
X179504509Y-109676660D01*
X179411652Y-109502937D01*
X179354469Y-109314430D01*
X179335162Y-109118400D01*
X179354469Y-108922370D01*
X179411652Y-108733863D01*
X179504509Y-108560140D01*
X179629472Y-108407872D01*
X179781740Y-108282909D01*
X179955463Y-108190052D01*
X179955465Y-108190051D01*
X180143966Y-108132870D01*
X180143967Y-108132870D01*
X180143970Y-108132869D01*
X180290876Y-108118400D01*
X180389124Y-108118400D01*
X180536030Y-108132869D01*
X180536030Y-108132869D01*
G37*
G36*
X183076030Y-108132869D02*
X183076033Y-108132870D01*
X183076034Y-108132870D01*
X183264535Y-108190051D01*
X183264537Y-108190052D01*
X183438260Y-108282909D01*
X183590528Y-108407872D01*
X183715491Y-108560140D01*
X183808348Y-108733863D01*
X183865531Y-108922370D01*
X183884838Y-109118400D01*
X183865531Y-109314430D01*
X183808348Y-109502937D01*
X183715491Y-109676660D01*
X183590528Y-109828928D01*
X183438260Y-109953891D01*
X183438258Y-109953892D01*
X183264535Y-110046749D01*
X183076034Y-110103930D01*
X183076033Y-110103930D01*
X183076030Y-110103931D01*
X182929124Y-110118400D01*
X182830876Y-110118400D01*
X182683970Y-110103931D01*
X182683967Y-110103930D01*
X182683966Y-110103930D01*
X182495465Y-110046749D01*
X182321742Y-109953892D01*
X182321740Y-109953891D01*
X182169472Y-109828928D01*
X182044509Y-109676660D01*
X181951652Y-109502937D01*
X181894469Y-109314430D01*
X181875162Y-109118400D01*
X181894469Y-108922370D01*
X181951652Y-108733863D01*
X182044509Y-108560140D01*
X182169472Y-108407872D01*
X182321740Y-108282909D01*
X182495463Y-108190052D01*
X182495465Y-108190051D01*
X182683966Y-108132870D01*
X182683967Y-108132870D01*
X182683970Y-108132869D01*
X182830876Y-108118400D01*
X182929124Y-108118400D01*
X183076030Y-108132869D01*
X183076030Y-108132869D01*
G37*
G36*
X186420000Y-110118400D02*
X184420000Y-110118400D01*
X184420000Y-108118400D01*
X186420000Y-108118400D01*
X186420000Y-110118400D01*
X186420000Y-110118400D01*
G37*
G36*
X137356030Y-108132869D02*
X137356033Y-108132870D01*
X137356034Y-108132870D01*
X137544535Y-108190051D01*
X137544537Y-108190052D01*
X137718260Y-108282909D01*
X137870528Y-108407872D01*
X137995491Y-108560140D01*
X138088348Y-108733863D01*
X138145531Y-108922370D01*
X138164838Y-109118400D01*
X138145531Y-109314430D01*
X138088348Y-109502937D01*
X137995491Y-109676660D01*
X137870528Y-109828928D01*
X137718260Y-109953891D01*
X137718258Y-109953892D01*
X137544535Y-110046749D01*
X137356034Y-110103930D01*
X137356033Y-110103930D01*
X137356030Y-110103931D01*
X137209124Y-110118400D01*
X137110876Y-110118400D01*
X136963970Y-110103931D01*
X136963967Y-110103930D01*
X136963966Y-110103930D01*
X136775465Y-110046749D01*
X136601742Y-109953892D01*
X136601740Y-109953891D01*
X136449472Y-109828928D01*
X136324509Y-109676660D01*
X136231652Y-109502937D01*
X136174469Y-109314430D01*
X136155162Y-109118400D01*
X136174469Y-108922370D01*
X136231652Y-108733863D01*
X136324509Y-108560140D01*
X136449472Y-108407872D01*
X136601740Y-108282909D01*
X136775463Y-108190052D01*
X136775465Y-108190051D01*
X136963966Y-108132870D01*
X136963967Y-108132870D01*
X136963970Y-108132869D01*
X137110876Y-108118400D01*
X137209124Y-108118400D01*
X137356030Y-108132869D01*
X137356030Y-108132869D01*
G37*
G36*
X152596030Y-108132869D02*
X152596033Y-108132870D01*
X152596034Y-108132870D01*
X152784535Y-108190051D01*
X152784537Y-108190052D01*
X152958260Y-108282909D01*
X153110528Y-108407872D01*
X153235491Y-108560140D01*
X153328348Y-108733863D01*
X153385531Y-108922370D01*
X153404838Y-109118400D01*
X153385531Y-109314430D01*
X153328348Y-109502937D01*
X153235491Y-109676660D01*
X153110528Y-109828928D01*
X152958260Y-109953891D01*
X152958258Y-109953892D01*
X152784535Y-110046749D01*
X152596034Y-110103930D01*
X152596033Y-110103930D01*
X152596030Y-110103931D01*
X152449124Y-110118400D01*
X152350876Y-110118400D01*
X152203970Y-110103931D01*
X152203967Y-110103930D01*
X152203966Y-110103930D01*
X152015465Y-110046749D01*
X151841742Y-109953892D01*
X151841740Y-109953891D01*
X151689472Y-109828928D01*
X151564509Y-109676660D01*
X151471652Y-109502937D01*
X151414469Y-109314430D01*
X151395162Y-109118400D01*
X151414469Y-108922370D01*
X151471652Y-108733863D01*
X151564509Y-108560140D01*
X151689472Y-108407872D01*
X151841740Y-108282909D01*
X152015463Y-108190052D01*
X152015465Y-108190051D01*
X152203966Y-108132870D01*
X152203967Y-108132870D01*
X152203970Y-108132869D01*
X152350876Y-108118400D01*
X152449124Y-108118400D01*
X152596030Y-108132869D01*
X152596030Y-108132869D01*
G37*
G36*
X177996030Y-108132869D02*
X177996033Y-108132870D01*
X177996034Y-108132870D01*
X178184535Y-108190051D01*
X178184537Y-108190052D01*
X178358260Y-108282909D01*
X178510528Y-108407872D01*
X178635491Y-108560140D01*
X178728348Y-108733863D01*
X178785531Y-108922370D01*
X178804838Y-109118400D01*
X178785531Y-109314430D01*
X178728348Y-109502937D01*
X178635491Y-109676660D01*
X178510528Y-109828928D01*
X178358260Y-109953891D01*
X178358258Y-109953892D01*
X178184535Y-110046749D01*
X177996034Y-110103930D01*
X177996033Y-110103930D01*
X177996030Y-110103931D01*
X177849124Y-110118400D01*
X177750876Y-110118400D01*
X177603970Y-110103931D01*
X177603967Y-110103930D01*
X177603966Y-110103930D01*
X177415465Y-110046749D01*
X177241742Y-109953892D01*
X177241740Y-109953891D01*
X177089472Y-109828928D01*
X176964509Y-109676660D01*
X176871652Y-109502937D01*
X176814469Y-109314430D01*
X176795162Y-109118400D01*
X176814469Y-108922370D01*
X176871652Y-108733863D01*
X176964509Y-108560140D01*
X177089472Y-108407872D01*
X177241740Y-108282909D01*
X177415463Y-108190052D01*
X177415465Y-108190051D01*
X177603966Y-108132870D01*
X177603967Y-108132870D01*
X177603970Y-108132869D01*
X177750876Y-108118400D01*
X177849124Y-108118400D01*
X177996030Y-108132869D01*
X177996030Y-108132869D01*
G37*
G36*
X160216030Y-108132869D02*
X160216033Y-108132870D01*
X160216034Y-108132870D01*
X160404535Y-108190051D01*
X160404537Y-108190052D01*
X160578260Y-108282909D01*
X160730528Y-108407872D01*
X160855491Y-108560140D01*
X160948348Y-108733863D01*
X161005531Y-108922370D01*
X161024838Y-109118400D01*
X161005531Y-109314430D01*
X160948348Y-109502937D01*
X160855491Y-109676660D01*
X160730528Y-109828928D01*
X160578260Y-109953891D01*
X160578258Y-109953892D01*
X160404535Y-110046749D01*
X160216034Y-110103930D01*
X160216033Y-110103930D01*
X160216030Y-110103931D01*
X160069124Y-110118400D01*
X159970876Y-110118400D01*
X159823970Y-110103931D01*
X159823967Y-110103930D01*
X159823966Y-110103930D01*
X159635465Y-110046749D01*
X159461742Y-109953892D01*
X159461740Y-109953891D01*
X159309472Y-109828928D01*
X159184509Y-109676660D01*
X159091652Y-109502937D01*
X159034469Y-109314430D01*
X159015162Y-109118400D01*
X159034469Y-108922370D01*
X159091652Y-108733863D01*
X159184509Y-108560140D01*
X159309472Y-108407872D01*
X159461740Y-108282909D01*
X159635463Y-108190052D01*
X159635465Y-108190051D01*
X159823966Y-108132870D01*
X159823967Y-108132870D01*
X159823970Y-108132869D01*
X159970876Y-108118400D01*
X160069124Y-108118400D01*
X160216030Y-108132869D01*
X160216030Y-108132869D01*
G37*
G36*
X162756030Y-108132869D02*
X162756033Y-108132870D01*
X162756034Y-108132870D01*
X162944535Y-108190051D01*
X162944537Y-108190052D01*
X163118260Y-108282909D01*
X163270528Y-108407872D01*
X163395491Y-108560140D01*
X163488348Y-108733863D01*
X163545531Y-108922370D01*
X163564838Y-109118400D01*
X163545531Y-109314430D01*
X163488348Y-109502937D01*
X163395491Y-109676660D01*
X163270528Y-109828928D01*
X163118260Y-109953891D01*
X163118258Y-109953892D01*
X162944535Y-110046749D01*
X162756034Y-110103930D01*
X162756033Y-110103930D01*
X162756030Y-110103931D01*
X162609124Y-110118400D01*
X162510876Y-110118400D01*
X162363970Y-110103931D01*
X162363967Y-110103930D01*
X162363966Y-110103930D01*
X162175465Y-110046749D01*
X162001742Y-109953892D01*
X162001740Y-109953891D01*
X161849472Y-109828928D01*
X161724509Y-109676660D01*
X161631652Y-109502937D01*
X161574469Y-109314430D01*
X161555162Y-109118400D01*
X161574469Y-108922370D01*
X161631652Y-108733863D01*
X161724509Y-108560140D01*
X161849472Y-108407872D01*
X162001740Y-108282909D01*
X162175463Y-108190052D01*
X162175465Y-108190051D01*
X162363966Y-108132870D01*
X162363967Y-108132870D01*
X162363970Y-108132869D01*
X162510876Y-108118400D01*
X162609124Y-108118400D01*
X162756030Y-108132869D01*
X162756030Y-108132869D01*
G37*
G36*
X165296030Y-108132869D02*
X165296033Y-108132870D01*
X165296034Y-108132870D01*
X165484535Y-108190051D01*
X165484537Y-108190052D01*
X165658260Y-108282909D01*
X165810528Y-108407872D01*
X165935491Y-108560140D01*
X166028348Y-108733863D01*
X166085531Y-108922370D01*
X166104838Y-109118400D01*
X166085531Y-109314430D01*
X166028348Y-109502937D01*
X165935491Y-109676660D01*
X165810528Y-109828928D01*
X165658260Y-109953891D01*
X165658258Y-109953892D01*
X165484535Y-110046749D01*
X165296034Y-110103930D01*
X165296033Y-110103930D01*
X165296030Y-110103931D01*
X165149124Y-110118400D01*
X165050876Y-110118400D01*
X164903970Y-110103931D01*
X164903967Y-110103930D01*
X164903966Y-110103930D01*
X164715465Y-110046749D01*
X164541742Y-109953892D01*
X164541740Y-109953891D01*
X164389472Y-109828928D01*
X164264509Y-109676660D01*
X164171652Y-109502937D01*
X164114469Y-109314430D01*
X164095162Y-109118400D01*
X164114469Y-108922370D01*
X164171652Y-108733863D01*
X164264509Y-108560140D01*
X164389472Y-108407872D01*
X164541740Y-108282909D01*
X164715463Y-108190052D01*
X164715465Y-108190051D01*
X164903966Y-108132870D01*
X164903967Y-108132870D01*
X164903970Y-108132869D01*
X165050876Y-108118400D01*
X165149124Y-108118400D01*
X165296030Y-108132869D01*
X165296030Y-108132869D01*
G37*
G36*
X167836030Y-108132869D02*
X167836033Y-108132870D01*
X167836034Y-108132870D01*
X168024535Y-108190051D01*
X168024537Y-108190052D01*
X168198260Y-108282909D01*
X168350528Y-108407872D01*
X168475491Y-108560140D01*
X168568348Y-108733863D01*
X168625531Y-108922370D01*
X168644838Y-109118400D01*
X168625531Y-109314430D01*
X168568348Y-109502937D01*
X168475491Y-109676660D01*
X168350528Y-109828928D01*
X168198260Y-109953891D01*
X168198258Y-109953892D01*
X168024535Y-110046749D01*
X167836034Y-110103930D01*
X167836033Y-110103930D01*
X167836030Y-110103931D01*
X167689124Y-110118400D01*
X167590876Y-110118400D01*
X167443970Y-110103931D01*
X167443967Y-110103930D01*
X167443966Y-110103930D01*
X167255465Y-110046749D01*
X167081742Y-109953892D01*
X167081740Y-109953891D01*
X166929472Y-109828928D01*
X166804509Y-109676660D01*
X166711652Y-109502937D01*
X166654469Y-109314430D01*
X166635162Y-109118400D01*
X166654469Y-108922370D01*
X166711652Y-108733863D01*
X166804509Y-108560140D01*
X166929472Y-108407872D01*
X167081740Y-108282909D01*
X167255463Y-108190052D01*
X167255465Y-108190051D01*
X167443966Y-108132870D01*
X167443967Y-108132870D01*
X167443970Y-108132869D01*
X167590876Y-108118400D01*
X167689124Y-108118400D01*
X167836030Y-108132869D01*
X167836030Y-108132869D01*
G37*
G36*
X170376030Y-108132869D02*
X170376033Y-108132870D01*
X170376034Y-108132870D01*
X170564535Y-108190051D01*
X170564537Y-108190052D01*
X170738260Y-108282909D01*
X170890528Y-108407872D01*
X171015491Y-108560140D01*
X171108348Y-108733863D01*
X171165531Y-108922370D01*
X171184838Y-109118400D01*
X171165531Y-109314430D01*
X171108348Y-109502937D01*
X171015491Y-109676660D01*
X170890528Y-109828928D01*
X170738260Y-109953891D01*
X170738258Y-109953892D01*
X170564535Y-110046749D01*
X170376034Y-110103930D01*
X170376033Y-110103930D01*
X170376030Y-110103931D01*
X170229124Y-110118400D01*
X170130876Y-110118400D01*
X169983970Y-110103931D01*
X169983967Y-110103930D01*
X169983966Y-110103930D01*
X169795465Y-110046749D01*
X169621742Y-109953892D01*
X169621740Y-109953891D01*
X169469472Y-109828928D01*
X169344509Y-109676660D01*
X169251652Y-109502937D01*
X169194469Y-109314430D01*
X169175162Y-109118400D01*
X169194469Y-108922370D01*
X169251652Y-108733863D01*
X169344509Y-108560140D01*
X169469472Y-108407872D01*
X169621740Y-108282909D01*
X169795463Y-108190052D01*
X169795465Y-108190051D01*
X169983966Y-108132870D01*
X169983967Y-108132870D01*
X169983970Y-108132869D01*
X170130876Y-108118400D01*
X170229124Y-108118400D01*
X170376030Y-108132869D01*
X170376030Y-108132869D01*
G37*
G36*
X172916030Y-108132869D02*
X172916033Y-108132870D01*
X172916034Y-108132870D01*
X173104535Y-108190051D01*
X173104537Y-108190052D01*
X173278260Y-108282909D01*
X173430528Y-108407872D01*
X173555491Y-108560140D01*
X173648348Y-108733863D01*
X173705531Y-108922370D01*
X173724838Y-109118400D01*
X173705531Y-109314430D01*
X173648348Y-109502937D01*
X173555491Y-109676660D01*
X173430528Y-109828928D01*
X173278260Y-109953891D01*
X173278258Y-109953892D01*
X173104535Y-110046749D01*
X172916034Y-110103930D01*
X172916033Y-110103930D01*
X172916030Y-110103931D01*
X172769124Y-110118400D01*
X172670876Y-110118400D01*
X172523970Y-110103931D01*
X172523967Y-110103930D01*
X172523966Y-110103930D01*
X172335465Y-110046749D01*
X172161742Y-109953892D01*
X172161740Y-109953891D01*
X172009472Y-109828928D01*
X171884509Y-109676660D01*
X171791652Y-109502937D01*
X171734469Y-109314430D01*
X171715162Y-109118400D01*
X171734469Y-108922370D01*
X171791652Y-108733863D01*
X171884509Y-108560140D01*
X172009472Y-108407872D01*
X172161740Y-108282909D01*
X172335463Y-108190052D01*
X172335465Y-108190051D01*
X172523966Y-108132870D01*
X172523967Y-108132870D01*
X172523970Y-108132869D01*
X172670876Y-108118400D01*
X172769124Y-108118400D01*
X172916030Y-108132869D01*
X172916030Y-108132869D01*
G37*
G36*
X175456030Y-108132869D02*
X175456033Y-108132870D01*
X175456034Y-108132870D01*
X175644535Y-108190051D01*
X175644537Y-108190052D01*
X175818260Y-108282909D01*
X175970528Y-108407872D01*
X176095491Y-108560140D01*
X176188348Y-108733863D01*
X176245531Y-108922370D01*
X176264838Y-109118400D01*
X176245531Y-109314430D01*
X176188348Y-109502937D01*
X176095491Y-109676660D01*
X175970528Y-109828928D01*
X175818260Y-109953891D01*
X175818258Y-109953892D01*
X175644535Y-110046749D01*
X175456034Y-110103930D01*
X175456033Y-110103930D01*
X175456030Y-110103931D01*
X175309124Y-110118400D01*
X175210876Y-110118400D01*
X175063970Y-110103931D01*
X175063967Y-110103930D01*
X175063966Y-110103930D01*
X174875465Y-110046749D01*
X174701742Y-109953892D01*
X174701740Y-109953891D01*
X174549472Y-109828928D01*
X174424509Y-109676660D01*
X174331652Y-109502937D01*
X174274469Y-109314430D01*
X174255162Y-109118400D01*
X174274469Y-108922370D01*
X174331652Y-108733863D01*
X174424509Y-108560140D01*
X174549472Y-108407872D01*
X174701740Y-108282909D01*
X174875463Y-108190052D01*
X174875465Y-108190051D01*
X175063966Y-108132870D01*
X175063967Y-108132870D01*
X175063970Y-108132869D01*
X175210876Y-108118400D01*
X175309124Y-108118400D01*
X175456030Y-108132869D01*
X175456030Y-108132869D01*
G37*
G36*
X155136030Y-108132869D02*
X155136033Y-108132870D01*
X155136034Y-108132870D01*
X155324535Y-108190051D01*
X155324537Y-108190052D01*
X155498260Y-108282909D01*
X155650528Y-108407872D01*
X155775491Y-108560140D01*
X155868348Y-108733863D01*
X155925531Y-108922370D01*
X155944838Y-109118400D01*
X155925531Y-109314430D01*
X155868348Y-109502937D01*
X155775491Y-109676660D01*
X155650528Y-109828928D01*
X155498260Y-109953891D01*
X155498258Y-109953892D01*
X155324535Y-110046749D01*
X155136034Y-110103930D01*
X155136033Y-110103930D01*
X155136030Y-110103931D01*
X154989124Y-110118400D01*
X154890876Y-110118400D01*
X154743970Y-110103931D01*
X154743967Y-110103930D01*
X154743966Y-110103930D01*
X154555465Y-110046749D01*
X154381742Y-109953892D01*
X154381740Y-109953891D01*
X154229472Y-109828928D01*
X154104509Y-109676660D01*
X154011652Y-109502937D01*
X153954469Y-109314430D01*
X153935162Y-109118400D01*
X153954469Y-108922370D01*
X154011652Y-108733863D01*
X154104509Y-108560140D01*
X154229472Y-108407872D01*
X154381740Y-108282909D01*
X154555463Y-108190052D01*
X154555465Y-108190051D01*
X154743966Y-108132870D01*
X154743967Y-108132870D01*
X154743970Y-108132869D01*
X154890876Y-108118400D01*
X154989124Y-108118400D01*
X155136030Y-108132869D01*
X155136030Y-108132869D01*
G37*
G36*
X93535000Y-109682000D02*
X91885000Y-109682000D01*
X91885000Y-108282000D01*
X93535000Y-108282000D01*
X93535000Y-109682000D01*
X93535000Y-109682000D01*
G37*
G36*
X192474645Y-107113615D02*
X192565639Y-107151306D01*
X192593254Y-107169758D01*
X192647534Y-107206027D01*
X192717173Y-107275666D01*
X192717175Y-107275669D01*
X192771894Y-107357561D01*
X192809585Y-107448555D01*
X192826900Y-107535600D01*
X192828800Y-107545155D01*
X192828800Y-107643645D01*
X192809585Y-107740245D01*
X192771895Y-107831237D01*
X192717173Y-107913134D01*
X192647534Y-107982773D01*
X192647531Y-107982775D01*
X192565639Y-108037494D01*
X192474645Y-108075185D01*
X192378046Y-108094400D01*
X192279554Y-108094400D01*
X192182955Y-108075185D01*
X192091961Y-108037494D01*
X192010069Y-107982775D01*
X192010066Y-107982773D01*
X191940427Y-107913134D01*
X191885705Y-107831237D01*
X191848015Y-107740245D01*
X191828800Y-107643645D01*
X191828800Y-107545155D01*
X191830701Y-107535600D01*
X191848015Y-107448555D01*
X191885706Y-107357561D01*
X191940425Y-107275669D01*
X191940427Y-107275666D01*
X192010066Y-107206027D01*
X192064346Y-107169758D01*
X192091961Y-107151306D01*
X192182955Y-107113615D01*
X192279554Y-107094400D01*
X192378046Y-107094400D01*
X192474645Y-107113615D01*
X192474645Y-107113615D01*
G37*
G36*
X93113226Y-105250915D02*
X93331612Y-105341373D01*
X93528158Y-105472701D01*
X93695299Y-105639842D01*
X93826627Y-105836388D01*
X93917085Y-106054774D01*
X93963200Y-106286609D01*
X93963200Y-106522991D01*
X93917085Y-106754826D01*
X93826627Y-106973212D01*
X93695299Y-107169758D01*
X93528158Y-107336899D01*
X93331612Y-107468227D01*
X93113226Y-107558685D01*
X92881391Y-107604800D01*
X92645009Y-107604800D01*
X92413174Y-107558685D01*
X92194788Y-107468227D01*
X91998242Y-107336899D01*
X91831101Y-107169758D01*
X91699773Y-106973212D01*
X91609315Y-106754826D01*
X91563200Y-106522991D01*
X91563200Y-106286609D01*
X91609315Y-106054774D01*
X91699773Y-105836388D01*
X91831101Y-105639842D01*
X91998242Y-105472701D01*
X92194788Y-105341373D01*
X92413174Y-105250915D01*
X92645009Y-105204800D01*
X92881391Y-105204800D01*
X93113226Y-105250915D01*
X93113226Y-105250915D01*
G37*
G36*
X99613226Y-105250915D02*
X99831612Y-105341373D01*
X100028158Y-105472701D01*
X100195299Y-105639842D01*
X100326627Y-105836388D01*
X100417085Y-106054774D01*
X100463200Y-106286609D01*
X100463200Y-106522991D01*
X100417085Y-106754826D01*
X100326627Y-106973212D01*
X100195299Y-107169758D01*
X100028158Y-107336899D01*
X99831612Y-107468227D01*
X99613226Y-107558685D01*
X99381391Y-107604800D01*
X99145009Y-107604800D01*
X98913174Y-107558685D01*
X98694788Y-107468227D01*
X98498242Y-107336899D01*
X98331101Y-107169758D01*
X98199773Y-106973212D01*
X98109315Y-106754826D01*
X98063200Y-106522991D01*
X98063200Y-106286609D01*
X98109315Y-106054774D01*
X98199773Y-105836388D01*
X98331101Y-105639842D01*
X98498242Y-105472701D01*
X98694788Y-105341373D01*
X98913174Y-105250915D01*
X99145009Y-105204800D01*
X99381391Y-105204800D01*
X99613226Y-105250915D01*
X99613226Y-105250915D01*
G37*
G36*
X124656645Y-106554815D02*
X124747639Y-106592506D01*
X124828440Y-106646496D01*
X124829534Y-106647227D01*
X124899173Y-106716866D01*
X124899175Y-106716869D01*
X124953894Y-106798761D01*
X124991585Y-106889755D01*
X125010800Y-106986354D01*
X125010800Y-107084846D01*
X124991585Y-107181445D01*
X124953894Y-107272439D01*
X124910823Y-107336899D01*
X124899173Y-107354334D01*
X124829534Y-107423973D01*
X124829531Y-107423975D01*
X124747639Y-107478694D01*
X124656645Y-107516385D01*
X124560046Y-107535600D01*
X124461554Y-107535600D01*
X124364955Y-107516385D01*
X124273961Y-107478694D01*
X124192069Y-107423975D01*
X124192066Y-107423973D01*
X124122427Y-107354334D01*
X124110777Y-107336899D01*
X124067706Y-107272439D01*
X124030015Y-107181445D01*
X124010800Y-107084846D01*
X124010800Y-106986354D01*
X124030015Y-106889755D01*
X124067706Y-106798761D01*
X124122425Y-106716869D01*
X124122427Y-106716866D01*
X124192066Y-106647227D01*
X124193160Y-106646496D01*
X124273961Y-106592506D01*
X124364955Y-106554815D01*
X124461554Y-106535600D01*
X124560046Y-106535600D01*
X124656645Y-106554815D01*
X124656645Y-106554815D01*
G37*
G36*
X127951600Y-105182800D02*
X126251600Y-105182800D01*
X126251600Y-104082800D01*
X127951600Y-104082800D01*
X127951600Y-105182800D01*
X127951600Y-105182800D01*
G37*
G36*
X109365845Y-102490815D02*
X109456839Y-102528506D01*
X109537640Y-102582496D01*
X109538734Y-102583227D01*
X109608373Y-102652866D01*
X109663095Y-102734763D01*
X109700785Y-102825755D01*
X109720000Y-102922355D01*
X109720000Y-103020845D01*
X109700785Y-103117445D01*
X109663095Y-103208437D01*
X109608373Y-103290334D01*
X109538734Y-103359973D01*
X109538731Y-103359975D01*
X109456839Y-103414694D01*
X109365845Y-103452385D01*
X109269246Y-103471600D01*
X109170754Y-103471600D01*
X109074155Y-103452385D01*
X108983161Y-103414694D01*
X108901269Y-103359975D01*
X108901266Y-103359973D01*
X108831627Y-103290334D01*
X108776905Y-103208437D01*
X108739215Y-103117445D01*
X108720000Y-103020845D01*
X108720000Y-102922355D01*
X108739215Y-102825755D01*
X108776905Y-102734763D01*
X108831627Y-102652866D01*
X108901266Y-102583227D01*
X108902360Y-102582496D01*
X108983161Y-102528506D01*
X109074155Y-102490815D01*
X109170754Y-102471600D01*
X109269246Y-102471600D01*
X109365845Y-102490815D01*
X109365845Y-102490815D01*
G37*
G36*
X127951600Y-103282800D02*
X126251600Y-103282800D01*
X126251600Y-102182800D01*
X127951600Y-102182800D01*
X127951600Y-103282800D01*
X127951600Y-103282800D01*
G37*
G36*
X93113226Y-100750915D02*
X93331612Y-100841373D01*
X93528158Y-100972701D01*
X93695299Y-101139842D01*
X93826627Y-101336388D01*
X93917085Y-101554774D01*
X93963200Y-101786609D01*
X93963200Y-102022991D01*
X93917085Y-102254826D01*
X93826627Y-102473212D01*
X93695299Y-102669758D01*
X93528158Y-102836899D01*
X93331612Y-102968227D01*
X93113226Y-103058685D01*
X92881391Y-103104800D01*
X92645009Y-103104800D01*
X92413174Y-103058685D01*
X92194788Y-102968227D01*
X91998242Y-102836899D01*
X91831101Y-102669758D01*
X91699773Y-102473212D01*
X91609315Y-102254826D01*
X91563200Y-102022991D01*
X91563200Y-101786609D01*
X91609315Y-101554774D01*
X91699773Y-101336388D01*
X91831101Y-101139842D01*
X91998242Y-100972701D01*
X92194788Y-100841373D01*
X92413174Y-100750915D01*
X92645009Y-100704800D01*
X92881391Y-100704800D01*
X93113226Y-100750915D01*
X93113226Y-100750915D01*
G37*
G36*
X99613226Y-100750915D02*
X99831612Y-100841373D01*
X100028158Y-100972701D01*
X100195299Y-101139842D01*
X100326627Y-101336388D01*
X100417085Y-101554774D01*
X100463200Y-101786609D01*
X100463200Y-102022991D01*
X100417085Y-102254826D01*
X100326627Y-102473212D01*
X100195299Y-102669758D01*
X100028158Y-102836899D01*
X99831612Y-102968227D01*
X99613226Y-103058685D01*
X99381391Y-103104800D01*
X99145009Y-103104800D01*
X98913174Y-103058685D01*
X98694788Y-102968227D01*
X98498242Y-102836899D01*
X98331101Y-102669758D01*
X98199773Y-102473212D01*
X98109315Y-102254826D01*
X98063200Y-102022991D01*
X98063200Y-101786609D01*
X98109315Y-101554774D01*
X98199773Y-101336388D01*
X98331101Y-101139842D01*
X98498242Y-100972701D01*
X98694788Y-100841373D01*
X98913174Y-100750915D01*
X99145009Y-100704800D01*
X99381391Y-100704800D01*
X99613226Y-100750915D01*
X99613226Y-100750915D01*
G37*
G36*
X118154245Y-101474815D02*
X118245239Y-101512506D01*
X118308495Y-101554773D01*
X118327134Y-101567227D01*
X118396773Y-101636866D01*
X118451495Y-101718763D01*
X118489185Y-101809755D01*
X118508400Y-101906355D01*
X118508400Y-102004845D01*
X118489185Y-102101445D01*
X118451495Y-102192437D01*
X118396773Y-102274334D01*
X118327134Y-102343973D01*
X118327131Y-102343975D01*
X118245239Y-102398694D01*
X118154245Y-102436385D01*
X118057646Y-102455600D01*
X117959154Y-102455600D01*
X117862555Y-102436385D01*
X117771561Y-102398694D01*
X117689669Y-102343975D01*
X117689666Y-102343973D01*
X117620027Y-102274334D01*
X117565305Y-102192437D01*
X117527615Y-102101445D01*
X117508400Y-102004845D01*
X117508400Y-101906355D01*
X117527615Y-101809755D01*
X117565305Y-101718763D01*
X117620027Y-101636866D01*
X117689666Y-101567227D01*
X117708305Y-101554773D01*
X117771561Y-101512506D01*
X117862555Y-101474815D01*
X117959154Y-101455600D01*
X118057646Y-101455600D01*
X118154245Y-101474815D01*
X118154245Y-101474815D01*
G37*
G36*
X146121600Y-100142400D02*
X140001600Y-100142400D01*
X140001600Y-98742400D01*
X144596600Y-98742400D01*
X144620986Y-98739998D01*
X144644435Y-98732885D01*
X144666046Y-98721334D01*
X144684988Y-98705788D01*
X144700534Y-98686846D01*
X144712085Y-98665235D01*
X144719198Y-98641786D01*
X144721600Y-98617400D01*
X144721600Y-95602400D01*
X146121600Y-95602400D01*
X146121600Y-100142400D01*
X146121600Y-100142400D01*
G37*
G36*
X109481600Y-98617400D02*
X109484002Y-98641786D01*
X109491115Y-98665235D01*
X109502666Y-98686846D01*
X109518212Y-98705788D01*
X109537154Y-98721334D01*
X109558765Y-98732885D01*
X109582214Y-98739998D01*
X109606600Y-98742400D01*
X114201600Y-98742400D01*
X114201600Y-100142400D01*
X108081600Y-100142400D01*
X108081600Y-95602400D01*
X109481600Y-95602400D01*
X109481600Y-98617400D01*
X109481600Y-98617400D01*
G37*
G36*
X138201600Y-100142400D02*
X134001600Y-100142400D01*
X134001600Y-98742400D01*
X138201600Y-98742400D01*
X138201600Y-100142400D01*
X138201600Y-100142400D01*
G37*
G36*
X120201600Y-100142400D02*
X116001600Y-100142400D01*
X116001600Y-98742400D01*
X120201600Y-98742400D01*
X120201600Y-100142400D01*
X120201600Y-100142400D01*
G37*
G36*
X132201600Y-100142400D02*
X128001600Y-100142400D01*
X128001600Y-98742400D01*
X132201600Y-98742400D01*
X132201600Y-100142400D01*
X132201600Y-100142400D01*
G37*
G36*
X126201600Y-100142400D02*
X122001600Y-100142400D01*
X122001600Y-98742400D01*
X126201600Y-98742400D01*
X126201600Y-100142400D01*
X126201600Y-100142400D01*
G37*
G36*
X93535000Y-99998000D02*
X91885000Y-99998000D01*
X91885000Y-98598000D01*
X93535000Y-98598000D01*
X93535000Y-99998000D01*
X93535000Y-99998000D01*
G37*
G36*
X177488645Y-98020415D02*
X177579639Y-98058106D01*
X177660440Y-98112096D01*
X177661534Y-98112827D01*
X177731173Y-98182466D01*
X177785895Y-98264363D01*
X177823585Y-98355355D01*
X177842800Y-98451955D01*
X177842800Y-98550445D01*
X177823585Y-98647045D01*
X177785895Y-98738037D01*
X177731173Y-98819934D01*
X177661534Y-98889573D01*
X177661531Y-98889575D01*
X177579639Y-98944294D01*
X177488645Y-98981985D01*
X177392046Y-99001200D01*
X177293554Y-99001200D01*
X177196955Y-98981985D01*
X177105961Y-98944294D01*
X177024069Y-98889575D01*
X177024066Y-98889573D01*
X176954427Y-98819934D01*
X176899705Y-98738037D01*
X176862015Y-98647045D01*
X176842800Y-98550445D01*
X176842800Y-98451955D01*
X176862015Y-98355355D01*
X176899705Y-98264363D01*
X176954427Y-98182466D01*
X177024066Y-98112827D01*
X177025160Y-98112096D01*
X177105961Y-98058106D01*
X177196955Y-98020415D01*
X177293554Y-98001200D01*
X177392046Y-98001200D01*
X177488645Y-98020415D01*
X177488645Y-98020415D01*
G37*
G36*
X93535000Y-97998000D02*
X91885000Y-97998000D01*
X91885000Y-96598000D01*
X93535000Y-96598000D01*
X93535000Y-97998000D01*
X93535000Y-97998000D01*
G37*
G36*
X123274000Y-97708000D02*
X121274000Y-97708000D01*
X121274000Y-93808000D01*
X123274000Y-93808000D01*
X123274000Y-97708000D01*
X123274000Y-97708000D01*
G37*
G36*
X128154000Y-97708000D02*
X126154000Y-97708000D01*
X126154000Y-93808000D01*
X128154000Y-93808000D01*
X128154000Y-97708000D01*
X128154000Y-97708000D01*
G37*
G36*
X142893845Y-95886815D02*
X142984839Y-95924506D01*
X143065640Y-95978496D01*
X143066734Y-95979227D01*
X143136373Y-96048866D01*
X143191095Y-96130763D01*
X143228785Y-96221755D01*
X143248000Y-96318355D01*
X143248000Y-96416845D01*
X143228785Y-96513445D01*
X143191095Y-96604437D01*
X143136373Y-96686334D01*
X143066734Y-96755973D01*
X143066731Y-96755975D01*
X142984839Y-96810694D01*
X142893845Y-96848385D01*
X142797246Y-96867600D01*
X142698754Y-96867600D01*
X142602155Y-96848385D01*
X142511161Y-96810694D01*
X142429269Y-96755975D01*
X142429266Y-96755973D01*
X142359627Y-96686334D01*
X142304905Y-96604437D01*
X142267215Y-96513445D01*
X142248000Y-96416845D01*
X142248000Y-96318355D01*
X142267215Y-96221755D01*
X142304905Y-96130763D01*
X142359627Y-96048866D01*
X142429266Y-95979227D01*
X142430360Y-95978496D01*
X142511161Y-95924506D01*
X142602155Y-95886815D01*
X142698754Y-95867600D01*
X142797246Y-95867600D01*
X142893845Y-95886815D01*
X142893845Y-95886815D01*
G37*
G36*
X119898000Y-96708000D02*
X117548000Y-96708000D01*
X117548000Y-94808000D01*
X119898000Y-94808000D01*
X119898000Y-96708000D01*
X119898000Y-96708000D01*
G37*
G36*
X117148000Y-96708000D02*
X114798000Y-96708000D01*
X114798000Y-94808000D01*
X117148000Y-94808000D01*
X117148000Y-96708000D01*
X117148000Y-96708000D01*
G37*
G36*
X131311445Y-95023215D02*
X131402439Y-95060906D01*
X131483240Y-95114896D01*
X131484334Y-95115627D01*
X131553973Y-95185266D01*
X131553975Y-95185269D01*
X131608694Y-95267161D01*
X131646385Y-95358155D01*
X131665600Y-95454754D01*
X131665600Y-95553246D01*
X131646385Y-95649845D01*
X131608695Y-95740837D01*
X131553973Y-95822734D01*
X131484334Y-95892373D01*
X131484331Y-95892375D01*
X131402439Y-95947094D01*
X131311445Y-95984785D01*
X131214846Y-96004000D01*
X131116354Y-96004000D01*
X131019755Y-95984785D01*
X130928761Y-95947094D01*
X130846869Y-95892375D01*
X130846866Y-95892373D01*
X130777227Y-95822734D01*
X130722505Y-95740837D01*
X130684815Y-95649845D01*
X130665600Y-95553246D01*
X130665600Y-95454754D01*
X130684815Y-95358155D01*
X130722506Y-95267161D01*
X130777225Y-95185269D01*
X130777227Y-95185266D01*
X130846866Y-95115627D01*
X130847960Y-95114896D01*
X130928761Y-95060906D01*
X131019755Y-95023215D01*
X131116354Y-95004000D01*
X131214846Y-95004000D01*
X131311445Y-95023215D01*
X131311445Y-95023215D01*
G37*
G36*
X93113226Y-93465315D02*
X93331612Y-93555773D01*
X93528158Y-93687101D01*
X93695299Y-93854242D01*
X93826627Y-94050788D01*
X93917085Y-94269174D01*
X93963200Y-94501009D01*
X93963200Y-94737391D01*
X93917085Y-94969226D01*
X93826627Y-95187612D01*
X93695299Y-95384158D01*
X93528158Y-95551299D01*
X93331612Y-95682627D01*
X93113226Y-95773085D01*
X92881391Y-95819200D01*
X92645009Y-95819200D01*
X92413174Y-95773085D01*
X92194788Y-95682627D01*
X91998242Y-95551299D01*
X91831101Y-95384158D01*
X91699773Y-95187612D01*
X91609315Y-94969226D01*
X91563200Y-94737391D01*
X91563200Y-94501009D01*
X91609315Y-94269174D01*
X91699773Y-94050788D01*
X91831101Y-93854242D01*
X91998242Y-93687101D01*
X92194788Y-93555773D01*
X92413174Y-93465315D01*
X92645009Y-93419200D01*
X92881391Y-93419200D01*
X93113226Y-93465315D01*
X93113226Y-93465315D01*
G37*
G36*
X99613226Y-93465315D02*
X99831612Y-93555773D01*
X100028158Y-93687101D01*
X100195299Y-93854242D01*
X100326627Y-94050788D01*
X100417085Y-94269174D01*
X100463200Y-94501009D01*
X100463200Y-94737391D01*
X100417085Y-94969226D01*
X100326627Y-95187612D01*
X100195299Y-95384158D01*
X100028158Y-95551299D01*
X99831612Y-95682627D01*
X99613226Y-95773085D01*
X99381391Y-95819200D01*
X99145009Y-95819200D01*
X98913174Y-95773085D01*
X98694788Y-95682627D01*
X98498242Y-95551299D01*
X98331101Y-95384158D01*
X98199773Y-95187612D01*
X98109315Y-94969226D01*
X98063200Y-94737391D01*
X98063200Y-94501009D01*
X98109315Y-94269174D01*
X98199773Y-94050788D01*
X98331101Y-93854242D01*
X98498242Y-93687101D01*
X98694788Y-93555773D01*
X98913174Y-93465315D01*
X99145009Y-93419200D01*
X99381391Y-93419200D01*
X99613226Y-93465315D01*
X99613226Y-93465315D01*
G37*
G36*
X109481600Y-93802400D02*
X108081600Y-93802400D01*
X108081600Y-89602400D01*
X109481600Y-89602400D01*
X109481600Y-93802400D01*
X109481600Y-93802400D01*
G37*
G36*
X146121600Y-93802400D02*
X144721600Y-93802400D01*
X144721600Y-89602400D01*
X146121600Y-89602400D01*
X146121600Y-93802400D01*
X146121600Y-93802400D01*
G37*
G36*
X113988645Y-92330815D02*
X114079639Y-92368506D01*
X114160440Y-92422496D01*
X114161534Y-92423227D01*
X114231173Y-92492866D01*
X114285895Y-92574763D01*
X114323585Y-92665755D01*
X114342800Y-92762355D01*
X114342800Y-92860845D01*
X114323585Y-92957445D01*
X114285895Y-93048437D01*
X114231173Y-93130334D01*
X114161534Y-93199973D01*
X114161531Y-93199975D01*
X114079639Y-93254694D01*
X113988645Y-93292385D01*
X113892046Y-93311600D01*
X113793554Y-93311600D01*
X113696955Y-93292385D01*
X113605961Y-93254694D01*
X113524069Y-93199975D01*
X113524066Y-93199973D01*
X113454427Y-93130334D01*
X113399705Y-93048437D01*
X113362015Y-92957445D01*
X113342800Y-92860845D01*
X113342800Y-92762355D01*
X113362015Y-92665755D01*
X113399705Y-92574763D01*
X113454427Y-92492866D01*
X113524066Y-92423227D01*
X113525160Y-92422496D01*
X113605961Y-92368506D01*
X113696955Y-92330815D01*
X113793554Y-92311600D01*
X113892046Y-92311600D01*
X113988645Y-92330815D01*
X113988645Y-92330815D01*
G37*
G36*
X99613226Y-88965315D02*
X99831612Y-89055773D01*
X100028158Y-89187101D01*
X100195299Y-89354242D01*
X100326627Y-89550788D01*
X100417085Y-89769174D01*
X100463200Y-90001009D01*
X100463200Y-90237391D01*
X100417085Y-90469226D01*
X100326627Y-90687612D01*
X100195299Y-90884158D01*
X100028158Y-91051299D01*
X99831612Y-91182627D01*
X99613226Y-91273085D01*
X99381391Y-91319200D01*
X99145009Y-91319200D01*
X98913174Y-91273085D01*
X98694788Y-91182627D01*
X98498242Y-91051299D01*
X98331101Y-90884158D01*
X98199773Y-90687612D01*
X98109315Y-90469226D01*
X98063200Y-90237391D01*
X98063200Y-90001009D01*
X98109315Y-89769174D01*
X98199773Y-89550788D01*
X98331101Y-89354242D01*
X98498242Y-89187101D01*
X98694788Y-89055773D01*
X98913174Y-88965315D01*
X99145009Y-88919200D01*
X99381391Y-88919200D01*
X99613226Y-88965315D01*
X99613226Y-88965315D01*
G37*
G36*
X93113226Y-88965315D02*
X93331612Y-89055773D01*
X93528158Y-89187101D01*
X93695299Y-89354242D01*
X93826627Y-89550788D01*
X93917085Y-89769174D01*
X93963200Y-90001009D01*
X93963200Y-90237391D01*
X93917085Y-90469226D01*
X93826627Y-90687612D01*
X93695299Y-90884158D01*
X93528158Y-91051299D01*
X93331612Y-91182627D01*
X93113226Y-91273085D01*
X92881391Y-91319200D01*
X92645009Y-91319200D01*
X92413174Y-91273085D01*
X92194788Y-91182627D01*
X91998242Y-91051299D01*
X91831101Y-90884158D01*
X91699773Y-90687612D01*
X91609315Y-90469226D01*
X91563200Y-90237391D01*
X91563200Y-90001009D01*
X91609315Y-89769174D01*
X91699773Y-89550788D01*
X91831101Y-89354242D01*
X91998242Y-89187101D01*
X92194788Y-89055773D01*
X92413174Y-88965315D01*
X92645009Y-88919200D01*
X92881391Y-88919200D01*
X93113226Y-88965315D01*
X93113226Y-88965315D01*
G37*
G36*
X114999800Y-91309400D02*
X113999800Y-91309400D01*
X113999800Y-89409400D01*
X114999800Y-89409400D01*
X114999800Y-91309400D01*
X114999800Y-91309400D01*
G37*
G36*
X117232800Y-89282400D02*
X115532800Y-89282400D01*
X115532800Y-88182400D01*
X117232800Y-88182400D01*
X117232800Y-89282400D01*
X117232800Y-89282400D01*
G37*
G36*
X133921000Y-88923600D02*
X132271000Y-88923600D01*
X132271000Y-87523600D01*
X133921000Y-87523600D01*
X133921000Y-88923600D01*
X133921000Y-88923600D01*
G37*
G36*
X122306600Y-88917400D02*
X119956600Y-88917400D01*
X119956600Y-87917400D01*
X122306600Y-87917400D01*
X122306600Y-88917400D01*
X122306600Y-88917400D01*
G37*
G36*
X131706600Y-88917400D02*
X129356600Y-88917400D01*
X129356600Y-87917400D01*
X131706600Y-87917400D01*
X131706600Y-88917400D01*
X131706600Y-88917400D01*
G37*
G36*
X138098000Y-88810600D02*
X136698000Y-88810600D01*
X136698000Y-87160600D01*
X138098000Y-87160600D01*
X138098000Y-88810600D01*
X138098000Y-88810600D01*
G37*
G36*
X136098000Y-88810600D02*
X134698000Y-88810600D01*
X134698000Y-87160600D01*
X136098000Y-87160600D01*
X136098000Y-88810600D01*
X136098000Y-88810600D01*
G37*
G36*
X165245845Y-87555615D02*
X165318610Y-87585755D01*
X165336839Y-87593306D01*
X165417640Y-87647296D01*
X165418734Y-87648027D01*
X165488373Y-87717666D01*
X165543095Y-87799563D01*
X165580785Y-87890555D01*
X165600000Y-87987155D01*
X165600000Y-88085645D01*
X165580785Y-88182245D01*
X165543095Y-88273237D01*
X165488373Y-88355134D01*
X165418734Y-88424773D01*
X165418731Y-88424775D01*
X165336839Y-88479494D01*
X165245845Y-88517185D01*
X165149246Y-88536400D01*
X165050754Y-88536400D01*
X164954155Y-88517185D01*
X164863161Y-88479494D01*
X164781269Y-88424775D01*
X164781266Y-88424773D01*
X164711627Y-88355134D01*
X164656905Y-88273237D01*
X164619215Y-88182245D01*
X164600000Y-88085645D01*
X164600000Y-87987155D01*
X164619215Y-87890555D01*
X164656905Y-87799563D01*
X164711627Y-87717666D01*
X164781266Y-87648027D01*
X164782360Y-87647296D01*
X164863161Y-87593306D01*
X164881391Y-87585755D01*
X164954155Y-87555615D01*
X165050754Y-87536400D01*
X165149246Y-87536400D01*
X165245845Y-87555615D01*
X165245845Y-87555615D01*
G37*
G36*
X192474645Y-87250815D02*
X192565639Y-87288506D01*
X192646440Y-87342496D01*
X192647534Y-87343227D01*
X192717173Y-87412866D01*
X192771895Y-87494763D01*
X192797101Y-87555615D01*
X192809585Y-87585755D01*
X192828800Y-87682354D01*
X192828800Y-87780846D01*
X192809585Y-87877445D01*
X192771895Y-87968437D01*
X192717173Y-88050334D01*
X192647534Y-88119973D01*
X192647531Y-88119975D01*
X192565639Y-88174694D01*
X192565638Y-88174695D01*
X192565637Y-88174695D01*
X192547035Y-88182400D01*
X192474645Y-88212385D01*
X192378046Y-88231600D01*
X192279554Y-88231600D01*
X192182955Y-88212385D01*
X192110565Y-88182400D01*
X192091963Y-88174695D01*
X192091962Y-88174695D01*
X192091961Y-88174694D01*
X192010069Y-88119975D01*
X192010066Y-88119973D01*
X191940427Y-88050334D01*
X191885705Y-87968437D01*
X191848015Y-87877445D01*
X191828800Y-87780846D01*
X191828800Y-87682354D01*
X191848015Y-87585755D01*
X191860499Y-87555615D01*
X191885705Y-87494763D01*
X191940427Y-87412866D01*
X192010066Y-87343227D01*
X192011160Y-87342496D01*
X192091961Y-87288506D01*
X192182955Y-87250815D01*
X192279554Y-87231600D01*
X192378046Y-87231600D01*
X192474645Y-87250815D01*
X192474645Y-87250815D01*
G37*
G36*
X119392200Y-88060000D02*
X117742200Y-88060000D01*
X117742200Y-86660000D01*
X119392200Y-86660000D01*
X119392200Y-88060000D01*
X119392200Y-88060000D01*
G37*
G36*
X93535000Y-88060000D02*
X91885000Y-88060000D01*
X91885000Y-86660000D01*
X93535000Y-86660000D01*
X93535000Y-88060000D01*
X93535000Y-88060000D01*
G37*
G36*
X146121600Y-87802400D02*
X144721600Y-87802400D01*
X144721600Y-83602400D01*
X146121600Y-83602400D01*
X146121600Y-87802400D01*
X146121600Y-87802400D01*
G37*
G36*
X109481600Y-87802400D02*
X108081600Y-87802400D01*
X108081600Y-83602400D01*
X109481600Y-83602400D01*
X109481600Y-87802400D01*
X109481600Y-87802400D01*
G37*
G36*
X122306600Y-87647400D02*
X119956600Y-87647400D01*
X119956600Y-86647400D01*
X122306600Y-86647400D01*
X122306600Y-87647400D01*
X122306600Y-87647400D01*
G37*
G36*
X131706600Y-87647400D02*
X129356600Y-87647400D01*
X129356600Y-86647400D01*
X131706600Y-86647400D01*
X131706600Y-87647400D01*
X131706600Y-87647400D01*
G37*
G36*
X117232800Y-87382400D02*
X115532800Y-87382400D01*
X115532800Y-86282400D01*
X117232800Y-86282400D01*
X117232800Y-87382400D01*
X117232800Y-87382400D01*
G37*
G36*
X133921000Y-86923600D02*
X132271000Y-86923600D01*
X132271000Y-85523600D01*
X133921000Y-85523600D01*
X133921000Y-86923600D01*
X133921000Y-86923600D01*
G37*
G36*
X131706600Y-86377400D02*
X129356600Y-86377400D01*
X129356600Y-85377400D01*
X131706600Y-85377400D01*
X131706600Y-86377400D01*
X131706600Y-86377400D01*
G37*
G36*
X122306600Y-86377400D02*
X119956600Y-86377400D01*
X119956600Y-85377400D01*
X122306600Y-85377400D01*
X122306600Y-86377400D01*
X122306600Y-86377400D01*
G37*
G36*
X137873000Y-86353200D02*
X134923000Y-86353200D01*
X134923000Y-84393200D01*
X137873000Y-84393200D01*
X137873000Y-86353200D01*
X137873000Y-86353200D01*
G37*
G36*
X111040800Y-86319400D02*
X110040800Y-86319400D01*
X110040800Y-84419400D01*
X111040800Y-84419400D01*
X111040800Y-86319400D01*
X111040800Y-86319400D01*
G37*
G36*
X119392200Y-86060000D02*
X117742200Y-86060000D01*
X117742200Y-84660000D01*
X119392200Y-84660000D01*
X119392200Y-86060000D01*
X119392200Y-86060000D01*
G37*
G36*
X93535000Y-86060000D02*
X91885000Y-86060000D01*
X91885000Y-84660000D01*
X93535000Y-84660000D01*
X93535000Y-86060000D01*
X93535000Y-86060000D01*
G37*
G36*
X131706600Y-85107400D02*
X129356600Y-85107400D01*
X129356600Y-84107400D01*
X131706600Y-84107400D01*
X131706600Y-85107400D01*
X131706600Y-85107400D01*
G37*
G36*
X122306600Y-85107400D02*
X119956600Y-85107400D01*
X119956600Y-84107400D01*
X122306600Y-84107400D01*
X122306600Y-85107400D01*
X122306600Y-85107400D01*
G37*
G36*
X141115845Y-83542415D02*
X141206839Y-83580106D01*
X141240204Y-83602400D01*
X141288734Y-83634827D01*
X141358373Y-83704466D01*
X141413095Y-83786363D01*
X141450785Y-83877355D01*
X141470000Y-83973955D01*
X141470000Y-84072445D01*
X141450785Y-84169045D01*
X141413095Y-84260037D01*
X141358373Y-84341934D01*
X141288734Y-84411573D01*
X141288731Y-84411575D01*
X141206839Y-84466294D01*
X141115845Y-84503985D01*
X141019246Y-84523200D01*
X140920754Y-84523200D01*
X140824155Y-84503985D01*
X140733161Y-84466294D01*
X140651269Y-84411575D01*
X140651266Y-84411573D01*
X140581627Y-84341934D01*
X140526905Y-84260037D01*
X140489215Y-84169045D01*
X140470000Y-84072445D01*
X140470000Y-83973955D01*
X140489215Y-83877355D01*
X140526905Y-83786363D01*
X140581627Y-83704466D01*
X140651266Y-83634827D01*
X140699796Y-83602400D01*
X140733161Y-83580106D01*
X140824155Y-83542415D01*
X140920754Y-83523200D01*
X141019246Y-83523200D01*
X141115845Y-83542415D01*
X141115845Y-83542415D01*
G37*
G36*
X117403600Y-84187800D02*
X116003600Y-84187800D01*
X116003600Y-82537800D01*
X117403600Y-82537800D01*
X117403600Y-84187800D01*
X117403600Y-84187800D01*
G37*
G36*
X115238000Y-84187800D02*
X113838000Y-84187800D01*
X113838000Y-82537800D01*
X115238000Y-82537800D01*
X115238000Y-84187800D01*
X115238000Y-84187800D01*
G37*
G36*
X113238000Y-84187800D02*
X111838000Y-84187800D01*
X111838000Y-82537800D01*
X113238000Y-82537800D01*
X113238000Y-84187800D01*
X113238000Y-84187800D01*
G37*
G36*
X119403600Y-84187800D02*
X118003600Y-84187800D01*
X118003600Y-82537800D01*
X119403600Y-82537800D01*
X119403600Y-84187800D01*
X119403600Y-84187800D01*
G37*
G36*
X93113226Y-81527315D02*
X93331612Y-81617773D01*
X93528158Y-81749101D01*
X93695299Y-81916242D01*
X93826627Y-82112788D01*
X93917085Y-82331174D01*
X93963200Y-82563009D01*
X93963200Y-82799391D01*
X93917085Y-83031226D01*
X93826627Y-83249612D01*
X93695299Y-83446158D01*
X93528158Y-83613299D01*
X93331612Y-83744627D01*
X93113226Y-83835085D01*
X92881391Y-83881200D01*
X92645009Y-83881200D01*
X92413174Y-83835085D01*
X92194788Y-83744627D01*
X91998242Y-83613299D01*
X91831101Y-83446158D01*
X91699773Y-83249612D01*
X91609315Y-83031226D01*
X91563200Y-82799391D01*
X91563200Y-82563009D01*
X91609315Y-82331174D01*
X91699773Y-82112788D01*
X91831101Y-81916242D01*
X91998242Y-81749101D01*
X92194788Y-81617773D01*
X92413174Y-81527315D01*
X92645009Y-81481200D01*
X92881391Y-81481200D01*
X93113226Y-81527315D01*
X93113226Y-81527315D01*
G37*
G36*
X99613226Y-81527315D02*
X99831612Y-81617773D01*
X100028158Y-81749101D01*
X100195299Y-81916242D01*
X100326627Y-82112788D01*
X100417085Y-82331174D01*
X100463200Y-82563009D01*
X100463200Y-82799391D01*
X100417085Y-83031226D01*
X100326627Y-83249612D01*
X100195299Y-83446158D01*
X100028158Y-83613299D01*
X99831612Y-83744627D01*
X99613226Y-83835085D01*
X99381391Y-83881200D01*
X99145009Y-83881200D01*
X98913174Y-83835085D01*
X98694788Y-83744627D01*
X98498242Y-83613299D01*
X98331101Y-83446158D01*
X98199773Y-83249612D01*
X98109315Y-83031226D01*
X98063200Y-82799391D01*
X98063200Y-82563009D01*
X98109315Y-82331174D01*
X98199773Y-82112788D01*
X98331101Y-81916242D01*
X98498242Y-81749101D01*
X98694788Y-81617773D01*
X98913174Y-81527315D01*
X99145009Y-81481200D01*
X99381391Y-81481200D01*
X99613226Y-81527315D01*
X99613226Y-81527315D01*
G37*
G36*
X122306600Y-83837400D02*
X119956600Y-83837400D01*
X119956600Y-82837400D01*
X122306600Y-82837400D01*
X122306600Y-83837400D01*
X122306600Y-83837400D01*
G37*
G36*
X131706600Y-83837400D02*
X129356600Y-83837400D01*
X129356600Y-82837400D01*
X131706600Y-82837400D01*
X131706600Y-83837400D01*
X131706600Y-83837400D01*
G37*
G36*
X137873000Y-83653200D02*
X134923000Y-83653200D01*
X134923000Y-81693200D01*
X137873000Y-81693200D01*
X137873000Y-83653200D01*
X137873000Y-83653200D01*
G37*
G36*
X122306600Y-82567400D02*
X119956600Y-82567400D01*
X119956600Y-81567400D01*
X122306600Y-81567400D01*
X122306600Y-82567400D01*
X122306600Y-82567400D01*
G37*
G36*
X131706600Y-82567400D02*
X129356600Y-82567400D01*
X129356600Y-81567400D01*
X131706600Y-81567400D01*
X131706600Y-82567400D01*
X131706600Y-82567400D01*
G37*
G36*
X119392200Y-81862400D02*
X117742200Y-81862400D01*
X117742200Y-80462400D01*
X119392200Y-80462400D01*
X119392200Y-81862400D01*
X119392200Y-81862400D01*
G37*
G36*
X109481600Y-81802400D02*
X108081600Y-81802400D01*
X108081600Y-77602400D01*
X109481600Y-77602400D01*
X109481600Y-81802400D01*
X109481600Y-81802400D01*
G37*
G36*
X146121600Y-81802400D02*
X144721600Y-81802400D01*
X144721600Y-77602400D01*
X146121600Y-77602400D01*
X146121600Y-81802400D01*
X146121600Y-81802400D01*
G37*
G36*
X125723445Y-80494415D02*
X125814439Y-80532106D01*
X125895240Y-80586096D01*
X125896334Y-80586827D01*
X125965973Y-80656466D01*
X126020695Y-80738363D01*
X126058385Y-80829355D01*
X126077600Y-80925955D01*
X126077600Y-81024445D01*
X126058385Y-81121045D01*
X126020695Y-81212037D01*
X125965973Y-81293934D01*
X125896334Y-81363573D01*
X125896331Y-81363575D01*
X125814439Y-81418294D01*
X125723445Y-81455985D01*
X125626846Y-81475200D01*
X125528354Y-81475200D01*
X125431755Y-81455985D01*
X125340761Y-81418294D01*
X125258869Y-81363575D01*
X125258866Y-81363573D01*
X125189227Y-81293934D01*
X125134505Y-81212037D01*
X125096815Y-81121045D01*
X125077600Y-81024445D01*
X125077600Y-80925955D01*
X125096815Y-80829355D01*
X125134505Y-80738363D01*
X125189227Y-80656466D01*
X125258866Y-80586827D01*
X125259960Y-80586096D01*
X125340761Y-80532106D01*
X125431755Y-80494415D01*
X125528354Y-80475200D01*
X125626846Y-80475200D01*
X125723445Y-80494415D01*
X125723445Y-80494415D01*
G37*
G36*
X122306600Y-81297400D02*
X119956600Y-81297400D01*
X119956600Y-80297400D01*
X122306600Y-80297400D01*
X122306600Y-81297400D01*
X122306600Y-81297400D01*
G37*
G36*
X131706600Y-81297400D02*
X129356600Y-81297400D01*
X129356600Y-80297400D01*
X131706600Y-80297400D01*
X131706600Y-81297400D01*
X131706600Y-81297400D01*
G37*
G36*
X136047200Y-81292200D02*
X134647200Y-81292200D01*
X134647200Y-79642200D01*
X136047200Y-79642200D01*
X136047200Y-81292200D01*
X136047200Y-81292200D01*
G37*
G36*
X138047200Y-81292200D02*
X136647200Y-81292200D01*
X136647200Y-79642200D01*
X138047200Y-79642200D01*
X138047200Y-81292200D01*
X138047200Y-81292200D01*
G37*
G36*
X133870200Y-81252800D02*
X132220200Y-81252800D01*
X132220200Y-79852800D01*
X133870200Y-79852800D01*
X133870200Y-81252800D01*
X133870200Y-81252800D01*
G37*
G36*
X122306600Y-80027400D02*
X119956600Y-80027400D01*
X119956600Y-79027400D01*
X122306600Y-79027400D01*
X122306600Y-80027400D01*
X122306600Y-80027400D01*
G37*
G36*
X131706600Y-80027400D02*
X129356600Y-80027400D01*
X129356600Y-79027400D01*
X131706600Y-79027400D01*
X131706600Y-80027400D01*
X131706600Y-80027400D01*
G37*
G36*
X117168400Y-80022200D02*
X115768400Y-80022200D01*
X115768400Y-78372200D01*
X117168400Y-78372200D01*
X117168400Y-80022200D01*
X117168400Y-80022200D01*
G37*
G36*
X115168400Y-80022200D02*
X113768400Y-80022200D01*
X113768400Y-78372200D01*
X115168400Y-78372200D01*
X115168400Y-80022200D01*
X115168400Y-80022200D01*
G37*
G36*
X119392200Y-79862400D02*
X117742200Y-79862400D01*
X117742200Y-78462400D01*
X119392200Y-78462400D01*
X119392200Y-79862400D01*
X119392200Y-79862400D01*
G37*
G36*
X93113226Y-77027315D02*
X93331612Y-77117773D01*
X93528158Y-77249101D01*
X93695299Y-77416242D01*
X93826627Y-77612788D01*
X93917085Y-77831174D01*
X93963200Y-78063009D01*
X93963200Y-78299391D01*
X93917085Y-78531226D01*
X93826627Y-78749612D01*
X93695299Y-78946158D01*
X93528158Y-79113299D01*
X93331612Y-79244627D01*
X93113226Y-79335085D01*
X92881391Y-79381200D01*
X92645009Y-79381200D01*
X92413174Y-79335085D01*
X92194788Y-79244627D01*
X91998242Y-79113299D01*
X91831101Y-78946158D01*
X91699773Y-78749612D01*
X91609315Y-78531226D01*
X91563200Y-78299391D01*
X91563200Y-78063009D01*
X91609315Y-77831174D01*
X91699773Y-77612788D01*
X91831101Y-77416242D01*
X91998242Y-77249101D01*
X92194788Y-77117773D01*
X92413174Y-77027315D01*
X92645009Y-76981200D01*
X92881391Y-76981200D01*
X93113226Y-77027315D01*
X93113226Y-77027315D01*
G37*
G36*
X99613226Y-77027315D02*
X99831612Y-77117773D01*
X100028158Y-77249101D01*
X100195299Y-77416242D01*
X100326627Y-77612788D01*
X100417085Y-77831174D01*
X100463200Y-78063009D01*
X100463200Y-78299391D01*
X100417085Y-78531226D01*
X100326627Y-78749612D01*
X100195299Y-78946158D01*
X100028158Y-79113299D01*
X99831612Y-79244627D01*
X99613226Y-79335085D01*
X99381391Y-79381200D01*
X99145009Y-79381200D01*
X98913174Y-79335085D01*
X98694788Y-79244627D01*
X98498242Y-79113299D01*
X98331101Y-78946158D01*
X98199773Y-78749612D01*
X98109315Y-78531226D01*
X98063200Y-78299391D01*
X98063200Y-78063009D01*
X98109315Y-77831174D01*
X98199773Y-77612788D01*
X98331101Y-77416242D01*
X98498242Y-77249101D01*
X98694788Y-77117773D01*
X98913174Y-77027315D01*
X99145009Y-76981200D01*
X99381391Y-76981200D01*
X99613226Y-77027315D01*
X99613226Y-77027315D01*
G37*
G36*
X133870200Y-79252800D02*
X132220200Y-79252800D01*
X132220200Y-77852800D01*
X133870200Y-77852800D01*
X133870200Y-79252800D01*
X133870200Y-79252800D01*
G37*
G36*
X137873000Y-78936400D02*
X134923000Y-78936400D01*
X134923000Y-76976400D01*
X137873000Y-76976400D01*
X137873000Y-78936400D01*
X137873000Y-78936400D01*
G37*
G36*
X122306600Y-78757400D02*
X119956600Y-78757400D01*
X119956600Y-77757400D01*
X122306600Y-77757400D01*
X122306600Y-78757400D01*
X122306600Y-78757400D01*
G37*
G36*
X131706600Y-78757400D02*
X129356600Y-78757400D01*
X129356600Y-77757400D01*
X131706600Y-77757400D01*
X131706600Y-78757400D01*
X131706600Y-78757400D01*
G37*
G36*
X119392200Y-78001600D02*
X117742200Y-78001600D01*
X117742200Y-76601600D01*
X119392200Y-76601600D01*
X119392200Y-78001600D01*
X119392200Y-78001600D01*
G37*
G36*
X122306600Y-77487400D02*
X119956600Y-77487400D01*
X119956600Y-76487400D01*
X122306600Y-76487400D01*
X122306600Y-77487400D01*
X122306600Y-77487400D01*
G37*
G36*
X131706600Y-77487400D02*
X129356600Y-77487400D01*
X129356600Y-76487400D01*
X131706600Y-76487400D01*
X131706600Y-77487400D01*
X131706600Y-77487400D01*
G37*
G36*
X141014245Y-76278015D02*
X141105239Y-76315706D01*
X141186040Y-76369696D01*
X141187134Y-76370427D01*
X141256773Y-76440066D01*
X141256775Y-76440069D01*
X141311494Y-76521961D01*
X141349185Y-76612955D01*
X141368400Y-76709554D01*
X141368400Y-76808046D01*
X141349185Y-76904645D01*
X141311494Y-76995639D01*
X141290328Y-77027316D01*
X141256773Y-77077534D01*
X141187134Y-77147173D01*
X141187131Y-77147175D01*
X141105239Y-77201894D01*
X141014245Y-77239585D01*
X140917646Y-77258800D01*
X140819154Y-77258800D01*
X140722555Y-77239585D01*
X140631561Y-77201894D01*
X140549669Y-77147175D01*
X140549666Y-77147173D01*
X140480027Y-77077534D01*
X140446472Y-77027316D01*
X140425306Y-76995639D01*
X140387615Y-76904645D01*
X140368400Y-76808046D01*
X140368400Y-76709554D01*
X140387615Y-76612955D01*
X140425306Y-76521961D01*
X140480025Y-76440069D01*
X140480027Y-76440066D01*
X140549666Y-76370427D01*
X140550760Y-76369696D01*
X140631561Y-76315706D01*
X140722555Y-76278015D01*
X140819154Y-76258800D01*
X140917646Y-76258800D01*
X141014245Y-76278015D01*
X141014245Y-76278015D01*
G37*
G36*
X112312245Y-75516015D02*
X112403239Y-75553706D01*
X112484040Y-75607696D01*
X112485134Y-75608427D01*
X112554773Y-75678066D01*
X112554775Y-75678069D01*
X112609494Y-75759961D01*
X112647185Y-75850955D01*
X112666400Y-75947554D01*
X112666400Y-76046046D01*
X112647185Y-76142645D01*
X112609494Y-76233639D01*
X112555504Y-76314440D01*
X112554773Y-76315534D01*
X112485134Y-76385173D01*
X112485131Y-76385175D01*
X112403239Y-76439894D01*
X112312245Y-76477585D01*
X112215646Y-76496800D01*
X112117154Y-76496800D01*
X112020555Y-76477585D01*
X111929561Y-76439894D01*
X111847669Y-76385175D01*
X111847666Y-76385173D01*
X111778027Y-76315534D01*
X111777296Y-76314440D01*
X111723306Y-76233639D01*
X111685615Y-76142645D01*
X111666400Y-76046046D01*
X111666400Y-75947554D01*
X111685615Y-75850955D01*
X111723306Y-75759961D01*
X111778025Y-75678069D01*
X111778027Y-75678066D01*
X111847666Y-75608427D01*
X111848760Y-75607696D01*
X111929561Y-75553706D01*
X112020555Y-75516015D01*
X112117154Y-75496800D01*
X112215646Y-75496800D01*
X112312245Y-75516015D01*
X112312245Y-75516015D01*
G37*
G36*
X93535000Y-76376000D02*
X91885000Y-76376000D01*
X91885000Y-74976000D01*
X93535000Y-74976000D01*
X93535000Y-76376000D01*
X93535000Y-76376000D01*
G37*
G36*
X137873000Y-76236400D02*
X134923000Y-76236400D01*
X134923000Y-74276400D01*
X137873000Y-74276400D01*
X137873000Y-76236400D01*
X137873000Y-76236400D01*
G37*
G36*
X119392200Y-76001600D02*
X117742200Y-76001600D01*
X117742200Y-74601600D01*
X119392200Y-74601600D01*
X119392200Y-76001600D01*
X119392200Y-76001600D01*
G37*
G36*
X146121600Y-75802400D02*
X144721600Y-75802400D01*
X144721600Y-71602400D01*
X146121600Y-71602400D01*
X146121600Y-75802400D01*
X146121600Y-75802400D01*
G37*
G36*
X109481600Y-75802400D02*
X108081600Y-75802400D01*
X108081600Y-71602400D01*
X109481600Y-71602400D01*
X109481600Y-75802400D01*
X109481600Y-75802400D01*
G37*
G36*
X93535000Y-74376000D02*
X91885000Y-74376000D01*
X91885000Y-72976000D01*
X93535000Y-72976000D01*
X93535000Y-74376000D01*
X93535000Y-74376000D01*
G37*
G36*
X119796600Y-72686800D02*
X117896600Y-72686800D01*
X117896600Y-71686800D01*
X119796600Y-71686800D01*
X119796600Y-72686800D01*
X119796600Y-72686800D01*
G37*
G36*
X93089196Y-69869958D02*
X93325780Y-69967954D01*
X93538705Y-70110226D01*
X93719774Y-70291295D01*
X93862046Y-70504220D01*
X93960042Y-70740804D01*
X94010000Y-70991960D01*
X94010000Y-71248040D01*
X93960042Y-71499196D01*
X93862046Y-71735780D01*
X93719774Y-71948705D01*
X93538705Y-72129774D01*
X93325780Y-72272046D01*
X93089196Y-72370042D01*
X92838040Y-72420000D01*
X92581960Y-72420000D01*
X92330804Y-72370042D01*
X92094220Y-72272046D01*
X91881295Y-72129774D01*
X91700226Y-71948705D01*
X91557954Y-71735780D01*
X91459958Y-71499196D01*
X91410000Y-71248040D01*
X91410000Y-70991960D01*
X91459958Y-70740804D01*
X91557954Y-70504220D01*
X91700226Y-70291295D01*
X91881295Y-70110226D01*
X92094220Y-69967954D01*
X92330804Y-69869958D01*
X92581960Y-69820000D01*
X92838040Y-69820000D01*
X93089196Y-69869958D01*
X93089196Y-69869958D01*
G37*
G36*
X98169196Y-69869958D02*
X98405780Y-69967954D01*
X98618705Y-70110226D01*
X98799774Y-70291295D01*
X98942046Y-70504220D01*
X99040042Y-70740804D01*
X99090000Y-70991960D01*
X99090000Y-71248040D01*
X99040042Y-71499196D01*
X98942046Y-71735780D01*
X98799774Y-71948705D01*
X98618705Y-72129774D01*
X98405780Y-72272046D01*
X98169196Y-72370042D01*
X97918040Y-72420000D01*
X97661960Y-72420000D01*
X97410804Y-72370042D01*
X97174220Y-72272046D01*
X96961295Y-72129774D01*
X96780226Y-71948705D01*
X96637954Y-71735780D01*
X96539958Y-71499196D01*
X96490000Y-71248040D01*
X96490000Y-70991960D01*
X96539958Y-70740804D01*
X96637954Y-70504220D01*
X96780226Y-70291295D01*
X96961295Y-70110226D01*
X97174220Y-69967954D01*
X97410804Y-69869958D01*
X97661960Y-69820000D01*
X97918040Y-69820000D01*
X98169196Y-69869958D01*
X98169196Y-69869958D01*
G37*
G36*
X125977445Y-70893215D02*
X126068439Y-70930906D01*
X126149240Y-70984896D01*
X126150334Y-70985627D01*
X126219973Y-71055266D01*
X126274695Y-71137163D01*
X126312385Y-71228155D01*
X126331600Y-71324755D01*
X126331600Y-71423245D01*
X126312385Y-71519845D01*
X126274695Y-71610837D01*
X126219973Y-71692734D01*
X126150334Y-71762373D01*
X126150331Y-71762375D01*
X126068439Y-71817094D01*
X125977445Y-71854785D01*
X125880846Y-71874000D01*
X125782354Y-71874000D01*
X125685755Y-71854785D01*
X125594761Y-71817094D01*
X125512869Y-71762375D01*
X125512866Y-71762373D01*
X125443227Y-71692734D01*
X125388505Y-71610837D01*
X125350815Y-71519845D01*
X125331600Y-71423245D01*
X125331600Y-71324755D01*
X125350815Y-71228155D01*
X125388505Y-71137163D01*
X125443227Y-71055266D01*
X125512866Y-70985627D01*
X125513960Y-70984896D01*
X125594761Y-70930906D01*
X125685755Y-70893215D01*
X125782354Y-70874000D01*
X125880846Y-70874000D01*
X125977445Y-70893215D01*
X125977445Y-70893215D01*
G37*
G36*
X112635800Y-71499200D02*
X110985800Y-71499200D01*
X110985800Y-70099200D01*
X112635800Y-70099200D01*
X112635800Y-71499200D01*
X112635800Y-71499200D01*
G37*
G36*
X116914400Y-71487800D02*
X115514400Y-71487800D01*
X115514400Y-69837800D01*
X116914400Y-69837800D01*
X116914400Y-71487800D01*
X116914400Y-71487800D01*
G37*
G36*
X114914400Y-71487800D02*
X113514400Y-71487800D01*
X113514400Y-69837800D01*
X114914400Y-69837800D01*
X114914400Y-71487800D01*
X114914400Y-71487800D01*
G37*
G36*
X146121600Y-69802400D02*
X144721600Y-69802400D01*
X144721600Y-66787400D01*
X144719198Y-66763014D01*
X144712085Y-66739565D01*
X144700534Y-66717954D01*
X144684988Y-66699012D01*
X144666046Y-66683466D01*
X144644435Y-66671915D01*
X144620986Y-66664802D01*
X144596600Y-66662400D01*
X140001600Y-66662400D01*
X140001600Y-65262400D01*
X146121600Y-65262400D01*
X146121600Y-69802400D01*
X146121600Y-69802400D01*
G37*
G36*
X114201600Y-66662400D02*
X113806779Y-66662400D01*
X113782393Y-66664802D01*
X113758944Y-66671915D01*
X113741200Y-66681399D01*
X113723456Y-66671915D01*
X113700007Y-66664802D01*
X113675621Y-66662400D01*
X109606600Y-66662400D01*
X109582214Y-66664802D01*
X109558765Y-66671915D01*
X109537154Y-66683466D01*
X109518212Y-66699012D01*
X109502666Y-66717954D01*
X109491115Y-66739565D01*
X109484002Y-66763014D01*
X109481600Y-66787400D01*
X109481600Y-69802400D01*
X108081600Y-69802400D01*
X108081600Y-65262400D01*
X114201600Y-65262400D01*
X114201600Y-66662400D01*
X114201600Y-66662400D01*
G37*
G36*
X95600026Y-67426115D02*
X95818412Y-67516573D01*
X96014958Y-67647901D01*
X96182099Y-67815042D01*
X96313427Y-68011588D01*
X96403885Y-68229974D01*
X96450000Y-68461809D01*
X96450000Y-68698191D01*
X96403885Y-68930026D01*
X96313427Y-69148412D01*
X96182099Y-69344958D01*
X96014958Y-69512099D01*
X95818412Y-69643427D01*
X95600026Y-69733885D01*
X95368191Y-69780000D01*
X95131809Y-69780000D01*
X94899974Y-69733885D01*
X94681588Y-69643427D01*
X94485042Y-69512099D01*
X94317901Y-69344958D01*
X94186573Y-69148412D01*
X94096115Y-68930026D01*
X94050000Y-68698191D01*
X94050000Y-68461809D01*
X94096115Y-68229974D01*
X94186573Y-68011588D01*
X94317901Y-67815042D01*
X94485042Y-67647901D01*
X94681588Y-67516573D01*
X94899974Y-67426115D01*
X95131809Y-67380000D01*
X95368191Y-67380000D01*
X95600026Y-67426115D01*
X95600026Y-67426115D01*
G37*
G36*
X112635800Y-69499200D02*
X110985800Y-69499200D01*
X110985800Y-68099200D01*
X112635800Y-68099200D01*
X112635800Y-69499200D01*
X112635800Y-69499200D01*
G37*
G36*
X192306391Y-64462576D02*
X192543059Y-64509652D01*
X192988930Y-64694338D01*
X193390204Y-64962460D01*
X193731460Y-65303716D01*
X193999582Y-65704990D01*
X194184268Y-66150861D01*
X194278420Y-66624196D01*
X194278420Y-67106804D01*
X194184268Y-67580139D01*
X193999582Y-68026010D01*
X193731460Y-68427284D01*
X193390204Y-68768540D01*
X192988930Y-69036662D01*
X192543059Y-69221348D01*
X192306391Y-69268424D01*
X192069725Y-69315500D01*
X191587115Y-69315500D01*
X191113781Y-69221348D01*
X190667910Y-69036662D01*
X190266636Y-68768540D01*
X189925380Y-68427284D01*
X189657258Y-68026010D01*
X189472572Y-67580139D01*
X189378420Y-67106804D01*
X189378420Y-66624196D01*
X189472572Y-66150861D01*
X189657258Y-65704990D01*
X189925380Y-65303716D01*
X190266636Y-64962460D01*
X190667910Y-64694338D01*
X191113781Y-64509652D01*
X191350449Y-64462576D01*
X191587115Y-64415500D01*
X192069725Y-64415500D01*
X192306391Y-64462576D01*
X192306391Y-64462576D01*
G37*
G36*
X104305551Y-64462576D02*
X104542219Y-64509652D01*
X104988090Y-64694338D01*
X105389364Y-64962460D01*
X105730620Y-65303716D01*
X105998742Y-65704990D01*
X106183428Y-66150861D01*
X106277580Y-66624196D01*
X106277580Y-67106804D01*
X106183428Y-67580139D01*
X105998742Y-68026010D01*
X105730620Y-68427284D01*
X105389364Y-68768540D01*
X104988090Y-69036662D01*
X104542219Y-69221348D01*
X104068885Y-69315500D01*
X103586275Y-69315500D01*
X103112941Y-69221348D01*
X102667070Y-69036662D01*
X102265796Y-68768540D01*
X101924540Y-68427284D01*
X101656418Y-68026010D01*
X101471732Y-67580139D01*
X101377580Y-67106804D01*
X101377580Y-66624196D01*
X101471732Y-66150861D01*
X101656418Y-65704990D01*
X101924540Y-65303716D01*
X102265796Y-64962460D01*
X102667070Y-64694338D01*
X103112941Y-64509652D01*
X103349609Y-64462576D01*
X103586275Y-64415500D01*
X104068885Y-64415500D01*
X104305551Y-64462576D01*
X104305551Y-64462576D01*
G37*
G36*
X142182645Y-68150015D02*
X142273639Y-68187706D01*
X142307701Y-68210466D01*
X142355534Y-68242427D01*
X142425173Y-68312066D01*
X142425175Y-68312069D01*
X142479894Y-68393961D01*
X142517585Y-68484955D01*
X142536800Y-68581554D01*
X142536800Y-68680046D01*
X142517585Y-68776645D01*
X142479894Y-68867639D01*
X142438208Y-68930026D01*
X142425173Y-68949534D01*
X142355534Y-69019173D01*
X142355531Y-69019175D01*
X142273639Y-69073894D01*
X142182645Y-69111585D01*
X142086046Y-69130800D01*
X141987554Y-69130800D01*
X141890955Y-69111585D01*
X141799961Y-69073894D01*
X141718069Y-69019175D01*
X141718066Y-69019173D01*
X141648427Y-68949534D01*
X141635392Y-68930026D01*
X141593706Y-68867639D01*
X141556015Y-68776645D01*
X141536800Y-68680046D01*
X141536800Y-68581554D01*
X141556015Y-68484955D01*
X141593706Y-68393961D01*
X141648425Y-68312069D01*
X141648427Y-68312066D01*
X141718066Y-68242427D01*
X141765899Y-68210466D01*
X141799961Y-68187706D01*
X141890955Y-68150015D01*
X141987554Y-68130800D01*
X142086046Y-68130800D01*
X142182645Y-68150015D01*
X142182645Y-68150015D01*
G37*
G36*
X127258800Y-69049400D02*
X125858800Y-69049400D01*
X125858800Y-67399400D01*
X127258800Y-67399400D01*
X127258800Y-69049400D01*
X127258800Y-69049400D01*
G37*
G36*
X129258800Y-69049400D02*
X127858800Y-69049400D01*
X127858800Y-67399400D01*
X129258800Y-67399400D01*
X129258800Y-69049400D01*
X129258800Y-69049400D01*
G37*
G36*
X165042645Y-68048415D02*
X165133639Y-68086106D01*
X165153235Y-68099200D01*
X165215534Y-68140827D01*
X165285173Y-68210466D01*
X165285175Y-68210469D01*
X165339894Y-68292361D01*
X165377585Y-68383355D01*
X165396800Y-68479954D01*
X165396800Y-68578446D01*
X165377585Y-68675045D01*
X165339895Y-68766037D01*
X165285173Y-68847934D01*
X165215534Y-68917573D01*
X165215531Y-68917575D01*
X165133639Y-68972294D01*
X165042645Y-69009985D01*
X164946046Y-69029200D01*
X164847554Y-69029200D01*
X164750955Y-69009985D01*
X164659961Y-68972294D01*
X164578069Y-68917575D01*
X164578066Y-68917573D01*
X164508427Y-68847934D01*
X164453705Y-68766037D01*
X164416015Y-68675045D01*
X164396800Y-68578446D01*
X164396800Y-68479954D01*
X164416015Y-68383355D01*
X164453706Y-68292361D01*
X164508425Y-68210469D01*
X164508427Y-68210466D01*
X164578066Y-68140827D01*
X164640365Y-68099200D01*
X164659961Y-68086106D01*
X164750955Y-68048415D01*
X164847554Y-68029200D01*
X164946046Y-68029200D01*
X165042645Y-68048415D01*
X165042645Y-68048415D01*
G37*
G36*
X124786600Y-68727800D02*
X122886600Y-68727800D01*
X122886600Y-67727800D01*
X124786600Y-67727800D01*
X124786600Y-68727800D01*
X124786600Y-68727800D01*
G37*
G36*
X113758944Y-66902885D02*
X113782392Y-66909998D01*
X113790446Y-66911600D01*
X113887045Y-66930815D01*
X113978039Y-66968506D01*
X114058840Y-67022496D01*
X114059934Y-67023227D01*
X114129573Y-67092866D01*
X114184295Y-67174763D01*
X114221985Y-67265755D01*
X114241200Y-67362355D01*
X114241200Y-67460845D01*
X114221985Y-67557445D01*
X114184295Y-67648437D01*
X114129573Y-67730334D01*
X114059934Y-67799973D01*
X114059931Y-67799975D01*
X113978039Y-67854694D01*
X113887045Y-67892385D01*
X113790446Y-67911600D01*
X113691954Y-67911600D01*
X113595355Y-67892385D01*
X113504361Y-67854694D01*
X113422469Y-67799975D01*
X113422466Y-67799973D01*
X113352827Y-67730334D01*
X113298105Y-67648437D01*
X113260415Y-67557445D01*
X113241200Y-67460845D01*
X113241200Y-67362355D01*
X113260415Y-67265755D01*
X113298105Y-67174763D01*
X113352827Y-67092866D01*
X113422466Y-67023227D01*
X113423560Y-67022496D01*
X113504361Y-66968506D01*
X113595355Y-66930815D01*
X113691954Y-66911600D01*
X113700008Y-66909998D01*
X113723457Y-66902885D01*
X113741200Y-66893401D01*
X113758944Y-66902885D01*
X113758944Y-66902885D01*
G37*
G36*
X98169196Y-64789958D02*
X98405780Y-64887954D01*
X98618705Y-65030226D01*
X98799774Y-65211295D01*
X98942046Y-65424220D01*
X99040042Y-65660804D01*
X99090000Y-65911960D01*
X99090000Y-66168040D01*
X99040042Y-66419196D01*
X98942046Y-66655780D01*
X98799774Y-66868705D01*
X98618705Y-67049774D01*
X98405780Y-67192046D01*
X98169196Y-67290042D01*
X97918040Y-67340000D01*
X97661960Y-67340000D01*
X97410804Y-67290042D01*
X97174220Y-67192046D01*
X96961295Y-67049774D01*
X96780226Y-66868705D01*
X96637954Y-66655780D01*
X96539958Y-66419196D01*
X96490000Y-66168040D01*
X96490000Y-65911960D01*
X96539958Y-65660804D01*
X96637954Y-65424220D01*
X96780226Y-65211295D01*
X96961295Y-65030226D01*
X97174220Y-64887954D01*
X97410804Y-64789958D01*
X97661960Y-64740000D01*
X97918040Y-64740000D01*
X98169196Y-64789958D01*
X98169196Y-64789958D01*
G37*
G36*
X93089196Y-64789958D02*
X93325780Y-64887954D01*
X93538705Y-65030226D01*
X93719774Y-65211295D01*
X93862046Y-65424220D01*
X93960042Y-65660804D01*
X94010000Y-65911960D01*
X94010000Y-66168040D01*
X93960042Y-66419196D01*
X93862046Y-66655780D01*
X93719774Y-66868705D01*
X93538705Y-67049774D01*
X93325780Y-67192046D01*
X93089196Y-67290042D01*
X92838040Y-67340000D01*
X92581960Y-67340000D01*
X92330804Y-67290042D01*
X92094220Y-67192046D01*
X91881295Y-67049774D01*
X91700226Y-66868705D01*
X91557954Y-66655780D01*
X91459958Y-66419196D01*
X91410000Y-66168040D01*
X91410000Y-65911960D01*
X91459958Y-65660804D01*
X91557954Y-65424220D01*
X91700226Y-65211295D01*
X91881295Y-65030226D01*
X92094220Y-64887954D01*
X92330804Y-64789958D01*
X92581960Y-64740000D01*
X92838040Y-64740000D01*
X93089196Y-64789958D01*
X93089196Y-64789958D01*
G37*
G36*
X132201600Y-66662400D02*
X128001600Y-66662400D01*
X128001600Y-65262400D01*
X132201600Y-65262400D01*
X132201600Y-66662400D01*
X132201600Y-66662400D01*
G37*
G36*
X138201600Y-66662400D02*
X134001600Y-66662400D01*
X134001600Y-65262400D01*
X138201600Y-65262400D01*
X138201600Y-66662400D01*
X138201600Y-66662400D01*
G37*
G36*
X126201600Y-66662400D02*
X122001600Y-66662400D01*
X122001600Y-65262400D01*
X126201600Y-65262400D01*
X126201600Y-66662400D01*
X126201600Y-66662400D01*
G37*
G36*
X120201600Y-66662400D02*
X116001600Y-66662400D01*
X116001600Y-65262400D01*
X120201600Y-65262400D01*
X120201600Y-66662400D01*
X120201600Y-66662400D01*
G37*
M02*
