G04 #@! TF.FileFunction,Legend,Bot*
%FSLAX46Y46*%
G04 Gerber Fmt 4.6, Leading zero omitted, Abs format (unit mm)*
G04 Created by KiCad (PCBNEW 4.0.7) date 09/10/18 20:42:41*
%MOMM*%
%LPD*%
G01*
G04 APERTURE LIST*
%ADD10C,0.100000*%
%ADD11C,0.299720*%
%ADD12C,1.000760*%
%ADD13C,0.304800*%
%ADD14C,0.120000*%
%ADD15C,0.150000*%
%ADD16C,0.300000*%
%ADD17C,0.152400*%
G04 APERTURE END LIST*
D10*
D11*
X183827420Y-79865220D02*
X111828580Y-79865220D01*
X111828580Y-79865220D02*
X111828580Y-118864380D01*
X111828580Y-118864380D02*
X183827420Y-118864380D01*
X183827420Y-118864380D02*
X183827420Y-79865220D01*
X190827660Y-73865740D02*
X104828340Y-73865740D01*
X104828340Y-73865740D02*
X104828340Y-124863860D01*
X104828340Y-124863860D02*
X190827660Y-124863860D01*
X190827660Y-124863860D02*
X190827660Y-73865740D01*
D12*
X194327780Y-134366000D02*
X194327780Y-64363600D01*
X194327780Y-64363600D02*
X101328220Y-64363600D01*
X101328220Y-64363600D02*
X101328220Y-134366000D01*
X101328220Y-134366000D02*
X194327780Y-134366000D01*
D13*
X195328540Y-66865500D02*
G75*
G03X195328540Y-66865500I-3500120J0D01*
G01*
X107327700Y-66865500D02*
G75*
G03X107327700Y-66865500I-3500120J0D01*
G01*
X107327700Y-131866640D02*
G75*
G03X107327700Y-131866640I-3500120J0D01*
G01*
X195328540Y-131864100D02*
G75*
G03X195328540Y-131864100I-3500120J0D01*
G01*
D14*
X94250000Y-71880000D02*
X96250000Y-71880000D01*
X94250000Y-65280000D02*
X96250000Y-65280000D01*
X98550000Y-69580000D02*
X98550000Y-67580000D01*
X91950000Y-69580000D02*
X91950000Y-67580000D01*
X98263200Y-83681200D02*
X93763200Y-83681200D01*
X99513200Y-79681200D02*
X99513200Y-81181200D01*
X93763200Y-77181200D02*
X98263200Y-77181200D01*
X92513200Y-81181200D02*
X92513200Y-79681200D01*
X98263200Y-95619200D02*
X93763200Y-95619200D01*
X99513200Y-91619200D02*
X99513200Y-93119200D01*
X93763200Y-89119200D02*
X98263200Y-89119200D01*
X92513200Y-93119200D02*
X92513200Y-91619200D01*
X98263200Y-107404800D02*
X93763200Y-107404800D01*
X99513200Y-103404800D02*
X99513200Y-104904800D01*
X93763200Y-100904800D02*
X98263200Y-100904800D01*
X92513200Y-104904800D02*
X92513200Y-103404800D01*
X98263200Y-119190400D02*
X93763200Y-119190400D01*
X99513200Y-115190400D02*
X99513200Y-116690400D01*
X93763200Y-112690400D02*
X98263200Y-112690400D01*
X92513200Y-116690400D02*
X92513200Y-115190400D01*
D15*
X100711000Y-129032000D02*
G75*
G03X100711000Y-129032000I-5461000J0D01*
G01*
D16*
X185800857Y-131055371D02*
X185800857Y-132269657D01*
X185729429Y-132412514D01*
X185658000Y-132483943D01*
X185515143Y-132555371D01*
X185229429Y-132555371D01*
X185086571Y-132483943D01*
X185015143Y-132412514D01*
X184943714Y-132269657D01*
X184943714Y-131055371D01*
X183586571Y-131555371D02*
X183586571Y-132555371D01*
X183943714Y-130983943D02*
X184300857Y-132055371D01*
X183372285Y-132055371D01*
D15*
X95583333Y-70572381D02*
X95583333Y-71286667D01*
X95630953Y-71429524D01*
X95726191Y-71524762D01*
X95869048Y-71572381D01*
X95964286Y-71572381D01*
X95154762Y-70667619D02*
X95107143Y-70620000D01*
X95011905Y-70572381D01*
X94773809Y-70572381D01*
X94678571Y-70620000D01*
X94630952Y-70667619D01*
X94583333Y-70762857D01*
X94583333Y-70858095D01*
X94630952Y-71000952D01*
X95202381Y-71572381D01*
X94583333Y-71572381D01*
X97345333Y-80795762D02*
X97202476Y-80843381D01*
X96964380Y-80843381D01*
X96869142Y-80795762D01*
X96821523Y-80748143D01*
X96773904Y-80652905D01*
X96773904Y-80557667D01*
X96821523Y-80462429D01*
X96869142Y-80414810D01*
X96964380Y-80367190D01*
X97154857Y-80319571D01*
X97250095Y-80271952D01*
X97297714Y-80224333D01*
X97345333Y-80129095D01*
X97345333Y-80033857D01*
X97297714Y-79938619D01*
X97250095Y-79891000D01*
X97154857Y-79843381D01*
X96916761Y-79843381D01*
X96773904Y-79891000D01*
X96440571Y-79843381D02*
X96202476Y-80843381D01*
X96011999Y-80129095D01*
X95821523Y-80843381D01*
X95583428Y-79843381D01*
X94678666Y-80843381D02*
X95250095Y-80843381D01*
X94964381Y-80843381D02*
X94964381Y-79843381D01*
X95059619Y-79986238D01*
X95154857Y-80081476D01*
X95250095Y-80129095D01*
X97472333Y-92606762D02*
X97329476Y-92654381D01*
X97091380Y-92654381D01*
X96996142Y-92606762D01*
X96948523Y-92559143D01*
X96900904Y-92463905D01*
X96900904Y-92368667D01*
X96948523Y-92273429D01*
X96996142Y-92225810D01*
X97091380Y-92178190D01*
X97281857Y-92130571D01*
X97377095Y-92082952D01*
X97424714Y-92035333D01*
X97472333Y-91940095D01*
X97472333Y-91844857D01*
X97424714Y-91749619D01*
X97377095Y-91702000D01*
X97281857Y-91654381D01*
X97043761Y-91654381D01*
X96900904Y-91702000D01*
X96567571Y-91654381D02*
X96329476Y-92654381D01*
X96138999Y-91940095D01*
X95948523Y-92654381D01*
X95710428Y-91654381D01*
X95377095Y-91749619D02*
X95329476Y-91702000D01*
X95234238Y-91654381D01*
X94996142Y-91654381D01*
X94900904Y-91702000D01*
X94853285Y-91749619D01*
X94805666Y-91844857D01*
X94805666Y-91940095D01*
X94853285Y-92082952D01*
X95424714Y-92654381D01*
X94805666Y-92654381D01*
X97218333Y-104544762D02*
X97075476Y-104592381D01*
X96837380Y-104592381D01*
X96742142Y-104544762D01*
X96694523Y-104497143D01*
X96646904Y-104401905D01*
X96646904Y-104306667D01*
X96694523Y-104211429D01*
X96742142Y-104163810D01*
X96837380Y-104116190D01*
X97027857Y-104068571D01*
X97123095Y-104020952D01*
X97170714Y-103973333D01*
X97218333Y-103878095D01*
X97218333Y-103782857D01*
X97170714Y-103687619D01*
X97123095Y-103640000D01*
X97027857Y-103592381D01*
X96789761Y-103592381D01*
X96646904Y-103640000D01*
X96313571Y-103592381D02*
X96075476Y-104592381D01*
X95884999Y-103878095D01*
X95694523Y-104592381D01*
X95456428Y-103592381D01*
X95170714Y-103592381D02*
X94551666Y-103592381D01*
X94885000Y-103973333D01*
X94742142Y-103973333D01*
X94646904Y-104020952D01*
X94599285Y-104068571D01*
X94551666Y-104163810D01*
X94551666Y-104401905D01*
X94599285Y-104497143D01*
X94646904Y-104544762D01*
X94742142Y-104592381D01*
X95027857Y-104592381D01*
X95123095Y-104544762D01*
X95170714Y-104497143D01*
X97218333Y-116355762D02*
X97075476Y-116403381D01*
X96837380Y-116403381D01*
X96742142Y-116355762D01*
X96694523Y-116308143D01*
X96646904Y-116212905D01*
X96646904Y-116117667D01*
X96694523Y-116022429D01*
X96742142Y-115974810D01*
X96837380Y-115927190D01*
X97027857Y-115879571D01*
X97123095Y-115831952D01*
X97170714Y-115784333D01*
X97218333Y-115689095D01*
X97218333Y-115593857D01*
X97170714Y-115498619D01*
X97123095Y-115451000D01*
X97027857Y-115403381D01*
X96789761Y-115403381D01*
X96646904Y-115451000D01*
X96313571Y-115403381D02*
X96075476Y-116403381D01*
X95884999Y-115689095D01*
X95694523Y-116403381D01*
X95456428Y-115403381D01*
X94646904Y-115736714D02*
X94646904Y-116403381D01*
X94885000Y-115355762D02*
X95123095Y-116070048D01*
X94504047Y-116070048D01*
D17*
X95376999Y-128741714D02*
X95376999Y-129286000D01*
X95413285Y-129394857D01*
X95485856Y-129467429D01*
X95594713Y-129503714D01*
X95667285Y-129503714D01*
X94615000Y-129503714D02*
X95050428Y-129503714D01*
X94832714Y-129503714D02*
X94832714Y-128741714D01*
X94905285Y-128850571D01*
X94977857Y-128923143D01*
X95050428Y-128959429D01*
M02*
