G04 #@! TF.FileFunction,Copper,L1,Top,Signal*
%FSLAX46Y46*%
G04 Gerber Fmt 4.6, Leading zero omitted, Abs format (unit mm)*
G04 Created by KiCad (PCBNEW 4.0.7) date 09/10/18 20:42:41*
%MOMM*%
%LPD*%
G01*
G04 APERTURE LIST*
%ADD10C,0.100000*%
%ADD11O,1.500000X2.200000*%
%ADD12C,4.500000*%
%ADD13C,0.600000*%
%ADD14R,1.250000X1.000000*%
%ADD15R,1.000000X1.250000*%
%ADD16R,2.550000X2.700000*%
%ADD17R,1.950000X1.500000*%
%ADD18R,2.700000X2.550000*%
%ADD19R,2.500000X2.300000*%
%ADD20C,2.200000*%
%ADD21C,2.000000*%
%ADD22R,3.500000X1.600000*%
%ADD23R,1.600000X3.500000*%
%ADD24R,1.300000X0.700000*%
%ADD25R,1.600000X1.600000*%
%ADD26O,1.600000X1.600000*%
%ADD27R,1.200000X2.200000*%
%ADD28R,5.800000X6.400000*%
%ADD29R,2.750000X3.050000*%
%ADD30R,1.950000X0.600000*%
%ADD31R,1.000000X1.000000*%
%ADD32R,4.720000X1.000000*%
%ADD33R,3.800000X1.000000*%
%ADD34R,1.000000X3.140000*%
%ADD35R,1.000000X3.800000*%
%ADD36R,0.650000X1.560000*%
%ADD37C,3.000000*%
%ADD38R,3.000000X3.000000*%
%ADD39C,4.000000*%
%ADD40R,0.600000X1.500000*%
%ADD41R,1.500000X0.600000*%
%ADD42R,1.500000X1.950000*%
%ADD43R,0.700000X1.300000*%
%ADD44C,0.400000*%
%ADD45C,0.250000*%
%ADD46C,0.508000*%
G04 APERTURE END LIST*
D10*
D11*
X180367940Y-131864100D03*
X177827940Y-131864100D03*
X175287940Y-131864100D03*
X172747940Y-131864100D03*
X170207940Y-131864100D03*
X167667940Y-131864100D03*
X165127940Y-131864100D03*
X162587940Y-131864100D03*
X160047940Y-131864100D03*
X157507940Y-131864100D03*
X154967940Y-131864100D03*
X152427940Y-131864100D03*
X149887940Y-131864100D03*
X147347940Y-131864100D03*
X144807940Y-131864100D03*
X142267940Y-131864100D03*
X139727940Y-131864100D03*
X137187940Y-131864100D03*
X134647940Y-131864100D03*
X132107940Y-131864100D03*
D12*
X191828420Y-66865500D03*
X103827580Y-66865500D03*
X103827580Y-131864100D03*
X191828420Y-131864100D03*
D11*
X132107940Y-131864100D03*
X134647940Y-131864100D03*
X137187940Y-131864100D03*
X139727940Y-131864100D03*
X142267940Y-131864100D03*
X144807940Y-131864100D03*
X147347940Y-131864100D03*
X149887940Y-131864100D03*
X152427940Y-131864100D03*
X154967940Y-131864100D03*
X157507940Y-131864100D03*
X160047940Y-131864100D03*
X162587940Y-131864100D03*
X165127940Y-131864100D03*
X167667940Y-131864100D03*
X170207940Y-131864100D03*
X172747940Y-131864100D03*
X175287940Y-131864100D03*
X177827940Y-131864100D03*
X180367940Y-131864100D03*
D13*
X178358800Y-114655600D03*
X124815600Y-117906800D03*
X127965200Y-124358400D03*
X138836400Y-115011200D03*
X114554000Y-133146800D03*
X177342800Y-98501200D03*
X192328800Y-107594400D03*
X192328800Y-87731600D03*
X164896800Y-68529200D03*
X165100000Y-88036400D03*
X118008400Y-101955600D03*
X142748000Y-96367600D03*
X142036800Y-68630800D03*
X125831600Y-71374000D03*
X113741200Y-67411600D03*
X140970000Y-84023200D03*
X140868400Y-76758800D03*
X125577600Y-80975200D03*
X112166400Y-75996800D03*
X113842800Y-92811600D03*
X131165600Y-95504000D03*
X161036000Y-114808000D03*
X159105600Y-127406400D03*
X109220000Y-102971600D03*
X124510800Y-107035600D03*
X109169200Y-113690400D03*
X114300000Y-124155200D03*
X120192800Y-124206000D03*
X151993600Y-127965200D03*
D14*
X111810800Y-68799200D03*
X111810800Y-70799200D03*
D15*
X116214400Y-70662800D03*
X114214400Y-70662800D03*
X126558800Y-68224400D03*
X128558800Y-68224400D03*
X95234000Y-121767600D03*
X93234000Y-121767600D03*
D14*
X118567200Y-77301600D03*
X118567200Y-75301600D03*
D15*
X116468400Y-79197200D03*
X114468400Y-79197200D03*
X107680000Y-126644400D03*
X105680000Y-126644400D03*
D14*
X118567200Y-81162400D03*
X118567200Y-79162400D03*
D15*
X114538000Y-83362800D03*
X112538000Y-83362800D03*
X115433600Y-116890800D03*
X117433600Y-116890800D03*
X118703600Y-83362800D03*
X116703600Y-83362800D03*
D16*
X116865400Y-130048000D03*
X123215400Y-130048000D03*
D17*
X118723000Y-95758000D03*
X115973000Y-95758000D03*
D14*
X118567200Y-85360000D03*
X118567200Y-87360000D03*
D15*
X121040400Y-116890800D03*
X119040400Y-116890800D03*
D18*
X128016000Y-115849400D03*
X128016000Y-109499400D03*
D17*
X130965800Y-127863600D03*
X128215800Y-127863600D03*
D14*
X133096000Y-86223600D03*
X133096000Y-88223600D03*
D15*
X135398000Y-87985600D03*
X137398000Y-87985600D03*
D14*
X133045200Y-78552800D03*
X133045200Y-80552800D03*
D15*
X135347200Y-80467200D03*
X137347200Y-80467200D03*
D19*
X105477200Y-122732800D03*
X101177200Y-122732800D03*
D20*
X92710000Y-66040000D03*
X92710000Y-71120000D03*
X97790000Y-71120000D03*
X97790000Y-66040000D03*
D21*
X95250000Y-68580000D03*
D22*
X111404400Y-126642800D03*
X111404400Y-131522800D03*
D23*
X122274000Y-95758000D03*
X127154000Y-95758000D03*
D24*
X127101600Y-102732800D03*
X127101600Y-104632800D03*
X116382800Y-86832400D03*
X116382800Y-88732400D03*
X131013200Y-123205200D03*
X131013200Y-125105200D03*
D21*
X99263200Y-82681200D03*
X99263200Y-78181200D03*
X92763200Y-82681200D03*
X92763200Y-78181200D03*
X99263200Y-94619200D03*
X99263200Y-90119200D03*
X92763200Y-94619200D03*
X92763200Y-90119200D03*
X99263200Y-106404800D03*
X99263200Y-101904800D03*
X92763200Y-106404800D03*
X92763200Y-101904800D03*
X99263200Y-118190400D03*
X99263200Y-113690400D03*
X92763200Y-118190400D03*
X92763200Y-113690400D03*
D25*
X185420000Y-109118400D03*
D26*
X137160000Y-124358400D03*
X182880000Y-109118400D03*
X139700000Y-124358400D03*
X180340000Y-109118400D03*
X142240000Y-124358400D03*
X177800000Y-109118400D03*
X144780000Y-124358400D03*
X175260000Y-109118400D03*
X147320000Y-124358400D03*
X172720000Y-109118400D03*
X149860000Y-124358400D03*
X170180000Y-109118400D03*
X152400000Y-124358400D03*
X167640000Y-109118400D03*
X154940000Y-124358400D03*
X165100000Y-109118400D03*
X157480000Y-124358400D03*
X162560000Y-109118400D03*
X160020000Y-124358400D03*
X160020000Y-109118400D03*
X162560000Y-124358400D03*
X157480000Y-109118400D03*
X165100000Y-124358400D03*
X154940000Y-109118400D03*
X167640000Y-124358400D03*
X152400000Y-109118400D03*
X170180000Y-124358400D03*
X149860000Y-109118400D03*
X172720000Y-124358400D03*
X147320000Y-109118400D03*
X175260000Y-124358400D03*
X144780000Y-109118400D03*
X177800000Y-124358400D03*
X142240000Y-109118400D03*
X180340000Y-124358400D03*
X139700000Y-109118400D03*
X182880000Y-124358400D03*
X137160000Y-109118400D03*
X185420000Y-124358400D03*
D27*
X115931600Y-113775600D03*
X120491600Y-113775600D03*
D28*
X118211600Y-107475600D03*
D29*
X119736600Y-105800600D03*
X116686600Y-109150600D03*
X116686600Y-105800600D03*
X119736600Y-109150600D03*
D30*
X121131600Y-76987400D03*
X121131600Y-78257400D03*
X121131600Y-79527400D03*
X121131600Y-80797400D03*
X121131600Y-82067400D03*
X121131600Y-83337400D03*
X121131600Y-84607400D03*
X121131600Y-85877400D03*
X121131600Y-87147400D03*
X121131600Y-88417400D03*
X130531600Y-88417400D03*
X130531600Y-87147400D03*
X130531600Y-85877400D03*
X130531600Y-84607400D03*
X130531600Y-83337400D03*
X130531600Y-82067400D03*
X130531600Y-80797400D03*
X130531600Y-79527400D03*
X130531600Y-78257400D03*
X130531600Y-76987400D03*
D31*
X108781600Y-65962400D03*
X145421600Y-65962400D03*
X145421600Y-99442400D03*
X108781600Y-99442400D03*
D32*
X111641600Y-65962400D03*
X111641600Y-99442400D03*
D33*
X118101600Y-65962400D03*
X118101600Y-99442400D03*
X124101600Y-65962400D03*
X124101600Y-99442400D03*
X130101600Y-65962400D03*
X130101600Y-99442400D03*
X136101600Y-65962400D03*
X136101600Y-99442400D03*
D32*
X142561600Y-65962400D03*
X142561600Y-99442400D03*
D34*
X108781600Y-68032400D03*
X145421600Y-68032400D03*
D35*
X108781600Y-73702400D03*
X145421600Y-73702400D03*
X108781600Y-79702400D03*
X145421600Y-79702400D03*
X108781600Y-85702400D03*
X145421600Y-85702400D03*
X108781600Y-91702400D03*
X145421600Y-91702400D03*
D34*
X108781600Y-97372400D03*
X145421600Y-97372400D03*
D36*
X135448000Y-77956400D03*
X136398000Y-77956400D03*
X137348000Y-77956400D03*
X137348000Y-75256400D03*
X135448000Y-75256400D03*
X136398000Y-75256400D03*
X135448000Y-85373200D03*
X136398000Y-85373200D03*
X137348000Y-85373200D03*
X137348000Y-82673200D03*
X135448000Y-82673200D03*
X136398000Y-82673200D03*
D37*
X95250000Y-133429000D03*
D38*
X95250000Y-125222000D03*
D39*
X99314000Y-129032000D03*
D40*
X110540800Y-85369400D03*
X114499800Y-90359400D03*
D41*
X118846600Y-72186800D03*
X123836600Y-68227800D03*
D13*
X175869600Y-127711200D03*
D42*
X184150000Y-128165000D03*
X184150000Y-130915000D03*
D14*
X92710000Y-108982000D03*
X92710000Y-110982000D03*
D15*
X146828000Y-127000000D03*
X148828000Y-127000000D03*
D14*
X92710000Y-97298000D03*
X92710000Y-99298000D03*
D15*
X137398000Y-127000000D03*
X135398000Y-127000000D03*
D14*
X92710000Y-85360000D03*
X92710000Y-87360000D03*
X92710000Y-73676000D03*
X92710000Y-75676000D03*
D15*
X146828000Y-129286000D03*
X148828000Y-129286000D03*
X137398000Y-129286000D03*
X135398000Y-129286000D03*
D43*
X178374000Y-128016000D03*
X180274000Y-128016000D03*
D24*
X144780000Y-128712000D03*
X144780000Y-126812000D03*
X139700000Y-128712000D03*
X139700000Y-126812000D03*
D13*
X118719600Y-93370400D03*
X123444000Y-83312000D03*
X125577600Y-84582000D03*
X125730000Y-124206000D03*
X133096000Y-128016000D03*
X134061200Y-84886800D03*
X132435600Y-82092800D03*
X128524000Y-79552800D03*
X133908800Y-75285600D03*
X142494000Y-128778000D03*
D44*
X128215800Y-127863600D02*
X128215800Y-130501800D01*
X129578100Y-131864100D02*
X132107940Y-131864100D01*
X128215800Y-130501800D02*
X129578100Y-131864100D01*
X135398000Y-129286000D02*
X133604000Y-129286000D01*
X133604000Y-129286000D02*
X132107940Y-130782060D01*
X132107940Y-130782060D02*
X132107940Y-131864100D01*
X135398000Y-127000000D02*
X135398000Y-129286000D01*
X148828000Y-127000000D02*
X148828000Y-129286000D01*
X184150000Y-130915000D02*
X184045000Y-130915000D01*
X184045000Y-130915000D02*
X183095900Y-131864100D01*
X183095900Y-131864100D02*
X180367940Y-131864100D01*
X116703600Y-83362800D02*
X116703600Y-83448400D01*
X136398000Y-75256400D02*
X136398000Y-73812400D01*
X136508000Y-73702400D02*
X145421600Y-73702400D01*
X136398000Y-73812400D02*
X136508000Y-73702400D01*
X136398000Y-85373200D02*
X136398000Y-86664800D01*
X136398000Y-86664800D02*
X137398000Y-87664800D01*
X137398000Y-87664800D02*
X137398000Y-87985600D01*
X136398000Y-85373200D02*
X136398000Y-82673200D01*
X136398000Y-82673200D02*
X136398000Y-81584800D01*
X136398000Y-81584800D02*
X137347200Y-80635600D01*
X137347200Y-80635600D02*
X137347200Y-80467200D01*
X136398000Y-77956400D02*
X136398000Y-79044800D01*
X136398000Y-79044800D02*
X137347200Y-79994000D01*
X137347200Y-79994000D02*
X137347200Y-80467200D01*
X136398000Y-75256400D02*
X136398000Y-77956400D01*
X95250000Y-68580000D02*
X99212400Y-68580000D01*
X111810800Y-70799200D02*
X114078000Y-70799200D01*
X114078000Y-70799200D02*
X114214400Y-70662800D01*
X101346000Y-70713600D02*
X111725200Y-70713600D01*
X99212400Y-68580000D02*
X101346000Y-70713600D01*
X111725200Y-70713600D02*
X111810800Y-70799200D01*
X118846600Y-72186800D02*
X120091200Y-72186800D01*
X121131600Y-73227200D02*
X121131600Y-76987400D01*
X120091200Y-72186800D02*
X121131600Y-73227200D01*
X116214400Y-70662800D02*
X116214400Y-71104000D01*
X116214400Y-71104000D02*
X117297200Y-72186800D01*
X117297200Y-72186800D02*
X118846600Y-72186800D01*
X123836600Y-68227800D02*
X126555400Y-68227800D01*
X126555400Y-68227800D02*
X126558800Y-68224400D01*
X95250000Y-125222000D02*
X95250000Y-121783600D01*
X95250000Y-121783600D02*
X95316800Y-121716800D01*
X95316800Y-121716800D02*
X97282000Y-121716800D01*
X97282000Y-121716800D02*
X98298000Y-122732800D01*
X98298000Y-122732800D02*
X101177200Y-122732800D01*
X121131600Y-78257400D02*
X119913400Y-78257400D01*
X119913400Y-78257400D02*
X118957600Y-77301600D01*
X118957600Y-77301600D02*
X118567200Y-77301600D01*
X116468400Y-79197200D02*
X118532400Y-79197200D01*
X118532400Y-79197200D02*
X118567200Y-79162400D01*
X121131600Y-79527400D02*
X119761000Y-79527400D01*
X119396000Y-79162400D02*
X118567200Y-79162400D01*
X119761000Y-79527400D02*
X119396000Y-79162400D01*
X107680000Y-126644400D02*
X111402800Y-126644400D01*
X111402800Y-126644400D02*
X111404400Y-126642800D01*
X105477200Y-122732800D02*
X107086400Y-122732800D01*
X107680000Y-123326400D02*
X107680000Y-126644400D01*
X107086400Y-122732800D02*
X107680000Y-123326400D01*
X114538000Y-83362800D02*
X114538000Y-83277200D01*
X114538000Y-83277200D02*
X116652800Y-81162400D01*
X116652800Y-81162400D02*
X118567200Y-81162400D01*
X121131600Y-80797400D02*
X119913400Y-80797400D01*
X119548400Y-81162400D02*
X118567200Y-81162400D01*
X119913400Y-80797400D02*
X119548400Y-81162400D01*
X110540800Y-85369400D02*
X110540800Y-84277200D01*
X111455200Y-83362800D02*
X112538000Y-83362800D01*
X110540800Y-84277200D02*
X111455200Y-83362800D01*
X115931600Y-113775600D02*
X115931600Y-115056000D01*
X115433600Y-115554000D02*
X115433600Y-116890800D01*
X115931600Y-115056000D02*
X115433600Y-115554000D01*
X116865400Y-130048000D02*
X116865400Y-122656600D01*
X115433600Y-121224800D02*
X115433600Y-116890800D01*
X116865400Y-122656600D02*
X115433600Y-121224800D01*
X111404400Y-131522800D02*
X113790400Y-131522800D01*
X115265200Y-130048000D02*
X116865400Y-130048000D01*
X113790400Y-131522800D02*
X115265200Y-130048000D01*
X118719600Y-93370400D02*
X118723000Y-93373800D01*
X118723000Y-93373800D02*
X118723000Y-95758000D01*
X121131600Y-83337400D02*
X123418600Y-83337400D01*
X123418600Y-83337400D02*
X123444000Y-83312000D01*
X122274000Y-95758000D02*
X118723000Y-95758000D01*
X121131600Y-83337400D02*
X118729000Y-83337400D01*
X118729000Y-83337400D02*
X118703600Y-83362800D01*
X118567200Y-85360000D02*
X117179600Y-85360000D01*
X116382800Y-86156800D02*
X116382800Y-86832400D01*
X117179600Y-85360000D02*
X116382800Y-86156800D01*
X121131600Y-84607400D02*
X125552200Y-84607400D01*
X125552200Y-84607400D02*
X125577600Y-84582000D01*
X121131600Y-84607400D02*
X119319800Y-84607400D01*
X119319800Y-84607400D02*
X118567200Y-85360000D01*
X118517200Y-85410000D02*
X118567200Y-85360000D01*
X128016000Y-115849400D02*
X128016000Y-121920000D01*
X128016000Y-121920000D02*
X125730000Y-124206000D01*
X177827940Y-131864100D02*
X177827940Y-128562060D01*
X177827940Y-128562060D02*
X178374000Y-128016000D01*
X128016000Y-115849400D02*
X131140200Y-115849400D01*
X130845600Y-104632800D02*
X127101600Y-104632800D01*
X132334000Y-106121200D02*
X130845600Y-104632800D01*
X132334000Y-114655600D02*
X132334000Y-106121200D01*
X131140200Y-115849400D02*
X132334000Y-114655600D01*
X121040400Y-116890800D02*
X123342400Y-116890800D01*
X124383800Y-115849400D02*
X128016000Y-115849400D01*
X123342400Y-116890800D02*
X124383800Y-115849400D01*
X121040400Y-116890800D02*
X121040400Y-115808000D01*
X120491600Y-115259200D02*
X120491600Y-113775600D01*
X121040400Y-115808000D02*
X120491600Y-115259200D01*
X132943600Y-127863600D02*
X130965800Y-127863600D01*
X133096000Y-128016000D02*
X132943600Y-127863600D01*
X131013200Y-125105200D02*
X131013200Y-127816200D01*
X131013200Y-127816200D02*
X130965800Y-127863600D01*
X133096000Y-86223600D02*
X133975600Y-86223600D01*
X133975600Y-86223600D02*
X135398000Y-87646000D01*
X135398000Y-87646000D02*
X135398000Y-87985600D01*
X130531600Y-85877400D02*
X131749800Y-85877400D01*
X132096000Y-86223600D02*
X133096000Y-86223600D01*
X131749800Y-85877400D02*
X132096000Y-86223600D01*
X130531600Y-87147400D02*
X131495800Y-87147400D01*
X131495800Y-87147400D02*
X132572000Y-88223600D01*
X132572000Y-88223600D02*
X133096000Y-88223600D01*
X130531600Y-78257400D02*
X131800600Y-78257400D01*
X132096000Y-78552800D02*
X133045200Y-78552800D01*
X131800600Y-78257400D02*
X132096000Y-78552800D01*
D45*
X132749800Y-78257400D02*
X133045200Y-78552800D01*
D44*
X135347200Y-80467200D02*
X133130800Y-80467200D01*
X133130800Y-80467200D02*
X133045200Y-80552800D01*
X130531600Y-80797400D02*
X131902200Y-80797400D01*
X132146800Y-80552800D02*
X133045200Y-80552800D01*
X131902200Y-80797400D02*
X132146800Y-80552800D01*
X127154000Y-95758000D02*
X127154000Y-102680400D01*
X127154000Y-102680400D02*
X127101600Y-102732800D01*
X131013200Y-123205200D02*
X131013200Y-122732800D01*
X131013200Y-122732800D02*
X132181600Y-121564400D01*
X132181600Y-121564400D02*
X148386800Y-121564400D01*
X148386800Y-121564400D02*
X149860000Y-123037600D01*
X149860000Y-123037600D02*
X149860000Y-124358400D01*
X130531600Y-84607400D02*
X132003800Y-84607400D01*
X133938000Y-82673200D02*
X135448000Y-82673200D01*
X132003800Y-84607400D02*
X133938000Y-82673200D01*
X130531600Y-82067400D02*
X132410200Y-82067400D01*
X134547600Y-85373200D02*
X135448000Y-85373200D01*
X134061200Y-84886800D02*
X134547600Y-85373200D01*
X132410200Y-82067400D02*
X132435600Y-82092800D01*
X135448000Y-75256400D02*
X133938000Y-75256400D01*
X128549400Y-79527400D02*
X130531600Y-79527400D01*
X128524000Y-79552800D02*
X128549400Y-79527400D01*
X133938000Y-75256400D02*
X133908800Y-75285600D01*
X130531600Y-76987400D02*
X133832600Y-76987400D01*
X134801600Y-77956400D02*
X135448000Y-77956400D01*
X133832600Y-76987400D02*
X134801600Y-77956400D01*
X92763200Y-78181200D02*
X92763200Y-75729200D01*
X92763200Y-75729200D02*
X92710000Y-75676000D01*
X98501200Y-78181200D02*
X92001200Y-78181200D01*
X92763200Y-90119200D02*
X92763200Y-87413200D01*
X92763200Y-87413200D02*
X92710000Y-87360000D01*
X98501200Y-90119200D02*
X92001200Y-90119200D01*
X92763200Y-101904800D02*
X92763200Y-99351200D01*
X92763200Y-99351200D02*
X92710000Y-99298000D01*
X98501200Y-101904800D02*
X92001200Y-101904800D01*
X92763200Y-113690400D02*
X92763200Y-111035200D01*
X92763200Y-111035200D02*
X92710000Y-110982000D01*
X98501200Y-113690400D02*
X92001200Y-113690400D01*
X139700000Y-126812000D02*
X137586000Y-126812000D01*
X137586000Y-126812000D02*
X137398000Y-127000000D01*
X139700000Y-124358400D02*
X139700000Y-126812000D01*
X144780000Y-126812000D02*
X146640000Y-126812000D01*
X146640000Y-126812000D02*
X146828000Y-127000000D01*
X144780000Y-124358400D02*
X144780000Y-126812000D01*
X180340000Y-124358400D02*
X180340000Y-127950000D01*
X180340000Y-127950000D02*
X180274000Y-128016000D01*
X180274000Y-128016000D02*
X184001000Y-128016000D01*
X184001000Y-128016000D02*
X184150000Y-128165000D01*
X144780000Y-128712000D02*
X145222000Y-128712000D01*
X145222000Y-128712000D02*
X145796000Y-129286000D01*
X145796000Y-129286000D02*
X146828000Y-129286000D01*
X142267940Y-131864100D02*
X142267940Y-131224060D01*
X142267940Y-131224060D02*
X144780000Y-128712000D01*
X142494000Y-128778000D02*
X142428000Y-128712000D01*
X142428000Y-128712000D02*
X139700000Y-128712000D01*
X139700000Y-128712000D02*
X139512000Y-128712000D01*
X139512000Y-128712000D02*
X138938000Y-129286000D01*
X138938000Y-129286000D02*
X137398000Y-129286000D01*
D46*
G36*
X194844600Y-134900600D02*
X90499000Y-134900600D01*
X90499000Y-132460595D01*
X100815058Y-132460595D01*
X101272641Y-133568032D01*
X102119191Y-134416061D01*
X103225828Y-134875576D01*
X104424075Y-134876622D01*
X105531512Y-134419039D01*
X106379541Y-133572489D01*
X106839056Y-132465852D01*
X106840102Y-131267605D01*
X106614994Y-130722800D01*
X108877472Y-130722800D01*
X108877472Y-132322800D01*
X108930605Y-132605180D01*
X109097492Y-132864529D01*
X109352131Y-133038517D01*
X109654400Y-133099728D01*
X113154400Y-133099728D01*
X113436780Y-133046595D01*
X113696129Y-132879708D01*
X113870117Y-132625069D01*
X113903060Y-132462390D01*
X114158542Y-132411572D01*
X114470637Y-132203037D01*
X114916208Y-131757466D01*
X115033492Y-131939729D01*
X115288131Y-132113717D01*
X115590400Y-132174928D01*
X118140400Y-132174928D01*
X118422780Y-132121795D01*
X118682129Y-131954908D01*
X118856117Y-131700269D01*
X118917328Y-131398000D01*
X118917328Y-128698000D01*
X118864195Y-128415620D01*
X118697308Y-128156271D01*
X118442669Y-127982283D01*
X118140400Y-127921072D01*
X117827400Y-127921072D01*
X117827400Y-127113600D01*
X129213872Y-127113600D01*
X129213872Y-128613600D01*
X129267005Y-128895980D01*
X129433892Y-129155329D01*
X129688531Y-129329317D01*
X129990800Y-129390528D01*
X131940800Y-129390528D01*
X132223180Y-129337395D01*
X132482529Y-129170508D01*
X132620558Y-128968496D01*
X132883828Y-129077815D01*
X133306318Y-129078184D01*
X133696789Y-128916845D01*
X133995795Y-128618360D01*
X134157815Y-128228172D01*
X134158184Y-127805682D01*
X133996845Y-127415211D01*
X133698360Y-127116205D01*
X133308172Y-126954185D01*
X133207521Y-126954097D01*
X132943600Y-126901600D01*
X132677838Y-126901600D01*
X132664595Y-126831220D01*
X132497708Y-126571871D01*
X132243069Y-126397883D01*
X131975200Y-126343638D01*
X131975200Y-126159935D01*
X132204929Y-126012108D01*
X132378917Y-125757469D01*
X132440128Y-125455200D01*
X132440128Y-124755200D01*
X132386995Y-124472820D01*
X132220108Y-124213471D01*
X132136347Y-124156239D01*
X132204929Y-124112108D01*
X132378917Y-123857469D01*
X132440128Y-123555200D01*
X132440128Y-122855200D01*
X132410220Y-122696254D01*
X132580074Y-122526400D01*
X147988326Y-122526400D01*
X148727351Y-123265424D01*
X148590000Y-123470985D01*
X148424501Y-123223298D01*
X147917752Y-122884699D01*
X147320000Y-122765799D01*
X146722248Y-122884699D01*
X146215499Y-123223298D01*
X146050000Y-123470985D01*
X145884501Y-123223298D01*
X145377752Y-122884699D01*
X144780000Y-122765799D01*
X144182248Y-122884699D01*
X143675499Y-123223298D01*
X143510000Y-123470985D01*
X143344501Y-123223298D01*
X142837752Y-122884699D01*
X142240000Y-122765799D01*
X141642248Y-122884699D01*
X141135499Y-123223298D01*
X140970000Y-123470985D01*
X140804501Y-123223298D01*
X140297752Y-122884699D01*
X139700000Y-122765799D01*
X139102248Y-122884699D01*
X138595499Y-123223298D01*
X138430000Y-123470985D01*
X138264501Y-123223298D01*
X137757752Y-122884699D01*
X137160000Y-122765799D01*
X136562248Y-122884699D01*
X136055499Y-123223298D01*
X135716900Y-123730047D01*
X135598000Y-124327799D01*
X135598000Y-124389001D01*
X135716900Y-124986753D01*
X136055499Y-125493502D01*
X136450518Y-125757445D01*
X136356271Y-125818092D01*
X136182283Y-126072731D01*
X136121072Y-126375000D01*
X136121072Y-127625000D01*
X136174205Y-127907380D01*
X136327697Y-128145912D01*
X136182283Y-128358731D01*
X136121072Y-128661000D01*
X136121072Y-129911000D01*
X136174205Y-130193380D01*
X136254338Y-130317909D01*
X136118795Y-130408476D01*
X135917940Y-130709076D01*
X135717085Y-130408476D01*
X135226557Y-130080715D01*
X134647940Y-129965621D01*
X134069323Y-130080715D01*
X133578795Y-130408476D01*
X133251034Y-130899004D01*
X133135940Y-131477621D01*
X133135940Y-132250579D01*
X133251034Y-132829196D01*
X133578795Y-133319724D01*
X134069323Y-133647485D01*
X134647940Y-133762579D01*
X135226557Y-133647485D01*
X135717085Y-133319724D01*
X135917940Y-133019124D01*
X136118795Y-133319724D01*
X136609323Y-133647485D01*
X137187940Y-133762579D01*
X137766557Y-133647485D01*
X138257085Y-133319724D01*
X138457940Y-133019124D01*
X138658795Y-133319724D01*
X139149323Y-133647485D01*
X139727940Y-133762579D01*
X140306557Y-133647485D01*
X140797085Y-133319724D01*
X140997940Y-133019124D01*
X141198795Y-133319724D01*
X141689323Y-133647485D01*
X142267940Y-133762579D01*
X142846557Y-133647485D01*
X143337085Y-133319724D01*
X143537940Y-133019124D01*
X143738795Y-133319724D01*
X144229323Y-133647485D01*
X144807940Y-133762579D01*
X145386557Y-133647485D01*
X145877085Y-133319724D01*
X146077940Y-133019124D01*
X146278795Y-133319724D01*
X146769323Y-133647485D01*
X147347940Y-133762579D01*
X147926557Y-133647485D01*
X148417085Y-133319724D01*
X148617940Y-133019124D01*
X148818795Y-133319724D01*
X149309323Y-133647485D01*
X149887940Y-133762579D01*
X150466557Y-133647485D01*
X150957085Y-133319724D01*
X151157940Y-133019124D01*
X151358795Y-133319724D01*
X151849323Y-133647485D01*
X152427940Y-133762579D01*
X153006557Y-133647485D01*
X153497085Y-133319724D01*
X153697940Y-133019124D01*
X153898795Y-133319724D01*
X154389323Y-133647485D01*
X154967940Y-133762579D01*
X155546557Y-133647485D01*
X156037085Y-133319724D01*
X156237940Y-133019124D01*
X156438795Y-133319724D01*
X156929323Y-133647485D01*
X157507940Y-133762579D01*
X158086557Y-133647485D01*
X158577085Y-133319724D01*
X158777940Y-133019124D01*
X158978795Y-133319724D01*
X159469323Y-133647485D01*
X160047940Y-133762579D01*
X160626557Y-133647485D01*
X161117085Y-133319724D01*
X161317940Y-133019124D01*
X161518795Y-133319724D01*
X162009323Y-133647485D01*
X162587940Y-133762579D01*
X163166557Y-133647485D01*
X163657085Y-133319724D01*
X163857940Y-133019124D01*
X164058795Y-133319724D01*
X164549323Y-133647485D01*
X165127940Y-133762579D01*
X165706557Y-133647485D01*
X166197085Y-133319724D01*
X166524846Y-132829196D01*
X166639940Y-132250579D01*
X166639940Y-131477621D01*
X166524846Y-130899004D01*
X166197085Y-130408476D01*
X165706557Y-130080715D01*
X165127940Y-129965621D01*
X164549323Y-130080715D01*
X164058795Y-130408476D01*
X163857940Y-130709076D01*
X163657085Y-130408476D01*
X163166557Y-130080715D01*
X162587940Y-129965621D01*
X162009323Y-130080715D01*
X161518795Y-130408476D01*
X161317940Y-130709076D01*
X161117085Y-130408476D01*
X160626557Y-130080715D01*
X160047940Y-129965621D01*
X159469323Y-130080715D01*
X158978795Y-130408476D01*
X158777940Y-130709076D01*
X158577085Y-130408476D01*
X158086557Y-130080715D01*
X157507940Y-129965621D01*
X156929323Y-130080715D01*
X156438795Y-130408476D01*
X156237940Y-130709076D01*
X156037085Y-130408476D01*
X155546557Y-130080715D01*
X154967940Y-129965621D01*
X154389323Y-130080715D01*
X153898795Y-130408476D01*
X153697940Y-130709076D01*
X153497085Y-130408476D01*
X153006557Y-130080715D01*
X152427940Y-129965621D01*
X151849323Y-130080715D01*
X151358795Y-130408476D01*
X151157940Y-130709076D01*
X150957085Y-130408476D01*
X150466557Y-130080715D01*
X149887940Y-129965621D01*
X149309323Y-130080715D01*
X148818795Y-130408476D01*
X148617940Y-130709076D01*
X148417085Y-130408476D01*
X148053397Y-130165467D01*
X148104928Y-129911000D01*
X148104928Y-128661000D01*
X148051795Y-128378620D01*
X147898303Y-128140088D01*
X148043717Y-127927269D01*
X148104928Y-127625000D01*
X148104928Y-126375000D01*
X148051795Y-126092620D01*
X147887967Y-125838026D01*
X147917752Y-125832101D01*
X148424501Y-125493502D01*
X148590000Y-125245815D01*
X148755499Y-125493502D01*
X149262248Y-125832101D01*
X149860000Y-125951001D01*
X150457752Y-125832101D01*
X150964501Y-125493502D01*
X151130000Y-125245815D01*
X151295499Y-125493502D01*
X151802248Y-125832101D01*
X152400000Y-125951001D01*
X152997752Y-125832101D01*
X153504501Y-125493502D01*
X153670000Y-125245815D01*
X153835499Y-125493502D01*
X154342248Y-125832101D01*
X154940000Y-125951001D01*
X155537752Y-125832101D01*
X156044501Y-125493502D01*
X156210000Y-125245815D01*
X156375499Y-125493502D01*
X156882248Y-125832101D01*
X157480000Y-125951001D01*
X158077752Y-125832101D01*
X158584501Y-125493502D01*
X158750000Y-125245815D01*
X158915499Y-125493502D01*
X159422248Y-125832101D01*
X160020000Y-125951001D01*
X160617752Y-125832101D01*
X161124501Y-125493502D01*
X161290000Y-125245815D01*
X161455499Y-125493502D01*
X161962248Y-125832101D01*
X162560000Y-125951001D01*
X163157752Y-125832101D01*
X163664501Y-125493502D01*
X163830000Y-125245815D01*
X163995499Y-125493502D01*
X164502248Y-125832101D01*
X165100000Y-125951001D01*
X165697752Y-125832101D01*
X166204501Y-125493502D01*
X166370000Y-125245815D01*
X166535499Y-125493502D01*
X167042248Y-125832101D01*
X167640000Y-125951001D01*
X168237752Y-125832101D01*
X168744501Y-125493502D01*
X168910000Y-125245815D01*
X169075499Y-125493502D01*
X169582248Y-125832101D01*
X170180000Y-125951001D01*
X170777752Y-125832101D01*
X171284501Y-125493502D01*
X171450000Y-125245815D01*
X171615499Y-125493502D01*
X172122248Y-125832101D01*
X172720000Y-125951001D01*
X173317752Y-125832101D01*
X173824501Y-125493502D01*
X173990000Y-125245815D01*
X174155499Y-125493502D01*
X174662248Y-125832101D01*
X175260000Y-125951001D01*
X175857752Y-125832101D01*
X176364501Y-125493502D01*
X176530000Y-125245815D01*
X176695499Y-125493502D01*
X177202248Y-125832101D01*
X177800000Y-125951001D01*
X178397752Y-125832101D01*
X178904501Y-125493502D01*
X179070000Y-125245815D01*
X179235499Y-125493502D01*
X179378000Y-125588718D01*
X179378000Y-126815343D01*
X179325039Y-126892853D01*
X179280908Y-126824271D01*
X179026269Y-126650283D01*
X178724000Y-126589072D01*
X178024000Y-126589072D01*
X177741620Y-126642205D01*
X177482271Y-126809092D01*
X177308283Y-127063731D01*
X177247072Y-127366000D01*
X177247072Y-127782454D01*
X177147703Y-127881823D01*
X176939168Y-128193918D01*
X176901330Y-128384141D01*
X176865940Y-128562060D01*
X176865940Y-130336884D01*
X176758795Y-130408476D01*
X176557940Y-130709076D01*
X176357085Y-130408476D01*
X175866557Y-130080715D01*
X175287940Y-129965621D01*
X174709323Y-130080715D01*
X174218795Y-130408476D01*
X174017940Y-130709076D01*
X173817085Y-130408476D01*
X173326557Y-130080715D01*
X172747940Y-129965621D01*
X172169323Y-130080715D01*
X171678795Y-130408476D01*
X171477940Y-130709076D01*
X171277085Y-130408476D01*
X170786557Y-130080715D01*
X170207940Y-129965621D01*
X169629323Y-130080715D01*
X169138795Y-130408476D01*
X168811034Y-130899004D01*
X168695940Y-131477621D01*
X168695940Y-132250579D01*
X168811034Y-132829196D01*
X169138795Y-133319724D01*
X169629323Y-133647485D01*
X170207940Y-133762579D01*
X170786557Y-133647485D01*
X171277085Y-133319724D01*
X171477940Y-133019124D01*
X171678795Y-133319724D01*
X172169323Y-133647485D01*
X172747940Y-133762579D01*
X173326557Y-133647485D01*
X173817085Y-133319724D01*
X174017940Y-133019124D01*
X174218795Y-133319724D01*
X174709323Y-133647485D01*
X175287940Y-133762579D01*
X175866557Y-133647485D01*
X176357085Y-133319724D01*
X176557940Y-133019124D01*
X176758795Y-133319724D01*
X177249323Y-133647485D01*
X177827940Y-133762579D01*
X178406557Y-133647485D01*
X178897085Y-133319724D01*
X179224846Y-132829196D01*
X179298165Y-132460595D01*
X188815898Y-132460595D01*
X189273481Y-133568032D01*
X190120031Y-134416061D01*
X191226668Y-134875576D01*
X192424915Y-134876622D01*
X193532352Y-134419039D01*
X194380381Y-133572489D01*
X194839896Y-132465852D01*
X194840942Y-131267605D01*
X194383359Y-130160168D01*
X193536809Y-129312139D01*
X192430172Y-128852624D01*
X191231925Y-128851578D01*
X190124488Y-129309161D01*
X189276459Y-130155711D01*
X188816944Y-131262348D01*
X188815898Y-132460595D01*
X179298165Y-132460595D01*
X179339940Y-132250579D01*
X179339940Y-131477621D01*
X179224846Y-130899004D01*
X178897085Y-130408476D01*
X178789940Y-130336884D01*
X178789940Y-129430521D01*
X179006380Y-129389795D01*
X179265729Y-129222908D01*
X179322961Y-129139147D01*
X179367092Y-129207729D01*
X179621731Y-129381717D01*
X179924000Y-129442928D01*
X180624000Y-129442928D01*
X180906380Y-129389795D01*
X181165729Y-129222908D01*
X181333068Y-128978000D01*
X182623072Y-128978000D01*
X182623072Y-129140000D01*
X182676205Y-129422380D01*
X182843092Y-129681729D01*
X183097731Y-129855717D01*
X183400000Y-129916928D01*
X184900000Y-129916928D01*
X185182380Y-129863795D01*
X185441729Y-129696908D01*
X185615717Y-129442269D01*
X185676928Y-129140000D01*
X185676928Y-127190000D01*
X185623795Y-126907620D01*
X185456908Y-126648271D01*
X185202269Y-126474283D01*
X184900000Y-126413072D01*
X183400000Y-126413072D01*
X183117620Y-126466205D01*
X182858271Y-126633092D01*
X182684283Y-126887731D01*
X182650613Y-127054000D01*
X181328735Y-127054000D01*
X181302000Y-127012453D01*
X181302000Y-125588718D01*
X181444501Y-125493502D01*
X181783100Y-124986753D01*
X181902000Y-124389001D01*
X181902000Y-124327799D01*
X183858000Y-124327799D01*
X183858000Y-124389001D01*
X183976900Y-124986753D01*
X184315499Y-125493502D01*
X184822248Y-125832101D01*
X185420000Y-125951001D01*
X186017752Y-125832101D01*
X186524501Y-125493502D01*
X186863100Y-124986753D01*
X186982000Y-124389001D01*
X186982000Y-124327799D01*
X186863100Y-123730047D01*
X186524501Y-123223298D01*
X186017752Y-122884699D01*
X185420000Y-122765799D01*
X184822248Y-122884699D01*
X184315499Y-123223298D01*
X183976900Y-123730047D01*
X183858000Y-124327799D01*
X181902000Y-124327799D01*
X181783100Y-123730047D01*
X181444501Y-123223298D01*
X180937752Y-122884699D01*
X180340000Y-122765799D01*
X179742248Y-122884699D01*
X179235499Y-123223298D01*
X179070000Y-123470985D01*
X178904501Y-123223298D01*
X178397752Y-122884699D01*
X177800000Y-122765799D01*
X177202248Y-122884699D01*
X176695499Y-123223298D01*
X176530000Y-123470985D01*
X176364501Y-123223298D01*
X175857752Y-122884699D01*
X175260000Y-122765799D01*
X174662248Y-122884699D01*
X174155499Y-123223298D01*
X173990000Y-123470985D01*
X173824501Y-123223298D01*
X173317752Y-122884699D01*
X172720000Y-122765799D01*
X172122248Y-122884699D01*
X171615499Y-123223298D01*
X171450000Y-123470985D01*
X171284501Y-123223298D01*
X170777752Y-122884699D01*
X170180000Y-122765799D01*
X169582248Y-122884699D01*
X169075499Y-123223298D01*
X168910000Y-123470985D01*
X168744501Y-123223298D01*
X168237752Y-122884699D01*
X167640000Y-122765799D01*
X167042248Y-122884699D01*
X166535499Y-123223298D01*
X166370000Y-123470985D01*
X166204501Y-123223298D01*
X165697752Y-122884699D01*
X165100000Y-122765799D01*
X164502248Y-122884699D01*
X163995499Y-123223298D01*
X163830000Y-123470985D01*
X163664501Y-123223298D01*
X163157752Y-122884699D01*
X162560000Y-122765799D01*
X161962248Y-122884699D01*
X161455499Y-123223298D01*
X161290000Y-123470985D01*
X161124501Y-123223298D01*
X160617752Y-122884699D01*
X160020000Y-122765799D01*
X159422248Y-122884699D01*
X158915499Y-123223298D01*
X158750000Y-123470985D01*
X158584501Y-123223298D01*
X158077752Y-122884699D01*
X157480000Y-122765799D01*
X156882248Y-122884699D01*
X156375499Y-123223298D01*
X156210000Y-123470985D01*
X156044501Y-123223298D01*
X155537752Y-122884699D01*
X154940000Y-122765799D01*
X154342248Y-122884699D01*
X153835499Y-123223298D01*
X153670000Y-123470985D01*
X153504501Y-123223298D01*
X152997752Y-122884699D01*
X152400000Y-122765799D01*
X151802248Y-122884699D01*
X151295499Y-123223298D01*
X151130000Y-123470985D01*
X150964501Y-123223298D01*
X150822000Y-123128082D01*
X150822000Y-123037600D01*
X150748772Y-122669459D01*
X150540237Y-122357363D01*
X150540234Y-122357361D01*
X149067037Y-120884163D01*
X148754942Y-120675628D01*
X148386800Y-120602400D01*
X132181600Y-120602400D01*
X131813458Y-120675628D01*
X131501363Y-120884163D01*
X130332963Y-122052563D01*
X130308966Y-122088477D01*
X130080820Y-122131405D01*
X129821471Y-122298292D01*
X129647483Y-122552931D01*
X129586272Y-122855200D01*
X129586272Y-123555200D01*
X129639405Y-123837580D01*
X129806292Y-124096929D01*
X129890053Y-124154161D01*
X129821471Y-124198292D01*
X129647483Y-124452931D01*
X129586272Y-124755200D01*
X129586272Y-125455200D01*
X129639405Y-125737580D01*
X129806292Y-125996929D01*
X130051200Y-126164268D01*
X130051200Y-126336672D01*
X129990800Y-126336672D01*
X129708420Y-126389805D01*
X129449071Y-126556692D01*
X129275083Y-126811331D01*
X129213872Y-127113600D01*
X117827400Y-127113600D01*
X117827400Y-122656600D01*
X117754172Y-122288459D01*
X117754172Y-122288458D01*
X117545637Y-121976363D01*
X116395600Y-120826326D01*
X116395600Y-118124012D01*
X116475329Y-118072708D01*
X116649317Y-117818069D01*
X116710528Y-117515800D01*
X116710528Y-116265800D01*
X116657395Y-115983420D01*
X116542776Y-115805297D01*
X116611834Y-115736239D01*
X116611837Y-115736237D01*
X116687351Y-115623222D01*
X116813980Y-115599395D01*
X117073329Y-115432508D01*
X117247317Y-115177869D01*
X117308528Y-114875600D01*
X117308528Y-112675600D01*
X119114672Y-112675600D01*
X119114672Y-114875600D01*
X119167805Y-115157980D01*
X119334692Y-115417329D01*
X119589331Y-115591317D01*
X119595928Y-115592653D01*
X119602828Y-115627342D01*
X119811363Y-115939437D01*
X119829056Y-115957130D01*
X119824683Y-115963531D01*
X119763472Y-116265800D01*
X119763472Y-117515800D01*
X119816605Y-117798180D01*
X119983492Y-118057529D01*
X120238131Y-118231517D01*
X120540400Y-118292728D01*
X121540400Y-118292728D01*
X121822780Y-118239595D01*
X122082129Y-118072708D01*
X122232386Y-117852800D01*
X123342400Y-117852800D01*
X123710542Y-117779572D01*
X124022637Y-117571037D01*
X124782274Y-116811400D01*
X125889072Y-116811400D01*
X125889072Y-117124400D01*
X125942205Y-117406780D01*
X126109092Y-117666129D01*
X126363731Y-117840117D01*
X126666000Y-117901328D01*
X127054000Y-117901328D01*
X127054000Y-121521526D01*
X125369766Y-123205760D01*
X125129211Y-123305155D01*
X124830205Y-123603640D01*
X124668185Y-123993828D01*
X124667816Y-124416318D01*
X124829155Y-124806789D01*
X125127640Y-125105795D01*
X125517828Y-125267815D01*
X125940318Y-125268184D01*
X126330789Y-125106845D01*
X126629795Y-124808360D01*
X126730401Y-124566073D01*
X128696237Y-122600237D01*
X128904772Y-122288142D01*
X128978000Y-121920000D01*
X128978000Y-117901328D01*
X129366000Y-117901328D01*
X129648380Y-117848195D01*
X129907729Y-117681308D01*
X130081717Y-117426669D01*
X130142928Y-117124400D01*
X130142928Y-116811400D01*
X131140200Y-116811400D01*
X131508342Y-116738172D01*
X131820437Y-116529637D01*
X133014237Y-115335837D01*
X133222772Y-115023742D01*
X133296000Y-114655600D01*
X133296000Y-109087799D01*
X140678000Y-109087799D01*
X140678000Y-109149001D01*
X140796900Y-109746753D01*
X141135499Y-110253502D01*
X141642248Y-110592101D01*
X142240000Y-110711001D01*
X142837752Y-110592101D01*
X143344501Y-110253502D01*
X143510000Y-110005815D01*
X143675499Y-110253502D01*
X144182248Y-110592101D01*
X144780000Y-110711001D01*
X145377752Y-110592101D01*
X145884501Y-110253502D01*
X146050000Y-110005815D01*
X146215499Y-110253502D01*
X146722248Y-110592101D01*
X147320000Y-110711001D01*
X147917752Y-110592101D01*
X148424501Y-110253502D01*
X148590000Y-110005815D01*
X148755499Y-110253502D01*
X149262248Y-110592101D01*
X149860000Y-110711001D01*
X150457752Y-110592101D01*
X150964501Y-110253502D01*
X151130000Y-110005815D01*
X151295499Y-110253502D01*
X151802248Y-110592101D01*
X152400000Y-110711001D01*
X152997752Y-110592101D01*
X153504501Y-110253502D01*
X153670000Y-110005815D01*
X153835499Y-110253502D01*
X154342248Y-110592101D01*
X154940000Y-110711001D01*
X155537752Y-110592101D01*
X156044501Y-110253502D01*
X156210000Y-110005815D01*
X156375499Y-110253502D01*
X156882248Y-110592101D01*
X157480000Y-110711001D01*
X158077752Y-110592101D01*
X158584501Y-110253502D01*
X158750000Y-110005815D01*
X158915499Y-110253502D01*
X159422248Y-110592101D01*
X160020000Y-110711001D01*
X160617752Y-110592101D01*
X161124501Y-110253502D01*
X161290000Y-110005815D01*
X161455499Y-110253502D01*
X161962248Y-110592101D01*
X162560000Y-110711001D01*
X163157752Y-110592101D01*
X163664501Y-110253502D01*
X163830000Y-110005815D01*
X163995499Y-110253502D01*
X164502248Y-110592101D01*
X165100000Y-110711001D01*
X165697752Y-110592101D01*
X166204501Y-110253502D01*
X166370000Y-110005815D01*
X166535499Y-110253502D01*
X167042248Y-110592101D01*
X167640000Y-110711001D01*
X168237752Y-110592101D01*
X168744501Y-110253502D01*
X168910000Y-110005815D01*
X169075499Y-110253502D01*
X169582248Y-110592101D01*
X170180000Y-110711001D01*
X170777752Y-110592101D01*
X171284501Y-110253502D01*
X171450000Y-110005815D01*
X171615499Y-110253502D01*
X172122248Y-110592101D01*
X172720000Y-110711001D01*
X173317752Y-110592101D01*
X173824501Y-110253502D01*
X173990000Y-110005815D01*
X174155499Y-110253502D01*
X174662248Y-110592101D01*
X175260000Y-110711001D01*
X175857752Y-110592101D01*
X176364501Y-110253502D01*
X176530000Y-110005815D01*
X176695499Y-110253502D01*
X177202248Y-110592101D01*
X177800000Y-110711001D01*
X178397752Y-110592101D01*
X178904501Y-110253502D01*
X179070000Y-110005815D01*
X179235499Y-110253502D01*
X179742248Y-110592101D01*
X180340000Y-110711001D01*
X180937752Y-110592101D01*
X181444501Y-110253502D01*
X181610000Y-110005815D01*
X181775499Y-110253502D01*
X182282248Y-110592101D01*
X182880000Y-110711001D01*
X183477752Y-110592101D01*
X183946479Y-110278908D01*
X184063092Y-110460129D01*
X184317731Y-110634117D01*
X184620000Y-110695328D01*
X186220000Y-110695328D01*
X186502380Y-110642195D01*
X186761729Y-110475308D01*
X186935717Y-110220669D01*
X186996928Y-109918400D01*
X186996928Y-108318400D01*
X186943795Y-108036020D01*
X186776908Y-107776671D01*
X186522269Y-107602683D01*
X186220000Y-107541472D01*
X184620000Y-107541472D01*
X184337620Y-107594605D01*
X184078271Y-107761492D01*
X183944829Y-107956790D01*
X183477752Y-107644699D01*
X182880000Y-107525799D01*
X182282248Y-107644699D01*
X181775499Y-107983298D01*
X181610000Y-108230985D01*
X181444501Y-107983298D01*
X180937752Y-107644699D01*
X180340000Y-107525799D01*
X179742248Y-107644699D01*
X179235499Y-107983298D01*
X179070000Y-108230985D01*
X178904501Y-107983298D01*
X178397752Y-107644699D01*
X177800000Y-107525799D01*
X177202248Y-107644699D01*
X176695499Y-107983298D01*
X176530000Y-108230985D01*
X176364501Y-107983298D01*
X175857752Y-107644699D01*
X175260000Y-107525799D01*
X174662248Y-107644699D01*
X174155499Y-107983298D01*
X173990000Y-108230985D01*
X173824501Y-107983298D01*
X173317752Y-107644699D01*
X172720000Y-107525799D01*
X172122248Y-107644699D01*
X171615499Y-107983298D01*
X171450000Y-108230985D01*
X171284501Y-107983298D01*
X170777752Y-107644699D01*
X170180000Y-107525799D01*
X169582248Y-107644699D01*
X169075499Y-107983298D01*
X168910000Y-108230985D01*
X168744501Y-107983298D01*
X168237752Y-107644699D01*
X167640000Y-107525799D01*
X167042248Y-107644699D01*
X166535499Y-107983298D01*
X166370000Y-108230985D01*
X166204501Y-107983298D01*
X165697752Y-107644699D01*
X165100000Y-107525799D01*
X164502248Y-107644699D01*
X163995499Y-107983298D01*
X163830000Y-108230985D01*
X163664501Y-107983298D01*
X163157752Y-107644699D01*
X162560000Y-107525799D01*
X161962248Y-107644699D01*
X161455499Y-107983298D01*
X161290000Y-108230985D01*
X161124501Y-107983298D01*
X160617752Y-107644699D01*
X160020000Y-107525799D01*
X159422248Y-107644699D01*
X158915499Y-107983298D01*
X158750000Y-108230985D01*
X158584501Y-107983298D01*
X158077752Y-107644699D01*
X157480000Y-107525799D01*
X156882248Y-107644699D01*
X156375499Y-107983298D01*
X156210000Y-108230985D01*
X156044501Y-107983298D01*
X155537752Y-107644699D01*
X154940000Y-107525799D01*
X154342248Y-107644699D01*
X153835499Y-107983298D01*
X153670000Y-108230985D01*
X153504501Y-107983298D01*
X152997752Y-107644699D01*
X152400000Y-107525799D01*
X151802248Y-107644699D01*
X151295499Y-107983298D01*
X151130000Y-108230985D01*
X150964501Y-107983298D01*
X150457752Y-107644699D01*
X149860000Y-107525799D01*
X149262248Y-107644699D01*
X148755499Y-107983298D01*
X148590000Y-108230985D01*
X148424501Y-107983298D01*
X147917752Y-107644699D01*
X147320000Y-107525799D01*
X146722248Y-107644699D01*
X146215499Y-107983298D01*
X146050000Y-108230985D01*
X145884501Y-107983298D01*
X145377752Y-107644699D01*
X144780000Y-107525799D01*
X144182248Y-107644699D01*
X143675499Y-107983298D01*
X143510000Y-108230985D01*
X143344501Y-107983298D01*
X142837752Y-107644699D01*
X142240000Y-107525799D01*
X141642248Y-107644699D01*
X141135499Y-107983298D01*
X140796900Y-108490047D01*
X140678000Y-109087799D01*
X133296000Y-109087799D01*
X133296000Y-106121200D01*
X133222772Y-105753059D01*
X133014237Y-105440963D01*
X133014234Y-105440961D01*
X131525837Y-103952563D01*
X131213742Y-103744028D01*
X130845600Y-103670800D01*
X128245011Y-103670800D01*
X128293329Y-103639708D01*
X128467317Y-103385069D01*
X128528528Y-103082800D01*
X128528528Y-102382800D01*
X128475395Y-102100420D01*
X128308508Y-101841071D01*
X128116000Y-101709535D01*
X128116000Y-98254446D01*
X128236380Y-98231795D01*
X128495729Y-98064908D01*
X128669717Y-97810269D01*
X128730928Y-97508000D01*
X128730928Y-94008000D01*
X128677795Y-93725620D01*
X128510908Y-93466271D01*
X128256269Y-93292283D01*
X127954000Y-93231072D01*
X126354000Y-93231072D01*
X126071620Y-93284205D01*
X125812271Y-93451092D01*
X125638283Y-93705731D01*
X125577072Y-94008000D01*
X125577072Y-97508000D01*
X125630205Y-97790380D01*
X125797092Y-98049729D01*
X126051731Y-98223717D01*
X126192000Y-98252122D01*
X126192000Y-101654719D01*
X126169220Y-101659005D01*
X125909871Y-101825892D01*
X125735883Y-102080531D01*
X125674672Y-102382800D01*
X125674672Y-103082800D01*
X125727805Y-103365180D01*
X125894692Y-103624529D01*
X125978453Y-103681761D01*
X125909871Y-103725892D01*
X125735883Y-103980531D01*
X125674672Y-104282800D01*
X125674672Y-104982800D01*
X125727805Y-105265180D01*
X125894692Y-105524529D01*
X126149331Y-105698517D01*
X126451600Y-105759728D01*
X127751600Y-105759728D01*
X128033980Y-105706595D01*
X128207714Y-105594800D01*
X130447126Y-105594800D01*
X131372000Y-106519673D01*
X131372000Y-114257126D01*
X130741726Y-114887400D01*
X130142928Y-114887400D01*
X130142928Y-114574400D01*
X130089795Y-114292020D01*
X129922908Y-114032671D01*
X129668269Y-113858683D01*
X129366000Y-113797472D01*
X126666000Y-113797472D01*
X126383620Y-113850605D01*
X126124271Y-114017492D01*
X125950283Y-114272131D01*
X125889072Y-114574400D01*
X125889072Y-114887400D01*
X124383800Y-114887400D01*
X124015658Y-114960628D01*
X123703563Y-115169163D01*
X122943926Y-115928800D01*
X122229048Y-115928800D01*
X122097308Y-115724071D01*
X121968152Y-115635822D01*
X121929172Y-115439859D01*
X121780420Y-115217234D01*
X121807317Y-115177869D01*
X121868528Y-114875600D01*
X121868528Y-112675600D01*
X121815395Y-112393220D01*
X121648508Y-112133871D01*
X121393869Y-111959883D01*
X121091600Y-111898672D01*
X119891600Y-111898672D01*
X119609220Y-111951805D01*
X119349871Y-112118692D01*
X119175883Y-112373331D01*
X119114672Y-112675600D01*
X117308528Y-112675600D01*
X117255395Y-112393220D01*
X117088508Y-112133871D01*
X116833869Y-111959883D01*
X116531600Y-111898672D01*
X115331600Y-111898672D01*
X115049220Y-111951805D01*
X114789871Y-112118692D01*
X114615883Y-112373331D01*
X114554672Y-112675600D01*
X114554672Y-114875600D01*
X114598060Y-115106190D01*
X114544828Y-115185858D01*
X114514995Y-115335837D01*
X114471600Y-115554000D01*
X114471600Y-115657588D01*
X114391871Y-115708892D01*
X114217883Y-115963531D01*
X114156672Y-116265800D01*
X114156672Y-117515800D01*
X114209805Y-117798180D01*
X114376692Y-118057529D01*
X114471600Y-118122377D01*
X114471600Y-121224800D01*
X114544828Y-121592942D01*
X114753363Y-121905037D01*
X115903400Y-123055074D01*
X115903400Y-127921072D01*
X115590400Y-127921072D01*
X115308020Y-127974205D01*
X115048671Y-128141092D01*
X114874683Y-128395731D01*
X114813472Y-128698000D01*
X114813472Y-129215078D01*
X114584963Y-129367763D01*
X113734936Y-130217790D01*
X113711308Y-130181071D01*
X113456669Y-130007083D01*
X113154400Y-129945872D01*
X109654400Y-129945872D01*
X109372020Y-129999005D01*
X109112671Y-130165892D01*
X108938683Y-130420531D01*
X108877472Y-130722800D01*
X106614994Y-130722800D01*
X106382519Y-130160168D01*
X105535969Y-129312139D01*
X104429332Y-128852624D01*
X103231085Y-128851578D01*
X102123648Y-129309161D01*
X101275619Y-130155711D01*
X100816104Y-131262348D01*
X100815058Y-132460595D01*
X90499000Y-132460595D01*
X90499000Y-123722000D01*
X92973072Y-123722000D01*
X92973072Y-126722000D01*
X93026205Y-127004380D01*
X93193092Y-127263729D01*
X93447731Y-127437717D01*
X93750000Y-127498928D01*
X96750000Y-127498928D01*
X97032380Y-127445795D01*
X97291729Y-127278908D01*
X97465717Y-127024269D01*
X97526928Y-126722000D01*
X97526928Y-123722000D01*
X97473795Y-123439620D01*
X97306908Y-123180271D01*
X97052269Y-123006283D01*
X96750000Y-122945072D01*
X96278760Y-122945072D01*
X96449717Y-122694869D01*
X96452971Y-122678800D01*
X96883526Y-122678800D01*
X97617763Y-123413037D01*
X97929858Y-123621572D01*
X98298000Y-123694800D01*
X99150272Y-123694800D01*
X99150272Y-123882800D01*
X99203405Y-124165180D01*
X99370292Y-124424529D01*
X99624931Y-124598517D01*
X99927200Y-124659728D01*
X102427200Y-124659728D01*
X102709580Y-124606595D01*
X102968929Y-124439708D01*
X103142917Y-124185069D01*
X103204128Y-123882800D01*
X103204128Y-121582800D01*
X103450272Y-121582800D01*
X103450272Y-123882800D01*
X103503405Y-124165180D01*
X103670292Y-124424529D01*
X103924931Y-124598517D01*
X104227200Y-124659728D01*
X106718000Y-124659728D01*
X106718000Y-125411188D01*
X106638271Y-125462492D01*
X106464283Y-125717131D01*
X106403072Y-126019400D01*
X106403072Y-127269400D01*
X106456205Y-127551780D01*
X106623092Y-127811129D01*
X106877731Y-127985117D01*
X107180000Y-128046328D01*
X108180000Y-128046328D01*
X108462380Y-127993195D01*
X108721729Y-127826308D01*
X108871986Y-127606400D01*
X108908255Y-127606400D01*
X108930605Y-127725180D01*
X109097492Y-127984529D01*
X109352131Y-128158517D01*
X109654400Y-128219728D01*
X113154400Y-128219728D01*
X113436780Y-128166595D01*
X113696129Y-127999708D01*
X113870117Y-127745069D01*
X113931328Y-127442800D01*
X113931328Y-125842800D01*
X113878195Y-125560420D01*
X113711308Y-125301071D01*
X113456669Y-125127083D01*
X113154400Y-125065872D01*
X109654400Y-125065872D01*
X109372020Y-125119005D01*
X109112671Y-125285892D01*
X108938683Y-125540531D01*
X108909954Y-125682400D01*
X108868648Y-125682400D01*
X108736908Y-125477671D01*
X108642000Y-125412823D01*
X108642000Y-123326400D01*
X108600227Y-123116395D01*
X108568772Y-122958258D01*
X108360237Y-122646163D01*
X107766637Y-122052563D01*
X107504128Y-121877160D01*
X107504128Y-121582800D01*
X107450995Y-121300420D01*
X107284108Y-121041071D01*
X107029469Y-120867083D01*
X106727200Y-120805872D01*
X104227200Y-120805872D01*
X103944820Y-120859005D01*
X103685471Y-121025892D01*
X103511483Y-121280531D01*
X103450272Y-121582800D01*
X103204128Y-121582800D01*
X103150995Y-121300420D01*
X102984108Y-121041071D01*
X102729469Y-120867083D01*
X102427200Y-120805872D01*
X99927200Y-120805872D01*
X99644820Y-120859005D01*
X99385471Y-121025892D01*
X99211483Y-121280531D01*
X99150272Y-121582800D01*
X99150272Y-121770800D01*
X98696474Y-121770800D01*
X97962237Y-121036563D01*
X97650142Y-120828028D01*
X97282000Y-120754800D01*
X96389959Y-120754800D01*
X96290908Y-120600871D01*
X96036269Y-120426883D01*
X95734000Y-120365672D01*
X94734000Y-120365672D01*
X94451620Y-120418805D01*
X94192271Y-120585692D01*
X94018283Y-120840331D01*
X93957072Y-121142600D01*
X93957072Y-122392600D01*
X94010205Y-122674980D01*
X94177092Y-122934329D01*
X94192815Y-122945072D01*
X93750000Y-122945072D01*
X93467620Y-122998205D01*
X93208271Y-123165092D01*
X93034283Y-123419731D01*
X92973072Y-123722000D01*
X90499000Y-123722000D01*
X90499000Y-114039346D01*
X91000894Y-114039346D01*
X91268578Y-114687189D01*
X91763804Y-115183280D01*
X92411179Y-115452094D01*
X93112146Y-115452706D01*
X93759989Y-115185022D01*
X94256080Y-114689796D01*
X94271608Y-114652400D01*
X97754203Y-114652400D01*
X97768578Y-114687189D01*
X98263804Y-115183280D01*
X98911179Y-115452094D01*
X99612146Y-115452706D01*
X100259989Y-115185022D01*
X100756080Y-114689796D01*
X101024894Y-114042421D01*
X101025506Y-113341454D01*
X100757822Y-112693611D01*
X100262596Y-112197520D01*
X99615221Y-111928706D01*
X98914254Y-111928094D01*
X98266411Y-112195778D01*
X97770320Y-112691004D01*
X97754792Y-112728400D01*
X94272197Y-112728400D01*
X94257822Y-112693611D01*
X93762596Y-112197520D01*
X93725200Y-112181992D01*
X93725200Y-112136415D01*
X93876729Y-112038908D01*
X94050717Y-111784269D01*
X94111928Y-111482000D01*
X94111928Y-110482000D01*
X94058795Y-110199620D01*
X93891908Y-109940271D01*
X93637269Y-109766283D01*
X93335000Y-109705072D01*
X92085000Y-109705072D01*
X91802620Y-109758205D01*
X91543271Y-109925092D01*
X91369283Y-110179731D01*
X91308072Y-110482000D01*
X91308072Y-111482000D01*
X91361205Y-111764380D01*
X91528092Y-112023729D01*
X91774813Y-112192307D01*
X91766411Y-112195778D01*
X91270320Y-112691004D01*
X91001506Y-113338379D01*
X91000894Y-114039346D01*
X90499000Y-114039346D01*
X90499000Y-102253746D01*
X91000894Y-102253746D01*
X91268578Y-102901589D01*
X91763804Y-103397680D01*
X92411179Y-103666494D01*
X93112146Y-103667106D01*
X93759989Y-103399422D01*
X94256080Y-102904196D01*
X94271608Y-102866800D01*
X97754203Y-102866800D01*
X97768578Y-102901589D01*
X98263804Y-103397680D01*
X98911179Y-103666494D01*
X99612146Y-103667106D01*
X100259989Y-103399422D01*
X100756080Y-102904196D01*
X101024894Y-102256821D01*
X101025506Y-101555854D01*
X100757822Y-100908011D01*
X100262596Y-100411920D01*
X99615221Y-100143106D01*
X98914254Y-100142494D01*
X98266411Y-100410178D01*
X97770320Y-100905404D01*
X97754792Y-100942800D01*
X94272197Y-100942800D01*
X94257822Y-100908011D01*
X93772583Y-100421924D01*
X93876729Y-100354908D01*
X94050717Y-100100269D01*
X94111928Y-99798000D01*
X94111928Y-98798000D01*
X94058795Y-98515620D01*
X93891908Y-98256271D01*
X93637269Y-98082283D01*
X93335000Y-98021072D01*
X92085000Y-98021072D01*
X91802620Y-98074205D01*
X91543271Y-98241092D01*
X91369283Y-98495731D01*
X91308072Y-98798000D01*
X91308072Y-99798000D01*
X91361205Y-100080380D01*
X91528092Y-100339729D01*
X91711468Y-100465025D01*
X91270320Y-100905404D01*
X91001506Y-101552779D01*
X91000894Y-102253746D01*
X90499000Y-102253746D01*
X90499000Y-95008000D01*
X116971072Y-95008000D01*
X116971072Y-96508000D01*
X117024205Y-96790380D01*
X117191092Y-97049729D01*
X117445731Y-97223717D01*
X117748000Y-97284928D01*
X119698000Y-97284928D01*
X119980380Y-97231795D01*
X120239729Y-97064908D01*
X120413717Y-96810269D01*
X120431997Y-96720000D01*
X120697072Y-96720000D01*
X120697072Y-97508000D01*
X120750205Y-97790380D01*
X120917092Y-98049729D01*
X121171731Y-98223717D01*
X121474000Y-98284928D01*
X123074000Y-98284928D01*
X123356380Y-98231795D01*
X123615729Y-98064908D01*
X123789717Y-97810269D01*
X123850928Y-97508000D01*
X123850928Y-94008000D01*
X123797795Y-93725620D01*
X123630908Y-93466271D01*
X123376269Y-93292283D01*
X123074000Y-93231072D01*
X121474000Y-93231072D01*
X121191620Y-93284205D01*
X120932271Y-93451092D01*
X120758283Y-93705731D01*
X120697072Y-94008000D01*
X120697072Y-94796000D01*
X120435038Y-94796000D01*
X120421795Y-94725620D01*
X120254908Y-94466271D01*
X120000269Y-94292283D01*
X119698000Y-94231072D01*
X119685000Y-94231072D01*
X119685000Y-93814765D01*
X119781415Y-93582572D01*
X119781784Y-93160082D01*
X119620445Y-92769611D01*
X119321960Y-92470605D01*
X118931772Y-92308585D01*
X118509282Y-92308216D01*
X118118811Y-92469555D01*
X117819805Y-92768040D01*
X117657785Y-93158228D01*
X117657416Y-93580718D01*
X117761000Y-93831411D01*
X117761000Y-94231072D01*
X117748000Y-94231072D01*
X117465620Y-94284205D01*
X117206271Y-94451092D01*
X117032283Y-94705731D01*
X116971072Y-95008000D01*
X90499000Y-95008000D01*
X90499000Y-90468146D01*
X91000894Y-90468146D01*
X91268578Y-91115989D01*
X91763804Y-91612080D01*
X92411179Y-91880894D01*
X93112146Y-91881506D01*
X93759989Y-91613822D01*
X94256080Y-91118596D01*
X94271608Y-91081200D01*
X97754203Y-91081200D01*
X97768578Y-91115989D01*
X98263804Y-91612080D01*
X98911179Y-91880894D01*
X99612146Y-91881506D01*
X100259989Y-91613822D01*
X100756080Y-91118596D01*
X101024894Y-90471221D01*
X101025506Y-89770254D01*
X100757822Y-89122411D01*
X100262596Y-88626320D01*
X99615221Y-88357506D01*
X98914254Y-88356894D01*
X98266411Y-88624578D01*
X97770320Y-89119804D01*
X97754792Y-89157200D01*
X94272197Y-89157200D01*
X94257822Y-89122411D01*
X93762596Y-88626320D01*
X93725200Y-88610792D01*
X93725200Y-88514415D01*
X93876729Y-88416908D01*
X94050717Y-88162269D01*
X94111928Y-87860000D01*
X94111928Y-86860000D01*
X94058795Y-86577620D01*
X93891908Y-86318271D01*
X93637269Y-86144283D01*
X93335000Y-86083072D01*
X92085000Y-86083072D01*
X91802620Y-86136205D01*
X91543271Y-86303092D01*
X91369283Y-86557731D01*
X91308072Y-86860000D01*
X91308072Y-87860000D01*
X91361205Y-88142380D01*
X91528092Y-88401729D01*
X91782731Y-88575717D01*
X91801200Y-88579457D01*
X91801200Y-88610203D01*
X91766411Y-88624578D01*
X91270320Y-89119804D01*
X91001506Y-89767179D01*
X91000894Y-90468146D01*
X90499000Y-90468146D01*
X90499000Y-78530146D01*
X91000894Y-78530146D01*
X91268578Y-79177989D01*
X91763804Y-79674080D01*
X92411179Y-79942894D01*
X93112146Y-79943506D01*
X93759989Y-79675822D01*
X94256080Y-79180596D01*
X94271608Y-79143200D01*
X97754203Y-79143200D01*
X97768578Y-79177989D01*
X98263804Y-79674080D01*
X98911179Y-79942894D01*
X99612146Y-79943506D01*
X100259989Y-79675822D01*
X100756080Y-79180596D01*
X101024894Y-78533221D01*
X101025506Y-77832254D01*
X100757822Y-77184411D01*
X100262596Y-76688320D01*
X99615221Y-76419506D01*
X98914254Y-76418894D01*
X98266411Y-76686578D01*
X97770320Y-77181804D01*
X97754792Y-77219200D01*
X94272197Y-77219200D01*
X94257822Y-77184411D01*
X93834337Y-76760186D01*
X93876729Y-76732908D01*
X94050717Y-76478269D01*
X94111928Y-76176000D01*
X94111928Y-75176000D01*
X94058795Y-74893620D01*
X93891908Y-74634271D01*
X93637269Y-74460283D01*
X93335000Y-74399072D01*
X92085000Y-74399072D01*
X91802620Y-74452205D01*
X91543271Y-74619092D01*
X91369283Y-74873731D01*
X91308072Y-75176000D01*
X91308072Y-76176000D01*
X91361205Y-76458380D01*
X91528092Y-76717729D01*
X91651047Y-76801741D01*
X91270320Y-77181804D01*
X91001506Y-77829179D01*
X91000894Y-78530146D01*
X90499000Y-78530146D01*
X90499000Y-68928946D01*
X93487694Y-68928946D01*
X93755378Y-69576789D01*
X94250604Y-70072880D01*
X94897979Y-70341694D01*
X95598946Y-70342306D01*
X96246789Y-70074622D01*
X96742880Y-69579396D01*
X96758408Y-69542000D01*
X98813926Y-69542000D01*
X100665763Y-71393837D01*
X100977858Y-71602372D01*
X101346000Y-71675600D01*
X110522505Y-71675600D01*
X110628892Y-71840929D01*
X110883531Y-72014917D01*
X111185800Y-72076128D01*
X112435800Y-72076128D01*
X112718180Y-72022995D01*
X112977529Y-71856108D01*
X113042377Y-71761200D01*
X113113523Y-71761200D01*
X113157492Y-71829529D01*
X113412131Y-72003517D01*
X113714400Y-72064728D01*
X114714400Y-72064728D01*
X114996780Y-72011595D01*
X115216772Y-71870034D01*
X115412131Y-72003517D01*
X115714400Y-72064728D01*
X115814654Y-72064728D01*
X116616961Y-72867034D01*
X116616963Y-72867037D01*
X116929059Y-73075572D01*
X117297200Y-73148800D01*
X117715714Y-73148800D01*
X117794331Y-73202517D01*
X118096600Y-73263728D01*
X119596600Y-73263728D01*
X119774231Y-73230305D01*
X120169600Y-73625674D01*
X120169600Y-75910472D01*
X120156600Y-75910472D01*
X119874220Y-75963605D01*
X119614871Y-76130492D01*
X119597329Y-76156165D01*
X119494469Y-76085883D01*
X119192200Y-76024672D01*
X117942200Y-76024672D01*
X117659820Y-76077805D01*
X117400471Y-76244692D01*
X117226483Y-76499331D01*
X117165272Y-76801600D01*
X117165272Y-77801600D01*
X117171833Y-77836468D01*
X116968400Y-77795272D01*
X115968400Y-77795272D01*
X115686020Y-77848405D01*
X115426671Y-78015292D01*
X115252683Y-78269931D01*
X115191472Y-78572200D01*
X115191472Y-79822200D01*
X115244605Y-80104580D01*
X115411492Y-80363929D01*
X115666131Y-80537917D01*
X115874594Y-80580132D01*
X114493854Y-81960872D01*
X114038000Y-81960872D01*
X113755620Y-82014005D01*
X113535628Y-82155566D01*
X113340269Y-82022083D01*
X113038000Y-81960872D01*
X112038000Y-81960872D01*
X111755620Y-82014005D01*
X111496271Y-82180892D01*
X111328840Y-82425935D01*
X111087058Y-82474028D01*
X110774963Y-82682563D01*
X109860563Y-83596963D01*
X109652028Y-83909058D01*
X109606846Y-84136205D01*
X109589655Y-84222627D01*
X109525083Y-84317131D01*
X109463872Y-84619400D01*
X109463872Y-86119400D01*
X109517005Y-86401780D01*
X109683892Y-86661129D01*
X109938531Y-86835117D01*
X110240800Y-86896328D01*
X110840800Y-86896328D01*
X111123180Y-86843195D01*
X111382529Y-86676308D01*
X111556517Y-86421669D01*
X111617728Y-86119400D01*
X111617728Y-84622889D01*
X111735731Y-84703517D01*
X112038000Y-84764728D01*
X113038000Y-84764728D01*
X113320380Y-84711595D01*
X113540372Y-84570034D01*
X113735731Y-84703517D01*
X114038000Y-84764728D01*
X115038000Y-84764728D01*
X115320380Y-84711595D01*
X115579729Y-84544708D01*
X115753717Y-84290069D01*
X115814928Y-83987800D01*
X115814928Y-83360746D01*
X117051274Y-82124400D01*
X117333988Y-82124400D01*
X117385292Y-82204129D01*
X117563020Y-82325565D01*
X117487883Y-82435531D01*
X117426672Y-82737800D01*
X117426672Y-83987800D01*
X117476761Y-84254001D01*
X117400471Y-84303092D01*
X117335623Y-84398000D01*
X117179600Y-84398000D01*
X116811459Y-84471228D01*
X116499363Y-84679763D01*
X116499361Y-84679766D01*
X115702563Y-85476563D01*
X115523268Y-85744898D01*
X115450420Y-85758605D01*
X115191071Y-85925492D01*
X115017083Y-86180131D01*
X114955872Y-86482400D01*
X114955872Y-87182400D01*
X115009005Y-87464780D01*
X115175892Y-87724129D01*
X115430531Y-87898117D01*
X115732800Y-87959328D01*
X117032800Y-87959328D01*
X117315180Y-87906195D01*
X117574529Y-87739308D01*
X117748517Y-87484669D01*
X117809728Y-87182400D01*
X117809728Y-86610102D01*
X117942200Y-86636928D01*
X119192200Y-86636928D01*
X119431408Y-86591918D01*
X119379672Y-86847400D01*
X119379672Y-87447400D01*
X119432805Y-87729780D01*
X119465007Y-87779824D01*
X119440883Y-87815131D01*
X119379672Y-88117400D01*
X119379672Y-88717400D01*
X119432805Y-88999780D01*
X119599692Y-89259129D01*
X119854331Y-89433117D01*
X120156600Y-89494328D01*
X122106600Y-89494328D01*
X122388980Y-89441195D01*
X122648329Y-89274308D01*
X122822317Y-89019669D01*
X122883528Y-88717400D01*
X122883528Y-88117400D01*
X122830395Y-87835020D01*
X122798193Y-87784976D01*
X122822317Y-87749669D01*
X122883528Y-87447400D01*
X122883528Y-86847400D01*
X122830395Y-86565020D01*
X122798193Y-86514976D01*
X122822317Y-86479669D01*
X122883528Y-86177400D01*
X122883528Y-85577400D01*
X122882023Y-85569400D01*
X125186217Y-85569400D01*
X125365428Y-85643815D01*
X125787918Y-85644184D01*
X126178389Y-85482845D01*
X126477395Y-85184360D01*
X126639415Y-84794172D01*
X126639784Y-84371682D01*
X126478445Y-83981211D01*
X126179960Y-83682205D01*
X125789772Y-83520185D01*
X125367282Y-83519816D01*
X125063345Y-83645400D01*
X124455477Y-83645400D01*
X124505815Y-83524172D01*
X124506184Y-83101682D01*
X124344845Y-82711211D01*
X124046360Y-82412205D01*
X123656172Y-82250185D01*
X123233682Y-82249816D01*
X122929745Y-82375400D01*
X122881908Y-82375400D01*
X122883528Y-82367400D01*
X122883528Y-81767400D01*
X122830395Y-81485020D01*
X122798193Y-81434976D01*
X122822317Y-81399669D01*
X122883528Y-81097400D01*
X122883528Y-80497400D01*
X122830395Y-80215020D01*
X122798193Y-80164976D01*
X122822317Y-80129669D01*
X122883528Y-79827400D01*
X122883528Y-79763118D01*
X127461816Y-79763118D01*
X127623155Y-80153589D01*
X127921640Y-80452595D01*
X128311828Y-80614615D01*
X128734318Y-80614984D01*
X128779672Y-80596244D01*
X128779672Y-81097400D01*
X128832805Y-81379780D01*
X128865007Y-81429824D01*
X128840883Y-81465131D01*
X128779672Y-81767400D01*
X128779672Y-82367400D01*
X128832805Y-82649780D01*
X128999692Y-82909129D01*
X129254331Y-83083117D01*
X129556600Y-83144328D01*
X131506600Y-83144328D01*
X131788980Y-83091195D01*
X131885012Y-83029400D01*
X131921876Y-83029400D01*
X132133466Y-83117260D01*
X131684274Y-83566452D01*
X131506600Y-83530472D01*
X129556600Y-83530472D01*
X129274220Y-83583605D01*
X129014871Y-83750492D01*
X128840883Y-84005131D01*
X128779672Y-84307400D01*
X128779672Y-84907400D01*
X128832805Y-85189780D01*
X128865007Y-85239824D01*
X128840883Y-85275131D01*
X128779672Y-85577400D01*
X128779672Y-86177400D01*
X128832805Y-86459780D01*
X128865007Y-86509824D01*
X128840883Y-86545131D01*
X128779672Y-86847400D01*
X128779672Y-87447400D01*
X128832805Y-87729780D01*
X128865007Y-87779824D01*
X128840883Y-87815131D01*
X128779672Y-88117400D01*
X128779672Y-88717400D01*
X128832805Y-88999780D01*
X128999692Y-89259129D01*
X129254331Y-89433117D01*
X129556600Y-89494328D01*
X131506600Y-89494328D01*
X131788980Y-89441195D01*
X131985965Y-89314438D01*
X132168731Y-89439317D01*
X132471000Y-89500528D01*
X133721000Y-89500528D01*
X134003380Y-89447395D01*
X134262729Y-89280508D01*
X134347376Y-89156623D01*
X134595731Y-89326317D01*
X134898000Y-89387528D01*
X135898000Y-89387528D01*
X136180380Y-89334395D01*
X136439729Y-89167508D01*
X136613717Y-88912869D01*
X136674928Y-88610600D01*
X136674928Y-87360600D01*
X136621795Y-87078220D01*
X136454908Y-86818871D01*
X136304944Y-86716405D01*
X136314729Y-86710108D01*
X136397710Y-86588661D01*
X136466092Y-86694929D01*
X136720731Y-86868917D01*
X137023000Y-86930128D01*
X137673000Y-86930128D01*
X137955380Y-86876995D01*
X138214729Y-86710108D01*
X138388717Y-86455469D01*
X138449928Y-86153200D01*
X138449928Y-84593200D01*
X138396795Y-84310820D01*
X138229908Y-84051471D01*
X138191370Y-84025139D01*
X138214729Y-84010108D01*
X138388717Y-83755469D01*
X138449928Y-83453200D01*
X138449928Y-81893200D01*
X138396795Y-81610820D01*
X138229908Y-81351471D01*
X137975269Y-81177483D01*
X137673000Y-81116272D01*
X137023000Y-81116272D01*
X136740620Y-81169405D01*
X136588697Y-81267165D01*
X136624128Y-81092200D01*
X136624128Y-79842200D01*
X136570995Y-79559820D01*
X136404108Y-79300471D01*
X136339839Y-79256558D01*
X136397710Y-79171861D01*
X136466092Y-79278129D01*
X136720731Y-79452117D01*
X137023000Y-79513328D01*
X137673000Y-79513328D01*
X137955380Y-79460195D01*
X138214729Y-79293308D01*
X138388717Y-79038669D01*
X138449928Y-78736400D01*
X138449928Y-77176400D01*
X138396795Y-76894020D01*
X138229908Y-76634671D01*
X138191370Y-76608339D01*
X138214729Y-76593308D01*
X138388717Y-76338669D01*
X138449928Y-76036400D01*
X138449928Y-74476400D01*
X138396795Y-74194020D01*
X138229908Y-73934671D01*
X137975269Y-73760683D01*
X137673000Y-73699472D01*
X137023000Y-73699472D01*
X136740620Y-73752605D01*
X136481271Y-73919492D01*
X136398290Y-74040939D01*
X136329908Y-73934671D01*
X136075269Y-73760683D01*
X135773000Y-73699472D01*
X135123000Y-73699472D01*
X134840620Y-73752605D01*
X134581271Y-73919492D01*
X134407283Y-74174131D01*
X134382928Y-74294400D01*
X134291032Y-74294400D01*
X134120972Y-74223785D01*
X133698482Y-74223416D01*
X133308011Y-74384755D01*
X133009005Y-74683240D01*
X132846985Y-75073428D01*
X132846616Y-75495918D01*
X133007955Y-75886389D01*
X133146724Y-76025400D01*
X131887486Y-76025400D01*
X131808869Y-75971683D01*
X131506600Y-75910472D01*
X129556600Y-75910472D01*
X129274220Y-75963605D01*
X129014871Y-76130492D01*
X128840883Y-76385131D01*
X128779672Y-76687400D01*
X128779672Y-77287400D01*
X128832805Y-77569780D01*
X128865007Y-77619824D01*
X128840883Y-77655131D01*
X128779672Y-77957400D01*
X128779672Y-78509048D01*
X128736172Y-78490985D01*
X128313682Y-78490616D01*
X127923211Y-78651955D01*
X127624205Y-78950440D01*
X127462185Y-79340628D01*
X127461816Y-79763118D01*
X122883528Y-79763118D01*
X122883528Y-79227400D01*
X122830395Y-78945020D01*
X122798193Y-78894976D01*
X122822317Y-78859669D01*
X122883528Y-78557400D01*
X122883528Y-77957400D01*
X122830395Y-77675020D01*
X122798193Y-77624976D01*
X122822317Y-77589669D01*
X122883528Y-77287400D01*
X122883528Y-76687400D01*
X122830395Y-76405020D01*
X122663508Y-76145671D01*
X122408869Y-75971683D01*
X122106600Y-75910472D01*
X122093600Y-75910472D01*
X122093600Y-73227205D01*
X122093601Y-73227200D01*
X122020372Y-72859058D01*
X121811837Y-72546963D01*
X120771437Y-71506563D01*
X120459342Y-71298028D01*
X120091200Y-71224800D01*
X119977486Y-71224800D01*
X119898869Y-71171083D01*
X119596600Y-71109872D01*
X118096600Y-71109872D01*
X117814220Y-71163005D01*
X117718188Y-71224800D01*
X117695673Y-71224800D01*
X117491328Y-71020455D01*
X117491328Y-70037800D01*
X117438195Y-69755420D01*
X117271308Y-69496071D01*
X117016669Y-69322083D01*
X116714400Y-69260872D01*
X115714400Y-69260872D01*
X115432020Y-69314005D01*
X115212028Y-69455566D01*
X115016669Y-69322083D01*
X114714400Y-69260872D01*
X113714400Y-69260872D01*
X113432020Y-69314005D01*
X113172671Y-69480892D01*
X112998683Y-69735531D01*
X112993873Y-69759282D01*
X112992708Y-69757471D01*
X112738069Y-69583483D01*
X112435800Y-69522272D01*
X111185800Y-69522272D01*
X110903420Y-69575405D01*
X110644071Y-69742292D01*
X110637711Y-69751600D01*
X104730040Y-69751600D01*
X105531512Y-69420439D01*
X106379541Y-68573889D01*
X106647820Y-67927800D01*
X122309672Y-67927800D01*
X122309672Y-68527800D01*
X122362805Y-68810180D01*
X122529692Y-69069529D01*
X122784331Y-69243517D01*
X123086600Y-69304728D01*
X124586600Y-69304728D01*
X124868980Y-69251595D01*
X124965012Y-69189800D01*
X125372340Y-69189800D01*
X125501892Y-69391129D01*
X125756531Y-69565117D01*
X126058800Y-69626328D01*
X127058800Y-69626328D01*
X127341180Y-69573195D01*
X127600529Y-69406308D01*
X127774517Y-69151669D01*
X127835728Y-68849400D01*
X127835728Y-67599400D01*
X127809874Y-67461995D01*
X188815898Y-67461995D01*
X189273481Y-68569432D01*
X190120031Y-69417461D01*
X191226668Y-69876976D01*
X192424915Y-69878022D01*
X193532352Y-69420439D01*
X194380381Y-68573889D01*
X194839896Y-67467252D01*
X194840942Y-66269005D01*
X194383359Y-65161568D01*
X193536809Y-64313539D01*
X192430172Y-63854024D01*
X191231925Y-63852978D01*
X190124488Y-64310561D01*
X189276459Y-65157111D01*
X188816944Y-66263748D01*
X188815898Y-67461995D01*
X127809874Y-67461995D01*
X127782595Y-67317020D01*
X127615708Y-67057671D01*
X127361069Y-66883683D01*
X127058800Y-66822472D01*
X126058800Y-66822472D01*
X125776420Y-66875605D01*
X125517071Y-67042492D01*
X125364491Y-67265800D01*
X124967486Y-67265800D01*
X124888869Y-67212083D01*
X124586600Y-67150872D01*
X123086600Y-67150872D01*
X122804220Y-67204005D01*
X122544871Y-67370892D01*
X122370883Y-67625531D01*
X122309672Y-67927800D01*
X106647820Y-67927800D01*
X106839056Y-67467252D01*
X106840102Y-66269005D01*
X106382519Y-65161568D01*
X105535969Y-64313539D01*
X104429332Y-63854024D01*
X103231085Y-63852978D01*
X102123648Y-64310561D01*
X101275619Y-65157111D01*
X100816104Y-66263748D01*
X100815058Y-67461995D01*
X101272641Y-68569432D01*
X102119191Y-69417461D01*
X102923889Y-69751600D01*
X101744474Y-69751600D01*
X99892637Y-67899763D01*
X99580542Y-67691228D01*
X99212400Y-67618000D01*
X96758997Y-67618000D01*
X96744622Y-67583211D01*
X96249396Y-67087120D01*
X95602021Y-66818306D01*
X94901054Y-66817694D01*
X94253211Y-67085378D01*
X93757120Y-67580604D01*
X93488306Y-68227979D01*
X93487694Y-68928946D01*
X90499000Y-68928946D01*
X90499000Y-63829000D01*
X194844600Y-63829000D01*
X194844600Y-134900600D01*
X194844600Y-134900600D01*
G37*
X194844600Y-134900600D02*
X90499000Y-134900600D01*
X90499000Y-132460595D01*
X100815058Y-132460595D01*
X101272641Y-133568032D01*
X102119191Y-134416061D01*
X103225828Y-134875576D01*
X104424075Y-134876622D01*
X105531512Y-134419039D01*
X106379541Y-133572489D01*
X106839056Y-132465852D01*
X106840102Y-131267605D01*
X106614994Y-130722800D01*
X108877472Y-130722800D01*
X108877472Y-132322800D01*
X108930605Y-132605180D01*
X109097492Y-132864529D01*
X109352131Y-133038517D01*
X109654400Y-133099728D01*
X113154400Y-133099728D01*
X113436780Y-133046595D01*
X113696129Y-132879708D01*
X113870117Y-132625069D01*
X113903060Y-132462390D01*
X114158542Y-132411572D01*
X114470637Y-132203037D01*
X114916208Y-131757466D01*
X115033492Y-131939729D01*
X115288131Y-132113717D01*
X115590400Y-132174928D01*
X118140400Y-132174928D01*
X118422780Y-132121795D01*
X118682129Y-131954908D01*
X118856117Y-131700269D01*
X118917328Y-131398000D01*
X118917328Y-128698000D01*
X118864195Y-128415620D01*
X118697308Y-128156271D01*
X118442669Y-127982283D01*
X118140400Y-127921072D01*
X117827400Y-127921072D01*
X117827400Y-127113600D01*
X129213872Y-127113600D01*
X129213872Y-128613600D01*
X129267005Y-128895980D01*
X129433892Y-129155329D01*
X129688531Y-129329317D01*
X129990800Y-129390528D01*
X131940800Y-129390528D01*
X132223180Y-129337395D01*
X132482529Y-129170508D01*
X132620558Y-128968496D01*
X132883828Y-129077815D01*
X133306318Y-129078184D01*
X133696789Y-128916845D01*
X133995795Y-128618360D01*
X134157815Y-128228172D01*
X134158184Y-127805682D01*
X133996845Y-127415211D01*
X133698360Y-127116205D01*
X133308172Y-126954185D01*
X133207521Y-126954097D01*
X132943600Y-126901600D01*
X132677838Y-126901600D01*
X132664595Y-126831220D01*
X132497708Y-126571871D01*
X132243069Y-126397883D01*
X131975200Y-126343638D01*
X131975200Y-126159935D01*
X132204929Y-126012108D01*
X132378917Y-125757469D01*
X132440128Y-125455200D01*
X132440128Y-124755200D01*
X132386995Y-124472820D01*
X132220108Y-124213471D01*
X132136347Y-124156239D01*
X132204929Y-124112108D01*
X132378917Y-123857469D01*
X132440128Y-123555200D01*
X132440128Y-122855200D01*
X132410220Y-122696254D01*
X132580074Y-122526400D01*
X147988326Y-122526400D01*
X148727351Y-123265424D01*
X148590000Y-123470985D01*
X148424501Y-123223298D01*
X147917752Y-122884699D01*
X147320000Y-122765799D01*
X146722248Y-122884699D01*
X146215499Y-123223298D01*
X146050000Y-123470985D01*
X145884501Y-123223298D01*
X145377752Y-122884699D01*
X144780000Y-122765799D01*
X144182248Y-122884699D01*
X143675499Y-123223298D01*
X143510000Y-123470985D01*
X143344501Y-123223298D01*
X142837752Y-122884699D01*
X142240000Y-122765799D01*
X141642248Y-122884699D01*
X141135499Y-123223298D01*
X140970000Y-123470985D01*
X140804501Y-123223298D01*
X140297752Y-122884699D01*
X139700000Y-122765799D01*
X139102248Y-122884699D01*
X138595499Y-123223298D01*
X138430000Y-123470985D01*
X138264501Y-123223298D01*
X137757752Y-122884699D01*
X137160000Y-122765799D01*
X136562248Y-122884699D01*
X136055499Y-123223298D01*
X135716900Y-123730047D01*
X135598000Y-124327799D01*
X135598000Y-124389001D01*
X135716900Y-124986753D01*
X136055499Y-125493502D01*
X136450518Y-125757445D01*
X136356271Y-125818092D01*
X136182283Y-126072731D01*
X136121072Y-126375000D01*
X136121072Y-127625000D01*
X136174205Y-127907380D01*
X136327697Y-128145912D01*
X136182283Y-128358731D01*
X136121072Y-128661000D01*
X136121072Y-129911000D01*
X136174205Y-130193380D01*
X136254338Y-130317909D01*
X136118795Y-130408476D01*
X135917940Y-130709076D01*
X135717085Y-130408476D01*
X135226557Y-130080715D01*
X134647940Y-129965621D01*
X134069323Y-130080715D01*
X133578795Y-130408476D01*
X133251034Y-130899004D01*
X133135940Y-131477621D01*
X133135940Y-132250579D01*
X133251034Y-132829196D01*
X133578795Y-133319724D01*
X134069323Y-133647485D01*
X134647940Y-133762579D01*
X135226557Y-133647485D01*
X135717085Y-133319724D01*
X135917940Y-133019124D01*
X136118795Y-133319724D01*
X136609323Y-133647485D01*
X137187940Y-133762579D01*
X137766557Y-133647485D01*
X138257085Y-133319724D01*
X138457940Y-133019124D01*
X138658795Y-133319724D01*
X139149323Y-133647485D01*
X139727940Y-133762579D01*
X140306557Y-133647485D01*
X140797085Y-133319724D01*
X140997940Y-133019124D01*
X141198795Y-133319724D01*
X141689323Y-133647485D01*
X142267940Y-133762579D01*
X142846557Y-133647485D01*
X143337085Y-133319724D01*
X143537940Y-133019124D01*
X143738795Y-133319724D01*
X144229323Y-133647485D01*
X144807940Y-133762579D01*
X145386557Y-133647485D01*
X145877085Y-133319724D01*
X146077940Y-133019124D01*
X146278795Y-133319724D01*
X146769323Y-133647485D01*
X147347940Y-133762579D01*
X147926557Y-133647485D01*
X148417085Y-133319724D01*
X148617940Y-133019124D01*
X148818795Y-133319724D01*
X149309323Y-133647485D01*
X149887940Y-133762579D01*
X150466557Y-133647485D01*
X150957085Y-133319724D01*
X151157940Y-133019124D01*
X151358795Y-133319724D01*
X151849323Y-133647485D01*
X152427940Y-133762579D01*
X153006557Y-133647485D01*
X153497085Y-133319724D01*
X153697940Y-133019124D01*
X153898795Y-133319724D01*
X154389323Y-133647485D01*
X154967940Y-133762579D01*
X155546557Y-133647485D01*
X156037085Y-133319724D01*
X156237940Y-133019124D01*
X156438795Y-133319724D01*
X156929323Y-133647485D01*
X157507940Y-133762579D01*
X158086557Y-133647485D01*
X158577085Y-133319724D01*
X158777940Y-133019124D01*
X158978795Y-133319724D01*
X159469323Y-133647485D01*
X160047940Y-133762579D01*
X160626557Y-133647485D01*
X161117085Y-133319724D01*
X161317940Y-133019124D01*
X161518795Y-133319724D01*
X162009323Y-133647485D01*
X162587940Y-133762579D01*
X163166557Y-133647485D01*
X163657085Y-133319724D01*
X163857940Y-133019124D01*
X164058795Y-133319724D01*
X164549323Y-133647485D01*
X165127940Y-133762579D01*
X165706557Y-133647485D01*
X166197085Y-133319724D01*
X166524846Y-132829196D01*
X166639940Y-132250579D01*
X166639940Y-131477621D01*
X166524846Y-130899004D01*
X166197085Y-130408476D01*
X165706557Y-130080715D01*
X165127940Y-129965621D01*
X164549323Y-130080715D01*
X164058795Y-130408476D01*
X163857940Y-130709076D01*
X163657085Y-130408476D01*
X163166557Y-130080715D01*
X162587940Y-129965621D01*
X162009323Y-130080715D01*
X161518795Y-130408476D01*
X161317940Y-130709076D01*
X161117085Y-130408476D01*
X160626557Y-130080715D01*
X160047940Y-129965621D01*
X159469323Y-130080715D01*
X158978795Y-130408476D01*
X158777940Y-130709076D01*
X158577085Y-130408476D01*
X158086557Y-130080715D01*
X157507940Y-129965621D01*
X156929323Y-130080715D01*
X156438795Y-130408476D01*
X156237940Y-130709076D01*
X156037085Y-130408476D01*
X155546557Y-130080715D01*
X154967940Y-129965621D01*
X154389323Y-130080715D01*
X153898795Y-130408476D01*
X153697940Y-130709076D01*
X153497085Y-130408476D01*
X153006557Y-130080715D01*
X152427940Y-129965621D01*
X151849323Y-130080715D01*
X151358795Y-130408476D01*
X151157940Y-130709076D01*
X150957085Y-130408476D01*
X150466557Y-130080715D01*
X149887940Y-129965621D01*
X149309323Y-130080715D01*
X148818795Y-130408476D01*
X148617940Y-130709076D01*
X148417085Y-130408476D01*
X148053397Y-130165467D01*
X148104928Y-129911000D01*
X148104928Y-128661000D01*
X148051795Y-128378620D01*
X147898303Y-128140088D01*
X148043717Y-127927269D01*
X148104928Y-127625000D01*
X148104928Y-126375000D01*
X148051795Y-126092620D01*
X147887967Y-125838026D01*
X147917752Y-125832101D01*
X148424501Y-125493502D01*
X148590000Y-125245815D01*
X148755499Y-125493502D01*
X149262248Y-125832101D01*
X149860000Y-125951001D01*
X150457752Y-125832101D01*
X150964501Y-125493502D01*
X151130000Y-125245815D01*
X151295499Y-125493502D01*
X151802248Y-125832101D01*
X152400000Y-125951001D01*
X152997752Y-125832101D01*
X153504501Y-125493502D01*
X153670000Y-125245815D01*
X153835499Y-125493502D01*
X154342248Y-125832101D01*
X154940000Y-125951001D01*
X155537752Y-125832101D01*
X156044501Y-125493502D01*
X156210000Y-125245815D01*
X156375499Y-125493502D01*
X156882248Y-125832101D01*
X157480000Y-125951001D01*
X158077752Y-125832101D01*
X158584501Y-125493502D01*
X158750000Y-125245815D01*
X158915499Y-125493502D01*
X159422248Y-125832101D01*
X160020000Y-125951001D01*
X160617752Y-125832101D01*
X161124501Y-125493502D01*
X161290000Y-125245815D01*
X161455499Y-125493502D01*
X161962248Y-125832101D01*
X162560000Y-125951001D01*
X163157752Y-125832101D01*
X163664501Y-125493502D01*
X163830000Y-125245815D01*
X163995499Y-125493502D01*
X164502248Y-125832101D01*
X165100000Y-125951001D01*
X165697752Y-125832101D01*
X166204501Y-125493502D01*
X166370000Y-125245815D01*
X166535499Y-125493502D01*
X167042248Y-125832101D01*
X167640000Y-125951001D01*
X168237752Y-125832101D01*
X168744501Y-125493502D01*
X168910000Y-125245815D01*
X169075499Y-125493502D01*
X169582248Y-125832101D01*
X170180000Y-125951001D01*
X170777752Y-125832101D01*
X171284501Y-125493502D01*
X171450000Y-125245815D01*
X171615499Y-125493502D01*
X172122248Y-125832101D01*
X172720000Y-125951001D01*
X173317752Y-125832101D01*
X173824501Y-125493502D01*
X173990000Y-125245815D01*
X174155499Y-125493502D01*
X174662248Y-125832101D01*
X175260000Y-125951001D01*
X175857752Y-125832101D01*
X176364501Y-125493502D01*
X176530000Y-125245815D01*
X176695499Y-125493502D01*
X177202248Y-125832101D01*
X177800000Y-125951001D01*
X178397752Y-125832101D01*
X178904501Y-125493502D01*
X179070000Y-125245815D01*
X179235499Y-125493502D01*
X179378000Y-125588718D01*
X179378000Y-126815343D01*
X179325039Y-126892853D01*
X179280908Y-126824271D01*
X179026269Y-126650283D01*
X178724000Y-126589072D01*
X178024000Y-126589072D01*
X177741620Y-126642205D01*
X177482271Y-126809092D01*
X177308283Y-127063731D01*
X177247072Y-127366000D01*
X177247072Y-127782454D01*
X177147703Y-127881823D01*
X176939168Y-128193918D01*
X176901330Y-128384141D01*
X176865940Y-128562060D01*
X176865940Y-130336884D01*
X176758795Y-130408476D01*
X176557940Y-130709076D01*
X176357085Y-130408476D01*
X175866557Y-130080715D01*
X175287940Y-129965621D01*
X174709323Y-130080715D01*
X174218795Y-130408476D01*
X174017940Y-130709076D01*
X173817085Y-130408476D01*
X173326557Y-130080715D01*
X172747940Y-129965621D01*
X172169323Y-130080715D01*
X171678795Y-130408476D01*
X171477940Y-130709076D01*
X171277085Y-130408476D01*
X170786557Y-130080715D01*
X170207940Y-129965621D01*
X169629323Y-130080715D01*
X169138795Y-130408476D01*
X168811034Y-130899004D01*
X168695940Y-131477621D01*
X168695940Y-132250579D01*
X168811034Y-132829196D01*
X169138795Y-133319724D01*
X169629323Y-133647485D01*
X170207940Y-133762579D01*
X170786557Y-133647485D01*
X171277085Y-133319724D01*
X171477940Y-133019124D01*
X171678795Y-133319724D01*
X172169323Y-133647485D01*
X172747940Y-133762579D01*
X173326557Y-133647485D01*
X173817085Y-133319724D01*
X174017940Y-133019124D01*
X174218795Y-133319724D01*
X174709323Y-133647485D01*
X175287940Y-133762579D01*
X175866557Y-133647485D01*
X176357085Y-133319724D01*
X176557940Y-133019124D01*
X176758795Y-133319724D01*
X177249323Y-133647485D01*
X177827940Y-133762579D01*
X178406557Y-133647485D01*
X178897085Y-133319724D01*
X179224846Y-132829196D01*
X179298165Y-132460595D01*
X188815898Y-132460595D01*
X189273481Y-133568032D01*
X190120031Y-134416061D01*
X191226668Y-134875576D01*
X192424915Y-134876622D01*
X193532352Y-134419039D01*
X194380381Y-133572489D01*
X194839896Y-132465852D01*
X194840942Y-131267605D01*
X194383359Y-130160168D01*
X193536809Y-129312139D01*
X192430172Y-128852624D01*
X191231925Y-128851578D01*
X190124488Y-129309161D01*
X189276459Y-130155711D01*
X188816944Y-131262348D01*
X188815898Y-132460595D01*
X179298165Y-132460595D01*
X179339940Y-132250579D01*
X179339940Y-131477621D01*
X179224846Y-130899004D01*
X178897085Y-130408476D01*
X178789940Y-130336884D01*
X178789940Y-129430521D01*
X179006380Y-129389795D01*
X179265729Y-129222908D01*
X179322961Y-129139147D01*
X179367092Y-129207729D01*
X179621731Y-129381717D01*
X179924000Y-129442928D01*
X180624000Y-129442928D01*
X180906380Y-129389795D01*
X181165729Y-129222908D01*
X181333068Y-128978000D01*
X182623072Y-128978000D01*
X182623072Y-129140000D01*
X182676205Y-129422380D01*
X182843092Y-129681729D01*
X183097731Y-129855717D01*
X183400000Y-129916928D01*
X184900000Y-129916928D01*
X185182380Y-129863795D01*
X185441729Y-129696908D01*
X185615717Y-129442269D01*
X185676928Y-129140000D01*
X185676928Y-127190000D01*
X185623795Y-126907620D01*
X185456908Y-126648271D01*
X185202269Y-126474283D01*
X184900000Y-126413072D01*
X183400000Y-126413072D01*
X183117620Y-126466205D01*
X182858271Y-126633092D01*
X182684283Y-126887731D01*
X182650613Y-127054000D01*
X181328735Y-127054000D01*
X181302000Y-127012453D01*
X181302000Y-125588718D01*
X181444501Y-125493502D01*
X181783100Y-124986753D01*
X181902000Y-124389001D01*
X181902000Y-124327799D01*
X183858000Y-124327799D01*
X183858000Y-124389001D01*
X183976900Y-124986753D01*
X184315499Y-125493502D01*
X184822248Y-125832101D01*
X185420000Y-125951001D01*
X186017752Y-125832101D01*
X186524501Y-125493502D01*
X186863100Y-124986753D01*
X186982000Y-124389001D01*
X186982000Y-124327799D01*
X186863100Y-123730047D01*
X186524501Y-123223298D01*
X186017752Y-122884699D01*
X185420000Y-122765799D01*
X184822248Y-122884699D01*
X184315499Y-123223298D01*
X183976900Y-123730047D01*
X183858000Y-124327799D01*
X181902000Y-124327799D01*
X181783100Y-123730047D01*
X181444501Y-123223298D01*
X180937752Y-122884699D01*
X180340000Y-122765799D01*
X179742248Y-122884699D01*
X179235499Y-123223298D01*
X179070000Y-123470985D01*
X178904501Y-123223298D01*
X178397752Y-122884699D01*
X177800000Y-122765799D01*
X177202248Y-122884699D01*
X176695499Y-123223298D01*
X176530000Y-123470985D01*
X176364501Y-123223298D01*
X175857752Y-122884699D01*
X175260000Y-122765799D01*
X174662248Y-122884699D01*
X174155499Y-123223298D01*
X173990000Y-123470985D01*
X173824501Y-123223298D01*
X173317752Y-122884699D01*
X172720000Y-122765799D01*
X172122248Y-122884699D01*
X171615499Y-123223298D01*
X171450000Y-123470985D01*
X171284501Y-123223298D01*
X170777752Y-122884699D01*
X170180000Y-122765799D01*
X169582248Y-122884699D01*
X169075499Y-123223298D01*
X168910000Y-123470985D01*
X168744501Y-123223298D01*
X168237752Y-122884699D01*
X167640000Y-122765799D01*
X167042248Y-122884699D01*
X166535499Y-123223298D01*
X166370000Y-123470985D01*
X166204501Y-123223298D01*
X165697752Y-122884699D01*
X165100000Y-122765799D01*
X164502248Y-122884699D01*
X163995499Y-123223298D01*
X163830000Y-123470985D01*
X163664501Y-123223298D01*
X163157752Y-122884699D01*
X162560000Y-122765799D01*
X161962248Y-122884699D01*
X161455499Y-123223298D01*
X161290000Y-123470985D01*
X161124501Y-123223298D01*
X160617752Y-122884699D01*
X160020000Y-122765799D01*
X159422248Y-122884699D01*
X158915499Y-123223298D01*
X158750000Y-123470985D01*
X158584501Y-123223298D01*
X158077752Y-122884699D01*
X157480000Y-122765799D01*
X156882248Y-122884699D01*
X156375499Y-123223298D01*
X156210000Y-123470985D01*
X156044501Y-123223298D01*
X155537752Y-122884699D01*
X154940000Y-122765799D01*
X154342248Y-122884699D01*
X153835499Y-123223298D01*
X153670000Y-123470985D01*
X153504501Y-123223298D01*
X152997752Y-122884699D01*
X152400000Y-122765799D01*
X151802248Y-122884699D01*
X151295499Y-123223298D01*
X151130000Y-123470985D01*
X150964501Y-123223298D01*
X150822000Y-123128082D01*
X150822000Y-123037600D01*
X150748772Y-122669459D01*
X150540237Y-122357363D01*
X150540234Y-122357361D01*
X149067037Y-120884163D01*
X148754942Y-120675628D01*
X148386800Y-120602400D01*
X132181600Y-120602400D01*
X131813458Y-120675628D01*
X131501363Y-120884163D01*
X130332963Y-122052563D01*
X130308966Y-122088477D01*
X130080820Y-122131405D01*
X129821471Y-122298292D01*
X129647483Y-122552931D01*
X129586272Y-122855200D01*
X129586272Y-123555200D01*
X129639405Y-123837580D01*
X129806292Y-124096929D01*
X129890053Y-124154161D01*
X129821471Y-124198292D01*
X129647483Y-124452931D01*
X129586272Y-124755200D01*
X129586272Y-125455200D01*
X129639405Y-125737580D01*
X129806292Y-125996929D01*
X130051200Y-126164268D01*
X130051200Y-126336672D01*
X129990800Y-126336672D01*
X129708420Y-126389805D01*
X129449071Y-126556692D01*
X129275083Y-126811331D01*
X129213872Y-127113600D01*
X117827400Y-127113600D01*
X117827400Y-122656600D01*
X117754172Y-122288459D01*
X117754172Y-122288458D01*
X117545637Y-121976363D01*
X116395600Y-120826326D01*
X116395600Y-118124012D01*
X116475329Y-118072708D01*
X116649317Y-117818069D01*
X116710528Y-117515800D01*
X116710528Y-116265800D01*
X116657395Y-115983420D01*
X116542776Y-115805297D01*
X116611834Y-115736239D01*
X116611837Y-115736237D01*
X116687351Y-115623222D01*
X116813980Y-115599395D01*
X117073329Y-115432508D01*
X117247317Y-115177869D01*
X117308528Y-114875600D01*
X117308528Y-112675600D01*
X119114672Y-112675600D01*
X119114672Y-114875600D01*
X119167805Y-115157980D01*
X119334692Y-115417329D01*
X119589331Y-115591317D01*
X119595928Y-115592653D01*
X119602828Y-115627342D01*
X119811363Y-115939437D01*
X119829056Y-115957130D01*
X119824683Y-115963531D01*
X119763472Y-116265800D01*
X119763472Y-117515800D01*
X119816605Y-117798180D01*
X119983492Y-118057529D01*
X120238131Y-118231517D01*
X120540400Y-118292728D01*
X121540400Y-118292728D01*
X121822780Y-118239595D01*
X122082129Y-118072708D01*
X122232386Y-117852800D01*
X123342400Y-117852800D01*
X123710542Y-117779572D01*
X124022637Y-117571037D01*
X124782274Y-116811400D01*
X125889072Y-116811400D01*
X125889072Y-117124400D01*
X125942205Y-117406780D01*
X126109092Y-117666129D01*
X126363731Y-117840117D01*
X126666000Y-117901328D01*
X127054000Y-117901328D01*
X127054000Y-121521526D01*
X125369766Y-123205760D01*
X125129211Y-123305155D01*
X124830205Y-123603640D01*
X124668185Y-123993828D01*
X124667816Y-124416318D01*
X124829155Y-124806789D01*
X125127640Y-125105795D01*
X125517828Y-125267815D01*
X125940318Y-125268184D01*
X126330789Y-125106845D01*
X126629795Y-124808360D01*
X126730401Y-124566073D01*
X128696237Y-122600237D01*
X128904772Y-122288142D01*
X128978000Y-121920000D01*
X128978000Y-117901328D01*
X129366000Y-117901328D01*
X129648380Y-117848195D01*
X129907729Y-117681308D01*
X130081717Y-117426669D01*
X130142928Y-117124400D01*
X130142928Y-116811400D01*
X131140200Y-116811400D01*
X131508342Y-116738172D01*
X131820437Y-116529637D01*
X133014237Y-115335837D01*
X133222772Y-115023742D01*
X133296000Y-114655600D01*
X133296000Y-109087799D01*
X140678000Y-109087799D01*
X140678000Y-109149001D01*
X140796900Y-109746753D01*
X141135499Y-110253502D01*
X141642248Y-110592101D01*
X142240000Y-110711001D01*
X142837752Y-110592101D01*
X143344501Y-110253502D01*
X143510000Y-110005815D01*
X143675499Y-110253502D01*
X144182248Y-110592101D01*
X144780000Y-110711001D01*
X145377752Y-110592101D01*
X145884501Y-110253502D01*
X146050000Y-110005815D01*
X146215499Y-110253502D01*
X146722248Y-110592101D01*
X147320000Y-110711001D01*
X147917752Y-110592101D01*
X148424501Y-110253502D01*
X148590000Y-110005815D01*
X148755499Y-110253502D01*
X149262248Y-110592101D01*
X149860000Y-110711001D01*
X150457752Y-110592101D01*
X150964501Y-110253502D01*
X151130000Y-110005815D01*
X151295499Y-110253502D01*
X151802248Y-110592101D01*
X152400000Y-110711001D01*
X152997752Y-110592101D01*
X153504501Y-110253502D01*
X153670000Y-110005815D01*
X153835499Y-110253502D01*
X154342248Y-110592101D01*
X154940000Y-110711001D01*
X155537752Y-110592101D01*
X156044501Y-110253502D01*
X156210000Y-110005815D01*
X156375499Y-110253502D01*
X156882248Y-110592101D01*
X157480000Y-110711001D01*
X158077752Y-110592101D01*
X158584501Y-110253502D01*
X158750000Y-110005815D01*
X158915499Y-110253502D01*
X159422248Y-110592101D01*
X160020000Y-110711001D01*
X160617752Y-110592101D01*
X161124501Y-110253502D01*
X161290000Y-110005815D01*
X161455499Y-110253502D01*
X161962248Y-110592101D01*
X162560000Y-110711001D01*
X163157752Y-110592101D01*
X163664501Y-110253502D01*
X163830000Y-110005815D01*
X163995499Y-110253502D01*
X164502248Y-110592101D01*
X165100000Y-110711001D01*
X165697752Y-110592101D01*
X166204501Y-110253502D01*
X166370000Y-110005815D01*
X166535499Y-110253502D01*
X167042248Y-110592101D01*
X167640000Y-110711001D01*
X168237752Y-110592101D01*
X168744501Y-110253502D01*
X168910000Y-110005815D01*
X169075499Y-110253502D01*
X169582248Y-110592101D01*
X170180000Y-110711001D01*
X170777752Y-110592101D01*
X171284501Y-110253502D01*
X171450000Y-110005815D01*
X171615499Y-110253502D01*
X172122248Y-110592101D01*
X172720000Y-110711001D01*
X173317752Y-110592101D01*
X173824501Y-110253502D01*
X173990000Y-110005815D01*
X174155499Y-110253502D01*
X174662248Y-110592101D01*
X175260000Y-110711001D01*
X175857752Y-110592101D01*
X176364501Y-110253502D01*
X176530000Y-110005815D01*
X176695499Y-110253502D01*
X177202248Y-110592101D01*
X177800000Y-110711001D01*
X178397752Y-110592101D01*
X178904501Y-110253502D01*
X179070000Y-110005815D01*
X179235499Y-110253502D01*
X179742248Y-110592101D01*
X180340000Y-110711001D01*
X180937752Y-110592101D01*
X181444501Y-110253502D01*
X181610000Y-110005815D01*
X181775499Y-110253502D01*
X182282248Y-110592101D01*
X182880000Y-110711001D01*
X183477752Y-110592101D01*
X183946479Y-110278908D01*
X184063092Y-110460129D01*
X184317731Y-110634117D01*
X184620000Y-110695328D01*
X186220000Y-110695328D01*
X186502380Y-110642195D01*
X186761729Y-110475308D01*
X186935717Y-110220669D01*
X186996928Y-109918400D01*
X186996928Y-108318400D01*
X186943795Y-108036020D01*
X186776908Y-107776671D01*
X186522269Y-107602683D01*
X186220000Y-107541472D01*
X184620000Y-107541472D01*
X184337620Y-107594605D01*
X184078271Y-107761492D01*
X183944829Y-107956790D01*
X183477752Y-107644699D01*
X182880000Y-107525799D01*
X182282248Y-107644699D01*
X181775499Y-107983298D01*
X181610000Y-108230985D01*
X181444501Y-107983298D01*
X180937752Y-107644699D01*
X180340000Y-107525799D01*
X179742248Y-107644699D01*
X179235499Y-107983298D01*
X179070000Y-108230985D01*
X178904501Y-107983298D01*
X178397752Y-107644699D01*
X177800000Y-107525799D01*
X177202248Y-107644699D01*
X176695499Y-107983298D01*
X176530000Y-108230985D01*
X176364501Y-107983298D01*
X175857752Y-107644699D01*
X175260000Y-107525799D01*
X174662248Y-107644699D01*
X174155499Y-107983298D01*
X173990000Y-108230985D01*
X173824501Y-107983298D01*
X173317752Y-107644699D01*
X172720000Y-107525799D01*
X172122248Y-107644699D01*
X171615499Y-107983298D01*
X171450000Y-108230985D01*
X171284501Y-107983298D01*
X170777752Y-107644699D01*
X170180000Y-107525799D01*
X169582248Y-107644699D01*
X169075499Y-107983298D01*
X168910000Y-108230985D01*
X168744501Y-107983298D01*
X168237752Y-107644699D01*
X167640000Y-107525799D01*
X167042248Y-107644699D01*
X166535499Y-107983298D01*
X166370000Y-108230985D01*
X166204501Y-107983298D01*
X165697752Y-107644699D01*
X165100000Y-107525799D01*
X164502248Y-107644699D01*
X163995499Y-107983298D01*
X163830000Y-108230985D01*
X163664501Y-107983298D01*
X163157752Y-107644699D01*
X162560000Y-107525799D01*
X161962248Y-107644699D01*
X161455499Y-107983298D01*
X161290000Y-108230985D01*
X161124501Y-107983298D01*
X160617752Y-107644699D01*
X160020000Y-107525799D01*
X159422248Y-107644699D01*
X158915499Y-107983298D01*
X158750000Y-108230985D01*
X158584501Y-107983298D01*
X158077752Y-107644699D01*
X157480000Y-107525799D01*
X156882248Y-107644699D01*
X156375499Y-107983298D01*
X156210000Y-108230985D01*
X156044501Y-107983298D01*
X155537752Y-107644699D01*
X154940000Y-107525799D01*
X154342248Y-107644699D01*
X153835499Y-107983298D01*
X153670000Y-108230985D01*
X153504501Y-107983298D01*
X152997752Y-107644699D01*
X152400000Y-107525799D01*
X151802248Y-107644699D01*
X151295499Y-107983298D01*
X151130000Y-108230985D01*
X150964501Y-107983298D01*
X150457752Y-107644699D01*
X149860000Y-107525799D01*
X149262248Y-107644699D01*
X148755499Y-107983298D01*
X148590000Y-108230985D01*
X148424501Y-107983298D01*
X147917752Y-107644699D01*
X147320000Y-107525799D01*
X146722248Y-107644699D01*
X146215499Y-107983298D01*
X146050000Y-108230985D01*
X145884501Y-107983298D01*
X145377752Y-107644699D01*
X144780000Y-107525799D01*
X144182248Y-107644699D01*
X143675499Y-107983298D01*
X143510000Y-108230985D01*
X143344501Y-107983298D01*
X142837752Y-107644699D01*
X142240000Y-107525799D01*
X141642248Y-107644699D01*
X141135499Y-107983298D01*
X140796900Y-108490047D01*
X140678000Y-109087799D01*
X133296000Y-109087799D01*
X133296000Y-106121200D01*
X133222772Y-105753059D01*
X133014237Y-105440963D01*
X133014234Y-105440961D01*
X131525837Y-103952563D01*
X131213742Y-103744028D01*
X130845600Y-103670800D01*
X128245011Y-103670800D01*
X128293329Y-103639708D01*
X128467317Y-103385069D01*
X128528528Y-103082800D01*
X128528528Y-102382800D01*
X128475395Y-102100420D01*
X128308508Y-101841071D01*
X128116000Y-101709535D01*
X128116000Y-98254446D01*
X128236380Y-98231795D01*
X128495729Y-98064908D01*
X128669717Y-97810269D01*
X128730928Y-97508000D01*
X128730928Y-94008000D01*
X128677795Y-93725620D01*
X128510908Y-93466271D01*
X128256269Y-93292283D01*
X127954000Y-93231072D01*
X126354000Y-93231072D01*
X126071620Y-93284205D01*
X125812271Y-93451092D01*
X125638283Y-93705731D01*
X125577072Y-94008000D01*
X125577072Y-97508000D01*
X125630205Y-97790380D01*
X125797092Y-98049729D01*
X126051731Y-98223717D01*
X126192000Y-98252122D01*
X126192000Y-101654719D01*
X126169220Y-101659005D01*
X125909871Y-101825892D01*
X125735883Y-102080531D01*
X125674672Y-102382800D01*
X125674672Y-103082800D01*
X125727805Y-103365180D01*
X125894692Y-103624529D01*
X125978453Y-103681761D01*
X125909871Y-103725892D01*
X125735883Y-103980531D01*
X125674672Y-104282800D01*
X125674672Y-104982800D01*
X125727805Y-105265180D01*
X125894692Y-105524529D01*
X126149331Y-105698517D01*
X126451600Y-105759728D01*
X127751600Y-105759728D01*
X128033980Y-105706595D01*
X128207714Y-105594800D01*
X130447126Y-105594800D01*
X131372000Y-106519673D01*
X131372000Y-114257126D01*
X130741726Y-114887400D01*
X130142928Y-114887400D01*
X130142928Y-114574400D01*
X130089795Y-114292020D01*
X129922908Y-114032671D01*
X129668269Y-113858683D01*
X129366000Y-113797472D01*
X126666000Y-113797472D01*
X126383620Y-113850605D01*
X126124271Y-114017492D01*
X125950283Y-114272131D01*
X125889072Y-114574400D01*
X125889072Y-114887400D01*
X124383800Y-114887400D01*
X124015658Y-114960628D01*
X123703563Y-115169163D01*
X122943926Y-115928800D01*
X122229048Y-115928800D01*
X122097308Y-115724071D01*
X121968152Y-115635822D01*
X121929172Y-115439859D01*
X121780420Y-115217234D01*
X121807317Y-115177869D01*
X121868528Y-114875600D01*
X121868528Y-112675600D01*
X121815395Y-112393220D01*
X121648508Y-112133871D01*
X121393869Y-111959883D01*
X121091600Y-111898672D01*
X119891600Y-111898672D01*
X119609220Y-111951805D01*
X119349871Y-112118692D01*
X119175883Y-112373331D01*
X119114672Y-112675600D01*
X117308528Y-112675600D01*
X117255395Y-112393220D01*
X117088508Y-112133871D01*
X116833869Y-111959883D01*
X116531600Y-111898672D01*
X115331600Y-111898672D01*
X115049220Y-111951805D01*
X114789871Y-112118692D01*
X114615883Y-112373331D01*
X114554672Y-112675600D01*
X114554672Y-114875600D01*
X114598060Y-115106190D01*
X114544828Y-115185858D01*
X114514995Y-115335837D01*
X114471600Y-115554000D01*
X114471600Y-115657588D01*
X114391871Y-115708892D01*
X114217883Y-115963531D01*
X114156672Y-116265800D01*
X114156672Y-117515800D01*
X114209805Y-117798180D01*
X114376692Y-118057529D01*
X114471600Y-118122377D01*
X114471600Y-121224800D01*
X114544828Y-121592942D01*
X114753363Y-121905037D01*
X115903400Y-123055074D01*
X115903400Y-127921072D01*
X115590400Y-127921072D01*
X115308020Y-127974205D01*
X115048671Y-128141092D01*
X114874683Y-128395731D01*
X114813472Y-128698000D01*
X114813472Y-129215078D01*
X114584963Y-129367763D01*
X113734936Y-130217790D01*
X113711308Y-130181071D01*
X113456669Y-130007083D01*
X113154400Y-129945872D01*
X109654400Y-129945872D01*
X109372020Y-129999005D01*
X109112671Y-130165892D01*
X108938683Y-130420531D01*
X108877472Y-130722800D01*
X106614994Y-130722800D01*
X106382519Y-130160168D01*
X105535969Y-129312139D01*
X104429332Y-128852624D01*
X103231085Y-128851578D01*
X102123648Y-129309161D01*
X101275619Y-130155711D01*
X100816104Y-131262348D01*
X100815058Y-132460595D01*
X90499000Y-132460595D01*
X90499000Y-123722000D01*
X92973072Y-123722000D01*
X92973072Y-126722000D01*
X93026205Y-127004380D01*
X93193092Y-127263729D01*
X93447731Y-127437717D01*
X93750000Y-127498928D01*
X96750000Y-127498928D01*
X97032380Y-127445795D01*
X97291729Y-127278908D01*
X97465717Y-127024269D01*
X97526928Y-126722000D01*
X97526928Y-123722000D01*
X97473795Y-123439620D01*
X97306908Y-123180271D01*
X97052269Y-123006283D01*
X96750000Y-122945072D01*
X96278760Y-122945072D01*
X96449717Y-122694869D01*
X96452971Y-122678800D01*
X96883526Y-122678800D01*
X97617763Y-123413037D01*
X97929858Y-123621572D01*
X98298000Y-123694800D01*
X99150272Y-123694800D01*
X99150272Y-123882800D01*
X99203405Y-124165180D01*
X99370292Y-124424529D01*
X99624931Y-124598517D01*
X99927200Y-124659728D01*
X102427200Y-124659728D01*
X102709580Y-124606595D01*
X102968929Y-124439708D01*
X103142917Y-124185069D01*
X103204128Y-123882800D01*
X103204128Y-121582800D01*
X103450272Y-121582800D01*
X103450272Y-123882800D01*
X103503405Y-124165180D01*
X103670292Y-124424529D01*
X103924931Y-124598517D01*
X104227200Y-124659728D01*
X106718000Y-124659728D01*
X106718000Y-125411188D01*
X106638271Y-125462492D01*
X106464283Y-125717131D01*
X106403072Y-126019400D01*
X106403072Y-127269400D01*
X106456205Y-127551780D01*
X106623092Y-127811129D01*
X106877731Y-127985117D01*
X107180000Y-128046328D01*
X108180000Y-128046328D01*
X108462380Y-127993195D01*
X108721729Y-127826308D01*
X108871986Y-127606400D01*
X108908255Y-127606400D01*
X108930605Y-127725180D01*
X109097492Y-127984529D01*
X109352131Y-128158517D01*
X109654400Y-128219728D01*
X113154400Y-128219728D01*
X113436780Y-128166595D01*
X113696129Y-127999708D01*
X113870117Y-127745069D01*
X113931328Y-127442800D01*
X113931328Y-125842800D01*
X113878195Y-125560420D01*
X113711308Y-125301071D01*
X113456669Y-125127083D01*
X113154400Y-125065872D01*
X109654400Y-125065872D01*
X109372020Y-125119005D01*
X109112671Y-125285892D01*
X108938683Y-125540531D01*
X108909954Y-125682400D01*
X108868648Y-125682400D01*
X108736908Y-125477671D01*
X108642000Y-125412823D01*
X108642000Y-123326400D01*
X108600227Y-123116395D01*
X108568772Y-122958258D01*
X108360237Y-122646163D01*
X107766637Y-122052563D01*
X107504128Y-121877160D01*
X107504128Y-121582800D01*
X107450995Y-121300420D01*
X107284108Y-121041071D01*
X107029469Y-120867083D01*
X106727200Y-120805872D01*
X104227200Y-120805872D01*
X103944820Y-120859005D01*
X103685471Y-121025892D01*
X103511483Y-121280531D01*
X103450272Y-121582800D01*
X103204128Y-121582800D01*
X103150995Y-121300420D01*
X102984108Y-121041071D01*
X102729469Y-120867083D01*
X102427200Y-120805872D01*
X99927200Y-120805872D01*
X99644820Y-120859005D01*
X99385471Y-121025892D01*
X99211483Y-121280531D01*
X99150272Y-121582800D01*
X99150272Y-121770800D01*
X98696474Y-121770800D01*
X97962237Y-121036563D01*
X97650142Y-120828028D01*
X97282000Y-120754800D01*
X96389959Y-120754800D01*
X96290908Y-120600871D01*
X96036269Y-120426883D01*
X95734000Y-120365672D01*
X94734000Y-120365672D01*
X94451620Y-120418805D01*
X94192271Y-120585692D01*
X94018283Y-120840331D01*
X93957072Y-121142600D01*
X93957072Y-122392600D01*
X94010205Y-122674980D01*
X94177092Y-122934329D01*
X94192815Y-122945072D01*
X93750000Y-122945072D01*
X93467620Y-122998205D01*
X93208271Y-123165092D01*
X93034283Y-123419731D01*
X92973072Y-123722000D01*
X90499000Y-123722000D01*
X90499000Y-114039346D01*
X91000894Y-114039346D01*
X91268578Y-114687189D01*
X91763804Y-115183280D01*
X92411179Y-115452094D01*
X93112146Y-115452706D01*
X93759989Y-115185022D01*
X94256080Y-114689796D01*
X94271608Y-114652400D01*
X97754203Y-114652400D01*
X97768578Y-114687189D01*
X98263804Y-115183280D01*
X98911179Y-115452094D01*
X99612146Y-115452706D01*
X100259989Y-115185022D01*
X100756080Y-114689796D01*
X101024894Y-114042421D01*
X101025506Y-113341454D01*
X100757822Y-112693611D01*
X100262596Y-112197520D01*
X99615221Y-111928706D01*
X98914254Y-111928094D01*
X98266411Y-112195778D01*
X97770320Y-112691004D01*
X97754792Y-112728400D01*
X94272197Y-112728400D01*
X94257822Y-112693611D01*
X93762596Y-112197520D01*
X93725200Y-112181992D01*
X93725200Y-112136415D01*
X93876729Y-112038908D01*
X94050717Y-111784269D01*
X94111928Y-111482000D01*
X94111928Y-110482000D01*
X94058795Y-110199620D01*
X93891908Y-109940271D01*
X93637269Y-109766283D01*
X93335000Y-109705072D01*
X92085000Y-109705072D01*
X91802620Y-109758205D01*
X91543271Y-109925092D01*
X91369283Y-110179731D01*
X91308072Y-110482000D01*
X91308072Y-111482000D01*
X91361205Y-111764380D01*
X91528092Y-112023729D01*
X91774813Y-112192307D01*
X91766411Y-112195778D01*
X91270320Y-112691004D01*
X91001506Y-113338379D01*
X91000894Y-114039346D01*
X90499000Y-114039346D01*
X90499000Y-102253746D01*
X91000894Y-102253746D01*
X91268578Y-102901589D01*
X91763804Y-103397680D01*
X92411179Y-103666494D01*
X93112146Y-103667106D01*
X93759989Y-103399422D01*
X94256080Y-102904196D01*
X94271608Y-102866800D01*
X97754203Y-102866800D01*
X97768578Y-102901589D01*
X98263804Y-103397680D01*
X98911179Y-103666494D01*
X99612146Y-103667106D01*
X100259989Y-103399422D01*
X100756080Y-102904196D01*
X101024894Y-102256821D01*
X101025506Y-101555854D01*
X100757822Y-100908011D01*
X100262596Y-100411920D01*
X99615221Y-100143106D01*
X98914254Y-100142494D01*
X98266411Y-100410178D01*
X97770320Y-100905404D01*
X97754792Y-100942800D01*
X94272197Y-100942800D01*
X94257822Y-100908011D01*
X93772583Y-100421924D01*
X93876729Y-100354908D01*
X94050717Y-100100269D01*
X94111928Y-99798000D01*
X94111928Y-98798000D01*
X94058795Y-98515620D01*
X93891908Y-98256271D01*
X93637269Y-98082283D01*
X93335000Y-98021072D01*
X92085000Y-98021072D01*
X91802620Y-98074205D01*
X91543271Y-98241092D01*
X91369283Y-98495731D01*
X91308072Y-98798000D01*
X91308072Y-99798000D01*
X91361205Y-100080380D01*
X91528092Y-100339729D01*
X91711468Y-100465025D01*
X91270320Y-100905404D01*
X91001506Y-101552779D01*
X91000894Y-102253746D01*
X90499000Y-102253746D01*
X90499000Y-95008000D01*
X116971072Y-95008000D01*
X116971072Y-96508000D01*
X117024205Y-96790380D01*
X117191092Y-97049729D01*
X117445731Y-97223717D01*
X117748000Y-97284928D01*
X119698000Y-97284928D01*
X119980380Y-97231795D01*
X120239729Y-97064908D01*
X120413717Y-96810269D01*
X120431997Y-96720000D01*
X120697072Y-96720000D01*
X120697072Y-97508000D01*
X120750205Y-97790380D01*
X120917092Y-98049729D01*
X121171731Y-98223717D01*
X121474000Y-98284928D01*
X123074000Y-98284928D01*
X123356380Y-98231795D01*
X123615729Y-98064908D01*
X123789717Y-97810269D01*
X123850928Y-97508000D01*
X123850928Y-94008000D01*
X123797795Y-93725620D01*
X123630908Y-93466271D01*
X123376269Y-93292283D01*
X123074000Y-93231072D01*
X121474000Y-93231072D01*
X121191620Y-93284205D01*
X120932271Y-93451092D01*
X120758283Y-93705731D01*
X120697072Y-94008000D01*
X120697072Y-94796000D01*
X120435038Y-94796000D01*
X120421795Y-94725620D01*
X120254908Y-94466271D01*
X120000269Y-94292283D01*
X119698000Y-94231072D01*
X119685000Y-94231072D01*
X119685000Y-93814765D01*
X119781415Y-93582572D01*
X119781784Y-93160082D01*
X119620445Y-92769611D01*
X119321960Y-92470605D01*
X118931772Y-92308585D01*
X118509282Y-92308216D01*
X118118811Y-92469555D01*
X117819805Y-92768040D01*
X117657785Y-93158228D01*
X117657416Y-93580718D01*
X117761000Y-93831411D01*
X117761000Y-94231072D01*
X117748000Y-94231072D01*
X117465620Y-94284205D01*
X117206271Y-94451092D01*
X117032283Y-94705731D01*
X116971072Y-95008000D01*
X90499000Y-95008000D01*
X90499000Y-90468146D01*
X91000894Y-90468146D01*
X91268578Y-91115989D01*
X91763804Y-91612080D01*
X92411179Y-91880894D01*
X93112146Y-91881506D01*
X93759989Y-91613822D01*
X94256080Y-91118596D01*
X94271608Y-91081200D01*
X97754203Y-91081200D01*
X97768578Y-91115989D01*
X98263804Y-91612080D01*
X98911179Y-91880894D01*
X99612146Y-91881506D01*
X100259989Y-91613822D01*
X100756080Y-91118596D01*
X101024894Y-90471221D01*
X101025506Y-89770254D01*
X100757822Y-89122411D01*
X100262596Y-88626320D01*
X99615221Y-88357506D01*
X98914254Y-88356894D01*
X98266411Y-88624578D01*
X97770320Y-89119804D01*
X97754792Y-89157200D01*
X94272197Y-89157200D01*
X94257822Y-89122411D01*
X93762596Y-88626320D01*
X93725200Y-88610792D01*
X93725200Y-88514415D01*
X93876729Y-88416908D01*
X94050717Y-88162269D01*
X94111928Y-87860000D01*
X94111928Y-86860000D01*
X94058795Y-86577620D01*
X93891908Y-86318271D01*
X93637269Y-86144283D01*
X93335000Y-86083072D01*
X92085000Y-86083072D01*
X91802620Y-86136205D01*
X91543271Y-86303092D01*
X91369283Y-86557731D01*
X91308072Y-86860000D01*
X91308072Y-87860000D01*
X91361205Y-88142380D01*
X91528092Y-88401729D01*
X91782731Y-88575717D01*
X91801200Y-88579457D01*
X91801200Y-88610203D01*
X91766411Y-88624578D01*
X91270320Y-89119804D01*
X91001506Y-89767179D01*
X91000894Y-90468146D01*
X90499000Y-90468146D01*
X90499000Y-78530146D01*
X91000894Y-78530146D01*
X91268578Y-79177989D01*
X91763804Y-79674080D01*
X92411179Y-79942894D01*
X93112146Y-79943506D01*
X93759989Y-79675822D01*
X94256080Y-79180596D01*
X94271608Y-79143200D01*
X97754203Y-79143200D01*
X97768578Y-79177989D01*
X98263804Y-79674080D01*
X98911179Y-79942894D01*
X99612146Y-79943506D01*
X100259989Y-79675822D01*
X100756080Y-79180596D01*
X101024894Y-78533221D01*
X101025506Y-77832254D01*
X100757822Y-77184411D01*
X100262596Y-76688320D01*
X99615221Y-76419506D01*
X98914254Y-76418894D01*
X98266411Y-76686578D01*
X97770320Y-77181804D01*
X97754792Y-77219200D01*
X94272197Y-77219200D01*
X94257822Y-77184411D01*
X93834337Y-76760186D01*
X93876729Y-76732908D01*
X94050717Y-76478269D01*
X94111928Y-76176000D01*
X94111928Y-75176000D01*
X94058795Y-74893620D01*
X93891908Y-74634271D01*
X93637269Y-74460283D01*
X93335000Y-74399072D01*
X92085000Y-74399072D01*
X91802620Y-74452205D01*
X91543271Y-74619092D01*
X91369283Y-74873731D01*
X91308072Y-75176000D01*
X91308072Y-76176000D01*
X91361205Y-76458380D01*
X91528092Y-76717729D01*
X91651047Y-76801741D01*
X91270320Y-77181804D01*
X91001506Y-77829179D01*
X91000894Y-78530146D01*
X90499000Y-78530146D01*
X90499000Y-68928946D01*
X93487694Y-68928946D01*
X93755378Y-69576789D01*
X94250604Y-70072880D01*
X94897979Y-70341694D01*
X95598946Y-70342306D01*
X96246789Y-70074622D01*
X96742880Y-69579396D01*
X96758408Y-69542000D01*
X98813926Y-69542000D01*
X100665763Y-71393837D01*
X100977858Y-71602372D01*
X101346000Y-71675600D01*
X110522505Y-71675600D01*
X110628892Y-71840929D01*
X110883531Y-72014917D01*
X111185800Y-72076128D01*
X112435800Y-72076128D01*
X112718180Y-72022995D01*
X112977529Y-71856108D01*
X113042377Y-71761200D01*
X113113523Y-71761200D01*
X113157492Y-71829529D01*
X113412131Y-72003517D01*
X113714400Y-72064728D01*
X114714400Y-72064728D01*
X114996780Y-72011595D01*
X115216772Y-71870034D01*
X115412131Y-72003517D01*
X115714400Y-72064728D01*
X115814654Y-72064728D01*
X116616961Y-72867034D01*
X116616963Y-72867037D01*
X116929059Y-73075572D01*
X117297200Y-73148800D01*
X117715714Y-73148800D01*
X117794331Y-73202517D01*
X118096600Y-73263728D01*
X119596600Y-73263728D01*
X119774231Y-73230305D01*
X120169600Y-73625674D01*
X120169600Y-75910472D01*
X120156600Y-75910472D01*
X119874220Y-75963605D01*
X119614871Y-76130492D01*
X119597329Y-76156165D01*
X119494469Y-76085883D01*
X119192200Y-76024672D01*
X117942200Y-76024672D01*
X117659820Y-76077805D01*
X117400471Y-76244692D01*
X117226483Y-76499331D01*
X117165272Y-76801600D01*
X117165272Y-77801600D01*
X117171833Y-77836468D01*
X116968400Y-77795272D01*
X115968400Y-77795272D01*
X115686020Y-77848405D01*
X115426671Y-78015292D01*
X115252683Y-78269931D01*
X115191472Y-78572200D01*
X115191472Y-79822200D01*
X115244605Y-80104580D01*
X115411492Y-80363929D01*
X115666131Y-80537917D01*
X115874594Y-80580132D01*
X114493854Y-81960872D01*
X114038000Y-81960872D01*
X113755620Y-82014005D01*
X113535628Y-82155566D01*
X113340269Y-82022083D01*
X113038000Y-81960872D01*
X112038000Y-81960872D01*
X111755620Y-82014005D01*
X111496271Y-82180892D01*
X111328840Y-82425935D01*
X111087058Y-82474028D01*
X110774963Y-82682563D01*
X109860563Y-83596963D01*
X109652028Y-83909058D01*
X109606846Y-84136205D01*
X109589655Y-84222627D01*
X109525083Y-84317131D01*
X109463872Y-84619400D01*
X109463872Y-86119400D01*
X109517005Y-86401780D01*
X109683892Y-86661129D01*
X109938531Y-86835117D01*
X110240800Y-86896328D01*
X110840800Y-86896328D01*
X111123180Y-86843195D01*
X111382529Y-86676308D01*
X111556517Y-86421669D01*
X111617728Y-86119400D01*
X111617728Y-84622889D01*
X111735731Y-84703517D01*
X112038000Y-84764728D01*
X113038000Y-84764728D01*
X113320380Y-84711595D01*
X113540372Y-84570034D01*
X113735731Y-84703517D01*
X114038000Y-84764728D01*
X115038000Y-84764728D01*
X115320380Y-84711595D01*
X115579729Y-84544708D01*
X115753717Y-84290069D01*
X115814928Y-83987800D01*
X115814928Y-83360746D01*
X117051274Y-82124400D01*
X117333988Y-82124400D01*
X117385292Y-82204129D01*
X117563020Y-82325565D01*
X117487883Y-82435531D01*
X117426672Y-82737800D01*
X117426672Y-83987800D01*
X117476761Y-84254001D01*
X117400471Y-84303092D01*
X117335623Y-84398000D01*
X117179600Y-84398000D01*
X116811459Y-84471228D01*
X116499363Y-84679763D01*
X116499361Y-84679766D01*
X115702563Y-85476563D01*
X115523268Y-85744898D01*
X115450420Y-85758605D01*
X115191071Y-85925492D01*
X115017083Y-86180131D01*
X114955872Y-86482400D01*
X114955872Y-87182400D01*
X115009005Y-87464780D01*
X115175892Y-87724129D01*
X115430531Y-87898117D01*
X115732800Y-87959328D01*
X117032800Y-87959328D01*
X117315180Y-87906195D01*
X117574529Y-87739308D01*
X117748517Y-87484669D01*
X117809728Y-87182400D01*
X117809728Y-86610102D01*
X117942200Y-86636928D01*
X119192200Y-86636928D01*
X119431408Y-86591918D01*
X119379672Y-86847400D01*
X119379672Y-87447400D01*
X119432805Y-87729780D01*
X119465007Y-87779824D01*
X119440883Y-87815131D01*
X119379672Y-88117400D01*
X119379672Y-88717400D01*
X119432805Y-88999780D01*
X119599692Y-89259129D01*
X119854331Y-89433117D01*
X120156600Y-89494328D01*
X122106600Y-89494328D01*
X122388980Y-89441195D01*
X122648329Y-89274308D01*
X122822317Y-89019669D01*
X122883528Y-88717400D01*
X122883528Y-88117400D01*
X122830395Y-87835020D01*
X122798193Y-87784976D01*
X122822317Y-87749669D01*
X122883528Y-87447400D01*
X122883528Y-86847400D01*
X122830395Y-86565020D01*
X122798193Y-86514976D01*
X122822317Y-86479669D01*
X122883528Y-86177400D01*
X122883528Y-85577400D01*
X122882023Y-85569400D01*
X125186217Y-85569400D01*
X125365428Y-85643815D01*
X125787918Y-85644184D01*
X126178389Y-85482845D01*
X126477395Y-85184360D01*
X126639415Y-84794172D01*
X126639784Y-84371682D01*
X126478445Y-83981211D01*
X126179960Y-83682205D01*
X125789772Y-83520185D01*
X125367282Y-83519816D01*
X125063345Y-83645400D01*
X124455477Y-83645400D01*
X124505815Y-83524172D01*
X124506184Y-83101682D01*
X124344845Y-82711211D01*
X124046360Y-82412205D01*
X123656172Y-82250185D01*
X123233682Y-82249816D01*
X122929745Y-82375400D01*
X122881908Y-82375400D01*
X122883528Y-82367400D01*
X122883528Y-81767400D01*
X122830395Y-81485020D01*
X122798193Y-81434976D01*
X122822317Y-81399669D01*
X122883528Y-81097400D01*
X122883528Y-80497400D01*
X122830395Y-80215020D01*
X122798193Y-80164976D01*
X122822317Y-80129669D01*
X122883528Y-79827400D01*
X122883528Y-79763118D01*
X127461816Y-79763118D01*
X127623155Y-80153589D01*
X127921640Y-80452595D01*
X128311828Y-80614615D01*
X128734318Y-80614984D01*
X128779672Y-80596244D01*
X128779672Y-81097400D01*
X128832805Y-81379780D01*
X128865007Y-81429824D01*
X128840883Y-81465131D01*
X128779672Y-81767400D01*
X128779672Y-82367400D01*
X128832805Y-82649780D01*
X128999692Y-82909129D01*
X129254331Y-83083117D01*
X129556600Y-83144328D01*
X131506600Y-83144328D01*
X131788980Y-83091195D01*
X131885012Y-83029400D01*
X131921876Y-83029400D01*
X132133466Y-83117260D01*
X131684274Y-83566452D01*
X131506600Y-83530472D01*
X129556600Y-83530472D01*
X129274220Y-83583605D01*
X129014871Y-83750492D01*
X128840883Y-84005131D01*
X128779672Y-84307400D01*
X128779672Y-84907400D01*
X128832805Y-85189780D01*
X128865007Y-85239824D01*
X128840883Y-85275131D01*
X128779672Y-85577400D01*
X128779672Y-86177400D01*
X128832805Y-86459780D01*
X128865007Y-86509824D01*
X128840883Y-86545131D01*
X128779672Y-86847400D01*
X128779672Y-87447400D01*
X128832805Y-87729780D01*
X128865007Y-87779824D01*
X128840883Y-87815131D01*
X128779672Y-88117400D01*
X128779672Y-88717400D01*
X128832805Y-88999780D01*
X128999692Y-89259129D01*
X129254331Y-89433117D01*
X129556600Y-89494328D01*
X131506600Y-89494328D01*
X131788980Y-89441195D01*
X131985965Y-89314438D01*
X132168731Y-89439317D01*
X132471000Y-89500528D01*
X133721000Y-89500528D01*
X134003380Y-89447395D01*
X134262729Y-89280508D01*
X134347376Y-89156623D01*
X134595731Y-89326317D01*
X134898000Y-89387528D01*
X135898000Y-89387528D01*
X136180380Y-89334395D01*
X136439729Y-89167508D01*
X136613717Y-88912869D01*
X136674928Y-88610600D01*
X136674928Y-87360600D01*
X136621795Y-87078220D01*
X136454908Y-86818871D01*
X136304944Y-86716405D01*
X136314729Y-86710108D01*
X136397710Y-86588661D01*
X136466092Y-86694929D01*
X136720731Y-86868917D01*
X137023000Y-86930128D01*
X137673000Y-86930128D01*
X137955380Y-86876995D01*
X138214729Y-86710108D01*
X138388717Y-86455469D01*
X138449928Y-86153200D01*
X138449928Y-84593200D01*
X138396795Y-84310820D01*
X138229908Y-84051471D01*
X138191370Y-84025139D01*
X138214729Y-84010108D01*
X138388717Y-83755469D01*
X138449928Y-83453200D01*
X138449928Y-81893200D01*
X138396795Y-81610820D01*
X138229908Y-81351471D01*
X137975269Y-81177483D01*
X137673000Y-81116272D01*
X137023000Y-81116272D01*
X136740620Y-81169405D01*
X136588697Y-81267165D01*
X136624128Y-81092200D01*
X136624128Y-79842200D01*
X136570995Y-79559820D01*
X136404108Y-79300471D01*
X136339839Y-79256558D01*
X136397710Y-79171861D01*
X136466092Y-79278129D01*
X136720731Y-79452117D01*
X137023000Y-79513328D01*
X137673000Y-79513328D01*
X137955380Y-79460195D01*
X138214729Y-79293308D01*
X138388717Y-79038669D01*
X138449928Y-78736400D01*
X138449928Y-77176400D01*
X138396795Y-76894020D01*
X138229908Y-76634671D01*
X138191370Y-76608339D01*
X138214729Y-76593308D01*
X138388717Y-76338669D01*
X138449928Y-76036400D01*
X138449928Y-74476400D01*
X138396795Y-74194020D01*
X138229908Y-73934671D01*
X137975269Y-73760683D01*
X137673000Y-73699472D01*
X137023000Y-73699472D01*
X136740620Y-73752605D01*
X136481271Y-73919492D01*
X136398290Y-74040939D01*
X136329908Y-73934671D01*
X136075269Y-73760683D01*
X135773000Y-73699472D01*
X135123000Y-73699472D01*
X134840620Y-73752605D01*
X134581271Y-73919492D01*
X134407283Y-74174131D01*
X134382928Y-74294400D01*
X134291032Y-74294400D01*
X134120972Y-74223785D01*
X133698482Y-74223416D01*
X133308011Y-74384755D01*
X133009005Y-74683240D01*
X132846985Y-75073428D01*
X132846616Y-75495918D01*
X133007955Y-75886389D01*
X133146724Y-76025400D01*
X131887486Y-76025400D01*
X131808869Y-75971683D01*
X131506600Y-75910472D01*
X129556600Y-75910472D01*
X129274220Y-75963605D01*
X129014871Y-76130492D01*
X128840883Y-76385131D01*
X128779672Y-76687400D01*
X128779672Y-77287400D01*
X128832805Y-77569780D01*
X128865007Y-77619824D01*
X128840883Y-77655131D01*
X128779672Y-77957400D01*
X128779672Y-78509048D01*
X128736172Y-78490985D01*
X128313682Y-78490616D01*
X127923211Y-78651955D01*
X127624205Y-78950440D01*
X127462185Y-79340628D01*
X127461816Y-79763118D01*
X122883528Y-79763118D01*
X122883528Y-79227400D01*
X122830395Y-78945020D01*
X122798193Y-78894976D01*
X122822317Y-78859669D01*
X122883528Y-78557400D01*
X122883528Y-77957400D01*
X122830395Y-77675020D01*
X122798193Y-77624976D01*
X122822317Y-77589669D01*
X122883528Y-77287400D01*
X122883528Y-76687400D01*
X122830395Y-76405020D01*
X122663508Y-76145671D01*
X122408869Y-75971683D01*
X122106600Y-75910472D01*
X122093600Y-75910472D01*
X122093600Y-73227205D01*
X122093601Y-73227200D01*
X122020372Y-72859058D01*
X121811837Y-72546963D01*
X120771437Y-71506563D01*
X120459342Y-71298028D01*
X120091200Y-71224800D01*
X119977486Y-71224800D01*
X119898869Y-71171083D01*
X119596600Y-71109872D01*
X118096600Y-71109872D01*
X117814220Y-71163005D01*
X117718188Y-71224800D01*
X117695673Y-71224800D01*
X117491328Y-71020455D01*
X117491328Y-70037800D01*
X117438195Y-69755420D01*
X117271308Y-69496071D01*
X117016669Y-69322083D01*
X116714400Y-69260872D01*
X115714400Y-69260872D01*
X115432020Y-69314005D01*
X115212028Y-69455566D01*
X115016669Y-69322083D01*
X114714400Y-69260872D01*
X113714400Y-69260872D01*
X113432020Y-69314005D01*
X113172671Y-69480892D01*
X112998683Y-69735531D01*
X112993873Y-69759282D01*
X112992708Y-69757471D01*
X112738069Y-69583483D01*
X112435800Y-69522272D01*
X111185800Y-69522272D01*
X110903420Y-69575405D01*
X110644071Y-69742292D01*
X110637711Y-69751600D01*
X104730040Y-69751600D01*
X105531512Y-69420439D01*
X106379541Y-68573889D01*
X106647820Y-67927800D01*
X122309672Y-67927800D01*
X122309672Y-68527800D01*
X122362805Y-68810180D01*
X122529692Y-69069529D01*
X122784331Y-69243517D01*
X123086600Y-69304728D01*
X124586600Y-69304728D01*
X124868980Y-69251595D01*
X124965012Y-69189800D01*
X125372340Y-69189800D01*
X125501892Y-69391129D01*
X125756531Y-69565117D01*
X126058800Y-69626328D01*
X127058800Y-69626328D01*
X127341180Y-69573195D01*
X127600529Y-69406308D01*
X127774517Y-69151669D01*
X127835728Y-68849400D01*
X127835728Y-67599400D01*
X127809874Y-67461995D01*
X188815898Y-67461995D01*
X189273481Y-68569432D01*
X190120031Y-69417461D01*
X191226668Y-69876976D01*
X192424915Y-69878022D01*
X193532352Y-69420439D01*
X194380381Y-68573889D01*
X194839896Y-67467252D01*
X194840942Y-66269005D01*
X194383359Y-65161568D01*
X193536809Y-64313539D01*
X192430172Y-63854024D01*
X191231925Y-63852978D01*
X190124488Y-64310561D01*
X189276459Y-65157111D01*
X188816944Y-66263748D01*
X188815898Y-67461995D01*
X127809874Y-67461995D01*
X127782595Y-67317020D01*
X127615708Y-67057671D01*
X127361069Y-66883683D01*
X127058800Y-66822472D01*
X126058800Y-66822472D01*
X125776420Y-66875605D01*
X125517071Y-67042492D01*
X125364491Y-67265800D01*
X124967486Y-67265800D01*
X124888869Y-67212083D01*
X124586600Y-67150872D01*
X123086600Y-67150872D01*
X122804220Y-67204005D01*
X122544871Y-67370892D01*
X122370883Y-67625531D01*
X122309672Y-67927800D01*
X106647820Y-67927800D01*
X106839056Y-67467252D01*
X106840102Y-66269005D01*
X106382519Y-65161568D01*
X105535969Y-64313539D01*
X104429332Y-63854024D01*
X103231085Y-63852978D01*
X102123648Y-64310561D01*
X101275619Y-65157111D01*
X100816104Y-66263748D01*
X100815058Y-67461995D01*
X101272641Y-68569432D01*
X102119191Y-69417461D01*
X102923889Y-69751600D01*
X101744474Y-69751600D01*
X99892637Y-67899763D01*
X99580542Y-67691228D01*
X99212400Y-67618000D01*
X96758997Y-67618000D01*
X96744622Y-67583211D01*
X96249396Y-67087120D01*
X95602021Y-66818306D01*
X94901054Y-66817694D01*
X94253211Y-67085378D01*
X93757120Y-67580604D01*
X93488306Y-68227979D01*
X93487694Y-68928946D01*
X90499000Y-68928946D01*
X90499000Y-63829000D01*
X194844600Y-63829000D01*
X194844600Y-134900600D01*
M02*
