G04 #@! TF.GenerationSoftware,KiCad,Pcbnew,(5.0.1)-4*
G04 #@! TF.CreationDate,2019-02-12T09:30:25+01:00*
G04 #@! TF.ProjectId,Noise_Meter,4E6F6973655F4D657465722E6B696361,rev?*
G04 #@! TF.SameCoordinates,Original*
G04 #@! TF.FileFunction,Copper,L1,Top,Signal*
G04 #@! TF.FilePolarity,Positive*
%FSLAX46Y46*%
G04 Gerber Fmt 4.6, Leading zero omitted, Abs format (unit mm)*
G04 Created by KiCad (PCBNEW (5.0.1)-4) date 12/02/2019 9:30:25*
%MOMM*%
%LPD*%
G01*
G04 APERTURE LIST*
G04 #@! TA.AperFunction,ComponentPad*
%ADD10O,1.500000X2.200000*%
G04 #@! TD*
G04 #@! TA.AperFunction,ComponentPad*
%ADD11C,4.500000*%
G04 #@! TD*
G04 #@! TA.AperFunction,ComponentPad*
%ADD12C,0.600000*%
G04 #@! TD*
G04 #@! TA.AperFunction,SMDPad,CuDef*
%ADD13R,1.250000X1.000000*%
G04 #@! TD*
G04 #@! TA.AperFunction,SMDPad,CuDef*
%ADD14R,1.000000X1.250000*%
G04 #@! TD*
G04 #@! TA.AperFunction,SMDPad,CuDef*
%ADD15R,2.550000X2.700000*%
G04 #@! TD*
G04 #@! TA.AperFunction,SMDPad,CuDef*
%ADD16R,1.950000X1.500000*%
G04 #@! TD*
G04 #@! TA.AperFunction,SMDPad,CuDef*
%ADD17R,2.700000X2.550000*%
G04 #@! TD*
G04 #@! TA.AperFunction,SMDPad,CuDef*
%ADD18R,2.500000X2.300000*%
G04 #@! TD*
G04 #@! TA.AperFunction,ComponentPad*
%ADD19C,2.200000*%
G04 #@! TD*
G04 #@! TA.AperFunction,ComponentPad*
%ADD20C,2.000000*%
G04 #@! TD*
G04 #@! TA.AperFunction,SMDPad,CuDef*
%ADD21R,3.500000X1.600000*%
G04 #@! TD*
G04 #@! TA.AperFunction,SMDPad,CuDef*
%ADD22R,1.600000X3.500000*%
G04 #@! TD*
G04 #@! TA.AperFunction,SMDPad,CuDef*
%ADD23R,1.300000X0.700000*%
G04 #@! TD*
G04 #@! TA.AperFunction,ComponentPad*
%ADD24R,1.600000X1.600000*%
G04 #@! TD*
G04 #@! TA.AperFunction,ComponentPad*
%ADD25O,1.600000X1.600000*%
G04 #@! TD*
G04 #@! TA.AperFunction,SMDPad,CuDef*
%ADD26R,1.200000X2.200000*%
G04 #@! TD*
G04 #@! TA.AperFunction,SMDPad,CuDef*
%ADD27R,5.800000X6.400000*%
G04 #@! TD*
G04 #@! TA.AperFunction,SMDPad,CuDef*
%ADD28R,2.750000X3.050000*%
G04 #@! TD*
G04 #@! TA.AperFunction,SMDPad,CuDef*
%ADD29R,1.950000X0.600000*%
G04 #@! TD*
G04 #@! TA.AperFunction,SMDPad,CuDef*
%ADD30R,1.000000X1.000000*%
G04 #@! TD*
G04 #@! TA.AperFunction,SMDPad,CuDef*
%ADD31R,4.720000X1.000000*%
G04 #@! TD*
G04 #@! TA.AperFunction,SMDPad,CuDef*
%ADD32R,3.800000X1.000000*%
G04 #@! TD*
G04 #@! TA.AperFunction,SMDPad,CuDef*
%ADD33R,1.000000X3.140000*%
G04 #@! TD*
G04 #@! TA.AperFunction,SMDPad,CuDef*
%ADD34R,1.000000X3.800000*%
G04 #@! TD*
G04 #@! TA.AperFunction,SMDPad,CuDef*
%ADD35R,0.650000X1.560000*%
G04 #@! TD*
G04 #@! TA.AperFunction,ComponentPad*
%ADD36C,3.000000*%
G04 #@! TD*
G04 #@! TA.AperFunction,ComponentPad*
%ADD37R,3.000000X3.000000*%
G04 #@! TD*
G04 #@! TA.AperFunction,ComponentPad*
%ADD38C,4.000000*%
G04 #@! TD*
G04 #@! TA.AperFunction,SMDPad,CuDef*
%ADD39R,0.600000X1.500000*%
G04 #@! TD*
G04 #@! TA.AperFunction,SMDPad,CuDef*
%ADD40R,1.500000X0.600000*%
G04 #@! TD*
G04 #@! TA.AperFunction,SMDPad,CuDef*
%ADD41R,1.500000X1.950000*%
G04 #@! TD*
G04 #@! TA.AperFunction,SMDPad,CuDef*
%ADD42R,0.700000X1.300000*%
G04 #@! TD*
G04 #@! TA.AperFunction,ViaPad*
%ADD43C,0.600000*%
G04 #@! TD*
G04 #@! TA.AperFunction,Conductor*
%ADD44C,0.400000*%
G04 #@! TD*
G04 #@! TA.AperFunction,Conductor*
%ADD45C,0.250000*%
G04 #@! TD*
G04 #@! TA.AperFunction,Conductor*
%ADD46C,0.508000*%
G04 #@! TD*
G04 APERTURE END LIST*
D10*
G04 #@! TO.P,U4,20*
G04 #@! TO.N,GNDREF*
X180367940Y-131864100D03*
G04 #@! TO.P,U4,19*
G04 #@! TO.N,Net-(C15-Pad1)*
X177827940Y-131864100D03*
G04 #@! TO.P,U4,18*
G04 #@! TO.N,Net-(U4-Pad18)*
X175287940Y-131864100D03*
G04 #@! TO.P,U4,17*
G04 #@! TO.N,Net-(C15-Pad1)*
X172747940Y-131864100D03*
G04 #@! TO.P,U4,16*
G04 #@! TO.N,Net-(U4-Pad16)*
X170207940Y-131864100D03*
G04 #@! TO.P,U4,15*
G04 #@! TO.N,GNDREF*
X167667940Y-131864100D03*
G04 #@! TO.P,U4,14*
G04 #@! TO.N,Net-(U4-Pad14)*
X165127940Y-131864100D03*
G04 #@! TO.P,U4,13*
G04 #@! TO.N,Net-(U4-Pad13)*
X162587940Y-131864100D03*
G04 #@! TO.P,U4,12*
G04 #@! TO.N,Net-(U4-Pad12)*
X160047940Y-131864100D03*
G04 #@! TO.P,U4,11*
G04 #@! TO.N,Net-(U4-Pad11)*
X157507940Y-131864100D03*
G04 #@! TO.P,U4,10*
G04 #@! TO.N,Net-(U4-Pad10)*
X154967940Y-131864100D03*
G04 #@! TO.P,U4,9*
G04 #@! TO.N,Net-(U4-Pad9)*
X152427940Y-131864100D03*
G04 #@! TO.P,U4,8*
G04 #@! TO.N,Net-(U4-Pad8)*
X149887940Y-131864100D03*
G04 #@! TO.P,U4,7*
G04 #@! TO.N,Net-(U4-Pad7)*
X147347940Y-131864100D03*
G04 #@! TO.P,U4,6*
G04 #@! TO.N,Net-(C30-Pad1)*
X144807940Y-131864100D03*
G04 #@! TO.P,U4,5*
G04 #@! TO.N,Net-(C29-Pad1)*
X142267940Y-131864100D03*
G04 #@! TO.P,U4,4*
G04 #@! TO.N,Net-(C15-Pad1)*
X139727940Y-131864100D03*
G04 #@! TO.P,U4,3*
G04 #@! TO.N,Net-(C17-Pad1)*
X137187940Y-131864100D03*
G04 #@! TO.P,U4,2*
G04 #@! TO.N,Net-(C15-Pad1)*
X134647940Y-131864100D03*
G04 #@! TO.P,U4,1*
G04 #@! TO.N,GNDREF*
X132107940Y-131864100D03*
D11*
G04 #@! TO.P,U4,*
X191828420Y-66865500D03*
X103827580Y-66865500D03*
X103827580Y-131864100D03*
X191828420Y-131864100D03*
D10*
G04 #@! TO.P,U4,1*
X132107940Y-131864100D03*
G04 #@! TO.P,U4,2*
G04 #@! TO.N,Net-(C15-Pad1)*
X134647940Y-131864100D03*
G04 #@! TO.P,U4,3*
G04 #@! TO.N,Net-(C17-Pad1)*
X137187940Y-131864100D03*
G04 #@! TO.P,U4,4*
G04 #@! TO.N,Net-(C15-Pad1)*
X139727940Y-131864100D03*
G04 #@! TO.P,U4,5*
G04 #@! TO.N,Net-(C29-Pad1)*
X142267940Y-131864100D03*
G04 #@! TO.P,U4,6*
G04 #@! TO.N,Net-(C30-Pad1)*
X144807940Y-131864100D03*
G04 #@! TO.P,U4,7*
G04 #@! TO.N,Net-(U4-Pad7)*
X147347940Y-131864100D03*
G04 #@! TO.P,U4,8*
G04 #@! TO.N,Net-(U4-Pad8)*
X149887940Y-131864100D03*
G04 #@! TO.P,U4,9*
G04 #@! TO.N,Net-(U4-Pad9)*
X152427940Y-131864100D03*
G04 #@! TO.P,U4,10*
G04 #@! TO.N,Net-(U4-Pad10)*
X154967940Y-131864100D03*
G04 #@! TO.P,U4,11*
G04 #@! TO.N,Net-(U4-Pad11)*
X157507940Y-131864100D03*
G04 #@! TO.P,U4,12*
G04 #@! TO.N,Net-(U4-Pad12)*
X160047940Y-131864100D03*
G04 #@! TO.P,U4,13*
G04 #@! TO.N,Net-(U4-Pad13)*
X162587940Y-131864100D03*
G04 #@! TO.P,U4,14*
G04 #@! TO.N,Net-(U4-Pad14)*
X165127940Y-131864100D03*
G04 #@! TO.P,U4,15*
G04 #@! TO.N,GNDREF*
X167667940Y-131864100D03*
G04 #@! TO.P,U4,16*
G04 #@! TO.N,Net-(U4-Pad16)*
X170207940Y-131864100D03*
G04 #@! TO.P,U4,17*
G04 #@! TO.N,Net-(C15-Pad1)*
X172747940Y-131864100D03*
G04 #@! TO.P,U4,18*
G04 #@! TO.N,Net-(U4-Pad18)*
X175287940Y-131864100D03*
G04 #@! TO.P,U4,19*
G04 #@! TO.N,Net-(C15-Pad1)*
X177827940Y-131864100D03*
G04 #@! TO.P,U4,20*
G04 #@! TO.N,GNDREF*
X180367940Y-131864100D03*
G04 #@! TD*
D12*
G04 #@! TO.P,,1*
G04 #@! TO.N,GNDREF*
X178358800Y-114655600D03*
G04 #@! TD*
G04 #@! TO.P,,1*
G04 #@! TO.N,GNDREF*
X124815600Y-117906800D03*
G04 #@! TD*
G04 #@! TO.P,,1*
G04 #@! TO.N,GNDREF*
X127965200Y-124358400D03*
G04 #@! TD*
G04 #@! TO.P,,1*
G04 #@! TO.N,GNDREF*
X138836400Y-115011200D03*
G04 #@! TD*
G04 #@! TO.P,,1*
G04 #@! TO.N,GNDREF*
X114554000Y-133146800D03*
G04 #@! TD*
G04 #@! TO.P,,1*
G04 #@! TO.N,GNDREF*
X177342800Y-98501200D03*
G04 #@! TD*
G04 #@! TO.P,,1*
G04 #@! TO.N,GNDREF*
X192328800Y-107594400D03*
G04 #@! TD*
G04 #@! TO.P,,1*
G04 #@! TO.N,GNDREF*
X192328800Y-87731600D03*
G04 #@! TD*
G04 #@! TO.P,,1*
G04 #@! TO.N,GNDREF*
X164896800Y-68529200D03*
G04 #@! TD*
G04 #@! TO.P,,1*
G04 #@! TO.N,GNDREF*
X165100000Y-88036400D03*
G04 #@! TD*
G04 #@! TO.P,,1*
G04 #@! TO.N,GNDREF*
X118008400Y-101955600D03*
G04 #@! TD*
G04 #@! TO.P,,1*
G04 #@! TO.N,GNDREF*
X142748000Y-96367600D03*
G04 #@! TD*
G04 #@! TO.P,,1*
G04 #@! TO.N,GNDREF*
X142036800Y-68630800D03*
G04 #@! TD*
G04 #@! TO.P,,1*
G04 #@! TO.N,GNDREF*
X125831600Y-71374000D03*
G04 #@! TD*
G04 #@! TO.P,,1*
G04 #@! TO.N,GNDREF*
X113741200Y-67411600D03*
G04 #@! TD*
G04 #@! TO.P,,1*
G04 #@! TO.N,GNDREF*
X140970000Y-84023200D03*
G04 #@! TD*
G04 #@! TO.P,,1*
G04 #@! TO.N,GNDREF*
X140868400Y-76758800D03*
G04 #@! TD*
G04 #@! TO.P,,1*
G04 #@! TO.N,GNDREF*
X125577600Y-80975200D03*
G04 #@! TD*
G04 #@! TO.P,,1*
G04 #@! TO.N,GNDREF*
X112166400Y-75996800D03*
G04 #@! TD*
G04 #@! TO.P,,1*
G04 #@! TO.N,GNDREF*
X113842800Y-92811600D03*
G04 #@! TD*
G04 #@! TO.P,,1*
G04 #@! TO.N,GNDREF*
X131165600Y-95504000D03*
G04 #@! TD*
G04 #@! TO.P,,1*
G04 #@! TO.N,GNDREF*
X161036000Y-114808000D03*
G04 #@! TD*
G04 #@! TO.P,,1*
G04 #@! TO.N,GNDREF*
X159105600Y-127406400D03*
G04 #@! TD*
G04 #@! TO.P,,1*
G04 #@! TO.N,GNDREF*
X109220000Y-102971600D03*
G04 #@! TD*
G04 #@! TO.P,,1*
G04 #@! TO.N,GNDREF*
X124510800Y-107035600D03*
G04 #@! TD*
G04 #@! TO.P,,1*
G04 #@! TO.N,GNDREF*
X109169200Y-113690400D03*
G04 #@! TD*
G04 #@! TO.P,,1*
G04 #@! TO.N,GNDREF*
X114300000Y-124155200D03*
G04 #@! TD*
G04 #@! TO.P,,1*
G04 #@! TO.N,GNDREF*
X120192800Y-124206000D03*
G04 #@! TD*
G04 #@! TO.P,,1*
G04 #@! TO.N,GNDREF*
X151993600Y-127965200D03*
G04 #@! TD*
D13*
G04 #@! TO.P,C1,1*
G04 #@! TO.N,GNDREF*
X111810800Y-68799200D03*
G04 #@! TO.P,C1,2*
G04 #@! TO.N,Net-(C1-Pad2)*
X111810800Y-70799200D03*
G04 #@! TD*
D14*
G04 #@! TO.P,C2,1*
G04 #@! TO.N,Net-(C2-Pad1)*
X116214400Y-70662800D03*
G04 #@! TO.P,C2,2*
G04 #@! TO.N,Net-(C1-Pad2)*
X114214400Y-70662800D03*
G04 #@! TD*
G04 #@! TO.P,C3,1*
G04 #@! TO.N,Net-(C3-Pad1)*
X126558800Y-68224400D03*
G04 #@! TO.P,C3,2*
G04 #@! TO.N,GNDREF*
X128558800Y-68224400D03*
G04 #@! TD*
G04 #@! TO.P,C4,1*
G04 #@! TO.N,Net-(C4-Pad1)*
X95234000Y-121767600D03*
G04 #@! TO.P,C4,2*
G04 #@! TO.N,GNDREF*
X93234000Y-121767600D03*
G04 #@! TD*
D13*
G04 #@! TO.P,C5,1*
G04 #@! TO.N,Net-(C5-Pad1)*
X118567200Y-77301600D03*
G04 #@! TO.P,C5,2*
G04 #@! TO.N,GNDREF*
X118567200Y-75301600D03*
G04 #@! TD*
D14*
G04 #@! TO.P,C6,1*
G04 #@! TO.N,Net-(C6-Pad1)*
X116468400Y-79197200D03*
G04 #@! TO.P,C6,2*
G04 #@! TO.N,GNDREF*
X114468400Y-79197200D03*
G04 #@! TD*
G04 #@! TO.P,C7,1*
G04 #@! TO.N,Net-(C7-Pad1)*
X107680000Y-126644400D03*
G04 #@! TO.P,C7,2*
G04 #@! TO.N,GNDREF*
X105680000Y-126644400D03*
G04 #@! TD*
D13*
G04 #@! TO.P,C8,1*
G04 #@! TO.N,Net-(C8-Pad1)*
X118567200Y-81162400D03*
G04 #@! TO.P,C8,2*
G04 #@! TO.N,Net-(C6-Pad1)*
X118567200Y-79162400D03*
G04 #@! TD*
D14*
G04 #@! TO.P,C9,1*
G04 #@! TO.N,Net-(C8-Pad1)*
X114538000Y-83362800D03*
G04 #@! TO.P,C9,2*
G04 #@! TO.N,Net-(C9-Pad2)*
X112538000Y-83362800D03*
G04 #@! TD*
G04 #@! TO.P,C10,1*
G04 #@! TO.N,Net-(C10-Pad1)*
X115433600Y-116890800D03*
G04 #@! TO.P,C10,2*
G04 #@! TO.N,GNDREF*
X117433600Y-116890800D03*
G04 #@! TD*
G04 #@! TO.P,C11,1*
G04 #@! TO.N,Net-(C11-Pad1)*
X118703600Y-83362800D03*
G04 #@! TO.P,C11,2*
G04 #@! TO.N,GNDREF*
X116703600Y-83362800D03*
G04 #@! TD*
D15*
G04 #@! TO.P,C12,1*
G04 #@! TO.N,Net-(C10-Pad1)*
X116865400Y-130048000D03*
G04 #@! TO.P,C12,2*
G04 #@! TO.N,GNDREF*
X123215400Y-130048000D03*
G04 #@! TD*
D16*
G04 #@! TO.P,C13,1*
G04 #@! TO.N,Net-(C11-Pad1)*
X118723000Y-95758000D03*
G04 #@! TO.P,C13,2*
G04 #@! TO.N,GNDREF*
X115973000Y-95758000D03*
G04 #@! TD*
D13*
G04 #@! TO.P,C14,1*
G04 #@! TO.N,Net-(C14-Pad1)*
X118567200Y-85360000D03*
G04 #@! TO.P,C14,2*
G04 #@! TO.N,GNDREF*
X118567200Y-87360000D03*
G04 #@! TD*
D14*
G04 #@! TO.P,C15,1*
G04 #@! TO.N,Net-(C15-Pad1)*
X121040400Y-116890800D03*
G04 #@! TO.P,C15,2*
G04 #@! TO.N,GNDREF*
X119040400Y-116890800D03*
G04 #@! TD*
D17*
G04 #@! TO.P,C16,1*
G04 #@! TO.N,Net-(C15-Pad1)*
X128016000Y-115849400D03*
G04 #@! TO.P,C16,2*
G04 #@! TO.N,GNDREF*
X128016000Y-109499400D03*
G04 #@! TD*
D16*
G04 #@! TO.P,C17,1*
G04 #@! TO.N,Net-(C17-Pad1)*
X130965800Y-127863600D03*
G04 #@! TO.P,C17,2*
G04 #@! TO.N,GNDREF*
X128215800Y-127863600D03*
G04 #@! TD*
D13*
G04 #@! TO.P,C18,1*
G04 #@! TO.N,Net-(C18-Pad1)*
X133096000Y-86223600D03*
G04 #@! TO.P,C18,2*
G04 #@! TO.N,Net-(C18-Pad2)*
X133096000Y-88223600D03*
G04 #@! TD*
D14*
G04 #@! TO.P,C19,1*
G04 #@! TO.N,Net-(C18-Pad1)*
X135398000Y-87985600D03*
G04 #@! TO.P,C19,2*
G04 #@! TO.N,GNDREF*
X137398000Y-87985600D03*
G04 #@! TD*
D13*
G04 #@! TO.P,C20,1*
G04 #@! TO.N,Net-(C20-Pad1)*
X133045200Y-78552800D03*
G04 #@! TO.P,C20,2*
G04 #@! TO.N,Net-(C20-Pad2)*
X133045200Y-80552800D03*
G04 #@! TD*
D14*
G04 #@! TO.P,C21,1*
G04 #@! TO.N,Net-(C20-Pad2)*
X135347200Y-80467200D03*
G04 #@! TO.P,C21,2*
G04 #@! TO.N,GNDREF*
X137347200Y-80467200D03*
G04 #@! TD*
D18*
G04 #@! TO.P,D1,1*
G04 #@! TO.N,Net-(C7-Pad1)*
X105477200Y-122732800D03*
G04 #@! TO.P,D1,2*
G04 #@! TO.N,Net-(C4-Pad1)*
X101177200Y-122732800D03*
G04 #@! TD*
D19*
G04 #@! TO.P,J2,2*
G04 #@! TO.N,GNDREF*
X92710000Y-66040000D03*
X92710000Y-71120000D03*
X97790000Y-71120000D03*
X97790000Y-66040000D03*
D20*
G04 #@! TO.P,J2,1*
G04 #@! TO.N,Net-(C1-Pad2)*
X95250000Y-68580000D03*
G04 #@! TD*
D21*
G04 #@! TO.P,L2,1*
G04 #@! TO.N,Net-(C7-Pad1)*
X111404400Y-126642800D03*
G04 #@! TO.P,L2,2*
G04 #@! TO.N,Net-(C10-Pad1)*
X111404400Y-131522800D03*
G04 #@! TD*
D22*
G04 #@! TO.P,L4,1*
G04 #@! TO.N,Net-(C11-Pad1)*
X122274000Y-95758000D03*
G04 #@! TO.P,L4,2*
G04 #@! TO.N,Net-(L4-Pad2)*
X127154000Y-95758000D03*
G04 #@! TD*
D23*
G04 #@! TO.P,R1,1*
G04 #@! TO.N,Net-(L4-Pad2)*
X127101600Y-102732800D03*
G04 #@! TO.P,R1,2*
G04 #@! TO.N,Net-(C15-Pad1)*
X127101600Y-104632800D03*
G04 #@! TD*
G04 #@! TO.P,R2,1*
G04 #@! TO.N,Net-(C14-Pad1)*
X116382800Y-86832400D03*
G04 #@! TO.P,R2,2*
G04 #@! TO.N,GNDREF*
X116382800Y-88732400D03*
G04 #@! TD*
G04 #@! TO.P,R3,1*
G04 #@! TO.N,Net-(R3-Pad1)*
X131013200Y-123205200D03*
G04 #@! TO.P,R3,2*
G04 #@! TO.N,Net-(C17-Pad1)*
X131013200Y-125105200D03*
G04 #@! TD*
D20*
G04 #@! TO.P,SW1,2*
G04 #@! TO.N,GNDREF*
X99263200Y-82681200D03*
G04 #@! TO.P,SW1,1*
G04 #@! TO.N,Net-(C28-Pad2)*
X99263200Y-78181200D03*
G04 #@! TO.P,SW1,2*
G04 #@! TO.N,GNDREF*
X92763200Y-82681200D03*
G04 #@! TO.P,SW1,1*
G04 #@! TO.N,Net-(C28-Pad2)*
X92763200Y-78181200D03*
G04 #@! TD*
G04 #@! TO.P,SW2,2*
G04 #@! TO.N,GNDREF*
X99263200Y-94619200D03*
G04 #@! TO.P,SW2,1*
G04 #@! TO.N,Net-(C27-Pad2)*
X99263200Y-90119200D03*
G04 #@! TO.P,SW2,2*
G04 #@! TO.N,GNDREF*
X92763200Y-94619200D03*
G04 #@! TO.P,SW2,1*
G04 #@! TO.N,Net-(C27-Pad2)*
X92763200Y-90119200D03*
G04 #@! TD*
G04 #@! TO.P,SW3,2*
G04 #@! TO.N,GNDREF*
X99263200Y-106404800D03*
G04 #@! TO.P,SW3,1*
G04 #@! TO.N,Net-(C25-Pad2)*
X99263200Y-101904800D03*
G04 #@! TO.P,SW3,2*
G04 #@! TO.N,GNDREF*
X92763200Y-106404800D03*
G04 #@! TO.P,SW3,1*
G04 #@! TO.N,Net-(C25-Pad2)*
X92763200Y-101904800D03*
G04 #@! TD*
G04 #@! TO.P,SW4,2*
G04 #@! TO.N,GNDREF*
X99263200Y-118190400D03*
G04 #@! TO.P,SW4,1*
G04 #@! TO.N,Net-(C23-Pad2)*
X99263200Y-113690400D03*
G04 #@! TO.P,SW4,2*
G04 #@! TO.N,GNDREF*
X92763200Y-118190400D03*
G04 #@! TO.P,SW4,1*
G04 #@! TO.N,Net-(C23-Pad2)*
X92763200Y-113690400D03*
G04 #@! TD*
D24*
G04 #@! TO.P,U1,1*
G04 #@! TO.N,Net-(U1-Pad1)*
X185420000Y-109118400D03*
D25*
G04 #@! TO.P,U1,21*
G04 #@! TO.N,Net-(U1-Pad21)*
X137160000Y-124358400D03*
G04 #@! TO.P,U1,2*
G04 #@! TO.N,Net-(U1-Pad2)*
X182880000Y-109118400D03*
G04 #@! TO.P,U1,22*
G04 #@! TO.N,Net-(C26-Pad1)*
X139700000Y-124358400D03*
G04 #@! TO.P,U1,3*
G04 #@! TO.N,Net-(U1-Pad3)*
X180340000Y-109118400D03*
G04 #@! TO.P,U1,23*
G04 #@! TO.N,Net-(U1-Pad23)*
X142240000Y-124358400D03*
G04 #@! TO.P,U1,4*
G04 #@! TO.N,Net-(U1-Pad4)*
X177800000Y-109118400D03*
G04 #@! TO.P,U1,24*
G04 #@! TO.N,Net-(C24-Pad1)*
X144780000Y-124358400D03*
G04 #@! TO.P,U1,5*
G04 #@! TO.N,Net-(U1-Pad5)*
X175260000Y-109118400D03*
G04 #@! TO.P,U1,25*
G04 #@! TO.N,Net-(U1-Pad25)*
X147320000Y-124358400D03*
G04 #@! TO.P,U1,6*
G04 #@! TO.N,Net-(U1-Pad6)*
X172720000Y-109118400D03*
G04 #@! TO.P,U1,26*
G04 #@! TO.N,Net-(R3-Pad1)*
X149860000Y-124358400D03*
G04 #@! TO.P,U1,7*
G04 #@! TO.N,Net-(U1-Pad7)*
X170180000Y-109118400D03*
G04 #@! TO.P,U1,27*
G04 #@! TO.N,Net-(U1-Pad27)*
X152400000Y-124358400D03*
G04 #@! TO.P,U1,8*
G04 #@! TO.N,Net-(U1-Pad8)*
X167640000Y-109118400D03*
G04 #@! TO.P,U1,28*
G04 #@! TO.N,Net-(U1-Pad28)*
X154940000Y-124358400D03*
G04 #@! TO.P,U1,9*
G04 #@! TO.N,Net-(U1-Pad9)*
X165100000Y-109118400D03*
G04 #@! TO.P,U1,29*
G04 #@! TO.N,Net-(U1-Pad29)*
X157480000Y-124358400D03*
G04 #@! TO.P,U1,10*
G04 #@! TO.N,Net-(U1-Pad10)*
X162560000Y-109118400D03*
G04 #@! TO.P,U1,30*
G04 #@! TO.N,Net-(U1-Pad30)*
X160020000Y-124358400D03*
G04 #@! TO.P,U1,11*
G04 #@! TO.N,Net-(U1-Pad11)*
X160020000Y-109118400D03*
G04 #@! TO.P,U1,31*
G04 #@! TO.N,Net-(U1-Pad31)*
X162560000Y-124358400D03*
G04 #@! TO.P,U1,12*
G04 #@! TO.N,Net-(U1-Pad12)*
X157480000Y-109118400D03*
G04 #@! TO.P,U1,32*
G04 #@! TO.N,Net-(U1-Pad32)*
X165100000Y-124358400D03*
G04 #@! TO.P,U1,13*
G04 #@! TO.N,Net-(C14-Pad1)*
X154940000Y-109118400D03*
G04 #@! TO.P,U1,33*
G04 #@! TO.N,Net-(U1-Pad33)*
X167640000Y-124358400D03*
G04 #@! TO.P,U1,14*
G04 #@! TO.N,Net-(U1-Pad14)*
X152400000Y-109118400D03*
G04 #@! TO.P,U1,34*
G04 #@! TO.N,Net-(C23-Pad2)*
X170180000Y-124358400D03*
G04 #@! TO.P,U1,15*
G04 #@! TO.N,Net-(U1-Pad15)*
X149860000Y-109118400D03*
G04 #@! TO.P,U1,35*
G04 #@! TO.N,Net-(C25-Pad2)*
X172720000Y-124358400D03*
G04 #@! TO.P,U1,16*
G04 #@! TO.N,Net-(U1-Pad16)*
X147320000Y-109118400D03*
G04 #@! TO.P,U1,36*
G04 #@! TO.N,Net-(C27-Pad2)*
X175260000Y-124358400D03*
G04 #@! TO.P,U1,17*
G04 #@! TO.N,Net-(U1-Pad17)*
X144780000Y-109118400D03*
G04 #@! TO.P,U1,37*
G04 #@! TO.N,Net-(C28-Pad2)*
X177800000Y-124358400D03*
G04 #@! TO.P,U1,18*
G04 #@! TO.N,Net-(U1-Pad18)*
X142240000Y-109118400D03*
G04 #@! TO.P,U1,38*
G04 #@! TO.N,Net-(C22-Pad1)*
X180340000Y-124358400D03*
G04 #@! TO.P,U1,19*
G04 #@! TO.N,GNDREF*
X139700000Y-109118400D03*
G04 #@! TO.P,U1,39*
X182880000Y-124358400D03*
G04 #@! TO.P,U1,20*
X137160000Y-109118400D03*
G04 #@! TO.P,U1,40*
G04 #@! TO.N,Net-(U1-Pad40)*
X185420000Y-124358400D03*
G04 #@! TD*
D26*
G04 #@! TO.P,U2,1*
G04 #@! TO.N,Net-(C10-Pad1)*
X115931600Y-113775600D03*
G04 #@! TO.P,U2,3*
G04 #@! TO.N,Net-(C15-Pad1)*
X120491600Y-113775600D03*
D27*
G04 #@! TO.P,U2,2*
G04 #@! TO.N,GNDREF*
X118211600Y-107475600D03*
D28*
X119736600Y-105800600D03*
X116686600Y-109150600D03*
X116686600Y-105800600D03*
X119736600Y-109150600D03*
G04 #@! TD*
D29*
G04 #@! TO.P,U3,1*
G04 #@! TO.N,Net-(C2-Pad1)*
X121131600Y-76987400D03*
G04 #@! TO.P,U3,2*
G04 #@! TO.N,Net-(C5-Pad1)*
X121131600Y-78257400D03*
G04 #@! TO.P,U3,3*
G04 #@! TO.N,Net-(C6-Pad1)*
X121131600Y-79527400D03*
G04 #@! TO.P,U3,4*
G04 #@! TO.N,Net-(C8-Pad1)*
X121131600Y-80797400D03*
G04 #@! TO.P,U3,5*
G04 #@! TO.N,Net-(U3-Pad5)*
X121131600Y-82067400D03*
G04 #@! TO.P,U3,6*
G04 #@! TO.N,Net-(C11-Pad1)*
X121131600Y-83337400D03*
G04 #@! TO.P,U3,7*
G04 #@! TO.N,Net-(C14-Pad1)*
X121131600Y-84607400D03*
G04 #@! TO.P,U3,8*
G04 #@! TO.N,Net-(U3-Pad8)*
X121131600Y-85877400D03*
G04 #@! TO.P,U3,9*
G04 #@! TO.N,Net-(U3-Pad9)*
X121131600Y-87147400D03*
G04 #@! TO.P,U3,10*
G04 #@! TO.N,Net-(U3-Pad10)*
X121131600Y-88417400D03*
G04 #@! TO.P,U3,11*
G04 #@! TO.N,Net-(U3-Pad11)*
X130531600Y-88417400D03*
G04 #@! TO.P,U3,12*
G04 #@! TO.N,Net-(C18-Pad2)*
X130531600Y-87147400D03*
G04 #@! TO.P,U3,13*
G04 #@! TO.N,Net-(C18-Pad1)*
X130531600Y-85877400D03*
G04 #@! TO.P,U3,14*
G04 #@! TO.N,Net-(U3-Pad14)*
X130531600Y-84607400D03*
G04 #@! TO.P,U3,15*
G04 #@! TO.N,GNDREF*
X130531600Y-83337400D03*
G04 #@! TO.P,U3,16*
G04 #@! TO.N,Net-(U3-Pad16)*
X130531600Y-82067400D03*
G04 #@! TO.P,U3,17*
G04 #@! TO.N,Net-(C20-Pad2)*
X130531600Y-80797400D03*
G04 #@! TO.P,U3,18*
G04 #@! TO.N,Net-(U3-Pad18)*
X130531600Y-79527400D03*
G04 #@! TO.P,U3,19*
G04 #@! TO.N,Net-(C20-Pad1)*
X130531600Y-78257400D03*
G04 #@! TO.P,U3,20*
G04 #@! TO.N,Net-(U3-Pad20)*
X130531600Y-76987400D03*
G04 #@! TD*
D30*
G04 #@! TO.P,J3,1*
G04 #@! TO.N,GNDREF*
X108781600Y-65962400D03*
X145421600Y-65962400D03*
X145421600Y-99442400D03*
X108781600Y-99442400D03*
D31*
X111641600Y-65962400D03*
X111641600Y-99442400D03*
D32*
X118101600Y-65962400D03*
X118101600Y-99442400D03*
X124101600Y-65962400D03*
X124101600Y-99442400D03*
X130101600Y-65962400D03*
X130101600Y-99442400D03*
X136101600Y-65962400D03*
X136101600Y-99442400D03*
D31*
X142561600Y-65962400D03*
X142561600Y-99442400D03*
D33*
X108781600Y-68032400D03*
X145421600Y-68032400D03*
D34*
X108781600Y-73702400D03*
X145421600Y-73702400D03*
X108781600Y-79702400D03*
X145421600Y-79702400D03*
X108781600Y-85702400D03*
X145421600Y-85702400D03*
X108781600Y-91702400D03*
X145421600Y-91702400D03*
D33*
X108781600Y-97372400D03*
X145421600Y-97372400D03*
G04 #@! TD*
D35*
G04 #@! TO.P,U5,1*
G04 #@! TO.N,Net-(U3-Pad20)*
X135448000Y-77956400D03*
G04 #@! TO.P,U5,2*
G04 #@! TO.N,GNDREF*
X136398000Y-77956400D03*
G04 #@! TO.P,U5,3*
G04 #@! TO.N,Net-(U5-Pad3)*
X137348000Y-77956400D03*
G04 #@! TO.P,U5,4*
G04 #@! TO.N,Net-(U5-Pad4)*
X137348000Y-75256400D03*
G04 #@! TO.P,U5,6*
G04 #@! TO.N,Net-(U3-Pad18)*
X135448000Y-75256400D03*
G04 #@! TO.P,U5,5*
G04 #@! TO.N,GNDREF*
X136398000Y-75256400D03*
G04 #@! TD*
G04 #@! TO.P,U6,1*
G04 #@! TO.N,Net-(U3-Pad16)*
X135448000Y-85373200D03*
G04 #@! TO.P,U6,2*
G04 #@! TO.N,GNDREF*
X136398000Y-85373200D03*
G04 #@! TO.P,U6,3*
G04 #@! TO.N,Net-(U6-Pad3)*
X137348000Y-85373200D03*
G04 #@! TO.P,U6,4*
G04 #@! TO.N,Net-(U6-Pad4)*
X137348000Y-82673200D03*
G04 #@! TO.P,U6,6*
G04 #@! TO.N,Net-(U3-Pad14)*
X135448000Y-82673200D03*
G04 #@! TO.P,U6,5*
G04 #@! TO.N,GNDREF*
X136398000Y-82673200D03*
G04 #@! TD*
D36*
G04 #@! TO.P,J1,2*
G04 #@! TO.N,GNDREF*
X95250000Y-133429000D03*
D37*
G04 #@! TO.P,J1,1*
G04 #@! TO.N,Net-(C4-Pad1)*
X95250000Y-125222000D03*
D38*
G04 #@! TO.P,J1,3*
G04 #@! TO.N,GNDREF*
X99314000Y-129032000D03*
G04 #@! TD*
D39*
G04 #@! TO.P,L3,1*
G04 #@! TO.N,Net-(C9-Pad2)*
X110540800Y-85369400D03*
G04 #@! TO.P,L3,2*
G04 #@! TO.N,GNDREF*
X114499800Y-90359400D03*
G04 #@! TD*
D40*
G04 #@! TO.P,L1,1*
G04 #@! TO.N,Net-(C2-Pad1)*
X118846600Y-72186800D03*
G04 #@! TO.P,L1,2*
G04 #@! TO.N,Net-(C3-Pad1)*
X123836600Y-68227800D03*
G04 #@! TD*
D12*
G04 #@! TO.P,,1*
G04 #@! TO.N,GNDREF*
X175869600Y-127711200D03*
G04 #@! TD*
D41*
G04 #@! TO.P,C22,1*
G04 #@! TO.N,Net-(C22-Pad1)*
X184150000Y-128165000D03*
G04 #@! TO.P,C22,2*
G04 #@! TO.N,GNDREF*
X184150000Y-130915000D03*
G04 #@! TD*
D13*
G04 #@! TO.P,C23,1*
G04 #@! TO.N,GNDREF*
X92710000Y-108982000D03*
G04 #@! TO.P,C23,2*
G04 #@! TO.N,Net-(C23-Pad2)*
X92710000Y-110982000D03*
G04 #@! TD*
D14*
G04 #@! TO.P,C24,1*
G04 #@! TO.N,Net-(C24-Pad1)*
X146828000Y-127000000D03*
G04 #@! TO.P,C24,2*
G04 #@! TO.N,GNDREF*
X148828000Y-127000000D03*
G04 #@! TD*
D13*
G04 #@! TO.P,C25,1*
G04 #@! TO.N,GNDREF*
X92710000Y-97298000D03*
G04 #@! TO.P,C25,2*
G04 #@! TO.N,Net-(C25-Pad2)*
X92710000Y-99298000D03*
G04 #@! TD*
D14*
G04 #@! TO.P,C26,1*
G04 #@! TO.N,Net-(C26-Pad1)*
X137398000Y-127000000D03*
G04 #@! TO.P,C26,2*
G04 #@! TO.N,GNDREF*
X135398000Y-127000000D03*
G04 #@! TD*
D13*
G04 #@! TO.P,C27,1*
G04 #@! TO.N,GNDREF*
X92710000Y-85360000D03*
G04 #@! TO.P,C27,2*
G04 #@! TO.N,Net-(C27-Pad2)*
X92710000Y-87360000D03*
G04 #@! TD*
G04 #@! TO.P,C28,1*
G04 #@! TO.N,GNDREF*
X92710000Y-73676000D03*
G04 #@! TO.P,C28,2*
G04 #@! TO.N,Net-(C28-Pad2)*
X92710000Y-75676000D03*
G04 #@! TD*
D14*
G04 #@! TO.P,C29,1*
G04 #@! TO.N,Net-(C29-Pad1)*
X146828000Y-129286000D03*
G04 #@! TO.P,C29,2*
G04 #@! TO.N,GNDREF*
X148828000Y-129286000D03*
G04 #@! TD*
G04 #@! TO.P,C30,1*
G04 #@! TO.N,Net-(C30-Pad1)*
X137398000Y-129286000D03*
G04 #@! TO.P,C30,2*
G04 #@! TO.N,GNDREF*
X135398000Y-129286000D03*
G04 #@! TD*
D42*
G04 #@! TO.P,R4,1*
G04 #@! TO.N,Net-(C15-Pad1)*
X178374000Y-128016000D03*
G04 #@! TO.P,R4,2*
G04 #@! TO.N,Net-(C22-Pad1)*
X180274000Y-128016000D03*
G04 #@! TD*
D23*
G04 #@! TO.P,R5,1*
G04 #@! TO.N,Net-(C29-Pad1)*
X144780000Y-128712000D03*
G04 #@! TO.P,R5,2*
G04 #@! TO.N,Net-(C24-Pad1)*
X144780000Y-126812000D03*
G04 #@! TD*
G04 #@! TO.P,R6,1*
G04 #@! TO.N,Net-(C30-Pad1)*
X139700000Y-128712000D03*
G04 #@! TO.P,R6,2*
G04 #@! TO.N,Net-(C26-Pad1)*
X139700000Y-126812000D03*
G04 #@! TD*
D43*
G04 #@! TO.N,Net-(C11-Pad1)*
X118719600Y-93370400D03*
X123444000Y-83312000D03*
G04 #@! TO.N,Net-(C14-Pad1)*
X125577600Y-84582000D03*
G04 #@! TO.N,Net-(C15-Pad1)*
X125730000Y-124206000D03*
G04 #@! TO.N,Net-(C17-Pad1)*
X133096000Y-128016000D03*
G04 #@! TO.N,Net-(U3-Pad16)*
X134061200Y-84886800D03*
X132435600Y-82092800D03*
G04 #@! TO.N,Net-(U3-Pad18)*
X128524000Y-79552800D03*
X133908800Y-75285600D03*
G04 #@! TO.N,Net-(C30-Pad1)*
X142494000Y-128778000D03*
G04 #@! TD*
D44*
G04 #@! TO.N,GNDREF*
X128215800Y-127863600D02*
X128215800Y-130501800D01*
X129578100Y-131864100D02*
X132107940Y-131864100D01*
X128215800Y-130501800D02*
X129578100Y-131864100D01*
X135398000Y-129286000D02*
X133604000Y-129286000D01*
X133604000Y-129286000D02*
X132107940Y-130782060D01*
X132107940Y-130782060D02*
X132107940Y-131864100D01*
X135398000Y-127000000D02*
X135398000Y-129286000D01*
X148828000Y-127000000D02*
X148828000Y-129286000D01*
X184150000Y-130915000D02*
X184045000Y-130915000D01*
X184045000Y-130915000D02*
X183095900Y-131864100D01*
X183095900Y-131864100D02*
X180367940Y-131864100D01*
X116703600Y-83362800D02*
X116703600Y-83448400D01*
X136398000Y-75256400D02*
X136398000Y-73812400D01*
X136508000Y-73702400D02*
X145421600Y-73702400D01*
X136398000Y-73812400D02*
X136508000Y-73702400D01*
X136398000Y-85373200D02*
X136398000Y-86664800D01*
X136398000Y-86664800D02*
X137398000Y-87664800D01*
X137398000Y-87664800D02*
X137398000Y-87985600D01*
X136398000Y-85373200D02*
X136398000Y-82673200D01*
X136398000Y-82673200D02*
X136398000Y-81584800D01*
X136398000Y-81584800D02*
X137347200Y-80635600D01*
X137347200Y-80635600D02*
X137347200Y-80467200D01*
X136398000Y-77956400D02*
X136398000Y-79044800D01*
X136398000Y-79044800D02*
X137347200Y-79994000D01*
X137347200Y-79994000D02*
X137347200Y-80467200D01*
X136398000Y-75256400D02*
X136398000Y-77956400D01*
G04 #@! TO.N,Net-(C1-Pad2)*
X95250000Y-68580000D02*
X99212400Y-68580000D01*
X111810800Y-70799200D02*
X114078000Y-70799200D01*
X114078000Y-70799200D02*
X114214400Y-70662800D01*
X101346000Y-70713600D02*
X111725200Y-70713600D01*
X99212400Y-68580000D02*
X101346000Y-70713600D01*
X111725200Y-70713600D02*
X111810800Y-70799200D01*
G04 #@! TO.N,Net-(C2-Pad1)*
X118846600Y-72186800D02*
X120091200Y-72186800D01*
X121131600Y-73227200D02*
X121131600Y-76987400D01*
X120091200Y-72186800D02*
X121131600Y-73227200D01*
X116214400Y-70662800D02*
X116214400Y-71104000D01*
X116214400Y-71104000D02*
X117297200Y-72186800D01*
X117297200Y-72186800D02*
X118846600Y-72186800D01*
G04 #@! TO.N,Net-(C3-Pad1)*
X123836600Y-68227800D02*
X126555400Y-68227800D01*
X126555400Y-68227800D02*
X126558800Y-68224400D01*
G04 #@! TO.N,Net-(C4-Pad1)*
X95250000Y-125222000D02*
X95250000Y-121783600D01*
X95250000Y-121783600D02*
X95316800Y-121716800D01*
X95316800Y-121716800D02*
X97282000Y-121716800D01*
X97282000Y-121716800D02*
X98298000Y-122732800D01*
X98298000Y-122732800D02*
X101177200Y-122732800D01*
G04 #@! TO.N,Net-(C5-Pad1)*
X121131600Y-78257400D02*
X119913400Y-78257400D01*
X119913400Y-78257400D02*
X118957600Y-77301600D01*
X118957600Y-77301600D02*
X118567200Y-77301600D01*
G04 #@! TO.N,Net-(C6-Pad1)*
X116468400Y-79197200D02*
X118532400Y-79197200D01*
X118532400Y-79197200D02*
X118567200Y-79162400D01*
X121131600Y-79527400D02*
X119761000Y-79527400D01*
X119396000Y-79162400D02*
X118567200Y-79162400D01*
X119761000Y-79527400D02*
X119396000Y-79162400D01*
G04 #@! TO.N,Net-(C7-Pad1)*
X107680000Y-126644400D02*
X111402800Y-126644400D01*
X111402800Y-126644400D02*
X111404400Y-126642800D01*
X105477200Y-122732800D02*
X107086400Y-122732800D01*
X107680000Y-123326400D02*
X107680000Y-126644400D01*
X107086400Y-122732800D02*
X107680000Y-123326400D01*
G04 #@! TO.N,Net-(C8-Pad1)*
X114538000Y-83362800D02*
X114538000Y-83277200D01*
X114538000Y-83277200D02*
X116652800Y-81162400D01*
X116652800Y-81162400D02*
X118567200Y-81162400D01*
X121131600Y-80797400D02*
X119913400Y-80797400D01*
X119548400Y-81162400D02*
X118567200Y-81162400D01*
X119913400Y-80797400D02*
X119548400Y-81162400D01*
G04 #@! TO.N,Net-(C9-Pad2)*
X110540800Y-85369400D02*
X110540800Y-84277200D01*
X111455200Y-83362800D02*
X112538000Y-83362800D01*
X110540800Y-84277200D02*
X111455200Y-83362800D01*
G04 #@! TO.N,Net-(C10-Pad1)*
X115931600Y-113775600D02*
X115931600Y-115056000D01*
X115433600Y-115554000D02*
X115433600Y-116890800D01*
X115931600Y-115056000D02*
X115433600Y-115554000D01*
X116865400Y-130048000D02*
X116865400Y-122656600D01*
X115433600Y-121224800D02*
X115433600Y-116890800D01*
X116865400Y-122656600D02*
X115433600Y-121224800D01*
X111404400Y-131522800D02*
X113790400Y-131522800D01*
X115265200Y-130048000D02*
X116865400Y-130048000D01*
X113790400Y-131522800D02*
X115265200Y-130048000D01*
G04 #@! TO.N,Net-(C11-Pad1)*
X118719600Y-93370400D02*
X118723000Y-93373800D01*
X118723000Y-93373800D02*
X118723000Y-95758000D01*
X121131600Y-83337400D02*
X123418600Y-83337400D01*
X123418600Y-83337400D02*
X123444000Y-83312000D01*
X122274000Y-95758000D02*
X118723000Y-95758000D01*
X121131600Y-83337400D02*
X118729000Y-83337400D01*
X118729000Y-83337400D02*
X118703600Y-83362800D01*
G04 #@! TO.N,Net-(C14-Pad1)*
X118567200Y-85360000D02*
X117179600Y-85360000D01*
X116382800Y-86156800D02*
X116382800Y-86832400D01*
X117179600Y-85360000D02*
X116382800Y-86156800D01*
X121131600Y-84607400D02*
X125552200Y-84607400D01*
X125552200Y-84607400D02*
X125577600Y-84582000D01*
X121131600Y-84607400D02*
X119319800Y-84607400D01*
X119319800Y-84607400D02*
X118567200Y-85360000D01*
X118517200Y-85410000D02*
X118567200Y-85360000D01*
G04 #@! TO.N,Net-(C15-Pad1)*
X128016000Y-115849400D02*
X128016000Y-121920000D01*
X128016000Y-121920000D02*
X125730000Y-124206000D01*
X177827940Y-131864100D02*
X177827940Y-128562060D01*
X177827940Y-128562060D02*
X178374000Y-128016000D01*
X128016000Y-115849400D02*
X131140200Y-115849400D01*
X130845600Y-104632800D02*
X127101600Y-104632800D01*
X132334000Y-106121200D02*
X130845600Y-104632800D01*
X132334000Y-114655600D02*
X132334000Y-106121200D01*
X131140200Y-115849400D02*
X132334000Y-114655600D01*
X121040400Y-116890800D02*
X123342400Y-116890800D01*
X124383800Y-115849400D02*
X128016000Y-115849400D01*
X123342400Y-116890800D02*
X124383800Y-115849400D01*
X121040400Y-116890800D02*
X121040400Y-115808000D01*
X120491600Y-115259200D02*
X120491600Y-113775600D01*
X121040400Y-115808000D02*
X120491600Y-115259200D01*
G04 #@! TO.N,Net-(C17-Pad1)*
X132943600Y-127863600D02*
X130965800Y-127863600D01*
X133096000Y-128016000D02*
X132943600Y-127863600D01*
X131013200Y-125105200D02*
X131013200Y-127816200D01*
X131013200Y-127816200D02*
X130965800Y-127863600D01*
G04 #@! TO.N,Net-(C18-Pad1)*
X133096000Y-86223600D02*
X133975600Y-86223600D01*
X133975600Y-86223600D02*
X135398000Y-87646000D01*
X135398000Y-87646000D02*
X135398000Y-87985600D01*
X130531600Y-85877400D02*
X131749800Y-85877400D01*
X132096000Y-86223600D02*
X133096000Y-86223600D01*
X131749800Y-85877400D02*
X132096000Y-86223600D01*
G04 #@! TO.N,Net-(C18-Pad2)*
X130531600Y-87147400D02*
X131495800Y-87147400D01*
X131495800Y-87147400D02*
X132572000Y-88223600D01*
X132572000Y-88223600D02*
X133096000Y-88223600D01*
G04 #@! TO.N,Net-(C20-Pad1)*
X130531600Y-78257400D02*
X131800600Y-78257400D01*
X132096000Y-78552800D02*
X133045200Y-78552800D01*
X131800600Y-78257400D02*
X132096000Y-78552800D01*
D45*
X132749800Y-78257400D02*
X133045200Y-78552800D01*
D44*
G04 #@! TO.N,Net-(C20-Pad2)*
X135347200Y-80467200D02*
X133130800Y-80467200D01*
X133130800Y-80467200D02*
X133045200Y-80552800D01*
X130531600Y-80797400D02*
X131902200Y-80797400D01*
X132146800Y-80552800D02*
X133045200Y-80552800D01*
X131902200Y-80797400D02*
X132146800Y-80552800D01*
G04 #@! TO.N,Net-(L4-Pad2)*
X127154000Y-95758000D02*
X127154000Y-102680400D01*
X127154000Y-102680400D02*
X127101600Y-102732800D01*
G04 #@! TO.N,Net-(R3-Pad1)*
X131013200Y-123205200D02*
X131013200Y-122732800D01*
X131013200Y-122732800D02*
X132181600Y-121564400D01*
X132181600Y-121564400D02*
X148386800Y-121564400D01*
X148386800Y-121564400D02*
X149860000Y-123037600D01*
X149860000Y-123037600D02*
X149860000Y-124358400D01*
G04 #@! TO.N,Net-(U3-Pad14)*
X130531600Y-84607400D02*
X132003800Y-84607400D01*
X133938000Y-82673200D02*
X135448000Y-82673200D01*
X132003800Y-84607400D02*
X133938000Y-82673200D01*
G04 #@! TO.N,Net-(U3-Pad16)*
X130531600Y-82067400D02*
X132410200Y-82067400D01*
X134547600Y-85373200D02*
X135448000Y-85373200D01*
X134061200Y-84886800D02*
X134547600Y-85373200D01*
X132410200Y-82067400D02*
X132435600Y-82092800D01*
G04 #@! TO.N,Net-(U3-Pad18)*
X135448000Y-75256400D02*
X133938000Y-75256400D01*
X128549400Y-79527400D02*
X130531600Y-79527400D01*
X128524000Y-79552800D02*
X128549400Y-79527400D01*
X133938000Y-75256400D02*
X133908800Y-75285600D01*
G04 #@! TO.N,Net-(U3-Pad20)*
X130531600Y-76987400D02*
X133832600Y-76987400D01*
X134801600Y-77956400D02*
X135448000Y-77956400D01*
X133832600Y-76987400D02*
X134801600Y-77956400D01*
G04 #@! TO.N,Net-(C28-Pad2)*
X92763200Y-78181200D02*
X92763200Y-75729200D01*
X92763200Y-75729200D02*
X92710000Y-75676000D01*
X98501200Y-78181200D02*
X92001200Y-78181200D01*
G04 #@! TO.N,Net-(C27-Pad2)*
X92763200Y-90119200D02*
X92763200Y-87413200D01*
X92763200Y-87413200D02*
X92710000Y-87360000D01*
X98501200Y-90119200D02*
X92001200Y-90119200D01*
G04 #@! TO.N,Net-(C25-Pad2)*
X92763200Y-101904800D02*
X92763200Y-99351200D01*
X92763200Y-99351200D02*
X92710000Y-99298000D01*
X98501200Y-101904800D02*
X92001200Y-101904800D01*
G04 #@! TO.N,Net-(C23-Pad2)*
X92763200Y-113690400D02*
X92763200Y-111035200D01*
X92763200Y-111035200D02*
X92710000Y-110982000D01*
X98501200Y-113690400D02*
X92001200Y-113690400D01*
G04 #@! TO.N,Net-(C26-Pad1)*
X139700000Y-126812000D02*
X137586000Y-126812000D01*
X137586000Y-126812000D02*
X137398000Y-127000000D01*
X139700000Y-124358400D02*
X139700000Y-126812000D01*
G04 #@! TO.N,Net-(C24-Pad1)*
X144780000Y-126812000D02*
X146640000Y-126812000D01*
X146640000Y-126812000D02*
X146828000Y-127000000D01*
X144780000Y-124358400D02*
X144780000Y-126812000D01*
G04 #@! TO.N,Net-(C22-Pad1)*
X180340000Y-124358400D02*
X180340000Y-127950000D01*
X180340000Y-127950000D02*
X180274000Y-128016000D01*
X180274000Y-128016000D02*
X184001000Y-128016000D01*
X184001000Y-128016000D02*
X184150000Y-128165000D01*
G04 #@! TO.N,Net-(C29-Pad1)*
X144780000Y-128712000D02*
X145222000Y-128712000D01*
X145222000Y-128712000D02*
X145796000Y-129286000D01*
X145796000Y-129286000D02*
X146828000Y-129286000D01*
X142267940Y-131864100D02*
X142267940Y-131224060D01*
X142267940Y-131224060D02*
X144780000Y-128712000D01*
G04 #@! TO.N,Net-(C30-Pad1)*
X142494000Y-128778000D02*
X142428000Y-128712000D01*
X142428000Y-128712000D02*
X139700000Y-128712000D01*
X139700000Y-128712000D02*
X139512000Y-128712000D01*
X139512000Y-128712000D02*
X138938000Y-129286000D01*
X138938000Y-129286000D02*
X137398000Y-129286000D01*
G04 #@! TD*
D46*
G04 #@! TO.N,GNDREF*
G36*
X194844600Y-134900600D02*
X90499000Y-134900600D01*
X90499000Y-130722800D01*
X108877472Y-130722800D01*
X108877472Y-132322800D01*
X108936612Y-132620117D01*
X109105029Y-132872171D01*
X109357083Y-133040588D01*
X109654400Y-133099728D01*
X113154400Y-133099728D01*
X113451717Y-133040588D01*
X113703771Y-132872171D01*
X113872188Y-132620117D01*
X113899679Y-132481909D01*
X114165754Y-132428984D01*
X114483963Y-132216363D01*
X114537634Y-132136039D01*
X114914967Y-131758706D01*
X115041029Y-131947371D01*
X115293083Y-132115788D01*
X115590400Y-132174928D01*
X118140400Y-132174928D01*
X118437717Y-132115788D01*
X118689771Y-131947371D01*
X118858188Y-131695317D01*
X118917328Y-131398000D01*
X118917328Y-128698000D01*
X118858188Y-128400683D01*
X118689771Y-128148629D01*
X118437717Y-127980212D01*
X118140400Y-127921072D01*
X117827400Y-127921072D01*
X117827400Y-127113600D01*
X129213872Y-127113600D01*
X129213872Y-128613600D01*
X129273012Y-128910917D01*
X129441429Y-129162971D01*
X129693483Y-129331388D01*
X129990800Y-129390528D01*
X131940800Y-129390528D01*
X132238117Y-129331388D01*
X132490171Y-129162971D01*
X132620174Y-128968407D01*
X132884755Y-129078000D01*
X133307245Y-129078000D01*
X133697575Y-128916320D01*
X133996320Y-128617575D01*
X134158000Y-128227245D01*
X134158000Y-127804755D01*
X133996320Y-127414425D01*
X133697575Y-127115680D01*
X133324601Y-126961189D01*
X133318954Y-126957416D01*
X133312293Y-126956091D01*
X133307245Y-126954000D01*
X133301780Y-126954000D01*
X133038346Y-126901600D01*
X132943600Y-126882754D01*
X132848854Y-126901600D01*
X132675559Y-126901600D01*
X132658588Y-126816283D01*
X132490171Y-126564229D01*
X132238117Y-126395812D01*
X131975200Y-126343515D01*
X131975200Y-126163177D01*
X132212571Y-126004571D01*
X132380988Y-125752517D01*
X132440128Y-125455200D01*
X132440128Y-124755200D01*
X132380988Y-124457883D01*
X132212571Y-124205829D01*
X132136799Y-124155200D01*
X132212571Y-124104571D01*
X132380988Y-123852517D01*
X132440128Y-123555200D01*
X132440128Y-122855200D01*
X132408795Y-122697679D01*
X132580074Y-122526400D01*
X147988327Y-122526400D01*
X148717970Y-123256043D01*
X148590000Y-123447565D01*
X148446139Y-123232261D01*
X147929462Y-122887029D01*
X147473841Y-122796400D01*
X147166159Y-122796400D01*
X146710538Y-122887029D01*
X146193861Y-123232261D01*
X146050000Y-123447565D01*
X145906139Y-123232261D01*
X145389462Y-122887029D01*
X144933841Y-122796400D01*
X144626159Y-122796400D01*
X144170538Y-122887029D01*
X143653861Y-123232261D01*
X143510000Y-123447565D01*
X143366139Y-123232261D01*
X142849462Y-122887029D01*
X142393841Y-122796400D01*
X142086159Y-122796400D01*
X141630538Y-122887029D01*
X141113861Y-123232261D01*
X140970000Y-123447565D01*
X140826139Y-123232261D01*
X140309462Y-122887029D01*
X139853841Y-122796400D01*
X139546159Y-122796400D01*
X139090538Y-122887029D01*
X138573861Y-123232261D01*
X138430000Y-123447565D01*
X138286139Y-123232261D01*
X137769462Y-122887029D01*
X137313841Y-122796400D01*
X137006159Y-122796400D01*
X136550538Y-122887029D01*
X136033861Y-123232261D01*
X135688629Y-123748938D01*
X135567399Y-124358400D01*
X135688629Y-124967862D01*
X136033861Y-125484539D01*
X136446484Y-125760244D01*
X136348629Y-125825629D01*
X136180212Y-126077683D01*
X136121072Y-126375000D01*
X136121072Y-127625000D01*
X136180212Y-127922317D01*
X136327668Y-128143000D01*
X136180212Y-128363683D01*
X136121072Y-128661000D01*
X136121072Y-129911000D01*
X136180212Y-130208317D01*
X136254427Y-130319387D01*
X136097849Y-130424009D01*
X135917940Y-130693262D01*
X135738031Y-130424009D01*
X135237893Y-130089828D01*
X134647940Y-129972479D01*
X134057988Y-130089828D01*
X133557849Y-130424009D01*
X133223668Y-130924147D01*
X133135940Y-131365185D01*
X133135940Y-132363014D01*
X133223668Y-132804052D01*
X133557849Y-133304191D01*
X134057987Y-133638372D01*
X134647940Y-133755721D01*
X135237892Y-133638372D01*
X135738031Y-133304191D01*
X135917940Y-133034937D01*
X136097849Y-133304191D01*
X136597987Y-133638372D01*
X137187940Y-133755721D01*
X137777892Y-133638372D01*
X138278031Y-133304191D01*
X138457940Y-133034937D01*
X138637849Y-133304191D01*
X139137987Y-133638372D01*
X139727940Y-133755721D01*
X140317892Y-133638372D01*
X140818031Y-133304191D01*
X140997940Y-133034937D01*
X141177849Y-133304191D01*
X141677987Y-133638372D01*
X142267940Y-133755721D01*
X142857892Y-133638372D01*
X143358031Y-133304191D01*
X143537940Y-133034937D01*
X143717849Y-133304191D01*
X144217987Y-133638372D01*
X144807940Y-133755721D01*
X145397892Y-133638372D01*
X145898031Y-133304191D01*
X146077940Y-133034937D01*
X146257849Y-133304191D01*
X146757987Y-133638372D01*
X147347940Y-133755721D01*
X147937892Y-133638372D01*
X148438031Y-133304191D01*
X148617940Y-133034937D01*
X148797849Y-133304191D01*
X149297987Y-133638372D01*
X149887940Y-133755721D01*
X150477892Y-133638372D01*
X150978031Y-133304191D01*
X151157940Y-133034937D01*
X151337849Y-133304191D01*
X151837987Y-133638372D01*
X152427940Y-133755721D01*
X153017892Y-133638372D01*
X153518031Y-133304191D01*
X153697940Y-133034937D01*
X153877849Y-133304191D01*
X154377987Y-133638372D01*
X154967940Y-133755721D01*
X155557892Y-133638372D01*
X156058031Y-133304191D01*
X156237940Y-133034937D01*
X156417849Y-133304191D01*
X156917987Y-133638372D01*
X157507940Y-133755721D01*
X158097892Y-133638372D01*
X158598031Y-133304191D01*
X158777940Y-133034937D01*
X158957849Y-133304191D01*
X159457987Y-133638372D01*
X160047940Y-133755721D01*
X160637892Y-133638372D01*
X161138031Y-133304191D01*
X161317940Y-133034937D01*
X161497849Y-133304191D01*
X161997987Y-133638372D01*
X162587940Y-133755721D01*
X163177892Y-133638372D01*
X163678031Y-133304191D01*
X163857940Y-133034937D01*
X164037849Y-133304191D01*
X164537987Y-133638372D01*
X165127940Y-133755721D01*
X165717892Y-133638372D01*
X166218031Y-133304191D01*
X166552212Y-132804053D01*
X166639940Y-132363015D01*
X166639940Y-131365186D01*
X166552212Y-130924147D01*
X166218031Y-130424009D01*
X165717893Y-130089828D01*
X165127940Y-129972479D01*
X164537988Y-130089828D01*
X164037849Y-130424009D01*
X163857940Y-130693262D01*
X163678031Y-130424009D01*
X163177893Y-130089828D01*
X162587940Y-129972479D01*
X161997988Y-130089828D01*
X161497849Y-130424009D01*
X161317940Y-130693262D01*
X161138031Y-130424009D01*
X160637893Y-130089828D01*
X160047940Y-129972479D01*
X159457988Y-130089828D01*
X158957849Y-130424009D01*
X158777940Y-130693262D01*
X158598031Y-130424009D01*
X158097893Y-130089828D01*
X157507940Y-129972479D01*
X156917988Y-130089828D01*
X156417849Y-130424009D01*
X156237940Y-130693262D01*
X156058031Y-130424009D01*
X155557893Y-130089828D01*
X154967940Y-129972479D01*
X154377988Y-130089828D01*
X153877849Y-130424009D01*
X153697940Y-130693262D01*
X153518031Y-130424009D01*
X153017893Y-130089828D01*
X152427940Y-129972479D01*
X151837988Y-130089828D01*
X151337849Y-130424009D01*
X151157940Y-130693262D01*
X150978031Y-130424009D01*
X150477893Y-130089828D01*
X149887940Y-129972479D01*
X149297988Y-130089828D01*
X148797849Y-130424009D01*
X148617940Y-130693262D01*
X148438031Y-130424009D01*
X148053934Y-130167364D01*
X148104928Y-129911000D01*
X148104928Y-128661000D01*
X148045788Y-128363683D01*
X147898332Y-128143000D01*
X148045788Y-127922317D01*
X148104928Y-127625000D01*
X148104928Y-126375000D01*
X148045788Y-126077683D01*
X147885925Y-125838431D01*
X147929462Y-125829771D01*
X148446139Y-125484539D01*
X148590000Y-125269235D01*
X148733861Y-125484539D01*
X149250538Y-125829771D01*
X149706159Y-125920400D01*
X150013841Y-125920400D01*
X150469462Y-125829771D01*
X150986139Y-125484539D01*
X151130000Y-125269235D01*
X151273861Y-125484539D01*
X151790538Y-125829771D01*
X152246159Y-125920400D01*
X152553841Y-125920400D01*
X153009462Y-125829771D01*
X153526139Y-125484539D01*
X153670000Y-125269235D01*
X153813861Y-125484539D01*
X154330538Y-125829771D01*
X154786159Y-125920400D01*
X155093841Y-125920400D01*
X155549462Y-125829771D01*
X156066139Y-125484539D01*
X156210000Y-125269235D01*
X156353861Y-125484539D01*
X156870538Y-125829771D01*
X157326159Y-125920400D01*
X157633841Y-125920400D01*
X158089462Y-125829771D01*
X158606139Y-125484539D01*
X158750000Y-125269235D01*
X158893861Y-125484539D01*
X159410538Y-125829771D01*
X159866159Y-125920400D01*
X160173841Y-125920400D01*
X160629462Y-125829771D01*
X161146139Y-125484539D01*
X161290000Y-125269235D01*
X161433861Y-125484539D01*
X161950538Y-125829771D01*
X162406159Y-125920400D01*
X162713841Y-125920400D01*
X163169462Y-125829771D01*
X163686139Y-125484539D01*
X163830000Y-125269235D01*
X163973861Y-125484539D01*
X164490538Y-125829771D01*
X164946159Y-125920400D01*
X165253841Y-125920400D01*
X165709462Y-125829771D01*
X166226139Y-125484539D01*
X166370000Y-125269235D01*
X166513861Y-125484539D01*
X167030538Y-125829771D01*
X167486159Y-125920400D01*
X167793841Y-125920400D01*
X168249462Y-125829771D01*
X168766139Y-125484539D01*
X168910000Y-125269235D01*
X169053861Y-125484539D01*
X169570538Y-125829771D01*
X170026159Y-125920400D01*
X170333841Y-125920400D01*
X170789462Y-125829771D01*
X171306139Y-125484539D01*
X171450000Y-125269235D01*
X171593861Y-125484539D01*
X172110538Y-125829771D01*
X172566159Y-125920400D01*
X172873841Y-125920400D01*
X173329462Y-125829771D01*
X173846139Y-125484539D01*
X173990000Y-125269235D01*
X174133861Y-125484539D01*
X174650538Y-125829771D01*
X175106159Y-125920400D01*
X175413841Y-125920400D01*
X175869462Y-125829771D01*
X176386139Y-125484539D01*
X176530000Y-125269235D01*
X176673861Y-125484539D01*
X177190538Y-125829771D01*
X177646159Y-125920400D01*
X177953841Y-125920400D01*
X178409462Y-125829771D01*
X178926139Y-125484539D01*
X179070000Y-125269235D01*
X179213861Y-125484539D01*
X179378000Y-125594213D01*
X179378001Y-126814376D01*
X179374629Y-126816629D01*
X179324000Y-126892401D01*
X179273371Y-126816629D01*
X179021317Y-126648212D01*
X178724000Y-126589072D01*
X178024000Y-126589072D01*
X177726683Y-126648212D01*
X177474629Y-126816629D01*
X177306212Y-127068683D01*
X177247072Y-127366000D01*
X177247072Y-127782455D01*
X177214699Y-127814828D01*
X177134378Y-127868497D01*
X177080709Y-127948818D01*
X177080708Y-127948819D01*
X176921756Y-128186707D01*
X176847094Y-128562060D01*
X176865941Y-128656810D01*
X176865940Y-130338421D01*
X176737849Y-130424009D01*
X176557940Y-130693262D01*
X176378031Y-130424009D01*
X175877893Y-130089828D01*
X175287940Y-129972479D01*
X174697988Y-130089828D01*
X174197849Y-130424009D01*
X174017940Y-130693262D01*
X173838031Y-130424009D01*
X173337893Y-130089828D01*
X172747940Y-129972479D01*
X172157988Y-130089828D01*
X171657849Y-130424009D01*
X171477940Y-130693262D01*
X171298031Y-130424009D01*
X170797893Y-130089828D01*
X170207940Y-129972479D01*
X169617988Y-130089828D01*
X169117849Y-130424009D01*
X168783668Y-130924147D01*
X168695940Y-131365185D01*
X168695940Y-132363014D01*
X168783668Y-132804052D01*
X169117849Y-133304191D01*
X169617987Y-133638372D01*
X170207940Y-133755721D01*
X170797892Y-133638372D01*
X171298031Y-133304191D01*
X171477940Y-133034937D01*
X171657849Y-133304191D01*
X172157987Y-133638372D01*
X172747940Y-133755721D01*
X173337892Y-133638372D01*
X173838031Y-133304191D01*
X174017940Y-133034937D01*
X174197849Y-133304191D01*
X174697987Y-133638372D01*
X175287940Y-133755721D01*
X175877892Y-133638372D01*
X176378031Y-133304191D01*
X176557940Y-133034937D01*
X176737849Y-133304191D01*
X177237987Y-133638372D01*
X177827940Y-133755721D01*
X178417892Y-133638372D01*
X178918031Y-133304191D01*
X179252212Y-132804053D01*
X179339940Y-132363015D01*
X179339940Y-131365186D01*
X179252212Y-130924147D01*
X178918031Y-130424009D01*
X178789940Y-130338421D01*
X178789940Y-129429812D01*
X179021317Y-129383788D01*
X179273371Y-129215371D01*
X179324000Y-129139599D01*
X179374629Y-129215371D01*
X179626683Y-129383788D01*
X179924000Y-129442928D01*
X180624000Y-129442928D01*
X180921317Y-129383788D01*
X181173371Y-129215371D01*
X181331977Y-128978000D01*
X182623072Y-128978000D01*
X182623072Y-129140000D01*
X182682212Y-129437317D01*
X182850629Y-129689371D01*
X183102683Y-129857788D01*
X183400000Y-129916928D01*
X184900000Y-129916928D01*
X185197317Y-129857788D01*
X185449371Y-129689371D01*
X185617788Y-129437317D01*
X185676928Y-129140000D01*
X185676928Y-127190000D01*
X185617788Y-126892683D01*
X185449371Y-126640629D01*
X185197317Y-126472212D01*
X184900000Y-126413072D01*
X183400000Y-126413072D01*
X183102683Y-126472212D01*
X182850629Y-126640629D01*
X182682212Y-126892683D01*
X182650124Y-127054000D01*
X181331977Y-127054000D01*
X181302000Y-127009136D01*
X181302000Y-125594213D01*
X181466139Y-125484539D01*
X181811371Y-124967862D01*
X181932601Y-124358400D01*
X183827399Y-124358400D01*
X183948629Y-124967862D01*
X184293861Y-125484539D01*
X184810538Y-125829771D01*
X185266159Y-125920400D01*
X185573841Y-125920400D01*
X186029462Y-125829771D01*
X186546139Y-125484539D01*
X186891371Y-124967862D01*
X187012601Y-124358400D01*
X186891371Y-123748938D01*
X186546139Y-123232261D01*
X186029462Y-122887029D01*
X185573841Y-122796400D01*
X185266159Y-122796400D01*
X184810538Y-122887029D01*
X184293861Y-123232261D01*
X183948629Y-123748938D01*
X183827399Y-124358400D01*
X181932601Y-124358400D01*
X181811371Y-123748938D01*
X181466139Y-123232261D01*
X180949462Y-122887029D01*
X180493841Y-122796400D01*
X180186159Y-122796400D01*
X179730538Y-122887029D01*
X179213861Y-123232261D01*
X179070000Y-123447565D01*
X178926139Y-123232261D01*
X178409462Y-122887029D01*
X177953841Y-122796400D01*
X177646159Y-122796400D01*
X177190538Y-122887029D01*
X176673861Y-123232261D01*
X176530000Y-123447565D01*
X176386139Y-123232261D01*
X175869462Y-122887029D01*
X175413841Y-122796400D01*
X175106159Y-122796400D01*
X174650538Y-122887029D01*
X174133861Y-123232261D01*
X173990000Y-123447565D01*
X173846139Y-123232261D01*
X173329462Y-122887029D01*
X172873841Y-122796400D01*
X172566159Y-122796400D01*
X172110538Y-122887029D01*
X171593861Y-123232261D01*
X171450000Y-123447565D01*
X171306139Y-123232261D01*
X170789462Y-122887029D01*
X170333841Y-122796400D01*
X170026159Y-122796400D01*
X169570538Y-122887029D01*
X169053861Y-123232261D01*
X168910000Y-123447565D01*
X168766139Y-123232261D01*
X168249462Y-122887029D01*
X167793841Y-122796400D01*
X167486159Y-122796400D01*
X167030538Y-122887029D01*
X166513861Y-123232261D01*
X166370000Y-123447565D01*
X166226139Y-123232261D01*
X165709462Y-122887029D01*
X165253841Y-122796400D01*
X164946159Y-122796400D01*
X164490538Y-122887029D01*
X163973861Y-123232261D01*
X163830000Y-123447565D01*
X163686139Y-123232261D01*
X163169462Y-122887029D01*
X162713841Y-122796400D01*
X162406159Y-122796400D01*
X161950538Y-122887029D01*
X161433861Y-123232261D01*
X161290000Y-123447565D01*
X161146139Y-123232261D01*
X160629462Y-122887029D01*
X160173841Y-122796400D01*
X159866159Y-122796400D01*
X159410538Y-122887029D01*
X158893861Y-123232261D01*
X158750000Y-123447565D01*
X158606139Y-123232261D01*
X158089462Y-122887029D01*
X157633841Y-122796400D01*
X157326159Y-122796400D01*
X156870538Y-122887029D01*
X156353861Y-123232261D01*
X156210000Y-123447565D01*
X156066139Y-123232261D01*
X155549462Y-122887029D01*
X155093841Y-122796400D01*
X154786159Y-122796400D01*
X154330538Y-122887029D01*
X153813861Y-123232261D01*
X153670000Y-123447565D01*
X153526139Y-123232261D01*
X153009462Y-122887029D01*
X152553841Y-122796400D01*
X152246159Y-122796400D01*
X151790538Y-122887029D01*
X151273861Y-123232261D01*
X151130000Y-123447565D01*
X150986139Y-123232261D01*
X150823712Y-123123731D01*
X150840845Y-123037599D01*
X150822000Y-122942858D01*
X150822000Y-122942854D01*
X150766184Y-122662246D01*
X150553563Y-122344037D01*
X150473240Y-122290367D01*
X149134034Y-120951161D01*
X149080363Y-120870837D01*
X148762154Y-120658216D01*
X148481546Y-120602400D01*
X148386800Y-120583554D01*
X148292054Y-120602400D01*
X132276345Y-120602400D01*
X132181599Y-120583554D01*
X131806246Y-120658216D01*
X131488037Y-120870837D01*
X131434368Y-120951158D01*
X130399958Y-121985568D01*
X130319638Y-122039237D01*
X130282880Y-122094249D01*
X130065883Y-122137412D01*
X129813829Y-122305829D01*
X129645412Y-122557883D01*
X129586272Y-122855200D01*
X129586272Y-123555200D01*
X129645412Y-123852517D01*
X129813829Y-124104571D01*
X129889601Y-124155200D01*
X129813829Y-124205829D01*
X129645412Y-124457883D01*
X129586272Y-124755200D01*
X129586272Y-125455200D01*
X129645412Y-125752517D01*
X129813829Y-126004571D01*
X130051200Y-126163177D01*
X130051200Y-126336672D01*
X129990800Y-126336672D01*
X129693483Y-126395812D01*
X129441429Y-126564229D01*
X129273012Y-126816283D01*
X129213872Y-127113600D01*
X117827400Y-127113600D01*
X117827400Y-122751346D01*
X117846246Y-122656600D01*
X117771584Y-122281246D01*
X117612632Y-122043358D01*
X117558963Y-121963037D01*
X117478642Y-121909368D01*
X116395600Y-120826327D01*
X116395600Y-118123550D01*
X116482971Y-118065171D01*
X116651388Y-117813117D01*
X116710528Y-117515800D01*
X116710528Y-116265800D01*
X116651388Y-115968483D01*
X116542521Y-115805552D01*
X116544839Y-115803234D01*
X116625163Y-115749563D01*
X116714280Y-115616191D01*
X116828917Y-115593388D01*
X117080971Y-115424971D01*
X117249388Y-115172917D01*
X117308528Y-114875600D01*
X117308528Y-112675600D01*
X119114672Y-112675600D01*
X119114672Y-114875600D01*
X119173812Y-115172917D01*
X119342229Y-115424971D01*
X119574614Y-115580245D01*
X119585416Y-115634553D01*
X119798037Y-115952763D01*
X119822489Y-115969101D01*
X119763472Y-116265800D01*
X119763472Y-117515800D01*
X119822612Y-117813117D01*
X119991029Y-118065171D01*
X120243083Y-118233588D01*
X120540400Y-118292728D01*
X121540400Y-118292728D01*
X121837717Y-118233588D01*
X122089771Y-118065171D01*
X122231673Y-117852800D01*
X123247654Y-117852800D01*
X123342400Y-117871646D01*
X123437146Y-117852800D01*
X123717754Y-117796984D01*
X124035963Y-117584363D01*
X124089634Y-117504040D01*
X124782274Y-116811400D01*
X125889072Y-116811400D01*
X125889072Y-117124400D01*
X125948212Y-117421717D01*
X126116629Y-117673771D01*
X126368683Y-117842188D01*
X126666000Y-117901328D01*
X127054000Y-117901328D01*
X127054001Y-121521525D01*
X125369847Y-123205680D01*
X125128425Y-123305680D01*
X124829680Y-123604425D01*
X124668000Y-123994755D01*
X124668000Y-124417245D01*
X124829680Y-124807575D01*
X125128425Y-125106320D01*
X125518755Y-125268000D01*
X125941245Y-125268000D01*
X126331575Y-125106320D01*
X126630320Y-124807575D01*
X126730320Y-124566153D01*
X128629242Y-122667232D01*
X128709563Y-122613563D01*
X128800704Y-122477162D01*
X128922184Y-122295354D01*
X128996846Y-121920001D01*
X128978000Y-121825255D01*
X128978000Y-117901328D01*
X129366000Y-117901328D01*
X129663317Y-117842188D01*
X129915371Y-117673771D01*
X130083788Y-117421717D01*
X130142928Y-117124400D01*
X130142928Y-116811400D01*
X131045454Y-116811400D01*
X131140200Y-116830246D01*
X131234946Y-116811400D01*
X131515554Y-116755584D01*
X131833763Y-116542963D01*
X131887434Y-116462640D01*
X132947242Y-115402831D01*
X133027563Y-115349163D01*
X133240184Y-115030954D01*
X133265871Y-114901816D01*
X133314846Y-114655601D01*
X133296000Y-114560855D01*
X133296000Y-109118400D01*
X140647399Y-109118400D01*
X140768629Y-109727862D01*
X141113861Y-110244539D01*
X141630538Y-110589771D01*
X142086159Y-110680400D01*
X142393841Y-110680400D01*
X142849462Y-110589771D01*
X143366139Y-110244539D01*
X143510000Y-110029235D01*
X143653861Y-110244539D01*
X144170538Y-110589771D01*
X144626159Y-110680400D01*
X144933841Y-110680400D01*
X145389462Y-110589771D01*
X145906139Y-110244539D01*
X146050000Y-110029235D01*
X146193861Y-110244539D01*
X146710538Y-110589771D01*
X147166159Y-110680400D01*
X147473841Y-110680400D01*
X147929462Y-110589771D01*
X148446139Y-110244539D01*
X148590000Y-110029235D01*
X148733861Y-110244539D01*
X149250538Y-110589771D01*
X149706159Y-110680400D01*
X150013841Y-110680400D01*
X150469462Y-110589771D01*
X150986139Y-110244539D01*
X151130000Y-110029235D01*
X151273861Y-110244539D01*
X151790538Y-110589771D01*
X152246159Y-110680400D01*
X152553841Y-110680400D01*
X153009462Y-110589771D01*
X153526139Y-110244539D01*
X153670000Y-110029235D01*
X153813861Y-110244539D01*
X154330538Y-110589771D01*
X154786159Y-110680400D01*
X155093841Y-110680400D01*
X155549462Y-110589771D01*
X156066139Y-110244539D01*
X156210000Y-110029235D01*
X156353861Y-110244539D01*
X156870538Y-110589771D01*
X157326159Y-110680400D01*
X157633841Y-110680400D01*
X158089462Y-110589771D01*
X158606139Y-110244539D01*
X158750000Y-110029235D01*
X158893861Y-110244539D01*
X159410538Y-110589771D01*
X159866159Y-110680400D01*
X160173841Y-110680400D01*
X160629462Y-110589771D01*
X161146139Y-110244539D01*
X161290000Y-110029235D01*
X161433861Y-110244539D01*
X161950538Y-110589771D01*
X162406159Y-110680400D01*
X162713841Y-110680400D01*
X163169462Y-110589771D01*
X163686139Y-110244539D01*
X163830000Y-110029235D01*
X163973861Y-110244539D01*
X164490538Y-110589771D01*
X164946159Y-110680400D01*
X165253841Y-110680400D01*
X165709462Y-110589771D01*
X166226139Y-110244539D01*
X166370000Y-110029235D01*
X166513861Y-110244539D01*
X167030538Y-110589771D01*
X167486159Y-110680400D01*
X167793841Y-110680400D01*
X168249462Y-110589771D01*
X168766139Y-110244539D01*
X168910000Y-110029235D01*
X169053861Y-110244539D01*
X169570538Y-110589771D01*
X170026159Y-110680400D01*
X170333841Y-110680400D01*
X170789462Y-110589771D01*
X171306139Y-110244539D01*
X171450000Y-110029235D01*
X171593861Y-110244539D01*
X172110538Y-110589771D01*
X172566159Y-110680400D01*
X172873841Y-110680400D01*
X173329462Y-110589771D01*
X173846139Y-110244539D01*
X173990000Y-110029235D01*
X174133861Y-110244539D01*
X174650538Y-110589771D01*
X175106159Y-110680400D01*
X175413841Y-110680400D01*
X175869462Y-110589771D01*
X176386139Y-110244539D01*
X176530000Y-110029235D01*
X176673861Y-110244539D01*
X177190538Y-110589771D01*
X177646159Y-110680400D01*
X177953841Y-110680400D01*
X178409462Y-110589771D01*
X178926139Y-110244539D01*
X179070000Y-110029235D01*
X179213861Y-110244539D01*
X179730538Y-110589771D01*
X180186159Y-110680400D01*
X180493841Y-110680400D01*
X180949462Y-110589771D01*
X181466139Y-110244539D01*
X181610000Y-110029235D01*
X181753861Y-110244539D01*
X182270538Y-110589771D01*
X182726159Y-110680400D01*
X183033841Y-110680400D01*
X183489462Y-110589771D01*
X183947604Y-110283651D01*
X184070629Y-110467771D01*
X184322683Y-110636188D01*
X184620000Y-110695328D01*
X186220000Y-110695328D01*
X186517317Y-110636188D01*
X186769371Y-110467771D01*
X186937788Y-110215717D01*
X186996928Y-109918400D01*
X186996928Y-108318400D01*
X186937788Y-108021083D01*
X186769371Y-107769029D01*
X186517317Y-107600612D01*
X186220000Y-107541472D01*
X184620000Y-107541472D01*
X184322683Y-107600612D01*
X184070629Y-107769029D01*
X183947604Y-107953149D01*
X183489462Y-107647029D01*
X183033841Y-107556400D01*
X182726159Y-107556400D01*
X182270538Y-107647029D01*
X181753861Y-107992261D01*
X181610000Y-108207565D01*
X181466139Y-107992261D01*
X180949462Y-107647029D01*
X180493841Y-107556400D01*
X180186159Y-107556400D01*
X179730538Y-107647029D01*
X179213861Y-107992261D01*
X179070000Y-108207565D01*
X178926139Y-107992261D01*
X178409462Y-107647029D01*
X177953841Y-107556400D01*
X177646159Y-107556400D01*
X177190538Y-107647029D01*
X176673861Y-107992261D01*
X176530000Y-108207565D01*
X176386139Y-107992261D01*
X175869462Y-107647029D01*
X175413841Y-107556400D01*
X175106159Y-107556400D01*
X174650538Y-107647029D01*
X174133861Y-107992261D01*
X173990000Y-108207565D01*
X173846139Y-107992261D01*
X173329462Y-107647029D01*
X172873841Y-107556400D01*
X172566159Y-107556400D01*
X172110538Y-107647029D01*
X171593861Y-107992261D01*
X171450000Y-108207565D01*
X171306139Y-107992261D01*
X170789462Y-107647029D01*
X170333841Y-107556400D01*
X170026159Y-107556400D01*
X169570538Y-107647029D01*
X169053861Y-107992261D01*
X168910000Y-108207565D01*
X168766139Y-107992261D01*
X168249462Y-107647029D01*
X167793841Y-107556400D01*
X167486159Y-107556400D01*
X167030538Y-107647029D01*
X166513861Y-107992261D01*
X166370000Y-108207565D01*
X166226139Y-107992261D01*
X165709462Y-107647029D01*
X165253841Y-107556400D01*
X164946159Y-107556400D01*
X164490538Y-107647029D01*
X163973861Y-107992261D01*
X163830000Y-108207565D01*
X163686139Y-107992261D01*
X163169462Y-107647029D01*
X162713841Y-107556400D01*
X162406159Y-107556400D01*
X161950538Y-107647029D01*
X161433861Y-107992261D01*
X161290000Y-108207565D01*
X161146139Y-107992261D01*
X160629462Y-107647029D01*
X160173841Y-107556400D01*
X159866159Y-107556400D01*
X159410538Y-107647029D01*
X158893861Y-107992261D01*
X158750000Y-108207565D01*
X158606139Y-107992261D01*
X158089462Y-107647029D01*
X157633841Y-107556400D01*
X157326159Y-107556400D01*
X156870538Y-107647029D01*
X156353861Y-107992261D01*
X156210000Y-108207565D01*
X156066139Y-107992261D01*
X155549462Y-107647029D01*
X155093841Y-107556400D01*
X154786159Y-107556400D01*
X154330538Y-107647029D01*
X153813861Y-107992261D01*
X153670000Y-108207565D01*
X153526139Y-107992261D01*
X153009462Y-107647029D01*
X152553841Y-107556400D01*
X152246159Y-107556400D01*
X151790538Y-107647029D01*
X151273861Y-107992261D01*
X151130000Y-108207565D01*
X150986139Y-107992261D01*
X150469462Y-107647029D01*
X150013841Y-107556400D01*
X149706159Y-107556400D01*
X149250538Y-107647029D01*
X148733861Y-107992261D01*
X148590000Y-108207565D01*
X148446139Y-107992261D01*
X147929462Y-107647029D01*
X147473841Y-107556400D01*
X147166159Y-107556400D01*
X146710538Y-107647029D01*
X146193861Y-107992261D01*
X146050000Y-108207565D01*
X145906139Y-107992261D01*
X145389462Y-107647029D01*
X144933841Y-107556400D01*
X144626159Y-107556400D01*
X144170538Y-107647029D01*
X143653861Y-107992261D01*
X143510000Y-108207565D01*
X143366139Y-107992261D01*
X142849462Y-107647029D01*
X142393841Y-107556400D01*
X142086159Y-107556400D01*
X141630538Y-107647029D01*
X141113861Y-107992261D01*
X140768629Y-108508938D01*
X140647399Y-109118400D01*
X133296000Y-109118400D01*
X133296000Y-106215940D01*
X133314845Y-106121199D01*
X133296000Y-106026458D01*
X133296000Y-106026454D01*
X133240184Y-105745846D01*
X133027563Y-105427637D01*
X132947239Y-105373966D01*
X131592834Y-104019561D01*
X131539163Y-103939237D01*
X131220954Y-103726616D01*
X130940346Y-103670800D01*
X130845600Y-103651954D01*
X130750854Y-103670800D01*
X128243159Y-103670800D01*
X128300971Y-103632171D01*
X128469388Y-103380117D01*
X128528528Y-103082800D01*
X128528528Y-102382800D01*
X128469388Y-102085483D01*
X128300971Y-101833429D01*
X128116000Y-101709835D01*
X128116000Y-98252704D01*
X128251317Y-98225788D01*
X128503371Y-98057371D01*
X128671788Y-97805317D01*
X128730928Y-97508000D01*
X128730928Y-94008000D01*
X128671788Y-93710683D01*
X128503371Y-93458629D01*
X128251317Y-93290212D01*
X127954000Y-93231072D01*
X126354000Y-93231072D01*
X126056683Y-93290212D01*
X125804629Y-93458629D01*
X125636212Y-93710683D01*
X125577072Y-94008000D01*
X125577072Y-97508000D01*
X125636212Y-97805317D01*
X125804629Y-98057371D01*
X126056683Y-98225788D01*
X126192000Y-98252704D01*
X126192001Y-101657509D01*
X126154283Y-101665012D01*
X125902229Y-101833429D01*
X125733812Y-102085483D01*
X125674672Y-102382800D01*
X125674672Y-103082800D01*
X125733812Y-103380117D01*
X125902229Y-103632171D01*
X125978001Y-103682800D01*
X125902229Y-103733429D01*
X125733812Y-103985483D01*
X125674672Y-104282800D01*
X125674672Y-104982800D01*
X125733812Y-105280117D01*
X125902229Y-105532171D01*
X126154283Y-105700588D01*
X126451600Y-105759728D01*
X127751600Y-105759728D01*
X128048917Y-105700588D01*
X128207240Y-105594800D01*
X130447127Y-105594800D01*
X131372001Y-106519674D01*
X131372000Y-114257126D01*
X130741727Y-114887400D01*
X130142928Y-114887400D01*
X130142928Y-114574400D01*
X130083788Y-114277083D01*
X129915371Y-114025029D01*
X129663317Y-113856612D01*
X129366000Y-113797472D01*
X126666000Y-113797472D01*
X126368683Y-113856612D01*
X126116629Y-114025029D01*
X125948212Y-114277083D01*
X125889072Y-114574400D01*
X125889072Y-114887400D01*
X124478545Y-114887400D01*
X124383799Y-114868554D01*
X124216579Y-114901816D01*
X124008446Y-114943216D01*
X123690237Y-115155837D01*
X123636568Y-115236158D01*
X122943927Y-115928800D01*
X122231673Y-115928800D01*
X122089771Y-115716429D01*
X121989736Y-115649588D01*
X121946584Y-115432646D01*
X121791213Y-115200118D01*
X121809388Y-115172917D01*
X121868528Y-114875600D01*
X121868528Y-112675600D01*
X121809388Y-112378283D01*
X121640971Y-112126229D01*
X121388917Y-111957812D01*
X121091600Y-111898672D01*
X119891600Y-111898672D01*
X119594283Y-111957812D01*
X119342229Y-112126229D01*
X119173812Y-112378283D01*
X119114672Y-112675600D01*
X117308528Y-112675600D01*
X117249388Y-112378283D01*
X117080971Y-112126229D01*
X116828917Y-111957812D01*
X116531600Y-111898672D01*
X115331600Y-111898672D01*
X115034283Y-111957812D01*
X114782229Y-112126229D01*
X114613812Y-112378283D01*
X114554672Y-112675600D01*
X114554672Y-114875600D01*
X114594871Y-115077694D01*
X114531245Y-115172917D01*
X114527416Y-115178647D01*
X114452754Y-115554000D01*
X114471600Y-115648746D01*
X114471600Y-115658050D01*
X114384229Y-115716429D01*
X114215812Y-115968483D01*
X114156672Y-116265800D01*
X114156672Y-117515800D01*
X114215812Y-117813117D01*
X114384229Y-118065171D01*
X114471601Y-118123551D01*
X114471600Y-121130054D01*
X114452754Y-121224800D01*
X114489244Y-121408246D01*
X114527416Y-121600153D01*
X114740037Y-121918363D01*
X114820360Y-121972034D01*
X115903401Y-123055075D01*
X115903400Y-127921072D01*
X115590400Y-127921072D01*
X115293083Y-127980212D01*
X115041029Y-128148629D01*
X114872612Y-128400683D01*
X114813472Y-128698000D01*
X114813472Y-129192848D01*
X114571637Y-129354437D01*
X114517968Y-129434758D01*
X113734023Y-130218704D01*
X113703771Y-130173429D01*
X113451717Y-130005012D01*
X113154400Y-129945872D01*
X109654400Y-129945872D01*
X109357083Y-130005012D01*
X109105029Y-130173429D01*
X108936612Y-130425483D01*
X108877472Y-130722800D01*
X90499000Y-130722800D01*
X90499000Y-123722000D01*
X92973072Y-123722000D01*
X92973072Y-126722000D01*
X93032212Y-127019317D01*
X93200629Y-127271371D01*
X93452683Y-127439788D01*
X93750000Y-127498928D01*
X96750000Y-127498928D01*
X97047317Y-127439788D01*
X97299371Y-127271371D01*
X97467788Y-127019317D01*
X97526928Y-126722000D01*
X97526928Y-123722000D01*
X97467788Y-123424683D01*
X97299371Y-123172629D01*
X97047317Y-123004212D01*
X96750000Y-122945072D01*
X96278730Y-122945072D01*
X96283371Y-122941971D01*
X96451788Y-122689917D01*
X96453999Y-122678800D01*
X96883527Y-122678800D01*
X97550767Y-123346041D01*
X97604437Y-123426363D01*
X97684758Y-123480032D01*
X97922646Y-123638984D01*
X98298000Y-123713646D01*
X98392746Y-123694800D01*
X99150272Y-123694800D01*
X99150272Y-123882800D01*
X99209412Y-124180117D01*
X99377829Y-124432171D01*
X99629883Y-124600588D01*
X99927200Y-124659728D01*
X102427200Y-124659728D01*
X102724517Y-124600588D01*
X102976571Y-124432171D01*
X103144988Y-124180117D01*
X103204128Y-123882800D01*
X103204128Y-121582800D01*
X103450272Y-121582800D01*
X103450272Y-123882800D01*
X103509412Y-124180117D01*
X103677829Y-124432171D01*
X103929883Y-124600588D01*
X104227200Y-124659728D01*
X106718000Y-124659728D01*
X106718001Y-125411649D01*
X106630629Y-125470029D01*
X106462212Y-125722083D01*
X106403072Y-126019400D01*
X106403072Y-127269400D01*
X106462212Y-127566717D01*
X106630629Y-127818771D01*
X106882683Y-127987188D01*
X107180000Y-128046328D01*
X108180000Y-128046328D01*
X108477317Y-127987188D01*
X108729371Y-127818771D01*
X108871273Y-127606400D01*
X108910014Y-127606400D01*
X108936612Y-127740117D01*
X109105029Y-127992171D01*
X109357083Y-128160588D01*
X109654400Y-128219728D01*
X113154400Y-128219728D01*
X113451717Y-128160588D01*
X113703771Y-127992171D01*
X113872188Y-127740117D01*
X113931328Y-127442800D01*
X113931328Y-125842800D01*
X113872188Y-125545483D01*
X113703771Y-125293429D01*
X113451717Y-125125012D01*
X113154400Y-125065872D01*
X109654400Y-125065872D01*
X109357083Y-125125012D01*
X109105029Y-125293429D01*
X108936612Y-125545483D01*
X108909378Y-125682400D01*
X108871273Y-125682400D01*
X108729371Y-125470029D01*
X108642000Y-125411650D01*
X108642000Y-123421145D01*
X108660846Y-123326399D01*
X108586184Y-122951046D01*
X108543409Y-122887029D01*
X108373563Y-122632837D01*
X108293240Y-122579167D01*
X107833634Y-122119561D01*
X107779963Y-122039237D01*
X107504128Y-121854929D01*
X107504128Y-121582800D01*
X107444988Y-121285483D01*
X107276571Y-121033429D01*
X107024517Y-120865012D01*
X106727200Y-120805872D01*
X104227200Y-120805872D01*
X103929883Y-120865012D01*
X103677829Y-121033429D01*
X103509412Y-121285483D01*
X103450272Y-121582800D01*
X103204128Y-121582800D01*
X103144988Y-121285483D01*
X102976571Y-121033429D01*
X102724517Y-120865012D01*
X102427200Y-120805872D01*
X99927200Y-120805872D01*
X99629883Y-120865012D01*
X99377829Y-121033429D01*
X99209412Y-121285483D01*
X99150272Y-121582800D01*
X99150272Y-121770800D01*
X98696474Y-121770800D01*
X98029234Y-121103560D01*
X97975563Y-121023237D01*
X97657354Y-120810616D01*
X97376746Y-120754800D01*
X97282000Y-120735954D01*
X97187254Y-120754800D01*
X96391329Y-120754800D01*
X96283371Y-120593229D01*
X96031317Y-120424812D01*
X95734000Y-120365672D01*
X94734000Y-120365672D01*
X94436683Y-120424812D01*
X94184629Y-120593229D01*
X94016212Y-120845283D01*
X93957072Y-121142600D01*
X93957072Y-122392600D01*
X94016212Y-122689917D01*
X94184629Y-122941971D01*
X94189270Y-122945072D01*
X93750000Y-122945072D01*
X93452683Y-123004212D01*
X93200629Y-123172629D01*
X93032212Y-123424683D01*
X92973072Y-123722000D01*
X90499000Y-123722000D01*
X90499000Y-113339916D01*
X91001200Y-113339916D01*
X91001200Y-114040884D01*
X91269448Y-114688493D01*
X91765107Y-115184152D01*
X92412716Y-115452400D01*
X93113684Y-115452400D01*
X93761293Y-115184152D01*
X94256952Y-114688493D01*
X94271902Y-114652400D01*
X97754498Y-114652400D01*
X97769448Y-114688493D01*
X98265107Y-115184152D01*
X98912716Y-115452400D01*
X99613684Y-115452400D01*
X100261293Y-115184152D01*
X100756952Y-114688493D01*
X101025200Y-114040884D01*
X101025200Y-113339916D01*
X100756952Y-112692307D01*
X100261293Y-112196648D01*
X99613684Y-111928400D01*
X98912716Y-111928400D01*
X98265107Y-112196648D01*
X97769448Y-112692307D01*
X97754498Y-112728400D01*
X94271902Y-112728400D01*
X94256952Y-112692307D01*
X93761293Y-112196648D01*
X93725200Y-112181698D01*
X93725200Y-112137726D01*
X93884371Y-112031371D01*
X94052788Y-111779317D01*
X94111928Y-111482000D01*
X94111928Y-110482000D01*
X94052788Y-110184683D01*
X93884371Y-109932629D01*
X93632317Y-109764212D01*
X93335000Y-109705072D01*
X92085000Y-109705072D01*
X91787683Y-109764212D01*
X91535629Y-109932629D01*
X91367212Y-110184683D01*
X91308072Y-110482000D01*
X91308072Y-111482000D01*
X91367212Y-111779317D01*
X91535629Y-112031371D01*
X91776143Y-112192077D01*
X91765107Y-112196648D01*
X91269448Y-112692307D01*
X91001200Y-113339916D01*
X90499000Y-113339916D01*
X90499000Y-101554316D01*
X91001200Y-101554316D01*
X91001200Y-102255284D01*
X91269448Y-102902893D01*
X91765107Y-103398552D01*
X92412716Y-103666800D01*
X93113684Y-103666800D01*
X93761293Y-103398552D01*
X94256952Y-102902893D01*
X94271902Y-102866800D01*
X97754498Y-102866800D01*
X97769448Y-102902893D01*
X98265107Y-103398552D01*
X98912716Y-103666800D01*
X99613684Y-103666800D01*
X100261293Y-103398552D01*
X100756952Y-102902893D01*
X101025200Y-102255284D01*
X101025200Y-101554316D01*
X100756952Y-100906707D01*
X100261293Y-100411048D01*
X99613684Y-100142800D01*
X98912716Y-100142800D01*
X98265107Y-100411048D01*
X97769448Y-100906707D01*
X97754498Y-100942800D01*
X94271902Y-100942800D01*
X94256952Y-100906707D01*
X93772420Y-100422175D01*
X93884371Y-100347371D01*
X94052788Y-100095317D01*
X94111928Y-99798000D01*
X94111928Y-98798000D01*
X94052788Y-98500683D01*
X93884371Y-98248629D01*
X93632317Y-98080212D01*
X93335000Y-98021072D01*
X92085000Y-98021072D01*
X91787683Y-98080212D01*
X91535629Y-98248629D01*
X91367212Y-98500683D01*
X91308072Y-98798000D01*
X91308072Y-99798000D01*
X91367212Y-100095317D01*
X91535629Y-100347371D01*
X91711363Y-100464792D01*
X91269448Y-100906707D01*
X91001200Y-101554316D01*
X90499000Y-101554316D01*
X90499000Y-95008000D01*
X116971072Y-95008000D01*
X116971072Y-96508000D01*
X117030212Y-96805317D01*
X117198629Y-97057371D01*
X117450683Y-97225788D01*
X117748000Y-97284928D01*
X119698000Y-97284928D01*
X119995317Y-97225788D01*
X120247371Y-97057371D01*
X120415788Y-96805317D01*
X120432759Y-96720000D01*
X120697072Y-96720000D01*
X120697072Y-97508000D01*
X120756212Y-97805317D01*
X120924629Y-98057371D01*
X121176683Y-98225788D01*
X121474000Y-98284928D01*
X123074000Y-98284928D01*
X123371317Y-98225788D01*
X123623371Y-98057371D01*
X123791788Y-97805317D01*
X123850928Y-97508000D01*
X123850928Y-94008000D01*
X123791788Y-93710683D01*
X123623371Y-93458629D01*
X123371317Y-93290212D01*
X123074000Y-93231072D01*
X121474000Y-93231072D01*
X121176683Y-93290212D01*
X120924629Y-93458629D01*
X120756212Y-93710683D01*
X120697072Y-94008000D01*
X120697072Y-94796000D01*
X120432759Y-94796000D01*
X120415788Y-94710683D01*
X120247371Y-94458629D01*
X119995317Y-94290212D01*
X119698000Y-94231072D01*
X119685000Y-94231072D01*
X119685000Y-93814858D01*
X119781600Y-93581645D01*
X119781600Y-93159155D01*
X119619920Y-92768825D01*
X119321175Y-92470080D01*
X118930845Y-92308400D01*
X118508355Y-92308400D01*
X118118025Y-92470080D01*
X117819280Y-92768825D01*
X117657600Y-93159155D01*
X117657600Y-93581645D01*
X117761000Y-93831275D01*
X117761000Y-94231072D01*
X117748000Y-94231072D01*
X117450683Y-94290212D01*
X117198629Y-94458629D01*
X117030212Y-94710683D01*
X116971072Y-95008000D01*
X90499000Y-95008000D01*
X90499000Y-89768716D01*
X91001200Y-89768716D01*
X91001200Y-90469684D01*
X91269448Y-91117293D01*
X91765107Y-91612952D01*
X92412716Y-91881200D01*
X93113684Y-91881200D01*
X93761293Y-91612952D01*
X94256952Y-91117293D01*
X94271902Y-91081200D01*
X97754498Y-91081200D01*
X97769448Y-91117293D01*
X98265107Y-91612952D01*
X98912716Y-91881200D01*
X99613684Y-91881200D01*
X100261293Y-91612952D01*
X100756952Y-91117293D01*
X101025200Y-90469684D01*
X101025200Y-89768716D01*
X100756952Y-89121107D01*
X100261293Y-88625448D01*
X99613684Y-88357200D01*
X98912716Y-88357200D01*
X98265107Y-88625448D01*
X97769448Y-89121107D01*
X97754498Y-89157200D01*
X94271902Y-89157200D01*
X94256952Y-89121107D01*
X93761293Y-88625448D01*
X93725200Y-88610498D01*
X93725200Y-88515726D01*
X93884371Y-88409371D01*
X94052788Y-88157317D01*
X94111928Y-87860000D01*
X94111928Y-86860000D01*
X94052788Y-86562683D01*
X93884371Y-86310629D01*
X93632317Y-86142212D01*
X93335000Y-86083072D01*
X92085000Y-86083072D01*
X91787683Y-86142212D01*
X91535629Y-86310629D01*
X91367212Y-86562683D01*
X91308072Y-86860000D01*
X91308072Y-87860000D01*
X91367212Y-88157317D01*
X91535629Y-88409371D01*
X91787683Y-88577788D01*
X91801201Y-88580477D01*
X91801201Y-88610498D01*
X91765107Y-88625448D01*
X91269448Y-89121107D01*
X91001200Y-89768716D01*
X90499000Y-89768716D01*
X90499000Y-77830716D01*
X91001200Y-77830716D01*
X91001200Y-78531684D01*
X91269448Y-79179293D01*
X91765107Y-79674952D01*
X92412716Y-79943200D01*
X93113684Y-79943200D01*
X93761293Y-79674952D01*
X94256952Y-79179293D01*
X94271902Y-79143200D01*
X97754498Y-79143200D01*
X97769448Y-79179293D01*
X98265107Y-79674952D01*
X98912716Y-79943200D01*
X99613684Y-79943200D01*
X100261293Y-79674952D01*
X100756952Y-79179293D01*
X101025200Y-78531684D01*
X101025200Y-77830716D01*
X100756952Y-77183107D01*
X100261293Y-76687448D01*
X99613684Y-76419200D01*
X98912716Y-76419200D01*
X98265107Y-76687448D01*
X97769448Y-77183107D01*
X97754498Y-77219200D01*
X94271902Y-77219200D01*
X94256952Y-77183107D01*
X93833324Y-76759479D01*
X93884371Y-76725371D01*
X94052788Y-76473317D01*
X94111928Y-76176000D01*
X94111928Y-75176000D01*
X94052788Y-74878683D01*
X93884371Y-74626629D01*
X93632317Y-74458212D01*
X93335000Y-74399072D01*
X92085000Y-74399072D01*
X91787683Y-74458212D01*
X91535629Y-74626629D01*
X91367212Y-74878683D01*
X91308072Y-75176000D01*
X91308072Y-76176000D01*
X91367212Y-76473317D01*
X91535629Y-76725371D01*
X91650458Y-76802097D01*
X91269448Y-77183107D01*
X91001200Y-77830716D01*
X90499000Y-77830716D01*
X90499000Y-68229516D01*
X93488000Y-68229516D01*
X93488000Y-68930484D01*
X93756248Y-69578093D01*
X94251907Y-70073752D01*
X94899516Y-70342000D01*
X95600484Y-70342000D01*
X96248093Y-70073752D01*
X96743752Y-69578093D01*
X96758702Y-69542000D01*
X98813927Y-69542000D01*
X100598767Y-71326841D01*
X100652437Y-71407163D01*
X100732758Y-71460832D01*
X100970646Y-71619784D01*
X101345999Y-71694446D01*
X101440745Y-71675600D01*
X110520854Y-71675600D01*
X110636429Y-71848571D01*
X110888483Y-72016988D01*
X111185800Y-72076128D01*
X112435800Y-72076128D01*
X112733117Y-72016988D01*
X112985171Y-71848571D01*
X113043550Y-71761200D01*
X113114267Y-71761200D01*
X113165029Y-71837171D01*
X113417083Y-72005588D01*
X113714400Y-72064728D01*
X114714400Y-72064728D01*
X115011717Y-72005588D01*
X115214400Y-71870160D01*
X115417083Y-72005588D01*
X115714400Y-72064728D01*
X115814655Y-72064728D01*
X116549966Y-72800039D01*
X116603637Y-72880363D01*
X116921846Y-73092984D01*
X117202454Y-73148800D01*
X117202458Y-73148800D01*
X117297199Y-73167645D01*
X117391940Y-73148800D01*
X117715790Y-73148800D01*
X117799283Y-73204588D01*
X118096600Y-73263728D01*
X119596600Y-73263728D01*
X119772638Y-73228712D01*
X120169600Y-73625674D01*
X120169601Y-75910472D01*
X120156600Y-75910472D01*
X119859283Y-75969612D01*
X119607229Y-76138029D01*
X119595941Y-76154922D01*
X119489517Y-76083812D01*
X119192200Y-76024672D01*
X117942200Y-76024672D01*
X117644883Y-76083812D01*
X117392829Y-76252229D01*
X117224412Y-76504283D01*
X117165272Y-76801600D01*
X117165272Y-77801600D01*
X117172072Y-77835785D01*
X116968400Y-77795272D01*
X115968400Y-77795272D01*
X115671083Y-77854412D01*
X115419029Y-78022829D01*
X115250612Y-78274883D01*
X115191472Y-78572200D01*
X115191472Y-79822200D01*
X115250612Y-80119517D01*
X115419029Y-80371571D01*
X115671083Y-80539988D01*
X115874313Y-80580413D01*
X114493855Y-81960872D01*
X114038000Y-81960872D01*
X113740683Y-82020012D01*
X113538000Y-82155440D01*
X113335317Y-82020012D01*
X113038000Y-81960872D01*
X112038000Y-81960872D01*
X111740683Y-82020012D01*
X111488629Y-82188429D01*
X111344623Y-82403949D01*
X111079846Y-82456616D01*
X110917986Y-82564768D01*
X110761637Y-82669237D01*
X110707968Y-82749558D01*
X109927558Y-83529969D01*
X109847238Y-83583637D01*
X109793569Y-83663958D01*
X109793568Y-83663959D01*
X109634616Y-83901847D01*
X109562901Y-84262385D01*
X109523012Y-84322083D01*
X109463872Y-84619400D01*
X109463872Y-86119400D01*
X109523012Y-86416717D01*
X109691429Y-86668771D01*
X109943483Y-86837188D01*
X110240800Y-86896328D01*
X110840800Y-86896328D01*
X111138117Y-86837188D01*
X111390171Y-86668771D01*
X111558588Y-86416717D01*
X111617728Y-86119400D01*
X111617728Y-84623432D01*
X111740683Y-84705588D01*
X112038000Y-84764728D01*
X113038000Y-84764728D01*
X113335317Y-84705588D01*
X113538000Y-84570160D01*
X113740683Y-84705588D01*
X114038000Y-84764728D01*
X115038000Y-84764728D01*
X115335317Y-84705588D01*
X115587371Y-84537171D01*
X115755788Y-84285117D01*
X115814928Y-83987800D01*
X115814928Y-83360745D01*
X117051274Y-82124400D01*
X117334450Y-82124400D01*
X117392829Y-82211771D01*
X117562763Y-82325317D01*
X117485812Y-82440483D01*
X117426672Y-82737800D01*
X117426672Y-83987800D01*
X117479383Y-84252796D01*
X117392829Y-84310629D01*
X117334450Y-84398000D01*
X117274340Y-84398000D01*
X117179599Y-84379155D01*
X117084858Y-84398000D01*
X117084854Y-84398000D01*
X116804246Y-84453816D01*
X116486037Y-84666437D01*
X116432368Y-84746758D01*
X115769560Y-85409567D01*
X115689237Y-85463237D01*
X115498595Y-85748553D01*
X115495894Y-85752596D01*
X115435483Y-85764612D01*
X115183429Y-85933029D01*
X115015012Y-86185083D01*
X114955872Y-86482400D01*
X114955872Y-87182400D01*
X115015012Y-87479717D01*
X115183429Y-87731771D01*
X115435483Y-87900188D01*
X115732800Y-87959328D01*
X117032800Y-87959328D01*
X117330117Y-87900188D01*
X117582171Y-87731771D01*
X117750588Y-87479717D01*
X117809728Y-87182400D01*
X117809728Y-86610578D01*
X117942200Y-86636928D01*
X119192200Y-86636928D01*
X119430985Y-86589431D01*
X119379672Y-86847400D01*
X119379672Y-87447400D01*
X119438812Y-87744717D01*
X119463991Y-87782400D01*
X119438812Y-87820083D01*
X119379672Y-88117400D01*
X119379672Y-88717400D01*
X119438812Y-89014717D01*
X119607229Y-89266771D01*
X119859283Y-89435188D01*
X120156600Y-89494328D01*
X122106600Y-89494328D01*
X122403917Y-89435188D01*
X122655971Y-89266771D01*
X122824388Y-89014717D01*
X122883528Y-88717400D01*
X122883528Y-88117400D01*
X122824388Y-87820083D01*
X122799209Y-87782400D01*
X122824388Y-87744717D01*
X122883528Y-87447400D01*
X122883528Y-86847400D01*
X122824388Y-86550083D01*
X122799209Y-86512400D01*
X122824388Y-86474717D01*
X122883528Y-86177400D01*
X122883528Y-85577400D01*
X122881937Y-85569400D01*
X125186255Y-85569400D01*
X125366355Y-85644000D01*
X125788845Y-85644000D01*
X126179175Y-85482320D01*
X126477920Y-85183575D01*
X126639600Y-84793245D01*
X126639600Y-84370755D01*
X126477920Y-83980425D01*
X126179175Y-83681680D01*
X125788845Y-83520000D01*
X125366355Y-83520000D01*
X125063613Y-83645400D01*
X124455402Y-83645400D01*
X124506000Y-83523245D01*
X124506000Y-83100755D01*
X124344320Y-82710425D01*
X124045575Y-82411680D01*
X123655245Y-82250000D01*
X123232755Y-82250000D01*
X122930013Y-82375400D01*
X122881937Y-82375400D01*
X122883528Y-82367400D01*
X122883528Y-81767400D01*
X122824388Y-81470083D01*
X122799209Y-81432400D01*
X122824388Y-81394717D01*
X122883528Y-81097400D01*
X122883528Y-80497400D01*
X122824388Y-80200083D01*
X122799209Y-80162400D01*
X122824388Y-80124717D01*
X122883528Y-79827400D01*
X122883528Y-79341555D01*
X127462000Y-79341555D01*
X127462000Y-79764045D01*
X127623680Y-80154375D01*
X127922425Y-80453120D01*
X128312755Y-80614800D01*
X128735245Y-80614800D01*
X128779672Y-80596398D01*
X128779672Y-81097400D01*
X128838812Y-81394717D01*
X128863991Y-81432400D01*
X128838812Y-81470083D01*
X128779672Y-81767400D01*
X128779672Y-82367400D01*
X128838812Y-82664717D01*
X129007229Y-82916771D01*
X129259283Y-83085188D01*
X129556600Y-83144328D01*
X131506600Y-83144328D01*
X131803917Y-83085188D01*
X131887410Y-83029400D01*
X131921613Y-83029400D01*
X132133542Y-83117184D01*
X131684807Y-83565920D01*
X131506600Y-83530472D01*
X129556600Y-83530472D01*
X129259283Y-83589612D01*
X129007229Y-83758029D01*
X128838812Y-84010083D01*
X128779672Y-84307400D01*
X128779672Y-84907400D01*
X128838812Y-85204717D01*
X128863991Y-85242400D01*
X128838812Y-85280083D01*
X128779672Y-85577400D01*
X128779672Y-86177400D01*
X128838812Y-86474717D01*
X128863991Y-86512400D01*
X128838812Y-86550083D01*
X128779672Y-86847400D01*
X128779672Y-87447400D01*
X128838812Y-87744717D01*
X128863991Y-87782400D01*
X128838812Y-87820083D01*
X128779672Y-88117400D01*
X128779672Y-88717400D01*
X128838812Y-89014717D01*
X129007229Y-89266771D01*
X129259283Y-89435188D01*
X129556600Y-89494328D01*
X131506600Y-89494328D01*
X131803917Y-89435188D01*
X131984161Y-89314753D01*
X132173683Y-89441388D01*
X132471000Y-89500528D01*
X133721000Y-89500528D01*
X134018317Y-89441388D01*
X134270371Y-89272971D01*
X134347252Y-89157910D01*
X134348629Y-89159971D01*
X134600683Y-89328388D01*
X134898000Y-89387528D01*
X135898000Y-89387528D01*
X136195317Y-89328388D01*
X136447371Y-89159971D01*
X136615788Y-88907917D01*
X136674928Y-88610600D01*
X136674928Y-87360600D01*
X136615788Y-87063283D01*
X136447371Y-86811229D01*
X136303562Y-86715139D01*
X136322371Y-86702571D01*
X136398000Y-86589384D01*
X136473629Y-86702571D01*
X136725683Y-86870988D01*
X137023000Y-86930128D01*
X137673000Y-86930128D01*
X137970317Y-86870988D01*
X138222371Y-86702571D01*
X138390788Y-86450517D01*
X138449928Y-86153200D01*
X138449928Y-84593200D01*
X138390788Y-84295883D01*
X138222371Y-84043829D01*
X138191498Y-84023200D01*
X138222371Y-84002571D01*
X138390788Y-83750517D01*
X138449928Y-83453200D01*
X138449928Y-81893200D01*
X138390788Y-81595883D01*
X138222371Y-81343829D01*
X137970317Y-81175412D01*
X137673000Y-81116272D01*
X137023000Y-81116272D01*
X136725683Y-81175412D01*
X136589473Y-81266425D01*
X136624128Y-81092200D01*
X136624128Y-79842200D01*
X136564988Y-79544883D01*
X136396571Y-79292829D01*
X136342013Y-79256375D01*
X136398000Y-79172584D01*
X136473629Y-79285771D01*
X136725683Y-79454188D01*
X137023000Y-79513328D01*
X137673000Y-79513328D01*
X137970317Y-79454188D01*
X138222371Y-79285771D01*
X138390788Y-79033717D01*
X138449928Y-78736400D01*
X138449928Y-77176400D01*
X138390788Y-76879083D01*
X138222371Y-76627029D01*
X138191498Y-76606400D01*
X138222371Y-76585771D01*
X138390788Y-76333717D01*
X138449928Y-76036400D01*
X138449928Y-74476400D01*
X138390788Y-74179083D01*
X138222371Y-73927029D01*
X137970317Y-73758612D01*
X137673000Y-73699472D01*
X137023000Y-73699472D01*
X136725683Y-73758612D01*
X136473629Y-73927029D01*
X136398000Y-74040216D01*
X136322371Y-73927029D01*
X136070317Y-73758612D01*
X135773000Y-73699472D01*
X135123000Y-73699472D01*
X134825683Y-73758612D01*
X134573629Y-73927029D01*
X134405212Y-74179083D01*
X134382274Y-74294400D01*
X134290971Y-74294400D01*
X134120045Y-74223600D01*
X133697555Y-74223600D01*
X133307225Y-74385280D01*
X133008480Y-74684025D01*
X132846800Y-75074355D01*
X132846800Y-75496845D01*
X133008480Y-75887175D01*
X133146705Y-76025400D01*
X131887410Y-76025400D01*
X131803917Y-75969612D01*
X131506600Y-75910472D01*
X129556600Y-75910472D01*
X129259283Y-75969612D01*
X129007229Y-76138029D01*
X128838812Y-76390083D01*
X128779672Y-76687400D01*
X128779672Y-77287400D01*
X128838812Y-77584717D01*
X128863991Y-77622400D01*
X128838812Y-77660083D01*
X128779672Y-77957400D01*
X128779672Y-78509202D01*
X128735245Y-78490800D01*
X128312755Y-78490800D01*
X127922425Y-78652480D01*
X127623680Y-78951225D01*
X127462000Y-79341555D01*
X122883528Y-79341555D01*
X122883528Y-79227400D01*
X122824388Y-78930083D01*
X122799209Y-78892400D01*
X122824388Y-78854717D01*
X122883528Y-78557400D01*
X122883528Y-77957400D01*
X122824388Y-77660083D01*
X122799209Y-77622400D01*
X122824388Y-77584717D01*
X122883528Y-77287400D01*
X122883528Y-76687400D01*
X122824388Y-76390083D01*
X122655971Y-76138029D01*
X122403917Y-75969612D01*
X122106600Y-75910472D01*
X122093600Y-75910472D01*
X122093600Y-73321946D01*
X122112446Y-73227200D01*
X122037784Y-72851846D01*
X121878832Y-72613958D01*
X121825163Y-72533637D01*
X121744842Y-72479969D01*
X120838434Y-71573560D01*
X120784763Y-71493237D01*
X120466554Y-71280616D01*
X120185946Y-71224800D01*
X120091200Y-71205954D01*
X119996454Y-71224800D01*
X119977410Y-71224800D01*
X119893917Y-71169012D01*
X119596600Y-71109872D01*
X118096600Y-71109872D01*
X117799283Y-71169012D01*
X117715790Y-71224800D01*
X117695673Y-71224800D01*
X117491328Y-71020455D01*
X117491328Y-70037800D01*
X117432188Y-69740483D01*
X117263771Y-69488429D01*
X117011717Y-69320012D01*
X116714400Y-69260872D01*
X115714400Y-69260872D01*
X115417083Y-69320012D01*
X115214400Y-69455440D01*
X115011717Y-69320012D01*
X114714400Y-69260872D01*
X113714400Y-69260872D01*
X113417083Y-69320012D01*
X113165029Y-69488429D01*
X112996612Y-69740483D01*
X112992555Y-69760880D01*
X112985171Y-69749829D01*
X112733117Y-69581412D01*
X112435800Y-69522272D01*
X111185800Y-69522272D01*
X110888483Y-69581412D01*
X110636429Y-69749829D01*
X110635246Y-69751600D01*
X101744474Y-69751600D01*
X99959634Y-67966761D01*
X99933601Y-67927800D01*
X122309672Y-67927800D01*
X122309672Y-68527800D01*
X122368812Y-68825117D01*
X122537229Y-69077171D01*
X122789283Y-69245588D01*
X123086600Y-69304728D01*
X124586600Y-69304728D01*
X124883917Y-69245588D01*
X124967410Y-69189800D01*
X125369799Y-69189800D01*
X125509429Y-69398771D01*
X125761483Y-69567188D01*
X126058800Y-69626328D01*
X127058800Y-69626328D01*
X127356117Y-69567188D01*
X127608171Y-69398771D01*
X127776588Y-69146717D01*
X127835728Y-68849400D01*
X127835728Y-67599400D01*
X127776588Y-67302083D01*
X127608171Y-67050029D01*
X127356117Y-66881612D01*
X127058800Y-66822472D01*
X126058800Y-66822472D01*
X125761483Y-66881612D01*
X125509429Y-67050029D01*
X125365256Y-67265800D01*
X124967410Y-67265800D01*
X124883917Y-67210012D01*
X124586600Y-67150872D01*
X123086600Y-67150872D01*
X122789283Y-67210012D01*
X122537229Y-67378429D01*
X122368812Y-67630483D01*
X122309672Y-67927800D01*
X99933601Y-67927800D01*
X99905963Y-67886437D01*
X99587754Y-67673816D01*
X99307146Y-67618000D01*
X99212400Y-67599154D01*
X99117654Y-67618000D01*
X96758702Y-67618000D01*
X96743752Y-67581907D01*
X96248093Y-67086248D01*
X95600484Y-66818000D01*
X94899516Y-66818000D01*
X94251907Y-67086248D01*
X93756248Y-67581907D01*
X93488000Y-68229516D01*
X90499000Y-68229516D01*
X90499000Y-63829000D01*
X194844601Y-63829000D01*
X194844600Y-134900600D01*
X194844600Y-134900600D01*
G37*
X194844600Y-134900600D02*
X90499000Y-134900600D01*
X90499000Y-130722800D01*
X108877472Y-130722800D01*
X108877472Y-132322800D01*
X108936612Y-132620117D01*
X109105029Y-132872171D01*
X109357083Y-133040588D01*
X109654400Y-133099728D01*
X113154400Y-133099728D01*
X113451717Y-133040588D01*
X113703771Y-132872171D01*
X113872188Y-132620117D01*
X113899679Y-132481909D01*
X114165754Y-132428984D01*
X114483963Y-132216363D01*
X114537634Y-132136039D01*
X114914967Y-131758706D01*
X115041029Y-131947371D01*
X115293083Y-132115788D01*
X115590400Y-132174928D01*
X118140400Y-132174928D01*
X118437717Y-132115788D01*
X118689771Y-131947371D01*
X118858188Y-131695317D01*
X118917328Y-131398000D01*
X118917328Y-128698000D01*
X118858188Y-128400683D01*
X118689771Y-128148629D01*
X118437717Y-127980212D01*
X118140400Y-127921072D01*
X117827400Y-127921072D01*
X117827400Y-127113600D01*
X129213872Y-127113600D01*
X129213872Y-128613600D01*
X129273012Y-128910917D01*
X129441429Y-129162971D01*
X129693483Y-129331388D01*
X129990800Y-129390528D01*
X131940800Y-129390528D01*
X132238117Y-129331388D01*
X132490171Y-129162971D01*
X132620174Y-128968407D01*
X132884755Y-129078000D01*
X133307245Y-129078000D01*
X133697575Y-128916320D01*
X133996320Y-128617575D01*
X134158000Y-128227245D01*
X134158000Y-127804755D01*
X133996320Y-127414425D01*
X133697575Y-127115680D01*
X133324601Y-126961189D01*
X133318954Y-126957416D01*
X133312293Y-126956091D01*
X133307245Y-126954000D01*
X133301780Y-126954000D01*
X133038346Y-126901600D01*
X132943600Y-126882754D01*
X132848854Y-126901600D01*
X132675559Y-126901600D01*
X132658588Y-126816283D01*
X132490171Y-126564229D01*
X132238117Y-126395812D01*
X131975200Y-126343515D01*
X131975200Y-126163177D01*
X132212571Y-126004571D01*
X132380988Y-125752517D01*
X132440128Y-125455200D01*
X132440128Y-124755200D01*
X132380988Y-124457883D01*
X132212571Y-124205829D01*
X132136799Y-124155200D01*
X132212571Y-124104571D01*
X132380988Y-123852517D01*
X132440128Y-123555200D01*
X132440128Y-122855200D01*
X132408795Y-122697679D01*
X132580074Y-122526400D01*
X147988327Y-122526400D01*
X148717970Y-123256043D01*
X148590000Y-123447565D01*
X148446139Y-123232261D01*
X147929462Y-122887029D01*
X147473841Y-122796400D01*
X147166159Y-122796400D01*
X146710538Y-122887029D01*
X146193861Y-123232261D01*
X146050000Y-123447565D01*
X145906139Y-123232261D01*
X145389462Y-122887029D01*
X144933841Y-122796400D01*
X144626159Y-122796400D01*
X144170538Y-122887029D01*
X143653861Y-123232261D01*
X143510000Y-123447565D01*
X143366139Y-123232261D01*
X142849462Y-122887029D01*
X142393841Y-122796400D01*
X142086159Y-122796400D01*
X141630538Y-122887029D01*
X141113861Y-123232261D01*
X140970000Y-123447565D01*
X140826139Y-123232261D01*
X140309462Y-122887029D01*
X139853841Y-122796400D01*
X139546159Y-122796400D01*
X139090538Y-122887029D01*
X138573861Y-123232261D01*
X138430000Y-123447565D01*
X138286139Y-123232261D01*
X137769462Y-122887029D01*
X137313841Y-122796400D01*
X137006159Y-122796400D01*
X136550538Y-122887029D01*
X136033861Y-123232261D01*
X135688629Y-123748938D01*
X135567399Y-124358400D01*
X135688629Y-124967862D01*
X136033861Y-125484539D01*
X136446484Y-125760244D01*
X136348629Y-125825629D01*
X136180212Y-126077683D01*
X136121072Y-126375000D01*
X136121072Y-127625000D01*
X136180212Y-127922317D01*
X136327668Y-128143000D01*
X136180212Y-128363683D01*
X136121072Y-128661000D01*
X136121072Y-129911000D01*
X136180212Y-130208317D01*
X136254427Y-130319387D01*
X136097849Y-130424009D01*
X135917940Y-130693262D01*
X135738031Y-130424009D01*
X135237893Y-130089828D01*
X134647940Y-129972479D01*
X134057988Y-130089828D01*
X133557849Y-130424009D01*
X133223668Y-130924147D01*
X133135940Y-131365185D01*
X133135940Y-132363014D01*
X133223668Y-132804052D01*
X133557849Y-133304191D01*
X134057987Y-133638372D01*
X134647940Y-133755721D01*
X135237892Y-133638372D01*
X135738031Y-133304191D01*
X135917940Y-133034937D01*
X136097849Y-133304191D01*
X136597987Y-133638372D01*
X137187940Y-133755721D01*
X137777892Y-133638372D01*
X138278031Y-133304191D01*
X138457940Y-133034937D01*
X138637849Y-133304191D01*
X139137987Y-133638372D01*
X139727940Y-133755721D01*
X140317892Y-133638372D01*
X140818031Y-133304191D01*
X140997940Y-133034937D01*
X141177849Y-133304191D01*
X141677987Y-133638372D01*
X142267940Y-133755721D01*
X142857892Y-133638372D01*
X143358031Y-133304191D01*
X143537940Y-133034937D01*
X143717849Y-133304191D01*
X144217987Y-133638372D01*
X144807940Y-133755721D01*
X145397892Y-133638372D01*
X145898031Y-133304191D01*
X146077940Y-133034937D01*
X146257849Y-133304191D01*
X146757987Y-133638372D01*
X147347940Y-133755721D01*
X147937892Y-133638372D01*
X148438031Y-133304191D01*
X148617940Y-133034937D01*
X148797849Y-133304191D01*
X149297987Y-133638372D01*
X149887940Y-133755721D01*
X150477892Y-133638372D01*
X150978031Y-133304191D01*
X151157940Y-133034937D01*
X151337849Y-133304191D01*
X151837987Y-133638372D01*
X152427940Y-133755721D01*
X153017892Y-133638372D01*
X153518031Y-133304191D01*
X153697940Y-133034937D01*
X153877849Y-133304191D01*
X154377987Y-133638372D01*
X154967940Y-133755721D01*
X155557892Y-133638372D01*
X156058031Y-133304191D01*
X156237940Y-133034937D01*
X156417849Y-133304191D01*
X156917987Y-133638372D01*
X157507940Y-133755721D01*
X158097892Y-133638372D01*
X158598031Y-133304191D01*
X158777940Y-133034937D01*
X158957849Y-133304191D01*
X159457987Y-133638372D01*
X160047940Y-133755721D01*
X160637892Y-133638372D01*
X161138031Y-133304191D01*
X161317940Y-133034937D01*
X161497849Y-133304191D01*
X161997987Y-133638372D01*
X162587940Y-133755721D01*
X163177892Y-133638372D01*
X163678031Y-133304191D01*
X163857940Y-133034937D01*
X164037849Y-133304191D01*
X164537987Y-133638372D01*
X165127940Y-133755721D01*
X165717892Y-133638372D01*
X166218031Y-133304191D01*
X166552212Y-132804053D01*
X166639940Y-132363015D01*
X166639940Y-131365186D01*
X166552212Y-130924147D01*
X166218031Y-130424009D01*
X165717893Y-130089828D01*
X165127940Y-129972479D01*
X164537988Y-130089828D01*
X164037849Y-130424009D01*
X163857940Y-130693262D01*
X163678031Y-130424009D01*
X163177893Y-130089828D01*
X162587940Y-129972479D01*
X161997988Y-130089828D01*
X161497849Y-130424009D01*
X161317940Y-130693262D01*
X161138031Y-130424009D01*
X160637893Y-130089828D01*
X160047940Y-129972479D01*
X159457988Y-130089828D01*
X158957849Y-130424009D01*
X158777940Y-130693262D01*
X158598031Y-130424009D01*
X158097893Y-130089828D01*
X157507940Y-129972479D01*
X156917988Y-130089828D01*
X156417849Y-130424009D01*
X156237940Y-130693262D01*
X156058031Y-130424009D01*
X155557893Y-130089828D01*
X154967940Y-129972479D01*
X154377988Y-130089828D01*
X153877849Y-130424009D01*
X153697940Y-130693262D01*
X153518031Y-130424009D01*
X153017893Y-130089828D01*
X152427940Y-129972479D01*
X151837988Y-130089828D01*
X151337849Y-130424009D01*
X151157940Y-130693262D01*
X150978031Y-130424009D01*
X150477893Y-130089828D01*
X149887940Y-129972479D01*
X149297988Y-130089828D01*
X148797849Y-130424009D01*
X148617940Y-130693262D01*
X148438031Y-130424009D01*
X148053934Y-130167364D01*
X148104928Y-129911000D01*
X148104928Y-128661000D01*
X148045788Y-128363683D01*
X147898332Y-128143000D01*
X148045788Y-127922317D01*
X148104928Y-127625000D01*
X148104928Y-126375000D01*
X148045788Y-126077683D01*
X147885925Y-125838431D01*
X147929462Y-125829771D01*
X148446139Y-125484539D01*
X148590000Y-125269235D01*
X148733861Y-125484539D01*
X149250538Y-125829771D01*
X149706159Y-125920400D01*
X150013841Y-125920400D01*
X150469462Y-125829771D01*
X150986139Y-125484539D01*
X151130000Y-125269235D01*
X151273861Y-125484539D01*
X151790538Y-125829771D01*
X152246159Y-125920400D01*
X152553841Y-125920400D01*
X153009462Y-125829771D01*
X153526139Y-125484539D01*
X153670000Y-125269235D01*
X153813861Y-125484539D01*
X154330538Y-125829771D01*
X154786159Y-125920400D01*
X155093841Y-125920400D01*
X155549462Y-125829771D01*
X156066139Y-125484539D01*
X156210000Y-125269235D01*
X156353861Y-125484539D01*
X156870538Y-125829771D01*
X157326159Y-125920400D01*
X157633841Y-125920400D01*
X158089462Y-125829771D01*
X158606139Y-125484539D01*
X158750000Y-125269235D01*
X158893861Y-125484539D01*
X159410538Y-125829771D01*
X159866159Y-125920400D01*
X160173841Y-125920400D01*
X160629462Y-125829771D01*
X161146139Y-125484539D01*
X161290000Y-125269235D01*
X161433861Y-125484539D01*
X161950538Y-125829771D01*
X162406159Y-125920400D01*
X162713841Y-125920400D01*
X163169462Y-125829771D01*
X163686139Y-125484539D01*
X163830000Y-125269235D01*
X163973861Y-125484539D01*
X164490538Y-125829771D01*
X164946159Y-125920400D01*
X165253841Y-125920400D01*
X165709462Y-125829771D01*
X166226139Y-125484539D01*
X166370000Y-125269235D01*
X166513861Y-125484539D01*
X167030538Y-125829771D01*
X167486159Y-125920400D01*
X167793841Y-125920400D01*
X168249462Y-125829771D01*
X168766139Y-125484539D01*
X168910000Y-125269235D01*
X169053861Y-125484539D01*
X169570538Y-125829771D01*
X170026159Y-125920400D01*
X170333841Y-125920400D01*
X170789462Y-125829771D01*
X171306139Y-125484539D01*
X171450000Y-125269235D01*
X171593861Y-125484539D01*
X172110538Y-125829771D01*
X172566159Y-125920400D01*
X172873841Y-125920400D01*
X173329462Y-125829771D01*
X173846139Y-125484539D01*
X173990000Y-125269235D01*
X174133861Y-125484539D01*
X174650538Y-125829771D01*
X175106159Y-125920400D01*
X175413841Y-125920400D01*
X175869462Y-125829771D01*
X176386139Y-125484539D01*
X176530000Y-125269235D01*
X176673861Y-125484539D01*
X177190538Y-125829771D01*
X177646159Y-125920400D01*
X177953841Y-125920400D01*
X178409462Y-125829771D01*
X178926139Y-125484539D01*
X179070000Y-125269235D01*
X179213861Y-125484539D01*
X179378000Y-125594213D01*
X179378001Y-126814376D01*
X179374629Y-126816629D01*
X179324000Y-126892401D01*
X179273371Y-126816629D01*
X179021317Y-126648212D01*
X178724000Y-126589072D01*
X178024000Y-126589072D01*
X177726683Y-126648212D01*
X177474629Y-126816629D01*
X177306212Y-127068683D01*
X177247072Y-127366000D01*
X177247072Y-127782455D01*
X177214699Y-127814828D01*
X177134378Y-127868497D01*
X177080709Y-127948818D01*
X177080708Y-127948819D01*
X176921756Y-128186707D01*
X176847094Y-128562060D01*
X176865941Y-128656810D01*
X176865940Y-130338421D01*
X176737849Y-130424009D01*
X176557940Y-130693262D01*
X176378031Y-130424009D01*
X175877893Y-130089828D01*
X175287940Y-129972479D01*
X174697988Y-130089828D01*
X174197849Y-130424009D01*
X174017940Y-130693262D01*
X173838031Y-130424009D01*
X173337893Y-130089828D01*
X172747940Y-129972479D01*
X172157988Y-130089828D01*
X171657849Y-130424009D01*
X171477940Y-130693262D01*
X171298031Y-130424009D01*
X170797893Y-130089828D01*
X170207940Y-129972479D01*
X169617988Y-130089828D01*
X169117849Y-130424009D01*
X168783668Y-130924147D01*
X168695940Y-131365185D01*
X168695940Y-132363014D01*
X168783668Y-132804052D01*
X169117849Y-133304191D01*
X169617987Y-133638372D01*
X170207940Y-133755721D01*
X170797892Y-133638372D01*
X171298031Y-133304191D01*
X171477940Y-133034937D01*
X171657849Y-133304191D01*
X172157987Y-133638372D01*
X172747940Y-133755721D01*
X173337892Y-133638372D01*
X173838031Y-133304191D01*
X174017940Y-133034937D01*
X174197849Y-133304191D01*
X174697987Y-133638372D01*
X175287940Y-133755721D01*
X175877892Y-133638372D01*
X176378031Y-133304191D01*
X176557940Y-133034937D01*
X176737849Y-133304191D01*
X177237987Y-133638372D01*
X177827940Y-133755721D01*
X178417892Y-133638372D01*
X178918031Y-133304191D01*
X179252212Y-132804053D01*
X179339940Y-132363015D01*
X179339940Y-131365186D01*
X179252212Y-130924147D01*
X178918031Y-130424009D01*
X178789940Y-130338421D01*
X178789940Y-129429812D01*
X179021317Y-129383788D01*
X179273371Y-129215371D01*
X179324000Y-129139599D01*
X179374629Y-129215371D01*
X179626683Y-129383788D01*
X179924000Y-129442928D01*
X180624000Y-129442928D01*
X180921317Y-129383788D01*
X181173371Y-129215371D01*
X181331977Y-128978000D01*
X182623072Y-128978000D01*
X182623072Y-129140000D01*
X182682212Y-129437317D01*
X182850629Y-129689371D01*
X183102683Y-129857788D01*
X183400000Y-129916928D01*
X184900000Y-129916928D01*
X185197317Y-129857788D01*
X185449371Y-129689371D01*
X185617788Y-129437317D01*
X185676928Y-129140000D01*
X185676928Y-127190000D01*
X185617788Y-126892683D01*
X185449371Y-126640629D01*
X185197317Y-126472212D01*
X184900000Y-126413072D01*
X183400000Y-126413072D01*
X183102683Y-126472212D01*
X182850629Y-126640629D01*
X182682212Y-126892683D01*
X182650124Y-127054000D01*
X181331977Y-127054000D01*
X181302000Y-127009136D01*
X181302000Y-125594213D01*
X181466139Y-125484539D01*
X181811371Y-124967862D01*
X181932601Y-124358400D01*
X183827399Y-124358400D01*
X183948629Y-124967862D01*
X184293861Y-125484539D01*
X184810538Y-125829771D01*
X185266159Y-125920400D01*
X185573841Y-125920400D01*
X186029462Y-125829771D01*
X186546139Y-125484539D01*
X186891371Y-124967862D01*
X187012601Y-124358400D01*
X186891371Y-123748938D01*
X186546139Y-123232261D01*
X186029462Y-122887029D01*
X185573841Y-122796400D01*
X185266159Y-122796400D01*
X184810538Y-122887029D01*
X184293861Y-123232261D01*
X183948629Y-123748938D01*
X183827399Y-124358400D01*
X181932601Y-124358400D01*
X181811371Y-123748938D01*
X181466139Y-123232261D01*
X180949462Y-122887029D01*
X180493841Y-122796400D01*
X180186159Y-122796400D01*
X179730538Y-122887029D01*
X179213861Y-123232261D01*
X179070000Y-123447565D01*
X178926139Y-123232261D01*
X178409462Y-122887029D01*
X177953841Y-122796400D01*
X177646159Y-122796400D01*
X177190538Y-122887029D01*
X176673861Y-123232261D01*
X176530000Y-123447565D01*
X176386139Y-123232261D01*
X175869462Y-122887029D01*
X175413841Y-122796400D01*
X175106159Y-122796400D01*
X174650538Y-122887029D01*
X174133861Y-123232261D01*
X173990000Y-123447565D01*
X173846139Y-123232261D01*
X173329462Y-122887029D01*
X172873841Y-122796400D01*
X172566159Y-122796400D01*
X172110538Y-122887029D01*
X171593861Y-123232261D01*
X171450000Y-123447565D01*
X171306139Y-123232261D01*
X170789462Y-122887029D01*
X170333841Y-122796400D01*
X170026159Y-122796400D01*
X169570538Y-122887029D01*
X169053861Y-123232261D01*
X168910000Y-123447565D01*
X168766139Y-123232261D01*
X168249462Y-122887029D01*
X167793841Y-122796400D01*
X167486159Y-122796400D01*
X167030538Y-122887029D01*
X166513861Y-123232261D01*
X166370000Y-123447565D01*
X166226139Y-123232261D01*
X165709462Y-122887029D01*
X165253841Y-122796400D01*
X164946159Y-122796400D01*
X164490538Y-122887029D01*
X163973861Y-123232261D01*
X163830000Y-123447565D01*
X163686139Y-123232261D01*
X163169462Y-122887029D01*
X162713841Y-122796400D01*
X162406159Y-122796400D01*
X161950538Y-122887029D01*
X161433861Y-123232261D01*
X161290000Y-123447565D01*
X161146139Y-123232261D01*
X160629462Y-122887029D01*
X160173841Y-122796400D01*
X159866159Y-122796400D01*
X159410538Y-122887029D01*
X158893861Y-123232261D01*
X158750000Y-123447565D01*
X158606139Y-123232261D01*
X158089462Y-122887029D01*
X157633841Y-122796400D01*
X157326159Y-122796400D01*
X156870538Y-122887029D01*
X156353861Y-123232261D01*
X156210000Y-123447565D01*
X156066139Y-123232261D01*
X155549462Y-122887029D01*
X155093841Y-122796400D01*
X154786159Y-122796400D01*
X154330538Y-122887029D01*
X153813861Y-123232261D01*
X153670000Y-123447565D01*
X153526139Y-123232261D01*
X153009462Y-122887029D01*
X152553841Y-122796400D01*
X152246159Y-122796400D01*
X151790538Y-122887029D01*
X151273861Y-123232261D01*
X151130000Y-123447565D01*
X150986139Y-123232261D01*
X150823712Y-123123731D01*
X150840845Y-123037599D01*
X150822000Y-122942858D01*
X150822000Y-122942854D01*
X150766184Y-122662246D01*
X150553563Y-122344037D01*
X150473240Y-122290367D01*
X149134034Y-120951161D01*
X149080363Y-120870837D01*
X148762154Y-120658216D01*
X148481546Y-120602400D01*
X148386800Y-120583554D01*
X148292054Y-120602400D01*
X132276345Y-120602400D01*
X132181599Y-120583554D01*
X131806246Y-120658216D01*
X131488037Y-120870837D01*
X131434368Y-120951158D01*
X130399958Y-121985568D01*
X130319638Y-122039237D01*
X130282880Y-122094249D01*
X130065883Y-122137412D01*
X129813829Y-122305829D01*
X129645412Y-122557883D01*
X129586272Y-122855200D01*
X129586272Y-123555200D01*
X129645412Y-123852517D01*
X129813829Y-124104571D01*
X129889601Y-124155200D01*
X129813829Y-124205829D01*
X129645412Y-124457883D01*
X129586272Y-124755200D01*
X129586272Y-125455200D01*
X129645412Y-125752517D01*
X129813829Y-126004571D01*
X130051200Y-126163177D01*
X130051200Y-126336672D01*
X129990800Y-126336672D01*
X129693483Y-126395812D01*
X129441429Y-126564229D01*
X129273012Y-126816283D01*
X129213872Y-127113600D01*
X117827400Y-127113600D01*
X117827400Y-122751346D01*
X117846246Y-122656600D01*
X117771584Y-122281246D01*
X117612632Y-122043358D01*
X117558963Y-121963037D01*
X117478642Y-121909368D01*
X116395600Y-120826327D01*
X116395600Y-118123550D01*
X116482971Y-118065171D01*
X116651388Y-117813117D01*
X116710528Y-117515800D01*
X116710528Y-116265800D01*
X116651388Y-115968483D01*
X116542521Y-115805552D01*
X116544839Y-115803234D01*
X116625163Y-115749563D01*
X116714280Y-115616191D01*
X116828917Y-115593388D01*
X117080971Y-115424971D01*
X117249388Y-115172917D01*
X117308528Y-114875600D01*
X117308528Y-112675600D01*
X119114672Y-112675600D01*
X119114672Y-114875600D01*
X119173812Y-115172917D01*
X119342229Y-115424971D01*
X119574614Y-115580245D01*
X119585416Y-115634553D01*
X119798037Y-115952763D01*
X119822489Y-115969101D01*
X119763472Y-116265800D01*
X119763472Y-117515800D01*
X119822612Y-117813117D01*
X119991029Y-118065171D01*
X120243083Y-118233588D01*
X120540400Y-118292728D01*
X121540400Y-118292728D01*
X121837717Y-118233588D01*
X122089771Y-118065171D01*
X122231673Y-117852800D01*
X123247654Y-117852800D01*
X123342400Y-117871646D01*
X123437146Y-117852800D01*
X123717754Y-117796984D01*
X124035963Y-117584363D01*
X124089634Y-117504040D01*
X124782274Y-116811400D01*
X125889072Y-116811400D01*
X125889072Y-117124400D01*
X125948212Y-117421717D01*
X126116629Y-117673771D01*
X126368683Y-117842188D01*
X126666000Y-117901328D01*
X127054000Y-117901328D01*
X127054001Y-121521525D01*
X125369847Y-123205680D01*
X125128425Y-123305680D01*
X124829680Y-123604425D01*
X124668000Y-123994755D01*
X124668000Y-124417245D01*
X124829680Y-124807575D01*
X125128425Y-125106320D01*
X125518755Y-125268000D01*
X125941245Y-125268000D01*
X126331575Y-125106320D01*
X126630320Y-124807575D01*
X126730320Y-124566153D01*
X128629242Y-122667232D01*
X128709563Y-122613563D01*
X128800704Y-122477162D01*
X128922184Y-122295354D01*
X128996846Y-121920001D01*
X128978000Y-121825255D01*
X128978000Y-117901328D01*
X129366000Y-117901328D01*
X129663317Y-117842188D01*
X129915371Y-117673771D01*
X130083788Y-117421717D01*
X130142928Y-117124400D01*
X130142928Y-116811400D01*
X131045454Y-116811400D01*
X131140200Y-116830246D01*
X131234946Y-116811400D01*
X131515554Y-116755584D01*
X131833763Y-116542963D01*
X131887434Y-116462640D01*
X132947242Y-115402831D01*
X133027563Y-115349163D01*
X133240184Y-115030954D01*
X133265871Y-114901816D01*
X133314846Y-114655601D01*
X133296000Y-114560855D01*
X133296000Y-109118400D01*
X140647399Y-109118400D01*
X140768629Y-109727862D01*
X141113861Y-110244539D01*
X141630538Y-110589771D01*
X142086159Y-110680400D01*
X142393841Y-110680400D01*
X142849462Y-110589771D01*
X143366139Y-110244539D01*
X143510000Y-110029235D01*
X143653861Y-110244539D01*
X144170538Y-110589771D01*
X144626159Y-110680400D01*
X144933841Y-110680400D01*
X145389462Y-110589771D01*
X145906139Y-110244539D01*
X146050000Y-110029235D01*
X146193861Y-110244539D01*
X146710538Y-110589771D01*
X147166159Y-110680400D01*
X147473841Y-110680400D01*
X147929462Y-110589771D01*
X148446139Y-110244539D01*
X148590000Y-110029235D01*
X148733861Y-110244539D01*
X149250538Y-110589771D01*
X149706159Y-110680400D01*
X150013841Y-110680400D01*
X150469462Y-110589771D01*
X150986139Y-110244539D01*
X151130000Y-110029235D01*
X151273861Y-110244539D01*
X151790538Y-110589771D01*
X152246159Y-110680400D01*
X152553841Y-110680400D01*
X153009462Y-110589771D01*
X153526139Y-110244539D01*
X153670000Y-110029235D01*
X153813861Y-110244539D01*
X154330538Y-110589771D01*
X154786159Y-110680400D01*
X155093841Y-110680400D01*
X155549462Y-110589771D01*
X156066139Y-110244539D01*
X156210000Y-110029235D01*
X156353861Y-110244539D01*
X156870538Y-110589771D01*
X157326159Y-110680400D01*
X157633841Y-110680400D01*
X158089462Y-110589771D01*
X158606139Y-110244539D01*
X158750000Y-110029235D01*
X158893861Y-110244539D01*
X159410538Y-110589771D01*
X159866159Y-110680400D01*
X160173841Y-110680400D01*
X160629462Y-110589771D01*
X161146139Y-110244539D01*
X161290000Y-110029235D01*
X161433861Y-110244539D01*
X161950538Y-110589771D01*
X162406159Y-110680400D01*
X162713841Y-110680400D01*
X163169462Y-110589771D01*
X163686139Y-110244539D01*
X163830000Y-110029235D01*
X163973861Y-110244539D01*
X164490538Y-110589771D01*
X164946159Y-110680400D01*
X165253841Y-110680400D01*
X165709462Y-110589771D01*
X166226139Y-110244539D01*
X166370000Y-110029235D01*
X166513861Y-110244539D01*
X167030538Y-110589771D01*
X167486159Y-110680400D01*
X167793841Y-110680400D01*
X168249462Y-110589771D01*
X168766139Y-110244539D01*
X168910000Y-110029235D01*
X169053861Y-110244539D01*
X169570538Y-110589771D01*
X170026159Y-110680400D01*
X170333841Y-110680400D01*
X170789462Y-110589771D01*
X171306139Y-110244539D01*
X171450000Y-110029235D01*
X171593861Y-110244539D01*
X172110538Y-110589771D01*
X172566159Y-110680400D01*
X172873841Y-110680400D01*
X173329462Y-110589771D01*
X173846139Y-110244539D01*
X173990000Y-110029235D01*
X174133861Y-110244539D01*
X174650538Y-110589771D01*
X175106159Y-110680400D01*
X175413841Y-110680400D01*
X175869462Y-110589771D01*
X176386139Y-110244539D01*
X176530000Y-110029235D01*
X176673861Y-110244539D01*
X177190538Y-110589771D01*
X177646159Y-110680400D01*
X177953841Y-110680400D01*
X178409462Y-110589771D01*
X178926139Y-110244539D01*
X179070000Y-110029235D01*
X179213861Y-110244539D01*
X179730538Y-110589771D01*
X180186159Y-110680400D01*
X180493841Y-110680400D01*
X180949462Y-110589771D01*
X181466139Y-110244539D01*
X181610000Y-110029235D01*
X181753861Y-110244539D01*
X182270538Y-110589771D01*
X182726159Y-110680400D01*
X183033841Y-110680400D01*
X183489462Y-110589771D01*
X183947604Y-110283651D01*
X184070629Y-110467771D01*
X184322683Y-110636188D01*
X184620000Y-110695328D01*
X186220000Y-110695328D01*
X186517317Y-110636188D01*
X186769371Y-110467771D01*
X186937788Y-110215717D01*
X186996928Y-109918400D01*
X186996928Y-108318400D01*
X186937788Y-108021083D01*
X186769371Y-107769029D01*
X186517317Y-107600612D01*
X186220000Y-107541472D01*
X184620000Y-107541472D01*
X184322683Y-107600612D01*
X184070629Y-107769029D01*
X183947604Y-107953149D01*
X183489462Y-107647029D01*
X183033841Y-107556400D01*
X182726159Y-107556400D01*
X182270538Y-107647029D01*
X181753861Y-107992261D01*
X181610000Y-108207565D01*
X181466139Y-107992261D01*
X180949462Y-107647029D01*
X180493841Y-107556400D01*
X180186159Y-107556400D01*
X179730538Y-107647029D01*
X179213861Y-107992261D01*
X179070000Y-108207565D01*
X178926139Y-107992261D01*
X178409462Y-107647029D01*
X177953841Y-107556400D01*
X177646159Y-107556400D01*
X177190538Y-107647029D01*
X176673861Y-107992261D01*
X176530000Y-108207565D01*
X176386139Y-107992261D01*
X175869462Y-107647029D01*
X175413841Y-107556400D01*
X175106159Y-107556400D01*
X174650538Y-107647029D01*
X174133861Y-107992261D01*
X173990000Y-108207565D01*
X173846139Y-107992261D01*
X173329462Y-107647029D01*
X172873841Y-107556400D01*
X172566159Y-107556400D01*
X172110538Y-107647029D01*
X171593861Y-107992261D01*
X171450000Y-108207565D01*
X171306139Y-107992261D01*
X170789462Y-107647029D01*
X170333841Y-107556400D01*
X170026159Y-107556400D01*
X169570538Y-107647029D01*
X169053861Y-107992261D01*
X168910000Y-108207565D01*
X168766139Y-107992261D01*
X168249462Y-107647029D01*
X167793841Y-107556400D01*
X167486159Y-107556400D01*
X167030538Y-107647029D01*
X166513861Y-107992261D01*
X166370000Y-108207565D01*
X166226139Y-107992261D01*
X165709462Y-107647029D01*
X165253841Y-107556400D01*
X164946159Y-107556400D01*
X164490538Y-107647029D01*
X163973861Y-107992261D01*
X163830000Y-108207565D01*
X163686139Y-107992261D01*
X163169462Y-107647029D01*
X162713841Y-107556400D01*
X162406159Y-107556400D01*
X161950538Y-107647029D01*
X161433861Y-107992261D01*
X161290000Y-108207565D01*
X161146139Y-107992261D01*
X160629462Y-107647029D01*
X160173841Y-107556400D01*
X159866159Y-107556400D01*
X159410538Y-107647029D01*
X158893861Y-107992261D01*
X158750000Y-108207565D01*
X158606139Y-107992261D01*
X158089462Y-107647029D01*
X157633841Y-107556400D01*
X157326159Y-107556400D01*
X156870538Y-107647029D01*
X156353861Y-107992261D01*
X156210000Y-108207565D01*
X156066139Y-107992261D01*
X155549462Y-107647029D01*
X155093841Y-107556400D01*
X154786159Y-107556400D01*
X154330538Y-107647029D01*
X153813861Y-107992261D01*
X153670000Y-108207565D01*
X153526139Y-107992261D01*
X153009462Y-107647029D01*
X152553841Y-107556400D01*
X152246159Y-107556400D01*
X151790538Y-107647029D01*
X151273861Y-107992261D01*
X151130000Y-108207565D01*
X150986139Y-107992261D01*
X150469462Y-107647029D01*
X150013841Y-107556400D01*
X149706159Y-107556400D01*
X149250538Y-107647029D01*
X148733861Y-107992261D01*
X148590000Y-108207565D01*
X148446139Y-107992261D01*
X147929462Y-107647029D01*
X147473841Y-107556400D01*
X147166159Y-107556400D01*
X146710538Y-107647029D01*
X146193861Y-107992261D01*
X146050000Y-108207565D01*
X145906139Y-107992261D01*
X145389462Y-107647029D01*
X144933841Y-107556400D01*
X144626159Y-107556400D01*
X144170538Y-107647029D01*
X143653861Y-107992261D01*
X143510000Y-108207565D01*
X143366139Y-107992261D01*
X142849462Y-107647029D01*
X142393841Y-107556400D01*
X142086159Y-107556400D01*
X141630538Y-107647029D01*
X141113861Y-107992261D01*
X140768629Y-108508938D01*
X140647399Y-109118400D01*
X133296000Y-109118400D01*
X133296000Y-106215940D01*
X133314845Y-106121199D01*
X133296000Y-106026458D01*
X133296000Y-106026454D01*
X133240184Y-105745846D01*
X133027563Y-105427637D01*
X132947239Y-105373966D01*
X131592834Y-104019561D01*
X131539163Y-103939237D01*
X131220954Y-103726616D01*
X130940346Y-103670800D01*
X130845600Y-103651954D01*
X130750854Y-103670800D01*
X128243159Y-103670800D01*
X128300971Y-103632171D01*
X128469388Y-103380117D01*
X128528528Y-103082800D01*
X128528528Y-102382800D01*
X128469388Y-102085483D01*
X128300971Y-101833429D01*
X128116000Y-101709835D01*
X128116000Y-98252704D01*
X128251317Y-98225788D01*
X128503371Y-98057371D01*
X128671788Y-97805317D01*
X128730928Y-97508000D01*
X128730928Y-94008000D01*
X128671788Y-93710683D01*
X128503371Y-93458629D01*
X128251317Y-93290212D01*
X127954000Y-93231072D01*
X126354000Y-93231072D01*
X126056683Y-93290212D01*
X125804629Y-93458629D01*
X125636212Y-93710683D01*
X125577072Y-94008000D01*
X125577072Y-97508000D01*
X125636212Y-97805317D01*
X125804629Y-98057371D01*
X126056683Y-98225788D01*
X126192000Y-98252704D01*
X126192001Y-101657509D01*
X126154283Y-101665012D01*
X125902229Y-101833429D01*
X125733812Y-102085483D01*
X125674672Y-102382800D01*
X125674672Y-103082800D01*
X125733812Y-103380117D01*
X125902229Y-103632171D01*
X125978001Y-103682800D01*
X125902229Y-103733429D01*
X125733812Y-103985483D01*
X125674672Y-104282800D01*
X125674672Y-104982800D01*
X125733812Y-105280117D01*
X125902229Y-105532171D01*
X126154283Y-105700588D01*
X126451600Y-105759728D01*
X127751600Y-105759728D01*
X128048917Y-105700588D01*
X128207240Y-105594800D01*
X130447127Y-105594800D01*
X131372001Y-106519674D01*
X131372000Y-114257126D01*
X130741727Y-114887400D01*
X130142928Y-114887400D01*
X130142928Y-114574400D01*
X130083788Y-114277083D01*
X129915371Y-114025029D01*
X129663317Y-113856612D01*
X129366000Y-113797472D01*
X126666000Y-113797472D01*
X126368683Y-113856612D01*
X126116629Y-114025029D01*
X125948212Y-114277083D01*
X125889072Y-114574400D01*
X125889072Y-114887400D01*
X124478545Y-114887400D01*
X124383799Y-114868554D01*
X124216579Y-114901816D01*
X124008446Y-114943216D01*
X123690237Y-115155837D01*
X123636568Y-115236158D01*
X122943927Y-115928800D01*
X122231673Y-115928800D01*
X122089771Y-115716429D01*
X121989736Y-115649588D01*
X121946584Y-115432646D01*
X121791213Y-115200118D01*
X121809388Y-115172917D01*
X121868528Y-114875600D01*
X121868528Y-112675600D01*
X121809388Y-112378283D01*
X121640971Y-112126229D01*
X121388917Y-111957812D01*
X121091600Y-111898672D01*
X119891600Y-111898672D01*
X119594283Y-111957812D01*
X119342229Y-112126229D01*
X119173812Y-112378283D01*
X119114672Y-112675600D01*
X117308528Y-112675600D01*
X117249388Y-112378283D01*
X117080971Y-112126229D01*
X116828917Y-111957812D01*
X116531600Y-111898672D01*
X115331600Y-111898672D01*
X115034283Y-111957812D01*
X114782229Y-112126229D01*
X114613812Y-112378283D01*
X114554672Y-112675600D01*
X114554672Y-114875600D01*
X114594871Y-115077694D01*
X114531245Y-115172917D01*
X114527416Y-115178647D01*
X114452754Y-115554000D01*
X114471600Y-115648746D01*
X114471600Y-115658050D01*
X114384229Y-115716429D01*
X114215812Y-115968483D01*
X114156672Y-116265800D01*
X114156672Y-117515800D01*
X114215812Y-117813117D01*
X114384229Y-118065171D01*
X114471601Y-118123551D01*
X114471600Y-121130054D01*
X114452754Y-121224800D01*
X114489244Y-121408246D01*
X114527416Y-121600153D01*
X114740037Y-121918363D01*
X114820360Y-121972034D01*
X115903401Y-123055075D01*
X115903400Y-127921072D01*
X115590400Y-127921072D01*
X115293083Y-127980212D01*
X115041029Y-128148629D01*
X114872612Y-128400683D01*
X114813472Y-128698000D01*
X114813472Y-129192848D01*
X114571637Y-129354437D01*
X114517968Y-129434758D01*
X113734023Y-130218704D01*
X113703771Y-130173429D01*
X113451717Y-130005012D01*
X113154400Y-129945872D01*
X109654400Y-129945872D01*
X109357083Y-130005012D01*
X109105029Y-130173429D01*
X108936612Y-130425483D01*
X108877472Y-130722800D01*
X90499000Y-130722800D01*
X90499000Y-123722000D01*
X92973072Y-123722000D01*
X92973072Y-126722000D01*
X93032212Y-127019317D01*
X93200629Y-127271371D01*
X93452683Y-127439788D01*
X93750000Y-127498928D01*
X96750000Y-127498928D01*
X97047317Y-127439788D01*
X97299371Y-127271371D01*
X97467788Y-127019317D01*
X97526928Y-126722000D01*
X97526928Y-123722000D01*
X97467788Y-123424683D01*
X97299371Y-123172629D01*
X97047317Y-123004212D01*
X96750000Y-122945072D01*
X96278730Y-122945072D01*
X96283371Y-122941971D01*
X96451788Y-122689917D01*
X96453999Y-122678800D01*
X96883527Y-122678800D01*
X97550767Y-123346041D01*
X97604437Y-123426363D01*
X97684758Y-123480032D01*
X97922646Y-123638984D01*
X98298000Y-123713646D01*
X98392746Y-123694800D01*
X99150272Y-123694800D01*
X99150272Y-123882800D01*
X99209412Y-124180117D01*
X99377829Y-124432171D01*
X99629883Y-124600588D01*
X99927200Y-124659728D01*
X102427200Y-124659728D01*
X102724517Y-124600588D01*
X102976571Y-124432171D01*
X103144988Y-124180117D01*
X103204128Y-123882800D01*
X103204128Y-121582800D01*
X103450272Y-121582800D01*
X103450272Y-123882800D01*
X103509412Y-124180117D01*
X103677829Y-124432171D01*
X103929883Y-124600588D01*
X104227200Y-124659728D01*
X106718000Y-124659728D01*
X106718001Y-125411649D01*
X106630629Y-125470029D01*
X106462212Y-125722083D01*
X106403072Y-126019400D01*
X106403072Y-127269400D01*
X106462212Y-127566717D01*
X106630629Y-127818771D01*
X106882683Y-127987188D01*
X107180000Y-128046328D01*
X108180000Y-128046328D01*
X108477317Y-127987188D01*
X108729371Y-127818771D01*
X108871273Y-127606400D01*
X108910014Y-127606400D01*
X108936612Y-127740117D01*
X109105029Y-127992171D01*
X109357083Y-128160588D01*
X109654400Y-128219728D01*
X113154400Y-128219728D01*
X113451717Y-128160588D01*
X113703771Y-127992171D01*
X113872188Y-127740117D01*
X113931328Y-127442800D01*
X113931328Y-125842800D01*
X113872188Y-125545483D01*
X113703771Y-125293429D01*
X113451717Y-125125012D01*
X113154400Y-125065872D01*
X109654400Y-125065872D01*
X109357083Y-125125012D01*
X109105029Y-125293429D01*
X108936612Y-125545483D01*
X108909378Y-125682400D01*
X108871273Y-125682400D01*
X108729371Y-125470029D01*
X108642000Y-125411650D01*
X108642000Y-123421145D01*
X108660846Y-123326399D01*
X108586184Y-122951046D01*
X108543409Y-122887029D01*
X108373563Y-122632837D01*
X108293240Y-122579167D01*
X107833634Y-122119561D01*
X107779963Y-122039237D01*
X107504128Y-121854929D01*
X107504128Y-121582800D01*
X107444988Y-121285483D01*
X107276571Y-121033429D01*
X107024517Y-120865012D01*
X106727200Y-120805872D01*
X104227200Y-120805872D01*
X103929883Y-120865012D01*
X103677829Y-121033429D01*
X103509412Y-121285483D01*
X103450272Y-121582800D01*
X103204128Y-121582800D01*
X103144988Y-121285483D01*
X102976571Y-121033429D01*
X102724517Y-120865012D01*
X102427200Y-120805872D01*
X99927200Y-120805872D01*
X99629883Y-120865012D01*
X99377829Y-121033429D01*
X99209412Y-121285483D01*
X99150272Y-121582800D01*
X99150272Y-121770800D01*
X98696474Y-121770800D01*
X98029234Y-121103560D01*
X97975563Y-121023237D01*
X97657354Y-120810616D01*
X97376746Y-120754800D01*
X97282000Y-120735954D01*
X97187254Y-120754800D01*
X96391329Y-120754800D01*
X96283371Y-120593229D01*
X96031317Y-120424812D01*
X95734000Y-120365672D01*
X94734000Y-120365672D01*
X94436683Y-120424812D01*
X94184629Y-120593229D01*
X94016212Y-120845283D01*
X93957072Y-121142600D01*
X93957072Y-122392600D01*
X94016212Y-122689917D01*
X94184629Y-122941971D01*
X94189270Y-122945072D01*
X93750000Y-122945072D01*
X93452683Y-123004212D01*
X93200629Y-123172629D01*
X93032212Y-123424683D01*
X92973072Y-123722000D01*
X90499000Y-123722000D01*
X90499000Y-113339916D01*
X91001200Y-113339916D01*
X91001200Y-114040884D01*
X91269448Y-114688493D01*
X91765107Y-115184152D01*
X92412716Y-115452400D01*
X93113684Y-115452400D01*
X93761293Y-115184152D01*
X94256952Y-114688493D01*
X94271902Y-114652400D01*
X97754498Y-114652400D01*
X97769448Y-114688493D01*
X98265107Y-115184152D01*
X98912716Y-115452400D01*
X99613684Y-115452400D01*
X100261293Y-115184152D01*
X100756952Y-114688493D01*
X101025200Y-114040884D01*
X101025200Y-113339916D01*
X100756952Y-112692307D01*
X100261293Y-112196648D01*
X99613684Y-111928400D01*
X98912716Y-111928400D01*
X98265107Y-112196648D01*
X97769448Y-112692307D01*
X97754498Y-112728400D01*
X94271902Y-112728400D01*
X94256952Y-112692307D01*
X93761293Y-112196648D01*
X93725200Y-112181698D01*
X93725200Y-112137726D01*
X93884371Y-112031371D01*
X94052788Y-111779317D01*
X94111928Y-111482000D01*
X94111928Y-110482000D01*
X94052788Y-110184683D01*
X93884371Y-109932629D01*
X93632317Y-109764212D01*
X93335000Y-109705072D01*
X92085000Y-109705072D01*
X91787683Y-109764212D01*
X91535629Y-109932629D01*
X91367212Y-110184683D01*
X91308072Y-110482000D01*
X91308072Y-111482000D01*
X91367212Y-111779317D01*
X91535629Y-112031371D01*
X91776143Y-112192077D01*
X91765107Y-112196648D01*
X91269448Y-112692307D01*
X91001200Y-113339916D01*
X90499000Y-113339916D01*
X90499000Y-101554316D01*
X91001200Y-101554316D01*
X91001200Y-102255284D01*
X91269448Y-102902893D01*
X91765107Y-103398552D01*
X92412716Y-103666800D01*
X93113684Y-103666800D01*
X93761293Y-103398552D01*
X94256952Y-102902893D01*
X94271902Y-102866800D01*
X97754498Y-102866800D01*
X97769448Y-102902893D01*
X98265107Y-103398552D01*
X98912716Y-103666800D01*
X99613684Y-103666800D01*
X100261293Y-103398552D01*
X100756952Y-102902893D01*
X101025200Y-102255284D01*
X101025200Y-101554316D01*
X100756952Y-100906707D01*
X100261293Y-100411048D01*
X99613684Y-100142800D01*
X98912716Y-100142800D01*
X98265107Y-100411048D01*
X97769448Y-100906707D01*
X97754498Y-100942800D01*
X94271902Y-100942800D01*
X94256952Y-100906707D01*
X93772420Y-100422175D01*
X93884371Y-100347371D01*
X94052788Y-100095317D01*
X94111928Y-99798000D01*
X94111928Y-98798000D01*
X94052788Y-98500683D01*
X93884371Y-98248629D01*
X93632317Y-98080212D01*
X93335000Y-98021072D01*
X92085000Y-98021072D01*
X91787683Y-98080212D01*
X91535629Y-98248629D01*
X91367212Y-98500683D01*
X91308072Y-98798000D01*
X91308072Y-99798000D01*
X91367212Y-100095317D01*
X91535629Y-100347371D01*
X91711363Y-100464792D01*
X91269448Y-100906707D01*
X91001200Y-101554316D01*
X90499000Y-101554316D01*
X90499000Y-95008000D01*
X116971072Y-95008000D01*
X116971072Y-96508000D01*
X117030212Y-96805317D01*
X117198629Y-97057371D01*
X117450683Y-97225788D01*
X117748000Y-97284928D01*
X119698000Y-97284928D01*
X119995317Y-97225788D01*
X120247371Y-97057371D01*
X120415788Y-96805317D01*
X120432759Y-96720000D01*
X120697072Y-96720000D01*
X120697072Y-97508000D01*
X120756212Y-97805317D01*
X120924629Y-98057371D01*
X121176683Y-98225788D01*
X121474000Y-98284928D01*
X123074000Y-98284928D01*
X123371317Y-98225788D01*
X123623371Y-98057371D01*
X123791788Y-97805317D01*
X123850928Y-97508000D01*
X123850928Y-94008000D01*
X123791788Y-93710683D01*
X123623371Y-93458629D01*
X123371317Y-93290212D01*
X123074000Y-93231072D01*
X121474000Y-93231072D01*
X121176683Y-93290212D01*
X120924629Y-93458629D01*
X120756212Y-93710683D01*
X120697072Y-94008000D01*
X120697072Y-94796000D01*
X120432759Y-94796000D01*
X120415788Y-94710683D01*
X120247371Y-94458629D01*
X119995317Y-94290212D01*
X119698000Y-94231072D01*
X119685000Y-94231072D01*
X119685000Y-93814858D01*
X119781600Y-93581645D01*
X119781600Y-93159155D01*
X119619920Y-92768825D01*
X119321175Y-92470080D01*
X118930845Y-92308400D01*
X118508355Y-92308400D01*
X118118025Y-92470080D01*
X117819280Y-92768825D01*
X117657600Y-93159155D01*
X117657600Y-93581645D01*
X117761000Y-93831275D01*
X117761000Y-94231072D01*
X117748000Y-94231072D01*
X117450683Y-94290212D01*
X117198629Y-94458629D01*
X117030212Y-94710683D01*
X116971072Y-95008000D01*
X90499000Y-95008000D01*
X90499000Y-89768716D01*
X91001200Y-89768716D01*
X91001200Y-90469684D01*
X91269448Y-91117293D01*
X91765107Y-91612952D01*
X92412716Y-91881200D01*
X93113684Y-91881200D01*
X93761293Y-91612952D01*
X94256952Y-91117293D01*
X94271902Y-91081200D01*
X97754498Y-91081200D01*
X97769448Y-91117293D01*
X98265107Y-91612952D01*
X98912716Y-91881200D01*
X99613684Y-91881200D01*
X100261293Y-91612952D01*
X100756952Y-91117293D01*
X101025200Y-90469684D01*
X101025200Y-89768716D01*
X100756952Y-89121107D01*
X100261293Y-88625448D01*
X99613684Y-88357200D01*
X98912716Y-88357200D01*
X98265107Y-88625448D01*
X97769448Y-89121107D01*
X97754498Y-89157200D01*
X94271902Y-89157200D01*
X94256952Y-89121107D01*
X93761293Y-88625448D01*
X93725200Y-88610498D01*
X93725200Y-88515726D01*
X93884371Y-88409371D01*
X94052788Y-88157317D01*
X94111928Y-87860000D01*
X94111928Y-86860000D01*
X94052788Y-86562683D01*
X93884371Y-86310629D01*
X93632317Y-86142212D01*
X93335000Y-86083072D01*
X92085000Y-86083072D01*
X91787683Y-86142212D01*
X91535629Y-86310629D01*
X91367212Y-86562683D01*
X91308072Y-86860000D01*
X91308072Y-87860000D01*
X91367212Y-88157317D01*
X91535629Y-88409371D01*
X91787683Y-88577788D01*
X91801201Y-88580477D01*
X91801201Y-88610498D01*
X91765107Y-88625448D01*
X91269448Y-89121107D01*
X91001200Y-89768716D01*
X90499000Y-89768716D01*
X90499000Y-77830716D01*
X91001200Y-77830716D01*
X91001200Y-78531684D01*
X91269448Y-79179293D01*
X91765107Y-79674952D01*
X92412716Y-79943200D01*
X93113684Y-79943200D01*
X93761293Y-79674952D01*
X94256952Y-79179293D01*
X94271902Y-79143200D01*
X97754498Y-79143200D01*
X97769448Y-79179293D01*
X98265107Y-79674952D01*
X98912716Y-79943200D01*
X99613684Y-79943200D01*
X100261293Y-79674952D01*
X100756952Y-79179293D01*
X101025200Y-78531684D01*
X101025200Y-77830716D01*
X100756952Y-77183107D01*
X100261293Y-76687448D01*
X99613684Y-76419200D01*
X98912716Y-76419200D01*
X98265107Y-76687448D01*
X97769448Y-77183107D01*
X97754498Y-77219200D01*
X94271902Y-77219200D01*
X94256952Y-77183107D01*
X93833324Y-76759479D01*
X93884371Y-76725371D01*
X94052788Y-76473317D01*
X94111928Y-76176000D01*
X94111928Y-75176000D01*
X94052788Y-74878683D01*
X93884371Y-74626629D01*
X93632317Y-74458212D01*
X93335000Y-74399072D01*
X92085000Y-74399072D01*
X91787683Y-74458212D01*
X91535629Y-74626629D01*
X91367212Y-74878683D01*
X91308072Y-75176000D01*
X91308072Y-76176000D01*
X91367212Y-76473317D01*
X91535629Y-76725371D01*
X91650458Y-76802097D01*
X91269448Y-77183107D01*
X91001200Y-77830716D01*
X90499000Y-77830716D01*
X90499000Y-68229516D01*
X93488000Y-68229516D01*
X93488000Y-68930484D01*
X93756248Y-69578093D01*
X94251907Y-70073752D01*
X94899516Y-70342000D01*
X95600484Y-70342000D01*
X96248093Y-70073752D01*
X96743752Y-69578093D01*
X96758702Y-69542000D01*
X98813927Y-69542000D01*
X100598767Y-71326841D01*
X100652437Y-71407163D01*
X100732758Y-71460832D01*
X100970646Y-71619784D01*
X101345999Y-71694446D01*
X101440745Y-71675600D01*
X110520854Y-71675600D01*
X110636429Y-71848571D01*
X110888483Y-72016988D01*
X111185800Y-72076128D01*
X112435800Y-72076128D01*
X112733117Y-72016988D01*
X112985171Y-71848571D01*
X113043550Y-71761200D01*
X113114267Y-71761200D01*
X113165029Y-71837171D01*
X113417083Y-72005588D01*
X113714400Y-72064728D01*
X114714400Y-72064728D01*
X115011717Y-72005588D01*
X115214400Y-71870160D01*
X115417083Y-72005588D01*
X115714400Y-72064728D01*
X115814655Y-72064728D01*
X116549966Y-72800039D01*
X116603637Y-72880363D01*
X116921846Y-73092984D01*
X117202454Y-73148800D01*
X117202458Y-73148800D01*
X117297199Y-73167645D01*
X117391940Y-73148800D01*
X117715790Y-73148800D01*
X117799283Y-73204588D01*
X118096600Y-73263728D01*
X119596600Y-73263728D01*
X119772638Y-73228712D01*
X120169600Y-73625674D01*
X120169601Y-75910472D01*
X120156600Y-75910472D01*
X119859283Y-75969612D01*
X119607229Y-76138029D01*
X119595941Y-76154922D01*
X119489517Y-76083812D01*
X119192200Y-76024672D01*
X117942200Y-76024672D01*
X117644883Y-76083812D01*
X117392829Y-76252229D01*
X117224412Y-76504283D01*
X117165272Y-76801600D01*
X117165272Y-77801600D01*
X117172072Y-77835785D01*
X116968400Y-77795272D01*
X115968400Y-77795272D01*
X115671083Y-77854412D01*
X115419029Y-78022829D01*
X115250612Y-78274883D01*
X115191472Y-78572200D01*
X115191472Y-79822200D01*
X115250612Y-80119517D01*
X115419029Y-80371571D01*
X115671083Y-80539988D01*
X115874313Y-80580413D01*
X114493855Y-81960872D01*
X114038000Y-81960872D01*
X113740683Y-82020012D01*
X113538000Y-82155440D01*
X113335317Y-82020012D01*
X113038000Y-81960872D01*
X112038000Y-81960872D01*
X111740683Y-82020012D01*
X111488629Y-82188429D01*
X111344623Y-82403949D01*
X111079846Y-82456616D01*
X110917986Y-82564768D01*
X110761637Y-82669237D01*
X110707968Y-82749558D01*
X109927558Y-83529969D01*
X109847238Y-83583637D01*
X109793569Y-83663958D01*
X109793568Y-83663959D01*
X109634616Y-83901847D01*
X109562901Y-84262385D01*
X109523012Y-84322083D01*
X109463872Y-84619400D01*
X109463872Y-86119400D01*
X109523012Y-86416717D01*
X109691429Y-86668771D01*
X109943483Y-86837188D01*
X110240800Y-86896328D01*
X110840800Y-86896328D01*
X111138117Y-86837188D01*
X111390171Y-86668771D01*
X111558588Y-86416717D01*
X111617728Y-86119400D01*
X111617728Y-84623432D01*
X111740683Y-84705588D01*
X112038000Y-84764728D01*
X113038000Y-84764728D01*
X113335317Y-84705588D01*
X113538000Y-84570160D01*
X113740683Y-84705588D01*
X114038000Y-84764728D01*
X115038000Y-84764728D01*
X115335317Y-84705588D01*
X115587371Y-84537171D01*
X115755788Y-84285117D01*
X115814928Y-83987800D01*
X115814928Y-83360745D01*
X117051274Y-82124400D01*
X117334450Y-82124400D01*
X117392829Y-82211771D01*
X117562763Y-82325317D01*
X117485812Y-82440483D01*
X117426672Y-82737800D01*
X117426672Y-83987800D01*
X117479383Y-84252796D01*
X117392829Y-84310629D01*
X117334450Y-84398000D01*
X117274340Y-84398000D01*
X117179599Y-84379155D01*
X117084858Y-84398000D01*
X117084854Y-84398000D01*
X116804246Y-84453816D01*
X116486037Y-84666437D01*
X116432368Y-84746758D01*
X115769560Y-85409567D01*
X115689237Y-85463237D01*
X115498595Y-85748553D01*
X115495894Y-85752596D01*
X115435483Y-85764612D01*
X115183429Y-85933029D01*
X115015012Y-86185083D01*
X114955872Y-86482400D01*
X114955872Y-87182400D01*
X115015012Y-87479717D01*
X115183429Y-87731771D01*
X115435483Y-87900188D01*
X115732800Y-87959328D01*
X117032800Y-87959328D01*
X117330117Y-87900188D01*
X117582171Y-87731771D01*
X117750588Y-87479717D01*
X117809728Y-87182400D01*
X117809728Y-86610578D01*
X117942200Y-86636928D01*
X119192200Y-86636928D01*
X119430985Y-86589431D01*
X119379672Y-86847400D01*
X119379672Y-87447400D01*
X119438812Y-87744717D01*
X119463991Y-87782400D01*
X119438812Y-87820083D01*
X119379672Y-88117400D01*
X119379672Y-88717400D01*
X119438812Y-89014717D01*
X119607229Y-89266771D01*
X119859283Y-89435188D01*
X120156600Y-89494328D01*
X122106600Y-89494328D01*
X122403917Y-89435188D01*
X122655971Y-89266771D01*
X122824388Y-89014717D01*
X122883528Y-88717400D01*
X122883528Y-88117400D01*
X122824388Y-87820083D01*
X122799209Y-87782400D01*
X122824388Y-87744717D01*
X122883528Y-87447400D01*
X122883528Y-86847400D01*
X122824388Y-86550083D01*
X122799209Y-86512400D01*
X122824388Y-86474717D01*
X122883528Y-86177400D01*
X122883528Y-85577400D01*
X122881937Y-85569400D01*
X125186255Y-85569400D01*
X125366355Y-85644000D01*
X125788845Y-85644000D01*
X126179175Y-85482320D01*
X126477920Y-85183575D01*
X126639600Y-84793245D01*
X126639600Y-84370755D01*
X126477920Y-83980425D01*
X126179175Y-83681680D01*
X125788845Y-83520000D01*
X125366355Y-83520000D01*
X125063613Y-83645400D01*
X124455402Y-83645400D01*
X124506000Y-83523245D01*
X124506000Y-83100755D01*
X124344320Y-82710425D01*
X124045575Y-82411680D01*
X123655245Y-82250000D01*
X123232755Y-82250000D01*
X122930013Y-82375400D01*
X122881937Y-82375400D01*
X122883528Y-82367400D01*
X122883528Y-81767400D01*
X122824388Y-81470083D01*
X122799209Y-81432400D01*
X122824388Y-81394717D01*
X122883528Y-81097400D01*
X122883528Y-80497400D01*
X122824388Y-80200083D01*
X122799209Y-80162400D01*
X122824388Y-80124717D01*
X122883528Y-79827400D01*
X122883528Y-79341555D01*
X127462000Y-79341555D01*
X127462000Y-79764045D01*
X127623680Y-80154375D01*
X127922425Y-80453120D01*
X128312755Y-80614800D01*
X128735245Y-80614800D01*
X128779672Y-80596398D01*
X128779672Y-81097400D01*
X128838812Y-81394717D01*
X128863991Y-81432400D01*
X128838812Y-81470083D01*
X128779672Y-81767400D01*
X128779672Y-82367400D01*
X128838812Y-82664717D01*
X129007229Y-82916771D01*
X129259283Y-83085188D01*
X129556600Y-83144328D01*
X131506600Y-83144328D01*
X131803917Y-83085188D01*
X131887410Y-83029400D01*
X131921613Y-83029400D01*
X132133542Y-83117184D01*
X131684807Y-83565920D01*
X131506600Y-83530472D01*
X129556600Y-83530472D01*
X129259283Y-83589612D01*
X129007229Y-83758029D01*
X128838812Y-84010083D01*
X128779672Y-84307400D01*
X128779672Y-84907400D01*
X128838812Y-85204717D01*
X128863991Y-85242400D01*
X128838812Y-85280083D01*
X128779672Y-85577400D01*
X128779672Y-86177400D01*
X128838812Y-86474717D01*
X128863991Y-86512400D01*
X128838812Y-86550083D01*
X128779672Y-86847400D01*
X128779672Y-87447400D01*
X128838812Y-87744717D01*
X128863991Y-87782400D01*
X128838812Y-87820083D01*
X128779672Y-88117400D01*
X128779672Y-88717400D01*
X128838812Y-89014717D01*
X129007229Y-89266771D01*
X129259283Y-89435188D01*
X129556600Y-89494328D01*
X131506600Y-89494328D01*
X131803917Y-89435188D01*
X131984161Y-89314753D01*
X132173683Y-89441388D01*
X132471000Y-89500528D01*
X133721000Y-89500528D01*
X134018317Y-89441388D01*
X134270371Y-89272971D01*
X134347252Y-89157910D01*
X134348629Y-89159971D01*
X134600683Y-89328388D01*
X134898000Y-89387528D01*
X135898000Y-89387528D01*
X136195317Y-89328388D01*
X136447371Y-89159971D01*
X136615788Y-88907917D01*
X136674928Y-88610600D01*
X136674928Y-87360600D01*
X136615788Y-87063283D01*
X136447371Y-86811229D01*
X136303562Y-86715139D01*
X136322371Y-86702571D01*
X136398000Y-86589384D01*
X136473629Y-86702571D01*
X136725683Y-86870988D01*
X137023000Y-86930128D01*
X137673000Y-86930128D01*
X137970317Y-86870988D01*
X138222371Y-86702571D01*
X138390788Y-86450517D01*
X138449928Y-86153200D01*
X138449928Y-84593200D01*
X138390788Y-84295883D01*
X138222371Y-84043829D01*
X138191498Y-84023200D01*
X138222371Y-84002571D01*
X138390788Y-83750517D01*
X138449928Y-83453200D01*
X138449928Y-81893200D01*
X138390788Y-81595883D01*
X138222371Y-81343829D01*
X137970317Y-81175412D01*
X137673000Y-81116272D01*
X137023000Y-81116272D01*
X136725683Y-81175412D01*
X136589473Y-81266425D01*
X136624128Y-81092200D01*
X136624128Y-79842200D01*
X136564988Y-79544883D01*
X136396571Y-79292829D01*
X136342013Y-79256375D01*
X136398000Y-79172584D01*
X136473629Y-79285771D01*
X136725683Y-79454188D01*
X137023000Y-79513328D01*
X137673000Y-79513328D01*
X137970317Y-79454188D01*
X138222371Y-79285771D01*
X138390788Y-79033717D01*
X138449928Y-78736400D01*
X138449928Y-77176400D01*
X138390788Y-76879083D01*
X138222371Y-76627029D01*
X138191498Y-76606400D01*
X138222371Y-76585771D01*
X138390788Y-76333717D01*
X138449928Y-76036400D01*
X138449928Y-74476400D01*
X138390788Y-74179083D01*
X138222371Y-73927029D01*
X137970317Y-73758612D01*
X137673000Y-73699472D01*
X137023000Y-73699472D01*
X136725683Y-73758612D01*
X136473629Y-73927029D01*
X136398000Y-74040216D01*
X136322371Y-73927029D01*
X136070317Y-73758612D01*
X135773000Y-73699472D01*
X135123000Y-73699472D01*
X134825683Y-73758612D01*
X134573629Y-73927029D01*
X134405212Y-74179083D01*
X134382274Y-74294400D01*
X134290971Y-74294400D01*
X134120045Y-74223600D01*
X133697555Y-74223600D01*
X133307225Y-74385280D01*
X133008480Y-74684025D01*
X132846800Y-75074355D01*
X132846800Y-75496845D01*
X133008480Y-75887175D01*
X133146705Y-76025400D01*
X131887410Y-76025400D01*
X131803917Y-75969612D01*
X131506600Y-75910472D01*
X129556600Y-75910472D01*
X129259283Y-75969612D01*
X129007229Y-76138029D01*
X128838812Y-76390083D01*
X128779672Y-76687400D01*
X128779672Y-77287400D01*
X128838812Y-77584717D01*
X128863991Y-77622400D01*
X128838812Y-77660083D01*
X128779672Y-77957400D01*
X128779672Y-78509202D01*
X128735245Y-78490800D01*
X128312755Y-78490800D01*
X127922425Y-78652480D01*
X127623680Y-78951225D01*
X127462000Y-79341555D01*
X122883528Y-79341555D01*
X122883528Y-79227400D01*
X122824388Y-78930083D01*
X122799209Y-78892400D01*
X122824388Y-78854717D01*
X122883528Y-78557400D01*
X122883528Y-77957400D01*
X122824388Y-77660083D01*
X122799209Y-77622400D01*
X122824388Y-77584717D01*
X122883528Y-77287400D01*
X122883528Y-76687400D01*
X122824388Y-76390083D01*
X122655971Y-76138029D01*
X122403917Y-75969612D01*
X122106600Y-75910472D01*
X122093600Y-75910472D01*
X122093600Y-73321946D01*
X122112446Y-73227200D01*
X122037784Y-72851846D01*
X121878832Y-72613958D01*
X121825163Y-72533637D01*
X121744842Y-72479969D01*
X120838434Y-71573560D01*
X120784763Y-71493237D01*
X120466554Y-71280616D01*
X120185946Y-71224800D01*
X120091200Y-71205954D01*
X119996454Y-71224800D01*
X119977410Y-71224800D01*
X119893917Y-71169012D01*
X119596600Y-71109872D01*
X118096600Y-71109872D01*
X117799283Y-71169012D01*
X117715790Y-71224800D01*
X117695673Y-71224800D01*
X117491328Y-71020455D01*
X117491328Y-70037800D01*
X117432188Y-69740483D01*
X117263771Y-69488429D01*
X117011717Y-69320012D01*
X116714400Y-69260872D01*
X115714400Y-69260872D01*
X115417083Y-69320012D01*
X115214400Y-69455440D01*
X115011717Y-69320012D01*
X114714400Y-69260872D01*
X113714400Y-69260872D01*
X113417083Y-69320012D01*
X113165029Y-69488429D01*
X112996612Y-69740483D01*
X112992555Y-69760880D01*
X112985171Y-69749829D01*
X112733117Y-69581412D01*
X112435800Y-69522272D01*
X111185800Y-69522272D01*
X110888483Y-69581412D01*
X110636429Y-69749829D01*
X110635246Y-69751600D01*
X101744474Y-69751600D01*
X99959634Y-67966761D01*
X99933601Y-67927800D01*
X122309672Y-67927800D01*
X122309672Y-68527800D01*
X122368812Y-68825117D01*
X122537229Y-69077171D01*
X122789283Y-69245588D01*
X123086600Y-69304728D01*
X124586600Y-69304728D01*
X124883917Y-69245588D01*
X124967410Y-69189800D01*
X125369799Y-69189800D01*
X125509429Y-69398771D01*
X125761483Y-69567188D01*
X126058800Y-69626328D01*
X127058800Y-69626328D01*
X127356117Y-69567188D01*
X127608171Y-69398771D01*
X127776588Y-69146717D01*
X127835728Y-68849400D01*
X127835728Y-67599400D01*
X127776588Y-67302083D01*
X127608171Y-67050029D01*
X127356117Y-66881612D01*
X127058800Y-66822472D01*
X126058800Y-66822472D01*
X125761483Y-66881612D01*
X125509429Y-67050029D01*
X125365256Y-67265800D01*
X124967410Y-67265800D01*
X124883917Y-67210012D01*
X124586600Y-67150872D01*
X123086600Y-67150872D01*
X122789283Y-67210012D01*
X122537229Y-67378429D01*
X122368812Y-67630483D01*
X122309672Y-67927800D01*
X99933601Y-67927800D01*
X99905963Y-67886437D01*
X99587754Y-67673816D01*
X99307146Y-67618000D01*
X99212400Y-67599154D01*
X99117654Y-67618000D01*
X96758702Y-67618000D01*
X96743752Y-67581907D01*
X96248093Y-67086248D01*
X95600484Y-66818000D01*
X94899516Y-66818000D01*
X94251907Y-67086248D01*
X93756248Y-67581907D01*
X93488000Y-68229516D01*
X90499000Y-68229516D01*
X90499000Y-63829000D01*
X194844601Y-63829000D01*
X194844600Y-134900600D01*
G04 #@! TD*
M02*
